<svg xmlns="http://www.w3.org/2000/svg" xmlns:xlink="http://www.w3.org/1999/xlink" width="257.5" height="113.317" viewBox="0 0 257.5 113.317">
  <defs>
    <clipPath id="clip-path">
      <rect id="Retângulo_109" data-name="Retângulo 109" width="257.5" height="113.317" fill="#fff"/>
    </clipPath>
  </defs>
  <g id="logoAthevaSvg" clip-path="url(#clip-path)">
    <path id="Caminho_1360" data-name="Caminho 1360" d="M20.441,8.618a18.7,18.7,0,0,1,13.772,5.091,19.3,19.3,0,0,1,5.133,14.337V56.533H29.089V50.462a15.755,15.755,0,0,1-13.855,7.2A14.576,14.576,0,0,1,4.585,53.694,14.02,14.02,0,0,1,.513,43.184,12.8,12.8,0,0,1,6.4,31.464a27.8,27.8,0,0,1,14.968-3.69,44.874,44.874,0,0,1,7.271.561V27.68A8.643,8.643,0,0,0,26.163,21a9.334,9.334,0,0,0-6.586-2.287,20.076,20.076,0,0,0-13,5.325L1.617,16.1A25.078,25.078,0,0,1,20.441,8.618Zm-2.4,39.6a9.136,9.136,0,0,0,7.441-3.454A15.276,15.276,0,0,0,28.646,35.8q-3.337-.279-6.416-.282-10.18,0-10.178,6.819a5.759,5.759,0,0,0,1.626,4.249,5.865,5.865,0,0,0,4.369,1.634Z" transform="translate(0.567 10.162)" fill="#fff"/>
    <path id="Caminho_1361" data-name="Caminho 1361" d="M50.89,50.907l3.677,9.061A20.362,20.362,0,0,1,41.14,64.731a13.431,13.431,0,0,1-10.776-4.484,18.766,18.766,0,0,1-3.847-12.609V25.781H20.1V17h6.416V2.525H38.15V17H52v8.779H38.148V46.512a6.9,6.9,0,0,0,1.746,5.325,5.966,5.966,0,0,0,4.146,1.586,11.755,11.755,0,0,0,6.85-2.516Z" transform="translate(23.764 2.985)" fill="#fff"/>
    <path id="Caminho_1362" data-name="Caminho 1362" d="M64.471,18.771a13.445,13.445,0,0,1,10.307,3.969,15.983,15.983,0,0,1,3.71,11.347v32.6H66.7V37.08a10.068,10.068,0,0,0-1.368-5.892,5.05,5.05,0,0,0-4.364-1.868,17.562,17.562,0,0,0-10.948,4.858v32.51H38.044V0H50.018V24.19A23.665,23.665,0,0,1,64.471,18.771Z" transform="translate(44.976)" fill="#fff"/>
    <path id="Caminho_1363" data-name="Caminho 1363" d="M112.393,9.163h11.461l-14.968,42.59a6.4,6.4,0,0,1-2.523,3.642,9.5,9.5,0,0,1-4.919,1.028,9.7,9.7,0,0,1-5-1.028,6.766,6.766,0,0,1-2.619-3.642L78.765,9.163H90.824l10.693,35.679Z" transform="translate(93.116 10.833)" fill="#fff"/>
    <path id="Caminho_1364" data-name="Caminho 1364" d="M120.146,8.618a18.689,18.689,0,0,1,13.77,5.091,19.308,19.308,0,0,1,5.133,14.337V56.533H128.792V50.462a15.756,15.756,0,0,1-13.855,7.2,14.572,14.572,0,0,1-10.649-3.969,14.012,14.012,0,0,1-4.065-10.509,12.8,12.8,0,0,1,5.892-11.721,27.8,27.8,0,0,1,14.968-3.69,44.872,44.872,0,0,1,7.271.561V27.68A8.631,8.631,0,0,0,125.873,21a9.332,9.332,0,0,0-6.586-2.287,20.074,20.074,0,0,0-13,5.325l-4.96-7.939a25.086,25.086,0,0,1,18.819-7.483Zm-2.4,39.6a9.135,9.135,0,0,0,7.441-3.454,15.28,15.28,0,0,0,3.164-8.967q-3.336-.28-6.414-.282-10.18,0-10.178,6.819a5.756,5.756,0,0,0,1.626,4.249,5.866,5.866,0,0,0,4.371,1.634Z" transform="translate(118.445 10.162)" fill="#fff"/>
    <path id="Caminho_1365" data-name="Caminho 1365" d="M81.666,47.477a20.353,20.353,0,0,0,12.916-4.949l4.7,8.22A27.4,27.4,0,0,1,80.9,57.659a19.7,19.7,0,0,1-15.653-6.68A25.143,25.143,0,0,1,59.428,33.84a27.364,27.364,0,0,1,5.988-17.894A19.965,19.965,0,0,1,81.752,8.614,19.262,19.262,0,0,1,94.5,12.957a14.666,14.666,0,0,1,5.215,11.908,14.058,14.058,0,0,1-3.293,9.573A12.732,12.732,0,0,1,86.282,38.22H70.374a10.354,10.354,0,0,0,11.293,9.257Zm0-29.242a10.674,10.674,0,0,0-7.441,2.99,13.953,13.953,0,0,0-4.1,8.406H83.8a5.4,5.4,0,0,0,3.976-1.4,5.02,5.02,0,0,0,1.412-3.736A5.673,5.673,0,0,0,87.1,20.058a7.988,7.988,0,0,0-5.432-1.813Z" transform="translate(70.23 10.162)" fill="#fff"/>
    <path id="Caminho_1366" data-name="Caminho 1366" d="M103.7,32.408a3.319,3.319,0,0,0-4.949-.369,26.935,26.935,0,0,1-34,0,3.308,3.308,0,0,0-4.945.343,4.087,4.087,0,0,0,.3,5.414,33.341,33.341,0,0,0,20.8,7.937,3.173,3.173,0,0,0,.436.035h.037l.362-.011.362.011h.037a3.208,3.208,0,0,0,.436-.035,33.331,33.331,0,0,0,20.8-7.937,4.077,4.077,0,0,0,.321-5.388Z" transform="translate(69.656 36.753)" fill="#fff"/>
    <path id="Caminho_1367" data-name="Caminho 1367" d="M9.666,57.982H.981V42.4H9.666v1.609H2.793v5.019H9.25v1.6H2.793v5.732H9.666Zm13.588,0V50.427A3.048,3.048,0,0,0,22.6,48.3a2.648,2.648,0,0,0-2.035-.7,3.356,3.356,0,0,0-2.685.991,5,5,0,0,0-.852,3.271v6.127H15.263V46.3H16.7l.288,1.6h.085A3.576,3.576,0,0,1,18.6,46.57a4.9,4.9,0,0,1,2.184-.479,4.422,4.422,0,0,1,3.175,1.023,4.312,4.312,0,0,1,1.065,3.25v7.619ZM36,58.2a5.383,5.383,0,0,1-4.092-1.577,6.119,6.119,0,0,1-1.492-4.379A6.788,6.788,0,0,1,31.8,47.753a4.634,4.634,0,0,1,3.74-1.662,4.4,4.4,0,0,1,3.474,1.449,5.513,5.513,0,0,1,1.279,3.8v1.119H32.25a4.645,4.645,0,0,0,1.033,3.122,3.61,3.61,0,0,0,2.781,1.065,9.406,9.406,0,0,0,3.729-.788v1.577a9.033,9.033,0,0,1-1.779.575A9.6,9.6,0,0,1,36,58.2Zm-.479-10.623a2.906,2.906,0,0,0-2.248.916,4.244,4.244,0,0,0-.98,2.536H38.4a3.867,3.867,0,0,0-.746-2.557A2.618,2.618,0,0,0,35.521,47.572Zm15.528-1.481a6.914,6.914,0,0,1,1.4.128L52.2,47.859a6.026,6.026,0,0,0-1.279-.16,3.129,3.129,0,0,0-2.429,1.151,4.21,4.21,0,0,0-1,2.866v6.265H45.721V46.3h1.46l.2,2.163h.085a5.132,5.132,0,0,1,1.566-1.758A3.527,3.527,0,0,1,51.049,46.091Zm15.538.213v1.119l-2.163.256a3.834,3.834,0,0,1,.767,2.334,3.452,3.452,0,0,1-1.172,2.738A4.728,4.728,0,0,1,60.8,53.773a5.347,5.347,0,0,1-.98-.085,1.741,1.741,0,0,0-1.13,1.5.776.776,0,0,0,.394.714,2.943,2.943,0,0,0,1.353.224h2.067a4.606,4.606,0,0,1,2.909.8,2.77,2.77,0,0,1,1.023,2.323A3.3,3.3,0,0,1,64.883,62.2a8.292,8.292,0,0,1-4.539,1.023,6.228,6.228,0,0,1-3.538-.852,2.756,2.756,0,0,1-1.236-2.408,2.7,2.7,0,0,1,.682-1.843,3.471,3.471,0,0,1,1.918-1.055,1.89,1.89,0,0,1-.757-.629,1.685,1.685,0,0,1-.3-.991,1.882,1.882,0,0,1,.341-1.119,3.585,3.585,0,0,1,1.076-.927,3.183,3.183,0,0,1-1.481-1.268,4.206,4.206,0,0,1,.586-5A4.683,4.683,0,0,1,60.9,46.091a5.93,5.93,0,0,1,1.651.213ZM57.275,59.943a1.585,1.585,0,0,0,.8,1.439,4.41,4.41,0,0,0,2.291.49,6.319,6.319,0,0,0,3.293-.671,2.025,2.025,0,0,0,1.076-1.8,1.443,1.443,0,0,0-.586-1.321,4.612,4.612,0,0,0-2.206-.362h-2.12a2.793,2.793,0,0,0-1.875.575A2.057,2.057,0,0,0,57.275,59.943Zm.959-9.9a2.377,2.377,0,0,0,.693,1.854,2.765,2.765,0,0,0,1.929.629q2.589,0,2.589-2.515a2.322,2.322,0,0,0-2.621-2.632,2.6,2.6,0,0,0-1.918.671A2.7,2.7,0,0,0,58.234,50.044Zm14.92,7.938H71.385V46.3h1.769ZM71.236,43.139a1.156,1.156,0,0,1,.3-.884,1.1,1.1,0,0,1,1.481,0,1.153,1.153,0,0,1,.309.884,1.19,1.19,0,0,1-.309.9,1.1,1.1,0,0,1-1.481,0A1.216,1.216,0,0,1,71.236,43.139ZM86.774,57.982H78.3v-1.2l6.372-9.1H78.7V46.3h7.917v1.375l-6.286,8.929h6.446Zm6.908,0H91.913V46.3h1.769ZM91.764,43.139a1.156,1.156,0,0,1,.3-.884,1.1,1.1,0,0,1,1.481,0,1.154,1.154,0,0,1,.309.884,1.19,1.19,0,0,1-.309.9,1.1,1.1,0,0,1-1.481,0A1.216,1.216,0,0,1,91.764,43.139Zm16.061,14.843V50.427a3.048,3.048,0,0,0-.65-2.131,2.648,2.648,0,0,0-2.035-.7,3.356,3.356,0,0,0-2.685.991,5,5,0,0,0-.852,3.271v6.127H99.833V46.3h1.438l.288,1.6h.085a3.577,3.577,0,0,1,1.524-1.332,4.9,4.9,0,0,1,2.184-.479,4.421,4.421,0,0,1,3.175,1.023,4.312,4.312,0,0,1,1.066,3.25v7.619ZM125.2,46.3v1.119l-2.163.256a3.83,3.83,0,0,1,.767,2.334,3.453,3.453,0,0,1-1.172,2.738,4.728,4.728,0,0,1-3.218,1.023,5.349,5.349,0,0,1-.98-.085,1.741,1.741,0,0,0-1.129,1.5.776.776,0,0,0,.394.714,2.943,2.943,0,0,0,1.353.224h2.067a4.606,4.606,0,0,1,2.909.8,2.771,2.771,0,0,1,1.023,2.323,3.3,3.3,0,0,1-1.556,2.951,8.292,8.292,0,0,1-4.539,1.023,6.229,6.229,0,0,1-3.538-.852,2.756,2.756,0,0,1-1.236-2.408,2.7,2.7,0,0,1,.682-1.843,3.471,3.471,0,0,1,1.918-1.055,1.89,1.89,0,0,1-.757-.629,1.685,1.685,0,0,1-.3-.991,1.88,1.88,0,0,1,.341-1.119,3.582,3.582,0,0,1,1.076-.927,3.183,3.183,0,0,1-1.481-1.268,4.206,4.206,0,0,1,.586-5,4.683,4.683,0,0,1,3.26-1.044,5.929,5.929,0,0,1,1.651.213Zm-9.313,13.639a1.585,1.585,0,0,0,.8,1.439,4.409,4.409,0,0,0,2.291.49,6.32,6.32,0,0,0,3.293-.671,2.026,2.026,0,0,0,1.076-1.8,1.443,1.443,0,0,0-.586-1.321,4.613,4.613,0,0,0-2.206-.362h-2.12a2.792,2.792,0,0,0-1.875.575A2.056,2.056,0,0,0,115.883,59.943Zm.959-9.9a2.377,2.377,0,0,0,.693,1.854,2.765,2.765,0,0,0,1.929.629q2.589,0,2.589-2.515a2.322,2.322,0,0,0-2.621-2.632,2.6,2.6,0,0,0-1.918.671A2.7,2.7,0,0,0,116.842,50.044Zm30.171,7.938h-8.684V42.4h8.684v1.609H140.14v5.019H146.6v1.6H140.14v5.732h6.873Zm13.546-1.566h-.1A4.157,4.157,0,0,1,156.8,58.2a4.352,4.352,0,0,1-3.57-1.566,6.916,6.916,0,0,1-1.268-4.454,7.012,7.012,0,0,1,1.279-4.486,4.3,4.3,0,0,1,3.559-1.6,4.247,4.247,0,0,1,3.644,1.726h.139l-.075-.842-.043-.821V41.4h1.769v16.58h-1.439Zm-3.538.3a3.213,3.213,0,0,0,2.621-.98,4.981,4.981,0,0,0,.821-3.186v-.373a5.8,5.8,0,0,0-.831-3.538A3.113,3.113,0,0,0,157,47.572a2.717,2.717,0,0,0-2.387,1.215,6.016,6.016,0,0,0-.821,3.41,5.764,5.764,0,0,0,.821,3.378A2.778,2.778,0,0,0,157.021,56.714ZM170.056,46.3V53.88a3.048,3.048,0,0,0,.65,2.131,2.648,2.648,0,0,0,2.035.7,3.3,3.3,0,0,0,2.675-1,5.03,5.03,0,0,0,.852-3.271V46.3h1.769V57.982h-1.46l-.256-1.566h-.1a3.519,3.519,0,0,1-1.513,1.321,5.031,5.031,0,0,1-2.195.458,4.485,4.485,0,0,1-3.2-1.012,4.323,4.323,0,0,1-1.055-3.239V46.3ZM188.865,58.2a5.01,5.01,0,0,1-3.932-1.556,6.458,6.458,0,0,1-1.385-4.422,6.636,6.636,0,0,1,1.406-4.529,5.1,5.1,0,0,1,4.028-1.6,7.987,7.987,0,0,1,1.684.181,5.542,5.542,0,0,1,1.321.426l-.544,1.5a7.948,7.948,0,0,0-1.279-.384,5.532,5.532,0,0,0-1.225-.16q-3.559,0-3.559,4.539a5.43,5.43,0,0,0,.863,3.3,3.036,3.036,0,0,0,2.579,1.151,7.869,7.869,0,0,0,2.994-.628v1.566A6.379,6.379,0,0,1,188.865,58.2Zm15.315-.213-.352-1.662h-.085A4.957,4.957,0,0,1,202,57.812a5.336,5.336,0,0,1-2.163.384,3.921,3.921,0,0,1-2.728-.9,3.274,3.274,0,0,1-.98-2.547q0-3.537,5.658-3.708l1.982-.064v-.724a2.922,2.922,0,0,0-.6-2.025,2.4,2.4,0,0,0-1.886-.661,7.707,7.707,0,0,0-3.3.895l-.544-1.353a8.341,8.341,0,0,1,1.886-.735,8.251,8.251,0,0,1,2.067-.266,4.427,4.427,0,0,1,3.09.927,3.858,3.858,0,0,1,1.012,2.973v7.97Zm-4-1.247a3.57,3.57,0,0,0,2.589-.906,3.34,3.34,0,0,0,.948-2.536V52.239l-1.769.074a6.414,6.414,0,0,0-3.047.661,1.966,1.966,0,0,0-.927,1.8,1.831,1.831,0,0,0,.575,1.46A2.432,2.432,0,0,0,200.184,56.735Zm15.134,0a6.259,6.259,0,0,0,.906-.064,6.533,6.533,0,0,0,.693-.149v1.353a3.135,3.135,0,0,1-.852.224,5.927,5.927,0,0,1-1,.1q-3.389,0-3.389-3.57V47.678H210v-.852l1.673-.735.746-2.493h1.023V46.3h3.388v1.375h-3.388v6.873a2.364,2.364,0,0,0,.5,1.62A1.743,1.743,0,0,0,215.318,56.735Zm8.112,1.247h-1.77V46.3h1.77Zm-1.918-14.843a1.149,1.149,0,0,1,.3-.884,1.095,1.095,0,0,1,1.48,0,1.149,1.149,0,0,1,.31.884,1.185,1.185,0,0,1-.31.9,1.1,1.1,0,0,1-1.48,0A1.208,1.208,0,0,1,221.512,43.139Zm18.149,8.993a6.457,6.457,0,0,1-1.44,4.465,5.071,5.071,0,0,1-3.974,1.6,5.261,5.261,0,0,1-2.78-.735,4.858,4.858,0,0,1-1.877-2.11,7.378,7.378,0,0,1-.659-3.218,6.413,6.413,0,0,1,1.427-4.443,5.041,5.041,0,0,1,3.963-1.6,4.928,4.928,0,0,1,3.891,1.63A6.406,6.406,0,0,1,239.661,52.132Zm-8.9,0a5.534,5.534,0,0,0,.9,3.41,3.552,3.552,0,0,0,5.263.011,5.525,5.525,0,0,0,.906-3.42,5.388,5.388,0,0,0-.906-3.378,3.145,3.145,0,0,0-2.654-1.161,3.111,3.111,0,0,0-2.621,1.14A5.489,5.489,0,0,0,230.762,52.132Zm22.4,5.85V50.427a3.054,3.054,0,0,0-.65-2.131,2.652,2.652,0,0,0-2.036-.7,3.352,3.352,0,0,0-2.684.991,5,5,0,0,0-.853,3.271v6.127h-1.77V46.3h1.44l.286,1.6h.087a3.568,3.568,0,0,1,1.523-1.332,4.9,4.9,0,0,1,2.184-.479,4.424,4.424,0,0,1,3.175,1.023,4.317,4.317,0,0,1,1.065,3.25v7.619Z" transform="translate(1.16 48.946)" fill="#fff"/>
  </g>
</svg>
