<svg xmlns="http://www.w3.org/2000/svg" width="129.124" height="129.125" viewBox="0 0 129.124 129.125">
  <g id="btn-whats" transform="translate(-5203.579 -3584.073)">
    <g id="Caminho_1408" data-name="Caminho 1408" transform="translate(5214.096 3594.073)" fill="#30cf7f">
      <path d="M 1.4976806640625 114.1251373291016 C 0.7073206901550293 114.1251373291016 0.008940691128373146 114.0520324707031 -0.6373792886734009 113.9016189575195 C -1.810939311981201 113.6284942626953 -2.810239315032959 113.0982360839844 -3.607499361038208 112.3255157470703 C -4.503599166870117 111.45751953125 -5.092759132385254 110.3387145996094 -5.357559204101562 109.0011978149414 C -5.496879100799561 108.297477722168 -5.546659469604492 107.5306396484375 -5.509719371795654 106.6568374633789 C -5.461299419403076 105.5114974975586 -5.256919384002686 104.1131973266602 -4.884879112243652 102.3819732666016 C -4.268519401550293 99.51389312744141 -3.244839191436768 95.97373962402344 -2.254879236221313 92.55011749267578 C -1.476579308509827 89.85847473144531 -0.671759307384491 87.07517242431641 -0.1103193089365959 84.76831817626953 C 0.4511528015136719 82.46141815185547 0.5935717225074768 81.32920837402344 0.6272189617156982 80.84084320068359 L 0.5420007109642029 80.54867553710938 C 0.02510069124400616 78.77645874023438 -0.5445393323898315 77.12405395507812 -1.147639274597168 75.37461853027344 C -3.10435938835144 69.69869995117188 -5.127699375152588 63.82951736450195 -5.127699375152588 54.36755752563477 C -5.127699375152588 46.35519790649414 -3.557339191436768 38.57983779907227 -0.4602593183517456 31.25749588012695 C 1.028100728988647 27.7386360168457 2.870000600814819 24.34509658813477 5.01430082321167 21.17109680175781 C 7.137360572814941 18.02855682373047 9.575380325317383 15.07361602783203 12.26066112518311 12.38835620880127 C 14.94592094421387 9.703096389770508 17.90085983276367 7.265056133270264 21.04339981079102 5.141996383666992 C 24.21738052368164 2.997696161270142 27.61094093322754 1.15579617023468 31.12977981567383 -0.3325638473033905 C 38.45212173461914 -3.429643869400024 46.22748184204102 -5.000003814697266 54.23984146118164 -5.000003814697266 C 62.25220108032227 -5.000003814697266 70.02755737304688 -3.429643869400024 77.34992218017578 -0.3325638473033905 C 80.86875915527344 1.15579617023468 84.26229858398438 2.997696161270142 87.43630218505859 5.141996383666992 C 90.57884216308594 7.265056133270264 93.53378295898438 9.703096389770508 96.21903991699219 12.38835620880127 C 98.90430450439453 15.07361602783203 101.3423385620117 18.02855682373047 103.4654006958008 21.17109680175781 C 105.6097030639648 24.34509658813477 107.4515991210938 27.7386360168457 108.9399642944336 31.25747680664062 C 112.0370407104492 38.57983779907227 113.6073989868164 46.35519790649414 113.6073989868164 54.36755752563477 C 113.6073989868164 62.37991714477539 112.0370407104492 70.1552734375 108.9399642944336 77.47761535644531 C 107.4515991210938 80.9964599609375 105.6097030639648 84.3900146484375 103.4654006958008 87.56399536132812 C 101.3423385620117 90.70655822753906 98.90430450439453 93.6614990234375 96.21903991699219 96.34675598144531 C 93.53378295898438 99.03201293945312 90.57884216308594 101.4700393676758 87.43630218505859 103.5930938720703 C 84.26229858398438 105.737419128418 80.86875915527344 107.5793151855469 77.34992218017578 109.0676574707031 C 70.02755737304688 112.1647567749023 62.25220108032227 113.7351150512695 54.23984146118164 113.7351150512695 C 48.7205810546875 113.7351150512695 43.53689956665039 113.0734939575195 38.83277893066406 111.7686386108398 C 35.34469223022461 110.8010864257812 32.09280776977539 109.4737548828125 29.14982223510742 107.8173828125 C 28.55876731872559 107.8878021240234 27.43603706359863 108.0756378173828 25.40532112121582 108.5673141479492 C 23.16924095153809 109.1087188720703 20.55848121643066 109.8350524902344 17.79444122314453 110.6040573120117 C 10.1494607925415 112.7309799194336 4.884920597076416 114.1251373291016 1.4976806640625 114.1251373291016 Z" stroke="none"/>
      <path d="M 54.23985290527344 -7.62939453125e-06 C 24.21347045898438 -7.62939453125e-06 -0.127716064453125 24.3411865234375 -0.127716064453125 54.3675422668457 C -0.127716064453125 65.77756500244141 3.086639404296875 71.41604614257812 5.342018127441406 79.14866638183594 C 7.456619262695312 82.2275390625 -2.599357604980469 106.3409729003906 -0.127716064453125 108.7351150512695 C 2.192298889160156 110.9837036132812 24.01481628417969 102.7764892578125 29.68112945556641 102.7764892578125 C 30.19282531738281 102.7764892578125 30.57353210449219 102.8435668945312 30.79544830322266 102.9912567138672 C 35.62842559814453 105.8909225463867 43.14449691772461 108.7351150512695 54.23985290527344 108.7351150512695 C 84.26621246337891 108.7351150512695 108.6073989868164 84.3939208984375 108.6073989868164 54.3675422668457 C 108.6073989868164 24.3411865234375 84.26621246337891 -7.62939453125e-06 54.23985290527344 -7.62939453125e-06 M 54.23985290527344 -10.00000762939453 C 89.73223876953125 -10.00000762939453 118.6073989868164 18.87516021728516 118.6073989868164 54.3675422668457 C 118.6073989868164 89.85994720458984 89.73223876953125 118.7351150512695 54.23985290527344 118.7351150512695 C 44.38676452636719 118.7351150512695 35.66633605957031 116.8143081665039 28.26946258544922 113.0208511352539 C 25.99289703369141 113.5130386352539 21.98942565917969 114.6268463134766 19.13459014892578 115.4210891723633 C 10.8507080078125 117.7257843017578 5.529899597167969 119.1251373291016 1.497665405273438 119.1251373291016 C -2.001884460449219 119.1251373291016 -4.890380859375 118.0453262329102 -7.087547302246094 115.9156875610352 C -12.65631103515625 110.5215454101562 -10.54914855957031 103.2342834472656 -7.058097839355469 91.16120910644531 C -6.203346252441406 88.20515441894531 -4.843063354492188 83.50086212158203 -4.460662841796875 81.26910400390625 C -4.909835815429688 79.79452514648438 -5.394706726074219 78.39630889892578 -5.874618530273438 77.00425720214844 C -7.868171691894531 71.22151947021484 -10.12771606445312 64.667236328125 -10.12771606445312 54.3675422668457 C -10.12771606445312 18.87516021728516 18.74745178222656 -10.00000762939453 54.23985290527344 -10.00000762939453 Z" stroke="none" fill="#000"/>
    </g>
    <path id="whatsapp-logo" d="M114.26,90.685,96.6,81.855a4.415,4.415,0,0,0-4.415.276L84.08,87.539a22.377,22.377,0,0,1-8.83-8.83L80.658,70.6a4.415,4.415,0,0,0,.276-4.415L72.1,48.53a4.415,4.415,0,0,0-3.968-2.456A22.074,22.074,0,0,0,46.063,68.148,48.618,48.618,0,0,0,94.625,116.71,22.074,22.074,0,0,0,116.7,94.636a4.415,4.415,0,0,0-2.439-3.951Zm-19.635,17.2A39.777,39.777,0,0,1,54.893,68.148a13.244,13.244,0,0,1,10.645-12.99L71.873,67.85l-5.392,8.024a4.415,4.415,0,0,0-.4,4.144A31.163,31.163,0,0,0,82.717,96.656a4.415,4.415,0,0,0,4.183-.364l8.062-5.375,12.692,6.335A13.244,13.244,0,0,1,94.625,107.88ZM81.381,24a57.392,57.392,0,0,0-50.67,84.366l-6.263,18.79a8.83,8.83,0,0,0,11.169,11.169l18.79-6.263A57.392,57.392,0,1,0,81.381,24Zm0,105.954a48.491,48.491,0,0,1-24.314-6.517,4.415,4.415,0,0,0-3.609-.37l-20.639,6.887L39.7,109.315a4.415,4.415,0,0,0-.364-3.609,48.562,48.562,0,1,1,42.045,24.248Z" transform="translate(5186.811 3567.215)" fill="#fff"/>
  </g>
</svg>
