<svg xmlns="http://www.w3.org/2000/svg" xmlns:xlink="http://www.w3.org/1999/xlink" width="223.392" height="431.529" viewBox="0 0 223.392 431.529">
  <defs>
    <clipPath id="clip-path">
      <path id="Caminho_712" data-name="Caminho 712" d="M8288.46,5397.254a325.151,325.151,0,0,0,75,6.615c3.785-.106,8.055-.514,10.424-3.467,1.686-2.1,1.946-4.968,2.234-7.648a113.739,113.739,0,0,1,3.15-17.016,21.633,21.633,0,0,1,3.244-7.657c3.857-5.106,11.031-6.319,15.98-10.375,6.1-5,7.926-13.421,9.371-21.177,1.9-10.23,3.8-20.833,1.329-30.94a50.98,50.98,0,0,0-4.2-10.846c-8.022-15.832-21.463-29.06-37.873-35.824s-35.709-6.746-51.667,1.023a69.126,69.126,0,0,0-18.3,13.279c-13.108,13.028-21.67,30.272-25.54,48.343s-3.19,36.943.543,55.043c1.007,4.882,2.288,9.842,5.136,13.933s7.58,7.2,12.552,6.837" transform="translate(-8269.017 -5253.974)" fill="none"/>
    </clipPath>
  </defs>
  <g id="character1" transform="translate(-8188.608 -5207.366)">
    <g id="Grupo_1396" data-name="Grupo 1396" transform="translate(8188.608 5207.366)">
      <g id="Grupo_1395" data-name="Grupo 1395" transform="translate(0)">
        <g id="Grupo_1351" data-name="Grupo 1351" transform="translate(47.529 375.558)">
          <path id="Caminho_672" data-name="Caminho 672" d="M8318.754,6149.566c-5.454,12.345-10.492,25.952-7.274,39.059a15.083,15.083,0,0,0,9.714,11.943,21.312,21.312,0,0,0,12.066,1.808c5.285-.959,9.783-4.66,12.722-9.157s4.5-9.749,5.669-14.992a121.369,121.369,0,0,0,2.861-22.879,110.38,110.38,0,0,0-26.371-4.2c-3.363-.123-7.038-.2-9.609-2.373" transform="translate(-8309.267 -6147.862)" fill="#071f56"/>
          <path id="Caminho_673" data-name="Caminho 673" d="M8328.5,6202.462a24.366,24.366,0,0,1-9.582-2.165,18.429,18.429,0,0,1-5.284-3.221c-2.373-2.163-4.095-5.372-5.119-9.537-3.381-13.767,2.018-27.776,7.342-39.828l.445.2,1.2-1.417c2.187,1.85,5.454,1.967,8.614,2.081l.266.01a111.592,111.592,0,0,1,26.657,4.245l.895.257-.027.928a122.8,122.8,0,0,1-2.892,23.1c-1.083,4.852-2.623,10.473-5.834,15.386-3.406,5.211-8.33,8.739-13.509,9.679A17.75,17.75,0,0,1,8328.5,6202.462Zm-10.8-53c-5.049,11.51-9.989,24.759-6.86,37.5.908,3.7,2.392,6.5,4.408,8.339a16.119,16.119,0,0,0,4.615,2.791,19.873,19.873,0,0,0,11.381,1.729c4.537-.823,8.886-3.97,11.936-8.635,3-4.592,4.466-9.957,5.5-14.6a120.524,120.524,0,0,0,2.8-21.722,109.155,109.155,0,0,0-25.188-3.9l-.264-.01C8323.283,6150.864,8320.246,6150.755,8317.694,6149.466Z" transform="translate(-8307.46 -6146.491)"/>
        </g>
        <g id="Grupo_1352" data-name="Grupo 1352" transform="translate(8.316 373.756)">
          <path id="Caminho_674" data-name="Caminho 674" d="M8247.1,6146.488c1.975,6.462,3.92,13,4.41,19.739s-.584,13.784-4.249,19.46-10.221,9.727-16.961,9.249c-6.47-.458-12.216-5.02-15.141-10.808s-3.3-12.61-2.184-19,3.644-12.437,6.31-18.351a2.438,2.438,0,0,1,3.1-1.762l25.688,2.116" transform="translate(-8211.2 -6143.782)" fill="#071f56"/>
          <path id="Caminho_675" data-name="Caminho 675" d="M8229.575,6194.373c-.386,0-.77-.013-1.154-.04-6.511-.461-12.839-4.96-16.124-11.463-3.529-6.987-3.2-14.593-2.294-19.744,1.177-6.716,3.919-13.141,6.4-18.636a3.574,3.574,0,0,1,4.291-2.462l25.688,2.117-.019.224.089-.027c1.849,6.048,3.943,12.9,4.458,20,.4,5.463-.049,13.4-4.437,20.2C8242.553,6190.609,8236.023,6194.373,8229.575,6194.373Zm-9.707-49.994a1.361,1.361,0,0,0-.682.127,2.57,2.57,0,0,0-.606.969c-2.417,5.362-5.091,11.623-6.22,18.064-.84,4.794-1.162,11.852,2.073,18.252,2.912,5.767,8.469,9.752,14.156,10.155,5.948.424,12.186-2.993,15.871-8.7,4.028-6.238,4.432-13.626,4.061-18.724-.459-6.314-2.247-12.534-3.945-18.122l-24.082-1.984C8220.312,6144.4,8220.086,6144.379,8219.868,6144.379Z" transform="translate(-8209.402 -6141.985)"/>
        </g>
        <g id="Grupo_1353" data-name="Grupo 1353" transform="translate(8.927 201.677)">
          <path id="Caminho_676" data-name="Caminho 676" d="M8254.518,5800.826a292.666,292.666,0,0,1,10.562-65.489c1.528-5.446,3.552-11.3,8.339-14.316a22.637,22.637,0,0,1,6.576-2.47c12.592-3.2,25.771-5.1,38.581-2.934s25.281,8.851,32.231,19.828c3.133,4.948,5.05,10.56,6.688,16.183a198.337,198.337,0,0,1,5.795,83.921c-1.028,7.016-2.791,14.589-8.347,18.995-2.92,2.315-6.579,3.475-10.2,4.339a82.726,82.726,0,0,1-36.274.449,278.529,278.529,0,0,1-4.63,33.272c-.388,1.929-.874,3.991-2.345,5.3-1.651,1.466-4.07,1.57-6.278,1.566a227.535,227.535,0,0,1-35.321-2.834,10.279,10.279,0,0,1-3.535-1.021c-3.509-2.01-3.517-6.979-3.075-11-1.415,2.815,1.186,6.932-1.111,9.089a5.277,5.277,0,0,1-3.008,1.09,56.574,56.574,0,0,1-30.578-4.554,8.347,8.347,0,0,1-2.887-1.873,7.558,7.558,0,0,1-1.559-4.113,43.35,43.35,0,0,1,.365-10.975c1.555-12.591,3.761-25.249,8.788-36.9s13.126-22.322,24.235-28.449a23.249,23.249,0,0,0,5.564-3.606c1.561-1.578,2.527-3.99,1.707-6.052" transform="translate(-8212.724 -5713.486)" fill="#fefff0"/>
          <path id="Caminho_677" data-name="Caminho 677" d="M8293.535,5898.857h-.116a229.32,229.32,0,0,1-35.509-2.849,11.348,11.348,0,0,1-3.94-1.165,6.739,6.739,0,0,1-2.453-2.409,4.354,4.354,0,0,1-.32.334,6.329,6.329,0,0,1-3.671,1.4,58.146,58.146,0,0,1-31.23-4.651,9.523,9.523,0,0,1-3.285-2.166,8.706,8.706,0,0,1-1.85-4.753,44.359,44.359,0,0,1,.364-11.277c1.423-11.535,3.592-24.978,8.876-37.226,3.97-9.2,11.488-21.705,24.756-29.023.331-.182.665-.361,1-.541a17.463,17.463,0,0,0,4.294-2.858,5.978,5.978,0,0,0,1.548-2.69l-.469-.021a294.031,294.031,0,0,1,10.606-65.757c1.557-5.544,3.651-11.732,8.853-15a23.6,23.6,0,0,1,6.919-2.617c15.413-3.92,27.831-4.858,39.075-2.953,14.342,2.428,26.386,9.852,33.043,20.367,3.293,5.2,5.226,11,6.825,16.488a200.191,200.191,0,0,1,5.831,84.429c-1.048,7.155-2.913,15.1-8.788,19.758-3.209,2.545-7.194,3.737-10.668,4.565a84.174,84.174,0,0,1-35.468.728,281.165,281.165,0,0,1-4.54,32.065c-.438,2.18-1.01,4.436-2.725,5.957C8298.572,5898.7,8295.905,5898.857,8293.535,5898.857ZM8253.4,5876.33l-.726,6.608c-.594,5.4.2,8.521,2.481,9.83a9.189,9.189,0,0,0,3.127.879,227.109,227.109,0,0,0,35.137,2.818c2.051,0,4.158-.091,5.48-1.264,1.163-1.031,1.595-2.782,1.967-4.639a278.259,278.259,0,0,0,4.61-33.129l.106-1.36,1.335.284a81.7,81.7,0,0,0,35.747-.442c3.22-.768,6.894-1.858,9.738-4.113,5.22-4.139,6.925-11.539,7.906-18.231a197.791,197.791,0,0,0-5.761-83.413c-1.55-5.321-3.416-10.927-6.549-15.877-6.295-9.942-17.749-16.973-31.422-19.288-10.9-1.849-23.007-.923-38.087,2.914a21.646,21.646,0,0,0-6.234,2.324c-4.481,2.819-6.387,8.512-7.822,13.626a291.615,291.615,0,0,0-10.363,62.186l.043-.018a7,7,0,0,1-1.969,7.336,19.469,19.469,0,0,1-4.863,3.285c-.325.174-.651.349-.973.527-9.891,5.455-18.313,15.354-23.717,27.876-5.165,11.971-7.295,25.2-8.7,36.571a41.877,41.877,0,0,0-.367,10.671,6.282,6.282,0,0,0,1.267,3.476,7.4,7.4,0,0,0,2.487,1.578,55.716,55.716,0,0,0,29.929,4.457,4.328,4.328,0,0,0,2.345-.775c.762-.716.683-1.9.463-3.753a8.673,8.673,0,0,1,.4-5Z" transform="translate(-8210.931 -5711.682)"/>
        </g>
        <g id="Grupo_1356" data-name="Grupo 1356" transform="translate(71.948 226.652)">
          <g id="Grupo_1354" data-name="Grupo 1354" transform="translate(1.346 0.816)">
            <path id="Caminho_678" data-name="Caminho 678" d="M8420.538,5776.174c3.116,6.3,5.564,10.479,8.218,17.259-.43,14.038-.859,25.22-1.9,39.707-18.382-1.146-36.763.563-54.965-2.181.253-18.556,1.077-35.4,2.074-54.224,15.6-.111,32.086.064,47.688-.046" transform="translate(-8371.888 -5776.174)" fill="#3564da"/>
          </g>
          <g id="Grupo_1355" data-name="Grupo 1355">
            <path id="Caminho_679" data-name="Caminho 679" d="M8426.065,5833.325l-1.315-.082c-7.142-.445-14.418-.457-21.455-.469-11.031-.019-22.437-.038-33.625-1.725l-1.147-.173.015-1.161c.257-18.769,1.092-35.685,2.077-54.275l.066-1.251,1.253-.009c7.8-.056,15.946-.039,23.828-.023s16.055.033,23.858-.023l0,.271.089-.044c.846,1.71,1.643,3.265,2.406,4.755a126.134,126.134,0,0,1,5.858,12.609l.1.253-.009.272c-.459,15-.9,25.785-1.906,39.761Zm-54.851-4.739c10.631,1.492,21.531,1.51,32.085,1.527,6.646.011,13.506.022,20.3.4.932-13.222,1.357-23.714,1.8-38.07a125.381,125.381,0,0,0-5.648-12.111c-.578-1.125-1.173-2.288-1.794-3.524-7.3.042-14.866.027-22.2.013-7.452-.014-15.146-.029-22.551.015C8372.271,5794.521,8371.482,5810.748,8371.215,5828.586Z" transform="translate(-8368.522 -5774.134)"/>
          </g>
        </g>
        <g id="Grupo_1358" data-name="Grupo 1358" transform="translate(41.873 207.558)">
          <path id="Caminho_681" data-name="Caminho 681" d="M8323.182,5732.159c-2.1-3.754-8.043-3.477-11.189-.542s-4.219,7.408-5.142,11.609q-5.082,23.12-10.162,46.24a106.173,106.173,0,0,1,16.8,13.123c.929-15.575,1.862-31.193,4.607-46.552a199.4,199.4,0,0,1,5.844-24" transform="translate(-8295.34 -5728.183)" fill="#fefff0"/>
          <path id="Caminho_682" data-name="Caminho 682" d="M8312.506,5803.445l-1.867-1.789a105.038,105.038,0,0,0-16.612-12.974l-.711-.448,10.343-47.062c.875-3.979,1.962-8.932,5.5-12.227a9.982,9.982,0,0,1,8.067-2.453,6.706,6.706,0,0,1,4.98,3.286l-.63.352,1.487.461a199.274,199.274,0,0,0-5.809,23.858c-2.736,15.309-3.679,31.121-4.591,46.413Zm-16.493-16.335a107.571,107.571,0,0,1,14.411,11.071c.874-14.567,1.863-29.554,4.473-44.15a201.494,201.494,0,0,1,5.62-23.308l-.4.225a4.359,4.359,0,0,0-3.261-2.09,7.611,7.611,0,0,0-6.066,1.838c-2.765,2.578-3.8,6.5-4.791,10.991Z" transform="translate(-8293.315 -5726.389)"/>
        </g>
        <g id="Grupo_1359" data-name="Grupo 1359" transform="translate(131.808 205.565)">
          <path id="Caminho_683" data-name="Caminho 683" d="M8544.556,5728.954c-9.56-6.11-9.918-4.677-15.079-3.745s-9.027,7.159-8.129,12.325a15.565,15.565,0,0,0,1.646,4.231,275.107,275.107,0,0,1,24.221,70.9l32.4-15.827a3.924,3.924,0,0,0,2.215-1.915,3.831,3.831,0,0,0-.187-2.346,129.739,129.739,0,0,0-6.521-17.183c-7.855-16.959-19.262-32-30.854-46.657" transform="translate(-8520.015 -5723.181)" fill="#fefff0"/>
          <path id="Caminho_684" data-name="Caminho 684" d="M8544.532,5812.646l-.3-1.53a273.531,273.531,0,0,0-24.114-70.588,16.48,16.48,0,0,1-1.757-4.563c-1.045-6.013,3.376-12.675,9.1-13.708.709-.128,1.325-.266,1.886-.392,4.024-.9,5.836-.943,14.05,4.305l-.061.1.062-.049c11.338,14.338,23.069,29.77,31,46.9a131.422,131.422,0,0,1,6.584,17.341,4.942,4.942,0,0,1,.17,3.087,5.01,5.01,0,0,1-2.819,2.593Zm-12.023-88.846a12.006,12.006,0,0,0-2.642.4c-.59.132-1.238.277-1.983.412-4.354.786-7.969,6.309-7.162,10.943a14.186,14.186,0,0,0,1.5,3.831,275.985,275.985,0,0,1,24.056,69.744l31-15.145c.719-.352,1.437-.736,1.612-1.235a3,3,0,0,0-.2-1.607,129.171,129.171,0,0,0-6.463-17.023c-7.782-16.8-19.338-32.031-30.531-46.193C8536.576,5724.678,8534.405,5723.8,8532.509,5723.8Z" transform="translate(-8518.21 -5721.404)"/>
        </g>
        <g id="Grupo_1360" data-name="Grupo 1360" transform="translate(25.515 267.139)">
          <path id="Caminho_685" data-name="Caminho 685" d="M8272,5881c-.611,7.574-9.689,11.519-13.672,17.991a22.563,22.563,0,0,0-2.682,14.758c.638,4.77,2.744,9.734,6.978,12.023,2.639,1.427,5.763,1.633,8.76,1.5a12.639,12.639,0,0,0,5.952-1.417,5.334,5.334,0,0,0,2.779-5.119c2.48.632,5.422,1.163,7.339-.532,1.317-1.165,1.7-3.037,1.951-4.778a72.43,72.43,0,0,0-.188-21.633Z" transform="translate(-8254.207 -5878.75)" fill="#fefff0"/>
          <path id="Caminho_686" data-name="Caminho 686" d="M8268.087,5925.126a16.516,16.516,0,0,1-7.827-1.676c-4.02-2.174-6.787-6.883-7.595-12.917a23.726,23.726,0,0,1,2.849-15.544,35.026,35.026,0,0,1,6.338-6.992c3.51-3.237,6.824-6.293,7.16-10.469l.175-2.15,19.339,14.366.078.481a73.453,73.453,0,0,1,.19,21.991c-.29,2.04-.774,4.119-2.343,5.505-2.028,1.8-4.9,1.559-6.957,1.14a7,7,0,0,1-3.34,4.641,13.788,13.788,0,0,1-6.512,1.586C8269.164,5925.11,8268.641,5925.126,8268.087,5925.126Zm2.956-45.387c-1.1,4.054-4.383,7.079-7.568,10.017a33.267,33.267,0,0,0-5.923,6.487,21.331,21.331,0,0,0-2.516,13.973c.333,2.492,1.621,8.565,6.361,11.13,2.638,1.426,5.906,1.457,8.136,1.353a11.656,11.656,0,0,0,5.395-1.25,4.188,4.188,0,0,0,2.212-3.9l-.284-1.794,1.761.448c2.4.611,4.813,1,6.251-.269,1.037-.917,1.348-2.572,1.559-4.05a71.076,71.076,0,0,0-.11-20.8Z" transform="translate(-8252.412 -5875.378)"/>
        </g>
        <g id="Grupo_1361" data-name="Grupo 1361" transform="translate(157.951 276.326)">
          <path id="Caminho_687" data-name="Caminho 687" d="M8586.82,5919.045c-.689,12.409-.541,26.056,7.026,35.915,5.565,7.252,14.473,11.087,23.253,13.633,2.782.806,5.988,1.457,8.407-.137s.144-4.668-.6-6.635a19.827,19.827,0,0,0,13.008,11.468,8.092,8.092,0,0,0,5.521-.114,7.922,7.922,0,0,0,3.087-3.012c4.507-6.993,3.614-16.354.139-23.913s-9.177-13.817-14.337-20.343-10.037-14.986-11.209-23.222c-11.108,4.913-22.795,11.447-33.9,16.36" transform="translate(-8585.367 -5900.952)" fill="#fefff0"/>
          <path id="Caminho_688" data-name="Caminho 688" d="M8639.043,5972.315a12.5,12.5,0,0,1-3.222-.472,21.02,21.02,0,0,1-10.167-6.363,3.565,3.565,0,0,1-1.275,1.373c-2.793,1.842-6.318,1.18-9.4.287-7.225-2.094-17.559-5.829-23.869-14.053-7.633-9.944-8.007-23.52-7.271-36.71l1.6.089-.493-1.116c5.527-2.444,11.309-5.348,16.9-8.155,5.615-2.82,11.423-5.736,17-8.205l1.445-.639.224,1.565c1.325,9.319,7.438,18.19,10.962,22.648.966,1.222,1.95,2.433,2.936,3.646,4.259,5.242,8.663,10.664,11.55,16.939,4.153,9.032,4.072,18.4-.219,25.061a8.868,8.868,0,0,1-3.581,3.444A7.184,7.184,0,0,1,8639.043,5972.315Zm-14.812-13.548a18.66,18.66,0,0,0,12.211,10.765,6.8,6.8,0,0,0,4.7-.039,6.643,6.643,0,0,0,2.595-2.58c3.846-5.968,3.867-14.478.057-22.764-2.76-6-7.067-11.3-11.233-16.432-.991-1.221-1.982-2.44-2.954-3.67-3.481-4.4-9.387-12.956-11.193-22.241-5.1,2.306-10.374,4.956-15.493,7.526-5.524,2.775-11.236,5.643-16.735,8.085-.641,12.44-.159,25.108,6.828,34.212,5.884,7.667,15.737,11.212,22.638,13.212,2.554.741,5.432,1.32,7.416.014.913-.6.619-1.618-.436-3.818-.239-.5-.464-.972-.624-1.4Z" transform="translate(-8583.582 -5898.35)"/>
        </g>
        <g id="Grupo_1364" data-name="Grupo 1364" transform="translate(78.703 231.966)">
          <g id="Grupo_1362" data-name="Grupo 1362" transform="translate(1.361 1.329)">
            <path id="Caminho_689" data-name="Caminho 689" d="M8390.617,5793.1c-.732,13.232-1.465,26.465-1.8,40.979,13.945.568,27.891,1.137,42.182,1.312.021-9.807.576-19.613.811-30.776a98.755,98.755,0,0,1-5.314-12.957s-.074-.445-.1-.521q-17.9-.678-35.822-.176l.063,2.362" transform="translate(-8388.816 -5790.747)" fill="#071f56"/>
          </g>
          <g id="Grupo_1363" data-name="Grupo 1363">
            <path id="Caminho_690" data-name="Caminho 690" d="M8430.284,5834.745l-1.345-.017c-14.311-.176-28.5-.754-42.22-1.313l-1.306-.053.03-1.307c.337-14.537,1.081-28,1.8-41.022h.013l-.092-3.36,1.329-.037c11.91-.333,23.992-.275,35.91.176l.957.036.27.919c.021.071.08.393.111.567a97.577,97.577,0,0,0,5.215,12.694l.145.293-.007.326c-.1,4.548-.245,8.871-.389,13.052-.21,6.121-.409,11.9-.421,17.7Zm-42.148-3.935c12.865.523,26.131,1.053,39.5,1.24.037-5.39.222-10.771.417-16.441.141-4.072.285-8.279.381-12.691a100.3,100.3,0,0,1-5.124-12.482c-11.092-.4-22.318-.459-33.406-.175l.028,1.032h-.031C8389.2,5803.867,8388.483,5816.856,8388.136,5830.811Z" transform="translate(-8385.414 -5787.424)"/>
          </g>
        </g>
        <g id="Grupo_1365" data-name="Grupo 1365" transform="translate(51.658 319.739)">
          <path id="Caminho_691" data-name="Caminho 691" d="M8326.479,6007.478a15.265,15.265,0,0,1,18.241,20.747,9.644,9.644,0,0,1-1.872,2.925,12.189,12.189,0,0,1-2.358,1.778,28.458,28.458,0,0,1-10.768,4.258,15.871,15.871,0,0,1-11.167-2.268,1.8,1.8,0,0,1-.666-.672,1.922,1.922,0,0,1-.03-1.153,119.8,119.8,0,0,1,7.731-25.69" transform="translate(-8317.786 -6006.911)" fill="#071f56"/>
        </g>
        <g id="Grupo_1366" data-name="Grupo 1366" transform="translate(13.671 312.813)">
          <path id="Caminho_692" data-name="Caminho 692" d="M8235.17,5989.758c3.335-.677,6.768.994,9.23,3.343a17.647,17.647,0,0,1,5.236,15.373,16.453,16.453,0,0,1-10.188,12.516,15.411,15.411,0,0,1-15.718-3.146,2.95,2.95,0,0,1-.856-1.2,3.217,3.217,0,0,1,.1-1.707,66.049,66.049,0,0,1,12.64-25.345" transform="translate(-8222.794 -5989.591)" fill="#071f56"/>
        </g>
        <g id="Grupo_1367" data-name="Grupo 1367" transform="translate(157.001 264.244)">
          <path id="Caminho_693" data-name="Caminho 693" d="M8582.405,5885.221a1.168,1.168,0,0,1-.245-.025,1.2,1.2,0,0,1-.927-1.415,19.221,19.221,0,0,1,10.434-12.825c4.565-2.294,10.024-3.193,16.258-2.673a1.2,1.2,0,0,1,1.092,1.292,1.179,1.179,0,0,1-1.292,1.092,28.213,28.213,0,0,0-14.983,2.427,16.822,16.822,0,0,0-9.167,11.176A1.2,1.2,0,0,1,8582.405,5885.221Z" transform="translate(-8581.208 -5868.139)"/>
        </g>
        <g id="Grupo_1368" data-name="Grupo 1368" transform="translate(150.916 246.958)">
          <path id="Caminho_694" data-name="Caminho 694" d="M8567.188,5838.035a1.2,1.2,0,0,1-1.085-1.7,18.629,18.629,0,0,1,8.582-8.608,27.906,27.906,0,0,1,11.677-2.8c1.938-.072,4.74.041,6.594,1.862a1.2,1.2,0,1,1-1.678,1.707c-.92-.905-2.416-1.274-4.824-1.177a25.544,25.544,0,0,0-10.683,2.543,16.245,16.245,0,0,0-7.5,7.476A1.2,1.2,0,0,1,8567.188,5838.035Z" transform="translate(-8565.992 -5824.913)"/>
        </g>
        <g id="Grupo_1369" data-name="Grupo 1369" transform="translate(144.247 231.599)">
          <path id="Caminho_695" data-name="Caminho 695" d="M8550.51,5798.6a1.2,1.2,0,0,1-1.085-1.7,16.132,16.132,0,0,1,5.822-6.343,22.749,22.749,0,0,1,8.352-3.736,14.505,14.505,0,0,1,9.286,1.058,1.2,1.2,0,0,1-1.069,2.14,12.117,12.117,0,0,0-7.747-.852,20.4,20.4,0,0,0-7.464,3.36,13.875,13.875,0,0,0-5.007,5.373A1.194,1.194,0,0,1,8550.51,5798.6Z" transform="translate(-8549.314 -5786.506)"/>
        </g>
        <g id="Grupo_1372" data-name="Grupo 1372" transform="translate(48.455 312.903)">
          <g id="Grupo_1371" data-name="Grupo 1371">
            <path id="Caminho_698" data-name="Caminho 698" d="M8311.771,6049.994a151.338,151.338,0,0,1,3.57-30.166q1.632-7.339,3.982-14.492c.775-2.359,1.59-4.714,2.5-7.024a9.065,9.065,0,0,1,1.519-2.725,7.827,7.827,0,0,1,2.755-1.881,27.37,27.37,0,0,1,16.13-1.294c1.253.261,1.789-1.662.53-1.924a30.985,30.985,0,0,0-15.468.672,11.293,11.293,0,0,0-5.615,3.321c-1.545,1.91-2.249,4.489-3.062,6.769a152.6,152.6,0,0,0-7.475,30.819,154.185,154.185,0,0,0-1.368,17.925,1,1,0,0,0,2,0Z" transform="translate(-8309.775 -5989.816)"/>
          </g>
        </g>
        <g id="Grupo_1373" data-name="Grupo 1373">
          <path id="Caminho_699" data-name="Caminho 699" d="M8390.705,5311.2a81.852,81.852,0,0,0-8.692-52.1,91.888,91.888,0,0,0-37.727-37.261,97.857,97.857,0,0,0-49.308-11.414c-26.172.931-51.388,12.671-71.665,30.244a135.814,135.814,0,0,0-28.768,58.085,125.917,125.917,0,0,0-2.581,16.952,118.646,118.646,0,0,0,22.246,78.848c8.277,11.323,19.032,21.409,32.432,25.816,12.193,5.556,26,6.129,39.394,6.292q15.025.182,30.051-.169c10.081-.236,20.272-.67,29.969-3.441a81.5,81.5,0,0,0,11.9-4.528c12.359-5.736,23.857-13.922,31.688-25.073s11.668-25.494,8.483-38.742c-.448-1.869-1.026-3.86-.356-5.662a13.844,13.844,0,0,1,1.976-3c2.794-3.932,2.915-9.1,2.931-13.924.008-2.46-.013-5.038-1.184-7.2-1.549-2.864-4.729-4.353-7.3-6.345s-4.767-5.479-3.258-8.364" transform="translate(-8190.397 -5209.164)" fill="#fefff0"/>
          <path id="Caminho_700" data-name="Caminho 700" d="M8294.461,5426.12q-5.127,0-10.228-.062c-13.964-.17-27.517-.786-39.814-6.373-12.065-3.985-23.154-12.808-32.962-26.226a120.334,120.334,0,0,1-22.474-79.651,127.411,127.411,0,0,1,2.6-17.113,136.913,136.913,0,0,1,29.023-58.6l.13-.132c21.7-18.8,47.409-29.646,72.407-30.536a98.561,98.561,0,0,1,49.912,11.556,93.454,93.454,0,0,1,38.219,37.752,82.747,82.747,0,0,1,8.815,52.87l-.137-.024c-.554,2.066,1.079,4.626,3.17,6.244.665.515,1.366.99,2.107,1.493,2.089,1.416,4.247,2.88,5.519,5.229,1.344,2.484,1.335,5.417,1.326,7.774-.018,5.595-.266,10.555-3.15,14.613-.2.276-.406.547-.614.817a7.746,7.746,0,0,0-1.215,1.91c-.492,1.321-.111,2.88.292,4.532l.105.435c3.069,12.767-.171,27.612-8.668,39.708-7.289,10.378-18.109,18.949-32.163,25.472a82.341,82.341,0,0,1-12.071,4.592c-9.777,2.794-19.9,3.244-30.271,3.487C8307.736,5426.042,8301.088,5426.12,8294.461,5426.12Zm-72.082-186.408a134.49,134.49,0,0,0-28.454,57.5,125.029,125.029,0,0,0-2.557,16.791,117.91,117.91,0,0,0,22.021,78.045c9.523,13.029,20.236,21.57,31.84,25.385l.123.048c11.891,5.419,25.189,6.017,38.91,6.184,9.953.121,20.05.064,30.008-.168,10.211-.24,20.164-.68,29.67-3.4a80.18,80.18,0,0,0,11.721-4.463c13.666-6.344,24.168-14.646,31.212-24.676,8.108-11.543,11.211-25.665,8.3-37.774l-.1-.427c-.449-1.84-.959-3.925-.211-5.933a9.621,9.621,0,0,1,1.565-2.541c.189-.245.378-.489.556-.739,2.479-3.486,2.693-8.056,2.709-13.234.008-2.194.016-4.68-1.038-6.627-.993-1.836-2.821-3.076-4.756-4.388-.741-.5-1.506-1.021-2.229-1.581-2.89-2.235-5.227-6.1-3.766-9.487a80.426,80.426,0,0,0-8.729-50.368,91.039,91.039,0,0,0-37.235-36.771,96.12,96.12,0,0,0-48.7-11.273C8268.807,5210.689,8243.646,5221.3,8222.379,5239.712Z" transform="translate(-8188.609 -5207.366)"/>
        </g>
        <g id="Grupo_1374" data-name="Grupo 1374" transform="translate(29.75 16.257)">
          <path id="Caminho_701" data-name="Caminho 701" d="M8288.46,5397.254a325.151,325.151,0,0,0,75,6.615c3.785-.106,8.055-.514,10.424-3.467,1.686-2.1,1.946-4.968,2.234-7.648a113.739,113.739,0,0,1,3.15-17.016,21.633,21.633,0,0,1,3.244-7.657c3.857-5.106,11.031-6.319,15.98-10.375,6.1-5,7.926-13.421,9.371-21.177,1.9-10.23,3.8-20.833,1.329-30.94a50.98,50.98,0,0,0-4.2-10.846c-8.022-15.832-21.463-29.06-37.873-35.824s-35.709-6.746-51.667,1.023a69.126,69.126,0,0,0-18.3,13.279c-13.108,13.028-21.67,30.272-25.54,48.343s-3.19,36.943.543,55.043c1.007,4.882,2.288,9.842,5.136,13.933s7.58,7.2,12.552,6.837" transform="translate(-8266.611 -5251.593)" fill="#071f56"/>
          <path id="Caminho_702" data-name="Caminho 702" d="M8350.729,5402.816a327.661,327.661,0,0,1-65.385-6.593c-5.078-.045-10.217-3-13.625-7.89-3.224-4.632-4.537-10.077-5.515-14.817-4.082-19.787-4.263-38.636-.54-56.027,4.185-19.536,13.242-36.666,26.193-49.539a71.4,71.4,0,0,1,18.942-13.732c16.153-7.865,36.2-8.269,53.628-1.084,16.364,6.746,30.614,20.215,39.094,36.955a53.184,53.184,0,0,1,4.387,11.357c2.64,10.785.546,22.028-1.3,31.947-1.646,8.848-3.667,17.233-10.2,22.59a36.969,36.969,0,0,1-7.4,4.37c-3.23,1.579-6.28,3.071-8.189,5.6a19.58,19.58,0,0,0-2.839,6.829,111.571,111.571,0,0,0-3.085,16.658l-.027.253c-.3,2.838-.648,6.054-2.718,8.636-2.9,3.612-7.588,4.231-12.224,4.362Q8355.327,5402.816,8350.729,5402.816Zm-64.661-11.329a322.876,322.876,0,0,0,73.716,6.417c3.487-.1,6.945-.479,8.625-2.573,1.2-1.489,1.438-3.754,1.694-6.151l.028-.255a116.394,116.394,0,0,1,3.216-17.373,23.91,23.91,0,0,1,3.647-8.487c2.6-3.438,6.312-5.253,9.905-7.01a32.845,32.845,0,0,0,6.47-3.773c5.289-4.333,7.055-11.821,8.533-19.764,1.759-9.444,3.752-20.149,1.358-29.934a48.706,48.706,0,0,0-4.007-10.333c-7.971-15.732-21.329-28.377-36.65-34.692-16.181-6.671-34.767-6.312-49.709.962a66.679,66.679,0,0,0-17.664,12.824c-12.291,12.218-20.9,28.521-24.887,47.148-3.584,16.738-3.4,34.925.547,54.058.881,4.274,2.05,9.161,4.756,13.049,2.468,3.544,6.19,5.769,9.667,5.837l.021-.1.464.1c.087,0,.177-.009.264-.015Z" transform="translate(-8263.001 -5248.019)"/>
        </g>
        <g id="Grupo_1375" data-name="Grupo 1375" transform="translate(150.556 128.763)">
          <path id="Caminho_703" data-name="Caminho 703" d="M8596.345,5539.32a16.316,16.316,0,0,0-13.3-6.976,13.384,13.384,0,0,0-3.181.377c-4.906,1.228-8.506,5.644-10.146,10.429s-1.646,9.952-1.637,15.009c.008,4,.152,8.382,2.787,11.39,2.309,2.636,5.991,3.556,9.471,3.968,3.025.359,6.363.357,8.781-1.5a11.877,11.877,0,0,0,3.207-4.473,49.29,49.29,0,0,0,4.178-28.869" transform="translate(-8566.887 -5531.148)" fill="#fefff0"/>
          <path id="Caminho_704" data-name="Caminho 704" d="M8581.333,5573.1a24.967,24.967,0,0,1-2.928-.192c-3.067-.364-7.465-1.212-10.229-4.368-2.833-3.234-3.075-7.6-3.083-12.175-.011-4.861-.021-10.37,1.7-15.4,1.954-5.7,6.163-10,10.986-11.2a14.558,14.558,0,0,1,3.465-.413h.074a17.443,17.443,0,0,1,14.156,7.407l.417-.067a50.585,50.585,0,0,1-4.279,29.574,12.937,12.937,0,0,1-3.559,4.906A10.9,10.9,0,0,1,8581.333,5573.1Zm-.017-41.357h-.06a12.156,12.156,0,0,0-2.895.342c-4.836,1.208-7.977,5.78-9.3,9.655-1.594,4.65-1.583,9.718-1.572,14.62.007,4.1.2,7.993,2.489,10.6,2.222,2.535,6.036,3.25,8.712,3.567,2.526.3,5.711.428,7.913-1.258a10.83,10.83,0,0,0,2.854-4.041,48.194,48.194,0,0,0,4.232-27.118l-.124.084A15.224,15.224,0,0,0,8581.316,5531.746Z" transform="translate(-8565.092 -5529.353)"/>
        </g>
        <g id="Grupo_1376" data-name="Grupo 1376" transform="translate(160.264 128.401)">
          <path id="Caminho_705" data-name="Caminho 705" d="M8609.324,5532.362c-4.3-2.42-10.1.206-13,4.2s-3.582,9.142-3.856,14.065c-.232,4.189-.212,8.514,1.336,12.415s4.931,7.318,9.1,7.8a11.136,11.136,0,0,0,9.045-3.62,19.653,19.653,0,0,0,4.533-8.9c2.334-9.258,4.273-19.895-7.355-26.054" transform="translate(-8591.164 -5530.238)" fill="#071f56"/>
          <path id="Caminho_706" data-name="Caminho 706" d="M8602.119,5570.3a10.122,10.122,0,0,1-1.148-.065c-4.253-.488-8.207-3.842-10.074-8.544-1.647-4.152-1.656-8.665-1.417-12.922.27-4.86.965-10.408,4.08-14.7,3.155-4.348,9.618-7.316,14.556-4.535l0,.006c12.853,6.97,9.651,19.675,7.733,27.284a20.719,20.719,0,0,1-4.829,9.431A12.548,12.548,0,0,1,8602.119,5570.3Zm1.767-39.45a11.149,11.149,0,0,0-8.39,4.623c-2.744,3.781-3.365,8.688-3.629,13.429-.222,3.985-.225,8.185,1.254,11.907,1.545,3.893,4.733,6.66,8.123,7.049a9.829,9.829,0,0,0,8.043-3.259,18.38,18.38,0,0,0,4.239-8.36c2.476-9.823,3.821-19.1-6.755-24.706l0-.006A6.208,6.208,0,0,0,8603.886,5530.846Z" transform="translate(-8589.367 -5528.447)"/>
        </g>
        <g id="Grupo_1394" data-name="Grupo 1394" transform="translate(32.155 18.639)">
          <g id="Grupo_1393" data-name="Grupo 1393" clip-path="url(#clip-path)">
            <g id="Grupo_1392" data-name="Grupo 1392" transform="translate(4.254 53.72)">
              <g id="Grupo_1379" data-name="Grupo 1379" transform="translate(0 34.433)">
                <g id="Grupo_1377" data-name="Grupo 1377" transform="translate(0.956 0.944)">
                  <ellipse id="Elipse_25" data-name="Elipse 25" cx="12.963" cy="12.795" rx="12.963" ry="12.795" fill="#e87064"/>
                </g>
                <g id="Grupo_1378" data-name="Grupo 1378">
                  <path id="Caminho_707" data-name="Caminho 707" d="M8297.809,5501.246a14.128,14.128,0,0,1-4.263.644,13.919,13.919,0,0,1-9.834-4.044,13.554,13.554,0,0,1-4.057-9.723h0a13.921,13.921,0,0,1,27.839.055,13.564,13.564,0,0,1-4.1,9.707A13.9,13.9,0,0,1,8297.809,5501.246Zm-16.24-13.119a11.694,11.694,0,0,0,3.5,8.387,11.82,11.82,0,1,0-3.5-8.387Z" transform="translate(-8279.655 -5474.412)"/>
                </g>
              </g>
              <g id="Grupo_1382" data-name="Grupo 1382" transform="translate(106.398 37.843)">
                <g id="Grupo_1380" data-name="Grupo 1380" transform="translate(0.957 0.944)">
                  <ellipse id="Elipse_26" data-name="Elipse 26" cx="12.963" cy="12.795" rx="12.963" ry="12.795" fill="#e87064"/>
                </g>
                <g id="Grupo_1381" data-name="Grupo 1381">
                  <path id="Caminho_708" data-name="Caminho 708" d="M8563.868,5509.774a14.126,14.126,0,0,1-4.262.644,13.919,13.919,0,0,1-9.834-4.044,13.56,13.56,0,0,1-4.058-9.723h0a13.958,13.958,0,0,1,23.781-9.668,13.611,13.611,0,0,1-.039,19.43A13.9,13.9,0,0,1,8563.868,5509.774Zm-16.24-13.119a11.7,11.7,0,0,0,3.5,8.386,12.04,12.04,0,0,0,20.513-8.339,11.694,11.694,0,0,0-3.5-8.386,12.04,12.04,0,0,0-20.514,8.339Z" transform="translate(-8545.715 -5482.94)"/>
                </g>
              </g>
              <g id="Grupo_1385" data-name="Grupo 1385" transform="translate(13.447)">
                <g id="Grupo_1383" data-name="Grupo 1383" transform="translate(0.957 0.944)">
                  <path id="Caminho_709" data-name="Caminho 709" d="M8360.251,5390.939c-16.358,1.766-33.761,6.748-36.756,24.94-1.528,7.979-.584,16.543-2.443,24.513-1.487,7.286-5.144,14.135-5.376,21.649-.177,12.708,10.752,22.7,21.176,29.758,8.987,5.939,20.613,7.934,31.456,7.378,23.4-1.753,47.526-14.1,47.243-38.6.14-5.687-.2-11.427-.209-17.125-.08-10.332.141-20.984-3.771-30.7-7.994-20.831-31.656-22-51.05-22.083" transform="translate(-8315.674 -5390.669)" fill="#e87064"/>
                </g>
                <g id="Grupo_1384" data-name="Grupo 1384">
                  <path id="Caminho_710" data-name="Caminho 710" d="M8383.91,5495.5a75.937,75.937,0,0,1-16.966,3.2c-12.372.634-23.75-2.043-32.06-7.536-14.687-9.939-21.75-19.932-21.6-30.556.146-4.745,1.615-9.231,3.035-13.57a75.393,75.393,0,0,0,2.36-8.252,70.977,70.977,0,0,0,1.361-12.877,81.614,81.614,0,0,1,1.079-11.625c3.251-19.748,23.013-24.129,37.592-25.7l.209,1.876c-13.961,1.508-32.87,5.653-35.917,24.153a80.02,80.02,0,0,0-1.051,11.381,72.493,72.493,0,0,1-1.4,13.192,76.853,76.853,0,0,1-2.409,8.435c-1.379,4.213-2.806,8.569-2.943,13.031-.139,9.927,6.652,19.4,20.762,28.951,7.96,5.261,18.925,7.826,30.864,7.215,23.25-1.743,46.608-14.06,46.337-37.644.081-3.36,0-6.772-.088-10.072-.06-2.315-.119-4.71-.122-7.063l-.014-2.119c-.055-9.512-.111-19.348-3.689-28.237-7.544-19.657-28.918-21.394-50.166-21.487l.01-1.888c16.2.072,43.3.192,51.94,22.693,3.705,9.206,3.763,19.223,3.818,28.909l.014,2.121c0,2.337.063,4.72.121,7.024.084,3.323.171,6.759.088,10.131C8415.29,5478.053,8401.276,5490.051,8383.91,5495.5Z" transform="translate(-8313.281 -5388.308)"/>
                </g>
              </g>
              <g id="Grupo_1387" data-name="Grupo 1387" transform="translate(36.49 42.486)">
                <g id="Grupo_1386" data-name="Grupo 1386">
                  <rect id="Ret창ngulo_49" data-name="Ret창ngulo 49" width="9.452" height="30.045" rx="4.726" transform="matrix(1, 0.002, -0.002, 1, 0.059, 0)"/>
                </g>
              </g>
              <g id="Grupo_1389" data-name="Grupo 1389" transform="translate(66.954 43.114)">
                <g id="Grupo_1388" data-name="Grupo 1388">
                  <rect id="Ret창ngulo_50" data-name="Ret창ngulo 50" width="9.452" height="30.045" rx="4.726" transform="translate(0.059 0) rotate(0.112)"/>
                </g>
              </g>
              <g id="Grupo_1391" data-name="Grupo 1391" transform="translate(48.957 60.132)">
                <g id="Grupo_1390" data-name="Grupo 1390">
                  <path id="Caminho_711" data-name="Caminho 711" d="M8417.6,5546.79c-9.527-18.549-24.318-.974-8.714,9.855" transform="translate(-8402.077 -5538.674)" fill="#e87064"/>
                </g>
              </g>
            </g>
          </g>
        </g>
      </g>
    </g>
    <g id="Grupo_1404" data-name="Grupo 1404" transform="translate(8227.334 5236.225)">
      <g id="Grupo_1403" data-name="Grupo 1403" transform="translate(0)">
        <g id="Grupo_1397" data-name="Grupo 1397" transform="translate(7.825)">
          <path id="Caminho_713" data-name="Caminho 713" d="M8370.594,5282.591s-51.192-.91-59.3,36.295a79.528,79.528,0,0,0-2.548,12.077s26.069-15.67,62.641-10.739c14.153,2.464,41.02,7.9,46.441,14.088l5.422,6.189s5.1-26.908-11.215-39.629C8396.02,5288.534,8385.512,5281.707,8370.594,5282.591Z" transform="translate(-8307.252 -5281.322)" fill="#3564da"/>
          <path id="Caminho_714" data-name="Caminho 714" d="M8421.727,5341.347l-7.041-8.036c-3.711-4.237-20.813-9.358-45.746-13.7-35.687-4.815-61.562,10.431-61.818,10.586l-2.109,1.268.306-2.442a79.809,79.809,0,0,1,2.6-12.294c8.079-37.1,58.522-37.125,60.411-37.127,15.717-.9,26.9,6.746,42.2,18.532,16.7,13.023,11.873,39.67,11.66,40.8ZM8355,5316.288a106.955,106.955,0,0,1,14.3.96c15.227,2.65,41.539,8.045,47.18,14.486l3.7,4.217c.752-6.884,1.543-26.047-11.122-35.924-15.324-11.808-25.7-18.915-40.632-18.031l-.047,0h-.047c-.477-.011-50.306-.459-58.11,35.354a71.584,71.584,0,0,0-2.185,9.644A107.19,107.19,0,0,1,8355,5316.288Z" transform="translate(-8305.012 -5279.532)"/>
        </g>
        <g id="Grupo_1398" data-name="Grupo 1398" transform="translate(0 30.265)">
          <path id="Caminho_715" data-name="Caminho 715" d="M8298.806,5369.39s-10.978,2.412-10.345,11.1,3.6,12.5,2.62,17.546-1.528,6.7,4.234,7.418c4.959-1.1,31.155-17.787,70.819-10.058,9.449,1.529,36.4,9.041,43.561,12.35,2.923,1.4,3.22,1.781,2.758-8.263.171-4.111,6.023-15.085,6.023-15.085s2.461-5.889-2.666-8.943S8348.357,5342.2,8298.806,5369.39Z" transform="translate(-8287.239 -5356.964)" fill="#3564da"/>
          <path id="Caminho_716" data-name="Caminho 716" d="M8409.859,5407.926a5.7,5.7,0,0,1-2.272-.755l-.2-.1c-7.2-3.326-34.143-10.776-43.235-12.248-32.532-6.341-55.821,3.873-65.765,8.234a31.566,31.566,0,0,1-4.6,1.81l-.2.045-.205-.025c-2.874-.36-4.386-.976-5.217-2.124-1.067-1.474-.7-3.338-.151-6.162l.107-.547c.475-2.459-.086-4.591-.865-7.54a49.738,49.738,0,0,1-1.773-9.692c-.553-7.584,6.926-11.34,11.109-12.315,20.708-11.308,46.924-14.2,75.826-8.351,22.209,4.491,39.2,12.721,42.219,14.517,4.76,2.835,4.146,8.064,3.157,10.431-1.64,3.089-5.8,11.527-5.933,14.674.337,7.207.288,9-.978,9.838A1.791,1.791,0,0,1,8409.859,5407.926Zm-66.342-17.521a109.878,109.878,0,0,1,21.053,2.065c9.168,1.483,36.5,9.048,43.833,12.438l.22.105c.3.142.639.307.9.411a55.052,55.052,0,0,0-.056-7.639c.177-4.365,5.552-14.555,6.162-15.7.034-.1,1.933-4.878-2.222-7.352-.608-.364-64.914-33.975-115.816-6.044l-.318.12c-.406.091-9.958,2.3-9.41,9.844a47.115,47.115,0,0,0,1.7,9.255c.794,3.01,1.48,5.608.9,8.6l-.107.553c-.416,2.128-.716,3.666-.258,4.3.363.5,1.461.87,3.355,1.124a40.946,40.946,0,0,0,3.973-1.618C8305.276,5397.425,8321.284,5390.405,8343.518,5390.405Z" transform="translate(-8285.445 -5355.213)"/>
        </g>
        <g id="Grupo_1399" data-name="Grupo 1399" transform="translate(17.979 37.474)" opacity="0.51">
          <path id="Caminho_717" data-name="Caminho 717" d="M8332.426,5407.847c-5.9-11.179,2.964-33.656,3.346-34.607l1.109.444c-.092.228-9.043,22.914-3.4,33.6Z" transform="translate(-8330.404 -5373.24)" fill="#fff"/>
        </g>
        <g id="Grupo_1400" data-name="Grupo 1400" transform="translate(47.445 32.463)" opacity="0.51">
          <path id="Caminho_718" data-name="Caminho 718" d="M8404.088,5393.287c-.084-4.818,3.225-31.448,3.366-32.579l1.187.148c-.033.275-3.438,27.676-3.357,32.41Z" transform="translate(-8404.086 -5360.708)" fill="#fff"/>
        </g>
        <g id="Grupo_1401" data-name="Grupo 1401" transform="translate(82.488 34.274)" opacity="0.51">
          <path id="Caminho_719" data-name="Caminho 719" d="M8492.848,5399.342l-1.131-.39c2.1-6.1,1.507-33.411,1.5-33.686l1.2-.027C8494.439,5366.371,8495.021,5393.042,8492.848,5399.342Z" transform="translate(-8491.717 -5365.239)" fill="#fff"/>
        </g>
        <g id="Grupo_1402" data-name="Grupo 1402" transform="translate(108.543 42.472)" opacity="0.51">
          <path id="Caminho_720" data-name="Caminho 720" d="M8557.917,5418.79l-1.047-.579c2.565-4.638,2.314-32.185,2.312-32.462l1.2-.012C8560.391,5386.883,8560.634,5413.878,8557.917,5418.79Z" transform="translate(-8556.87 -5385.737)" fill="#fff"/>
        </g>
      </g>
    </g>
  </g>
</svg>
