<svg xmlns="http://www.w3.org/2000/svg" width="386.973" height="596.138" viewBox="0 0 386.973 596.138">
  <g id="foguete" transform="translate(-93.565 135.874) rotate(-22)">
    <path id="Caminho_1535" data-name="Caminho 1535" d="M15.922,255.2S29.67,76.473,237.61,0c27.5,134.9-45.54,286.992-123.733,317.066-1.718,28.356-1.526,28.689-1.526,28.689L0,266.37Z" transform="translate(114.57 0.053)" fill="#3564da" stroke="#000" stroke-width="2"/>
    <path id="Caminho_1540" data-name="Caminho 1540" d="M0,67.088c26.359,25.272,66.071,52.95,117.516,49.941,1.133-22.9,4.644-43.28,4.612-59.142C122.045,15.712,115.711,0,115.711,0S23.883,38.508,0,67.088Z" transform="translate(236.331 0)" fill="#f6282c" stroke="#000" stroke-width="2"/>
    <path id="Caminho_1536" data-name="Caminho 1536" d="M0,92.534s36.1,18.812,0,116.431C88.469,100.669,103.213,63.555,60.5,0,0,92.027,0,92.534,0,92.534Z" transform="translate(268.82 198.704)" fill="#f6282c" stroke="#000" stroke-width="2"/>
    <path id="Caminho_1537" data-name="Caminho 1537" d="M86.557,93.156S38.255,80.445.122,142.984C-3.436,62.652,71.3-12.089,130.282,1.639,87.065,91.631,86.557,93.156,86.557,93.156Z" transform="translate(53.121 121.818)" fill="#f6282c" stroke="#000" stroke-width="2"/>
    <path id="Caminho_1538" data-name="Caminho 1538" d="M118.262,0S37.482,55.809,33.923,88.856c39.659-13.219,39.659-14.744,47.793-12.71S43.073,151.4,17.144,171.223,2.4,206.812,2.4,206.812s16.78-25.42,27.455-29.487,32.54-14.745,38.133-30.506,10.678,3.05,4.576,13.219-19.321,29.487-13.219,40.168,13.727,18.3,25.93,23.9c-12.2-34.577,17.287-52.879,17.287-52.879s8.135-.508,8.135,14.744v16.779c23.9-28.473,41.828-73.472,48.059-74.183s13.53,41.3,27.238,45.572c-1.781-12.462,12.638-39.521,22.786-42.369s28.305-17.25,18.515-55.621C118.345-.144,118.262,0,118.262,0Z" transform="translate(0 270.007)" fill="#fca302" stroke="#000" stroke-width="2"/>
    <path id="Caminho_1539" data-name="Caminho 1539" d="M26.859,0S13.728,42.894,0,44.419c14.236,2.542,23.388-5.085,23.388-5.085S18.3,59.673,13.727,66.79C30,54.079,54.911,26.115,62.538,28.657a108.272,108.272,0,0,1,11.554,4.436Z" transform="translate(116.125 288.345)" fill="#fed15c"/>
    <path id="Caminho_1541" data-name="Caminho 1541" d="M0,0,98.68,61.372" transform="translate(129.413 255.723)" fill="none" stroke="#000" stroke-width="2"/>
    <path id="Caminho_1542" data-name="Caminho 1542" d="M0,0S37.606,58.666,120.941,82.736" transform="translate(139.041 216.312)" fill="none" stroke="#000" stroke-width="2"/>
    <g id="Elipse_90" data-name="Elipse 90" transform="translate(188.483 108.209)" fill="#fff" stroke="#000" stroke-width="2">
      <ellipse cx="60.897" cy="62.165" rx="60.897" ry="62.165" stroke="none"/>
      <ellipse cx="60.897" cy="62.165" rx="59.897" ry="61.165" fill="none"/>
    </g>
    <path id="Caminho_1543" data-name="Caminho 1543" d="M7.806,0S1.827,19.484,0,37.875c62.253,38.879,97.165,60.48,97.165,60.48s16.21-6.256,29.271-17.211C94.625,73.455,56.864,48,50.384,42.907S19.533,17.15,13.516,7.2C12.822,5.81,7.806,0,7.806,0Z" transform="translate(131.233 217.802)" fill="#fff"/>
    <g id="Elipse_91" data-name="Elipse 91" transform="translate(198.633 120.05)" fill="#464646" stroke="#000" stroke-width="2">
      <ellipse cx="50.324" cy="50.324" rx="50.324" ry="50.324" stroke="none"/>
      <ellipse cx="50.324" cy="50.324" rx="49.324" ry="49.324" fill="none"/>
    </g>
    <g id="maurício" transform="matrix(0.956, -0.292, 0.292, 0.956, 155.07, 128.043)">
      <path id="fundo" d="M-1665.406,7455.34h4.284l3.865,1.3,2.887,1.862s2.282,2.375,2.421,2.607a27.028,27.028,0,0,1,1.676,2.747c.047.326,1.024,2.142,1.164,2.608s.791,2.188.885,2.561.465,1.816.512,2.235.233,2.468.186,2.793a10.036,10.036,0,0,1-.186,2c-.186.373-1.4,2.095-1.4,2.095s-1.024.7-1.164.839a18.661,18.661,0,0,1-1.676.838s-1.537.233-1.769.279-2.282-.279-2.282-.279a26.055,26.055,0,0,1-3.073-.838c-.186-.186-1.583-1.444-1.723-1.537s-1.3-1.3-1.723-1.4a22.315,22.315,0,0,1-2.607-1.583l-1.071-1.49-1.164-.559-7.171,10.243,1.4,3.818.559.838,3.352,2.328,1.4,2.049,3.073,2.748s4.284,3.492,4.377,3.911a21.176,21.176,0,0,1,.466,3.585,30.062,30.062,0,0,1-.466,4.563,23.343,23.343,0,0,1-.931,3.073,10.959,10.959,0,0,1-1.024,2.1,9.418,9.418,0,0,1-1.443,1.583c-.512.419-2.934,2.049-2.934,2.049l-.792.279.512,1.3,2.421,3.12,2,3.4,1.49,2.934.7,2,.792,1.723,2.049,6.89.419,4.191-.419,2.095-1.3,3.446-1.583,1.769-2.142,1.816-1.49.885-1.816.6-2.887.233-2.514-.559-1.769-.931-2.7-2.049-2.328-2.188-1.35,2.607-2.328,3.4-2.7,1.769s-2,1.35-2.142,1.4-3.725,1.164-3.725,1.164l-3.585.6h-3.911l-3.585-.6-4.237-.6-4-1.118-4.33-1.63-2.654,2.515-2.933,1.443-3.539.978s-4.144.466-4.284.466-4.1-.466-4.1-.466l-4-1.49-2.514-2.282h-4.61l-6.286-.885-4.563-1.583-3.585-2.188-4.237-5.681-1.63-4.144-.978-6.612-2.887-4.8-1.583-6.658.419-8.474,1.537-8.242,1.257-4.1v-4.331l1.211-5.355,1.63-4.423.605-1.723-9.825-10.01-4.7,2.747-6.565,1.63-2.654-.372-1.956-1.723-2.188-4.331v-9.405l1.676-3.865,2.142-2.607,2.607-1.351,3.772-.931h4.47l1.862.419,4.982-3.12,6.1-2.282,6.565-.232,4.7,1.024,2.608,1.49,3.678,4.936,3.4,6.845,2.188,3.4,2.7-.791,6.845-2.049,4.33-.559,5.913-.372,5.4.372,6.146.559,5.4.652,5.075.838h.931l.326-6.565.885-4.7,3.306-3.818,6.053-3.073h5.913l5.727,2.142,6.519,4.284Z" transform="translate(1789.831 -7447.84)" fill="#464646" stroke="#707070" stroke-width="1"/>
      <path id="Caminho_1404" data-name="Caminho 1404" d="M-1633.408,8001.537l-1.991,6.563-2.66,3.724-3.059,1.33s-3.458.931-3.99.931h-9.309l-5.187-2.261-4.122-2.925-3.192-3.458-1.064-3.9Z" transform="translate(1763.474 -7945.654)" fill="#fff" stroke="#000" stroke-width="2"/>
      <path id="Caminho_1405" data-name="Caminho 1405" d="M-1631.617,8001.537l-1.991,6.563-5.013,6.853-8.7,5.319s-9.7.613-10.23.613-6.342-3.375-6.342-3.375l-4.092-6.547v-9.426l13.2.629Z" transform="translate(1717.348 -7947.023)" fill="#fff" stroke="#000" stroke-width="2"/>
      <path id="Caminho_1366" data-name="Caminho 1366" d="M-631.247,7975.109c0,.7-7.916,19.929,1.257,32.78" transform="translate(655.983 -7921.888)" fill="none" stroke="#000" stroke-linecap="round" stroke-width="2"/>
      <path id="Caminho_1367" data-name="Caminho 1367" d="M-886.447,8160.071c0,.14-12.8,15.04,2.281,30.5,6.891,5.168,18.439,4.284,18.439,4.284" transform="translate(917.608 -8088.225)" fill="none" stroke="#000" stroke-linecap="round" stroke-width="2"/>
      <path id="Caminho_1368" data-name="Caminho 1368" d="M-1160.989,8388.037c.047.14-2.747,18.625,16.995,15.645,8.707-.466,12.758-9.731,12.758-9.731" transform="translate(1210.262 -8293.235)" fill="none" stroke="#000" stroke-linecap="round" stroke-width="2"/>
      <path id="Caminho_1369" data-name="Caminho 1369" d="M-1494.035,8390.66s16.343,7.31,26.494,2.654,9.964-14.063,9.964-14.063" transform="translate(1570.128 -8285.334)" fill="none" stroke="#000" stroke-linecap="round" stroke-width="2"/>
      <path id="Caminho_1370" data-name="Caminho 1370" d="M-1694.53,8154.217s6.333,8.195,13.224,5.541a11.885,11.885,0,0,0,7.776-11.268,44.915,44.915,0,0,0-10.359-24.182" transform="translate(1806.243 -8056.063)" fill="none" stroke="#000" stroke-linecap="round" stroke-width="2"/>
      <path id="Caminho_1371" data-name="Caminho 1371" d="M-1578.026,7832.876s-.637-6.036-12.094-6.343" transform="translate(1700.252 -7788.272)" fill="none" stroke="#000" stroke-linecap="round" stroke-width="2"/>
      <path id="Caminho_1372" data-name="Caminho 1372" d="M-1429.667,7503.024s-3.478-17.392-24.551-20.972-29.871-2.762-41.123,1.433c-3.785-5.729-7.058-15.447-11.867-16.572s-14.117-4.3-27.825,9.309" transform="translate(1546.347 -7463.841)" fill="none" stroke="#000" stroke-linecap="round" stroke-width="2"/>
      <path id="Caminho_1373" data-name="Caminho 1373" d="M-802.229,7517.051s-14.219-3.273-16.265,8.593,2.966,16.776,7.57,15.754,11.662-2.66,18.107-13.708,13.708-8.8,14.424-7.672,5.013,3.171,3.785,11.969a11.559,11.559,0,0,1-2.864-1.433l1.33,2.967-4.092-2.967,1.432,3.888-4.4-3.069,2.967,3.58-2.967-1.432,1.944,3.683-3.581-2.762s3.376,9.514-5.626,12.479c-2.967,5.115-4.194,13.811-3.785,16.061" transform="translate(818.965 -7509.581)" fill="none" stroke="#000" stroke-linecap="round" stroke-width="2"/>
      <path id="Caminho_1374" data-name="Caminho 1374" d="M-1687.183,7465.428s.25-10.524,1.824-12.492,8.656-11.41,22.505-2.833,14.085,9.915,14.085,9.915" transform="translate(1780.768 -7446.561)" fill="none" stroke="#000" stroke-linecap="round" stroke-width="2"/>
      <path id="Caminho_1375" data-name="Caminho 1375" d="M-1788.782,7529.112s-.472-5.823.787-7.554,6.767-7.869,12.905,0,16.839,22.19,25.338,19.515,1.652-15.659,1.652-15.659a15.255,15.255,0,0,0-12.276-8.813,18.8,18.8,0,0,1-4.013-.472" transform="translate(1887.732 -7509.124)" fill="none" stroke="#000" stroke-linecap="round" stroke-width="2"/>
      <path id="Caminho_1376" data-name="Caminho 1376" d="M-1280.745,7698.92a24.993,24.993,0,0,0-4.284,1.816c-1.4.884-5.448.6-6.565,0s-4.843-2.421-6.379-2.607" transform="translate(1373.553 -7672.797)" fill="none" stroke="#000" stroke-linecap="round" stroke-width="2"/>
      <path id="Caminho_1377" data-name="Caminho 1377" d="M-1357.815,7750.369s-7.31.652-11.64,3.306-15.412-2.468-15.412-2.468a26.876,26.876,0,0,0-12.06-.838" transform="translate(1460.588 -7719.45)" fill="none" stroke="#000" stroke-linecap="round" stroke-width="2"/>
      <path id="Caminho_1378" data-name="Caminho 1378" d="M-958.175,7823.253s-8.262.629-8.5,7" transform="translate(1017.623 -7785.323)" fill="none" stroke="#000" stroke-linecap="round" stroke-width="2"/>
      <path id="Caminho_1379" data-name="Caminho 1379" d="M-940.1,8088.952s2.125,8.341,9.915,10.072" transform="translate(986.962 -8024.267)" fill="none" stroke="#000" stroke-linecap="round" stroke-width="2"/>
      <path id="Caminho_1380" data-name="Caminho 1380" d="M-895.56,8148.344s1.731,3.934,5.036,4.406" transform="translate(942.811 -8077.678)" fill="none" stroke="#000" stroke-linecap="round" stroke-width="2"/>
      <path id="Caminho_1381" data-name="Caminho 1381" d="M-1521.509,8262.013s-4.6-19.233-20.152-17.7-21.175,8.286-25.881,21.073" transform="translate(1641.462 -8163.907)" fill="none" stroke="#000" stroke-linecap="round" stroke-width="2"/>
      <path id="Caminho_1382" data-name="Caminho 1382" d="M-1604.7,8136.525s-4.5-16.572-17.7-19.437" transform="translate(1730.181 -8049.57)" fill="none" stroke="#000" stroke-linecap="round" stroke-width="2"/>
      <path id="Caminho_1383" data-name="Caminho 1383" d="M-1202.833,8129.126a40.391,40.391,0,0,1,20.971-21.181" transform="translate(1265.09 -8041.348)" fill="none" stroke="#000" stroke-linecap="round" stroke-width="2"/>
      <path id="Caminho_1384" data-name="Caminho 1384" d="M-1002.7,8215.633s.2-13.063,8.593-19.3" transform="translate(1057.182 -8120.832)" fill="none" stroke="#000" stroke-linecap="round" stroke-width="2"/>
      <path id="Caminho_1385" data-name="Caminho 1385" d="M-1387.345,8056.148c-1.162.032-.526,4.209-2.858,5.025s-4.219-2.44-4.219-4.307-1.906-.373-1.906-.373-.077,2.123-1.359,1.772-3.509-3.079-2.692-4.945c.616-1.407,3.723-2.909,8.229-3.015a9.322,9.322,0,0,1,4.609.5c6.88,3.148,3.382,6.88,3.382,6.88s-2.118.542-2.432-1.033C-1386.807,8056.539-1386.843,8055.959-1387.345,8056.148Z" transform="translate(1486.408 -7989.456)" stroke="#000" stroke-linecap="round" stroke-width="2"/>
      <path id="Caminho_1386" data-name="Caminho 1386" d="M-1432.613,8324.833s-7.712-7.014-18.571,1.405" transform="translate(1540.849 -8233.932)" fill="none" stroke="#000" stroke-linecap="round" stroke-width="2"/>
      <path id="Caminho_1387" data-name="Caminho 1387" d="M-1257.828,7829.7a11.732,11.732,0,0,1,0,10.532" transform="translate(1345.356 -7791.116)" fill="none" stroke="#000" stroke-linecap="round" stroke-width="2"/>
      <path id="Caminho_1388" data-name="Caminho 1388" d="M-1210.251,7835.677s4.237,3.938.605,7.69" transform="translate(1292.151 -7796.496)" fill="none" stroke="#000" stroke-linecap="round" stroke-width="2"/>
      <path id="Caminho_1389" data-name="Caminho 1389" d="M-1587.876,7823.253s-3.39,6.823,0,8.639,17.312-4.963,26.028-1.937" transform="translate(1684 -7785.323)" fill="none" stroke="#000" stroke-linecap="round" stroke-width="2"/>
      <path id="Caminho_1390" data-name="Caminho 1390" d="M-1592.438,7694.73s8.954-6.106,6.909-11.119" transform="translate(1707.686 -7659.742)" fill="none" stroke="#000" stroke-linecap="round" stroke-width="2"/>
      <path id="Caminho_1391" data-name="Caminho 1391" d="M-646.9,7732.341c-.511,0-12.276.92-10.127-9.412" transform="translate(675.199 -7695.101)" fill="none" stroke="#000" stroke-linecap="round" stroke-width="2"/>
      <path id="Caminho_1394" data-name="Caminho 1394" d="M-1665.671,8001.449H-1703.6" transform="translate(1799.325 -7945.574)" fill="none" stroke="#000" stroke-linecap="round" stroke-width="2"/>
      <path id="Caminho_1395" data-name="Caminho 1395" d="M-1191.253,7983.475s-30.531,2.754-36.433,0" transform="translate(1276.984 -7929.411)" fill="none" stroke="#000" stroke-linecap="round" stroke-width="2"/>
      <g id="óculos" transform="translate(21.562 44.293)">
        <path id="Caminho_1392" data-name="Caminho 1392" d="M.418,9.108S9.21-5.416,28.8,2.218s-.551,23.292-.551,23.292-12.276,8.655-21.482,2.2S.418,9.108.418,9.108Z" transform="translate(27.182)" fill="none" stroke="#000" stroke-linecap="round" stroke-width="4"/>
        <path id="Caminho_1393" data-name="Caminho 1393" d="M2.18,2.351c-.393.335-3.62,8.282-1.416,11.98S11.308,24.64,17.288,24.8s13.692-2.125,15.5-6.925S36.331,4.967,29.328,1.425,2.573,2.016,2.18,2.351Z" transform="translate(74.108 0.241)" fill="none" stroke="#000" stroke-linecap="round" stroke-width="4"/>
        <path id="Caminho_1397" data-name="Caminho 1397" d="M27.6,6.617S2.123-2.635,0,.741" transform="translate(0 3.767)" fill="none" stroke="#000" stroke-linecap="round" stroke-width="4"/>
        <path id="Caminho_1396" data-name="Caminho 1396" d="M9.354,1.582S4.643-1.977,0,1.582" transform="translate(64.642 8.802)" fill="none" stroke="#000" stroke-linecap="round" stroke-width="2"/>
      </g>
      <path id="Caminho_1398" data-name="Caminho 1398" d="M-1618,8001.537s-.288,11.48-15.79,13.055" transform="translate(1744.62 -7945.654)" fill="none" stroke="#000" stroke-linecap="round" stroke-width="2"/>
      <path id="Caminho_1399" data-name="Caminho 1399" d="M-1143.289,7995.631s4.8,21.282,23.135,9.006" transform="translate(1193.058 -7938.73)" fill="none" stroke="#000" stroke-linecap="round" stroke-width="2"/>
      <path id="Caminho_1400" data-name="Caminho 1400" d="M-1575.215,7558.34l4.1-3.548,1.46-2.479.744-3.278-.744-1.1-2.865-2.949-2.2-3.031-3.416-4.408-2.535-2.535-2.783-1.681-2.507-.193-2.066.661-2.314,1.571-1.405,1.681a15.96,15.96,0,0,0-.744,2.039c-.028.358-.165,2.066-.165,2.231a8.281,8.281,0,0,0,0,1.653,8.116,8.116,0,0,1,.3,1.157l2.342,1.46a14.285,14.285,0,0,1,1.708.992c.248.248,1.24.413,1.708.8s1.075.633,1.46.937a11.122,11.122,0,0,1,1.35,1.047c.386.413,1.157,1.047,1.35,1.24s1.074.964,1.267,1.157.827.964.964,1.1a8.628,8.628,0,0,1,.744,1.047,13.808,13.808,0,0,0,.8,1.295c.22.275.716.964.827,1.129s.441.689.606.965.661,1.02.771,1.268.386.826.386.826Z" transform="translate(1691.395 -7524.419)" stroke="#000" stroke-width="2"/>
      <path id="Caminho_1401" data-name="Caminho 1401" d="M-791.5,7552.859l-2.514-1.071.745,2-1.537-.605-2.049-1.4,1.3,3.725-3.585-2.328,1.583,2.328-2.188-.931,1.211,3.166-2.887-2.235.419,2.654s-.093,6.938-3.027,8.241a22.813,22.813,0,0,1-4.423,1.583l-5.82-1.117-2.933-2.794-.792-3.818.373-1.815,2.98-2.934,4.516-5.866,3.073-4.7,4.423-3.678,4.377-1.258,2.421.466,2,1.676,2.607,4.749v3.679Z" transform="translate(835.702 -7530.598)" stroke="#000" stroke-width="2"/>
      <g id="Caminho_1402" data-name="Caminho 1402" transform="translate(107.166 -15.085)">
        <path d="M 9.206701278686523 78.33193969726562 C 5.732250213623047 78.33193969726562 1.817166328430176 75.11076354980469 1.111860990524292 71.9449462890625 C 2.830460071563721 71.91802978515625 4.808571338653564 71.90487670898438 7.119250774383545 71.90487670898438 C 10.12960052490234 71.90487670898438 13.12021064758301 71.92757415771484 15.52320098876953 71.94580841064453 C 16.10427093505859 71.95021820068359 16.6514949798584 71.95436859130859 17.15703392028809 71.9578857421875 C 16.86012077331543 73.29900360107422 15.99337387084961 74.71770477294922 14.71515083312988 75.90750885009766 C 13.08422088623047 77.42560577392578 11.02498054504395 78.33193969726562 9.206701278686523 78.33193969726562 Z" stroke="none"/>
        <path d="M 7.119251251220703 70.90487670898438 L 7.119251251220703 72.90487670898438 C 5.422924995422363 72.90487670898438 3.906853675842285 72.91197204589844 2.5416259765625 72.92641448974609 C 2.93917179107666 73.6986083984375 3.540191650390625 74.47523498535156 4.292941093444824 75.16158294677734 C 5.783420562744141 76.52058410644531 7.620341300964355 77.33193969726562 9.206701278686523 77.33193969726562 C 10.77866077423096 77.33193969726562 12.58319091796875 76.52581024169922 14.03381156921387 75.175537109375 C 14.76578140258789 74.49420166015625 15.35063457489014 73.72017669677734 15.73843193054199 72.94746398925781 C 15.66479682922363 72.94690704345703 15.59056377410889 72.94634246826172 15.51579093933105 72.94577789306641 C 13.11444091796875 72.92755889892578 10.12588119506836 72.90488433837891 7.119251251220703 72.90487670898438 L 7.119251251220703 70.90487670898438 M 7.119256019592285 70.90488433837891 C 11.42981433868408 70.90488433837891 15.69020843505859 70.95127868652344 18.2703800201416 70.96480560302734 C 18.2703800201416 74.94108581542969 13.62788105010986 79.33193969726562 9.206701278686523 79.33193969726562 C 4.785531044006348 79.33193969726562 1.9073486328125e-06 74.94108581542969 1.9073486328125e-06 70.96480560302734 C 2.188089370727539 70.91996002197266 4.661803245544434 70.90488433837891 7.119256019592285 70.90488433837891 Z" stroke="none" fill="#000"/>
      </g>
      <g id="Caminho_1403" data-name="Caminho 1403" transform="translate(66.556 -9.432)">
        <path d="M -5.505548477172852 72.34135437011719 C -6.669808864593506 72.34135437011719 -8.07697868347168 72.16544342041016 -9.269719123840332 71.87078094482422 C -10.74270820617676 71.50690460205078 -11.86999893188477 70.98303985595703 -12.52971839904785 70.35584259033203 C -13.33290863037109 69.59226989746094 -14.13162899017334 68.43495941162109 -14.72107887268066 67.18061065673828 C -15.09033489227295 66.39485168457031 -15.35693740844727 65.62223052978516 -15.49781322479248 64.94618225097656 C -15.437819480896 64.94603729248047 -15.37735652923584 64.94596099853516 -15.31648826599121 64.94596099853516 C -11.81474876403809 64.94596099853516 -7.244838714599609 65.1842041015625 -3.212888717651367 65.3944091796875 C -0.8006890416145325 65.52017211914062 1.349613666534424 65.63227081298828 2.949685573577881 65.67703247070312 C 2.191761016845703 68.87873077392578 -2.018989086151123 72.34135437011719 -5.505548477172852 72.34135437011719 Z" stroke="none"/>
        <path d="M -14.15666580200195 65.95392608642578 C -13.6661205291748 67.24942016601562 -12.82270050048828 68.69754028320312 -11.8406982421875 69.63109588623047 C -10.71465873718262 70.70162963867188 -7.735358715057373 71.34134674072266 -5.505548477172852 71.34134674072266 C -3.936788558959961 71.34134674072266 -1.980898857116699 70.45439910888672 -0.401158332824707 69.02662658691406 C 0.4299039840698242 68.2755126953125 1.08929443359375 67.44065093994141 1.517093658447266 66.62702941894531 C 0.1369142532348633 66.57041931152344 -1.493907928466797 66.48539733886719 -3.265368461608887 66.39305114746094 C -6.851230621337891 66.20610046386719 -10.86414527893066 65.99691009521484 -14.15666580200195 65.95392608642578 M -15.31649971008301 63.94595336914062 C -9.167583465576172 63.94599914550781 0.2952337265014648 64.67748260498047 4.069431304931641 64.697265625 C 4.069431304931641 68.67354583740234 -1.084378242492676 73.34135437011719 -5.505548477172852 73.34135437011719 C -7.667508602142334 73.34135437011719 -11.44985866546631 72.76227569580078 -13.2187385559082 71.08058166503906 C -15.11351871490479 69.27928924560547 -16.61242866516113 65.99019622802734 -16.61242866516113 63.95832824707031 C -16.20048332214355 63.94988250732422 -15.76767826080322 63.94595336914062 -15.31649971008301 63.94595336914062 Z" stroke="none" fill="#000"/>
      </g>
    </g>
  </g>
</svg>
