<svg xmlns="http://www.w3.org/2000/svg" xmlns:xlink="http://www.w3.org/1999/xlink" width="1442.506" height="871.765" viewBox="0 0 1442.506 871.765">
  <defs>
    <filter id="Elipse_49" x="1119.569" y="386.815" width="133.01" height="132.737" filterUnits="userSpaceOnUse">
      <feOffset dx="8" dy="10" input="SourceAlpha"/>
      <feGaussianBlur result="blur"/>
      <feFlood/>
      <feComposite operator="in" in2="blur"/>
      <feComposite in="SourceGraphic"/>
    </filter>
    <filter id="Elipse_50" x="1262.763" y="295.899" width="127.979" height="130.737" filterUnits="userSpaceOnUse">
      <feOffset dx="6" dy="8" input="SourceAlpha"/>
      <feGaussianBlur result="blur-2"/>
      <feFlood/>
      <feComposite operator="in" in2="blur-2"/>
      <feComposite in="SourceGraphic"/>
    </filter>
  </defs>
  <g id="game" transform="translate(-10930.492 -7553.729)">
    <path id="Caminho_1351" data-name="Caminho 1351" d="M12398,7596s233.352,39.4,256.08,51.52,37.882,63.641,36.367,72.733-203.047,0-203.047,0Z" transform="translate(-354.757 -9.271)" fill="#f6282c" stroke="#000" stroke-width="8"/>
    <path id="Caminho_1350" data-name="Caminho 1350" d="M10977.988,7728.676s-3.031-66.672,46.973-77.279,207.594-39.4,207.594-39.4l30.3,25.759-106.068,77.279Z" transform="translate(-10.588 -13.149)" fill="#f6282c" stroke="#000" stroke-linejoin="round" stroke-width="8"/>
    <path id="Caminho_1349" data-name="Caminho 1349" d="M10973.462,7691.282c24.244-10.607,160.619-30.305,207.592-56.065s80.31-78.794,143.951-77.279,618.23,3.031,651.566,0,93.946,30.306,131.828,66.672c213.653,68.188,219.715,54.55,225.775,66.672s42.428,116.676,33.336,489.433c-18.184,165.164-216.684,148.5-250.02,160.618s-130.313,50-157.588,59.1-540.952,42.428-634.9,0-127.283-57.58-209.107-71.218-184.863-10.606-180.317-172.741-4.546-384.878,0-407.607S10949.218,7701.889,10973.462,7691.282Z" fill="#fefff0" stroke="#000" stroke-width="8"/>
    <path id="Caminho_1358" data-name="Caminho 1358" d="M10973.088,7688.5c24.014-10.386,159.086-29.674,205.611-54.9s79.543-77.153,142.577-75.669,612.332,2.967,645.35,0,93.051,29.674,130.571,65.284c211.614,66.767,217.618,53.414,223.621,65.283s42.023,114.247,33.018,479.241c-18.01,161.726-214.616,145.4-247.634,157.274s-129.07,48.963-156.085,57.865-535.79,41.544-628.841,0-126.068-56.382-207.111-69.735-183.1-10.386-178.6-169.143-4.5-376.865,0-399.121S10949.075,7698.888,10973.088,7688.5Z" transform="translate(13.688 17.985)" fill="#fed15c"/>
    <path id="Caminho_1359" data-name="Caminho 1359" d="M10973.462,7691.282c24.244-10.607,160.619-30.305,207.592-56.065s80.31-78.794,143.951-77.279,618.23,3.031,651.566,0,93.946,30.306,131.828,66.672c213.653,68.188,219.715,54.55,225.775,66.672s42.428,116.676,33.336,489.433c-18.184,165.164-216.684,148.5-250.02,160.618s-130.313,50-157.588,59.1-540.952,42.428-634.9,0-127.283-57.58-209.107-71.218-184.863-10.606-180.317-172.741-4.546-384.878,0-407.607S10949.218,7701.889,10973.462,7691.282Z" fill="none" stroke="#000" stroke-width="8"/>
    <path id="Caminho_1352" data-name="Caminho 1352" d="M11419.254,7691.6c-13.637,27.275-56.064,503.07-43.943,536.406s131.83,103.038,354.574,103.038,404.576-18.183,406.092-118.19-36.365-487.918-36.365-487.918,24.244-54.549-183.348-53.034S11432.893,7664.329,11419.254,7691.6Z" transform="translate(-106.371 -27.596)" stroke="#000" stroke-width="8"/>
    <rect id="Retângulo_101" data-name="Retângulo 101" width="575.803" height="428.822" transform="translate(11363.644 7697.343)" fill="#071f56"/>
    <g id="Grupo_2066" data-name="Grupo 2066" transform="translate(11462.875 8164.9)">
      <g id="Grupo_1977" data-name="Grupo 1977" transform="translate(144.107 85.585)">
        <path id="Caminho_1252" data-name="Caminho 1252" d="M5221.2,656.639h1.8a2.386,2.386,0,0,0,2.438,2.351,2.317,2.317,0,0,0,2.279-2.351c0-1.5-.9-2.03-2.438-2.831-1.59-.855-3.6-1.923-3.6-4.754a3.849,3.849,0,0,1,3.816-3.846,3.808,3.808,0,0,1,2.7,1.175,3.558,3.558,0,0,1,1.06,2.671H5227.4a1.947,1.947,0,0,0-.583-1.389,1.717,1.717,0,0,0-1.325-.588,1.888,1.888,0,0,0-1.908,1.977c0,1.656.9,2.244,2.544,3.045,1.537.855,3.446,1.87,3.446,4.541a4.188,4.188,0,1,1-8.375,0Z" transform="translate(-5221.201 -645.207)" fill="#fefff0" stroke="#fefff0" stroke-miterlimit="10" stroke-width="2"/>
        <path id="Caminho_1253" data-name="Caminho 1253" d="M5287.379,648.866h-4.612v12.928h-1.908V648.866h-4.611V647h11.131Z" transform="translate(-5263.102 -646.569)" fill="#fefff0" stroke="#fefff0" stroke-miterlimit="10" stroke-width="2"/>
        <path id="Caminho_1254" data-name="Caminho 1254" d="M5348.387,657.253V647h1.908v10.257a2.916,2.916,0,1,0,5.832,0V647h1.908v10.257a4.824,4.824,0,1,1-9.647,0Z" transform="translate(-5318.014 -646.569)" fill="#fefff0" stroke="#fefff0" stroke-miterlimit="10" stroke-width="2"/>
        <path id="Caminho_1255" data-name="Caminho 1255" d="M5433.634,654.475a7.314,7.314,0,0,1-7.474,7.319h-4.082V647h4.082A7.351,7.351,0,0,1,5433.634,654.475Zm-1.908,0a5.488,5.488,0,0,0-5.566-5.609h-2.173v11.058h2.173A5.452,5.452,0,0,0,5431.726,654.475Z" transform="translate(-5374.106 -646.569)" fill="#fefff0" stroke="#fefff0" stroke-miterlimit="10" stroke-width="2"/>
        <path id="Caminho_1256" data-name="Caminho 1256" d="M5499.321,647h1.908v14.8h-1.908Z" transform="translate(-5432.903 -646.569)" fill="#fefff0" stroke="#fefff0" stroke-miterlimit="10" stroke-width="2"/>
        <path id="Caminho_1257" data-name="Caminho 1257" d="M5530.616,653.176a7.687,7.687,0,1,1,7.686,7.746A7.756,7.756,0,0,1,5530.616,653.176Zm13.464,0a5.8,5.8,0,1,0-11.609,0,5.805,5.805,0,1,0,11.609,0Z" transform="translate(-5456.724 -645.377)" fill="#fefff0" stroke="#fefff0" stroke-miterlimit="10" stroke-width="2"/>
      </g>
      <g id="Grupo_1978" data-name="Grupo 1978" transform="translate(0 0)">
        <path id="Caminho_1258" data-name="Caminho 1258" d="M4737.279,347.175l-2.85-55.817-9.891-.093-10.108,22.981-1.555.062-10.183-23.3-7.676.032v-.063l-76.79.955-.46.006.481,65.941,28.392,1.469,5-33.2-20.586-1.372.132,9.49,8.421.237v14.163h-10.838l-1.047-44.9,65.93-.814-1.368,62.335,11.884-2.8.593-32.5,6.917,26.017a2.289,2.289,0,0,0,2.164,1.545h0a2.289,2.289,0,0,0,2.14-1.476l7.53-25.7,2.286,26.515.035.4,44.423,2.411,6.1-9.365Z" transform="translate(-4617.767 -289.985)" fill="#fefff0"/>
        <path id="Caminho_1259" data-name="Caminho 1259" d="M5142.53,332.048v-8.764c1.558.039-1.582.163,3.573.24,12.59.189,12.9-.067,13.119-.253.24-.2.57-.475.433-5.825-.065-2.541-.211-5.05-.212-5.075l-.024-.411-17.538-1.483.718-8.439,25.6-.321-4.053-11.115-32,.979.964,50.448.008.43,35.29,1.84,6.321-9.247Z" transform="translate(-5009.31 -289.702)" fill="#fefff0"/>
        <path id="Caminho_1260" data-name="Caminho 1260" d="M4783.35,385.315l-15.02-2.9-13.644,52.461,11.791-.376,5.661-19.526,6.122-.1,4.626,20.125,12.354-.749Zm-7.831,25.46a24.352,24.352,0,0,0-1.605-5.28,5,5,0,0,0-.671-1.321c-.915-1.176-6.328-2.554-7.817-2.588l-.036.008c1.49.009,6.566-.612,7.517-1.761a5,5,0,0,0,.709-1.3,26.093,26.093,0,0,0,1.736-5.441h.015a24.824,24.824,0,0,0,1.634,5.332,4.99,4.99,0,0,0,.709,1.3c.95,1.148,5.881,1.983,7.372,1.973l.014-.008c-1.49.035-6.656,1.457-7.571,2.633a5.012,5.012,0,0,0-.671,1.321,22.419,22.419,0,0,0-1.283,5.131" transform="translate(-4721.988 -359.586)" fill="#fefff0"/>
        <path id="Caminho_1261" data-name="Caminho 1261" d="M6062.692,336.342l-6.321,9.247-.259-.013-35.031-1.827-.009-.43-.963-50.448,32-.979,4.053,11.115-25.6.321-.719,8.44,19.084,1.482.024.411c0,.025.146,2.534.212,5.075.137,5.35-.192,5.624-.433,5.825-.224.186-.529.441-13.119.253a48.475,48.475,0,0,1-5.119-.24v8.764Z" transform="translate(-5685.213 -290.682)" fill="#fefff0"/>
        <path id="Caminho_1262" data-name="Caminho 1262" d="M5317.875,286.828l55.75,2.027-11.754,11.394V300.2l-32.531.446-.6,10.958H5344.4l-3.349,12.558-12.352.772-1.45,38.092-8.14-2.466-.006-.267-1.683-73.436" transform="translate(-5150.334 -286.828)" fill="#fefff0"/>
        <path id="Caminho_1263" data-name="Caminho 1263" d="M5459.623,407.594l-12.938,3.806.361-40.954,12.337-5.087Z" transform="translate(-5248.729 -346.604)" fill="#fefff0"/>
        <path id="Caminho_1264" data-name="Caminho 1264" d="M5554.925,383.364l.123,14.136-7.333,7.7-13.8-.24-10.458-2.918-4.58-32.548,9.728-15.943,12.182-10.3,11.18,2.552,12,9.973-11.051,10.3-9.455-7.117-11.89,11.079.185,15.668,8.012,6.585,6.816-9.82Z" transform="translate(-5303.683 -329.775)" fill="#fefff0"/>
        <path id="Caminho_1265" data-name="Caminho 1265" d="M5714.471,311.612l-16.314,1.818-12.373,54.612,12.118-.345,5.274-26.124,6.309-.1,5.292,26.672,10.132-1.107Zm-12.977,18.811,9.538,3.435-8.994.153,1.792-9.809,5.321-.075Z" transform="translate(-5430.729 -305.693)" fill="#fefff0"/>
        <path id="Caminho_1266" data-name="Caminho 1266" d="M5862.23,361.766l.418.005,1.548-37.483,19.687,28.78.033.04,43.172,3.627,6.111-9.376-39.182-3.243-18.248-24.124,9.689-5.469,5.7-8.722-.068-.21c-.123-.38-3.058-9.37-7.063-14.276-4.093-5.012-29.023-4.419-30.083-4.391l-.46.012,1.01,71.052m19.523-47.758-9.9.153,1.972-9.809,5.856-.075Z" transform="translate(-5558.382 -286.874)" fill="#fefff0"/>
      </g>
    </g>
    <g id="btn-cruz" transform="translate(10988.614 7817.05)">
      <path id="Caminho_1353" data-name="Caminho 1353" d="M11089.34,7963.642V7900h75.763v63.642l72.733,6.061V8048.5H11165.1v66.672h-75.763l-9.092-66.672h-65.157l-9.091-84.855h83.34Z" transform="translate(-11006 -7900)" fill="#071f56" stroke="#000" stroke-linecap="round" stroke-linejoin="round" stroke-width="8"/>
      <ellipse id="Elipse_51" data-name="Elipse 51" cx="14.016" cy="14.395" rx="14.016" ry="14.395" transform="translate(103.796 94.704)"/>
      <path id="Caminho_1354" data-name="Caminho 1354" d="M11143,7960.486h27.274L11155.122,7937Z" transform="translate(-11039.204 -7908.967)"/>
      <path id="Caminho_1355" data-name="Caminho 1355" d="M0,23.486H27.274L12.122,0Z" transform="matrix(-1, -0.017, 0.017, -1, 130.864, 202.525)"/>
      <path id="Caminho_1356" data-name="Caminho 1356" d="M0,23.486H27.274L12.122,0Z" transform="translate(27.135 121.424) rotate(-91)"/>
      <path id="Caminho_1357" data-name="Caminho 1357" d="M0,23.486H27.274L12.122,0Z" transform="translate(208.478 95.417) rotate(88)"/>
    </g>
    <g id="btn-g" transform="translate(12050.062 7940.544)">
      <g transform="matrix(1, 0, 0, 1, -1119.57, -386.82)" filter="url(#Elipse_49)">
        <g id="Elipse_49-2" data-name="Elipse 49" transform="translate(1119.57 386.82)" fill="#ff8de8" stroke="#000" stroke-width="8">
          <ellipse cx="62.505" cy="61.368" rx="62.505" ry="61.368" stroke="none"/>
          <ellipse cx="62.505" cy="61.368" rx="58.505" ry="57.368" fill="none"/>
        </g>
      </g>
      <path id="G" d="M12135.163,7983.669v-7.584h-37.578v7.584H12090v7.585h-7.24v22.524h7.24v7.355h7.585v7.7h37.578v-30.338h-22.523v7.7h7.814v14.939h-15.284v-7.355h-7.585v-22.524h7.585v-7.585Z" transform="translate(-12050.062 -7940.544)" stroke="#000" stroke-width="1"/>
    </g>
    <g id="btn-f" transform="translate(12193.255 7849.628)">
      <g transform="matrix(1, 0, 0, 1, -1262.76, -295.9)" filter="url(#Elipse_50)">
        <g id="Elipse_50-2" data-name="Elipse 50" transform="translate(1262.76 295.9)" fill="#30cf7f" stroke="#000" stroke-width="8">
          <ellipse cx="60.99" cy="61.368" rx="60.99" ry="61.368" stroke="none"/>
          <ellipse cx="60.99" cy="61.368" rx="56.99" ry="57.368" fill="none"/>
        </g>
      </g>
      <path id="Caminho_1407" data-name="Caminho 1407" d="M31.063,92.671H46.14V69.8H76.134V62.447H46.14V47.508H83.374v-7.24H31.063Z" stroke="#000" stroke-width="1"/>
    </g>
    <g id="Grupo_2067" data-name="Grupo 2067" transform="translate(12049.749 7664.432)">
      <path id="Caminho_498" data-name="Caminho 498" d="M9523.47,8475.028c-1.324-7.836-3.151-12.226-5.976-19.655a18.666,18.666,0,0,0-2.5-4.916c-3.407-4.378-23.554-9.5-29.1-9.636l-.134.03c5.547.035,24.444-2.278,27.979-6.553a18.665,18.665,0,0,0,2.643-4.841,97.133,97.133,0,0,0,6.462-20.253h.058a92.621,92.621,0,0,0,6.082,19.848,18.628,18.628,0,0,0,2.643,4.84c3.535,4.275,21.895,7.381,27.439,7.346l.053-.029c-5.546.129-24.774,5.425-28.181,9.8a18.672,18.672,0,0,0-2.5,4.917c-2.824,7.429-3.449,11.265-4.773,19.1" transform="translate(-9485.763 -8409.205)" fill="#fefff0"/>
    </g>
    <g id="Grupo_2068" data-name="Grupo 2068" transform="translate(12219.838 7730.255)">
      <path id="Caminho_498-2" data-name="Caminho 498" d="M9512.6,8456.053c-.942-5.577-2.243-8.7-4.254-13.988a13.3,13.3,0,0,0-1.777-3.5c-2.426-3.115-16.765-6.765-20.711-6.856l-.095.021c3.947.025,17.4-1.622,19.913-4.663a13.25,13.25,0,0,0,1.881-3.446,69.094,69.094,0,0,0,4.6-14.414h.041a65.909,65.909,0,0,0,4.33,14.126,13.249,13.249,0,0,0,1.88,3.444c2.517,3.043,15.582,5.253,19.529,5.229l.037-.021c-3.946.091-17.633,3.861-20.057,6.977a13.28,13.28,0,0,0-1.778,3.5c-2.011,5.287-2.455,8.017-3.4,13.594" transform="translate(-9485.764 -8409.205)" fill="#fefff0"/>
    </g>
    <g id="Grupo_2069" data-name="Grupo 2069" transform="translate(12097.001 7798.235)">
      <path id="Caminho_498-3" data-name="Caminho 498" d="M9512.6,8456.053c-.942-5.577-2.243-8.7-4.254-13.988a13.3,13.3,0,0,0-1.777-3.5c-2.426-3.115-16.765-6.765-20.711-6.856l-.095.021c3.947.025,17.4-1.622,19.913-4.663a13.25,13.25,0,0,0,1.881-3.446,69.094,69.094,0,0,0,4.6-14.414h.041a65.909,65.909,0,0,0,4.33,14.126,13.249,13.249,0,0,0,1.88,3.444c2.517,3.043,15.582,5.253,19.529,5.229l.037-.021c-3.946.091-17.633,3.861-20.057,6.977a13.28,13.28,0,0,0-1.778,3.5c-2.011,5.287-2.455,8.017-3.4,13.594" transform="translate(-9485.764 -8409.205)" fill="#fefff0"/>
    </g>
    <g id="Grupo_2070" data-name="Grupo 2070" transform="translate(11183.403 7690.308)">
      <path id="Caminho_498-4" data-name="Caminho 498" d="M9521.163,8456.053c-1.244-5.577-2.96-8.7-5.611-13.988a12.474,12.474,0,0,0-2.345-3.5c-3.2-3.115-22.113-6.765-27.318-6.856l-.125.021c5.206.025,22.948-1.622,26.267-4.663a12.753,12.753,0,0,0,2.48-3.446,57.934,57.934,0,0,0,6.066-14.414h.054a54.9,54.9,0,0,0,5.711,14.126,12.747,12.747,0,0,0,2.479,3.444c3.32,3.043,20.555,5.253,25.762,5.229l.049-.021c-5.206.091-23.259,3.861-26.456,6.977a12.484,12.484,0,0,0-2.347,3.5c-2.651,5.287-3.237,8.017-4.481,13.594" transform="translate(-9485.764 -8409.205)" fill="#fefff0"/>
    </g>
    <g id="Grupo_2071" data-name="Grupo 2071" transform="translate(11220.451 7751.387)">
      <path id="Caminho_498-5" data-name="Caminho 498" d="M9512.6,8456.053c-.942-5.577-2.243-8.7-4.254-13.988a13.3,13.3,0,0,0-1.777-3.5c-2.426-3.115-16.765-6.765-20.711-6.856l-.095.021c3.947.025,17.4-1.622,19.913-4.663a13.25,13.25,0,0,0,1.881-3.446,69.094,69.094,0,0,0,4.6-14.414h.041a65.909,65.909,0,0,0,4.33,14.126,13.249,13.249,0,0,0,1.88,3.444c2.517,3.043,15.582,5.253,19.529,5.229l.037-.021c-3.946.091-17.633,3.861-20.057,6.977a13.28,13.28,0,0,0-1.778,3.5c-2.011,5.287-2.455,8.017-3.4,13.594" transform="translate(-9485.764 -8409.205)" fill="#fefff0"/>
    </g>
    <g id="Grupo_2072" data-name="Grupo 2072" transform="translate(10987.023 8063.533)">
      <path id="Caminho_498-6" data-name="Caminho 498" d="M9512.6,8456.053c-.942-5.577-2.243-8.7-4.254-13.988a13.3,13.3,0,0,0-1.777-3.5c-2.426-3.115-16.765-6.765-20.711-6.856l-.095.021c3.947.025,17.4-1.622,19.913-4.663a13.25,13.25,0,0,0,1.881-3.446,69.094,69.094,0,0,0,4.6-14.414h.041a65.909,65.909,0,0,0,4.33,14.126,13.249,13.249,0,0,0,1.88,3.444c2.517,3.043,15.582,5.253,19.529,5.229l.037-.021c-3.946.091-17.633,3.861-20.057,6.977a13.28,13.28,0,0,0-1.778,3.5c-2.011,5.287-2.455,8.017-3.4,13.594" transform="translate(-9485.764 -8409.205)" fill="#fefff0"/>
    </g>
  </g>
</svg>
