<svg xmlns="http://www.w3.org/2000/svg" width="656.113" height="176.965" viewBox="0 0 656.113 176.965">
  <g id="logo-texto" transform="translate(-246.211 -279.717)">
    <g id="Grupo_1983" data-name="Grupo 1983" transform="translate(496.69 428.476)">
      <path id="Caminho_1282" data-name="Caminho 1282" d="M849.645,657.966h3.133a4.147,4.147,0,0,0,4.238,4.085,4.028,4.028,0,0,0,3.962-4.085c0-2.6-1.566-3.528-4.239-4.921-2.764-1.486-6.265-3.343-6.265-8.264a6.691,6.691,0,0,1,6.634-6.685,6.617,6.617,0,0,1,4.7,2.043,6.183,6.183,0,0,1,1.843,4.643h-3.225a3.384,3.384,0,0,0-1.013-2.415,2.986,2.986,0,0,0-2.3-1.021,3.283,3.283,0,0,0-3.317,3.436c0,2.878,1.567,3.9,4.423,5.292,2.672,1.486,5.989,3.25,5.989,7.892a7.279,7.279,0,1,1-14.558,0Z" transform="translate(-849.645 -638.096)" fill="#fefff0" stroke="#fefff0" stroke-miterlimit="10" stroke-width="2"/>
      <path id="Caminho_1283" data-name="Caminho 1283" d="M924.041,643.135h-8.016v22.47h-3.317v-22.47h-8.016v-3.25h19.349Z" transform="translate(-881.843 -639.142)" fill="#fefff0" stroke="#fefff0" stroke-miterlimit="10" stroke-width="2"/>
      <path id="Caminho_1284" data-name="Caminho 1284" d="M976.831,657.713V639.885h3.317v17.828a5.068,5.068,0,1,0,10.135,0V639.885H993.6v17.828a8.385,8.385,0,1,1-16.769,0Z" transform="translate(-924.037 -639.142)" fill="#fefff0" stroke="#fefff0" stroke-miterlimit="10" stroke-width="2"/>
      <path id="Caminho_1285" data-name="Caminho 1285" d="M1070.608,652.884a12.714,12.714,0,0,1-12.991,12.721h-7.094v-25.72h7.094A12.777,12.777,0,0,1,1070.608,652.884Zm-3.317,0a9.539,9.539,0,0,0-9.674-9.75h-3.777v19.221h3.777A9.476,9.476,0,0,0,1067.291,652.884Z" transform="translate(-967.14 -639.142)" fill="#fefff0" stroke="#fefff0" stroke-miterlimit="10" stroke-width="2"/>
      <path id="Caminho_1286" data-name="Caminho 1286" d="M1127.766,639.885h3.317v25.72h-3.317Z" transform="translate(-1012.321 -639.142)" fill="#fefff0" stroke="#fefff0" stroke-miterlimit="10" stroke-width="2"/>
      <path id="Caminho_1287" data-name="Caminho 1287" d="M1159.061,651.783a13.36,13.36,0,1,1,13.36,13.463A13.481,13.481,0,0,1,1159.061,651.783Zm23.4,0a10.089,10.089,0,1,0-20.178,0,10.09,10.09,0,1,0,20.178,0Z" transform="translate(-1030.626 -638.226)" fill="#fefff0" stroke="#fefff0" stroke-miterlimit="10" stroke-width="2"/>
    </g>
    <g id="Grupo_1984" data-name="Grupo 1984" transform="translate(246.211 279.717)">
      <path id="Caminho_1288" data-name="Caminho 1288" d="M453.94,381.548l-4.952-97.019-17.193-.162-17.57,39.944-2.7.108-17.7-40.5-13.342.055v-.109l-133.472,1.66-.8.01.836,114.616L296.4,402.7l8.7-57.7-35.781-2.385.229,16.5,14.637.412v24.618H265.341L263.522,306.1l114.594-1.415L375.74,413.035l20.657-4.86,1.031-56.493L409.45,396.9a3.977,3.977,0,0,0,3.762,2.686h0a3.976,3.976,0,0,0,3.718-2.566l13.089-44.671,3.973,46.086.061.7,77.215,4.191,10.608-16.277Z" transform="translate(-246.211 -282.143)" fill="#fefff0"/>
      <path id="Caminho_1289" data-name="Caminho 1289" d="M778.637,355.529V340.3c2.708.068-2.75.284,6.211.418,21.882.328,22.414-.116,22.8-.44.418-.349.99-.826.752-10.124-.114-4.417-.366-8.777-.369-8.821l-.042-.714-30.485-2.577,1.249-14.669,44.5-.559-7.044-19.32-55.612,1.7,1.675,87.686.015.748,61.339,3.2,10.987-16.073Z" transform="translate(-547.08 -281.925)" fill="#fefff0"/>
      <path id="Caminho_1290" data-name="Caminho 1290" d="M432.953,380.346,406.846,375.3,383.13,466.487l20.495-.654,9.84-33.939,10.64-.18,8.042,34.979,21.472-1.3ZM419.342,424.6a42.372,42.372,0,0,0-2.79-9.178,8.686,8.686,0,0,0-1.166-2.3c-1.591-2.044-11-4.439-13.588-4.5l-.062.013c2.59.017,11.414-1.063,13.065-3.06a8.694,8.694,0,0,0,1.234-2.26,45.363,45.363,0,0,0,3.017-9.457h.027a43.256,43.256,0,0,0,2.84,9.267,8.7,8.7,0,0,0,1.234,2.26c1.65,2,10.222,3.446,12.813,3.43l.024-.014c-2.589.06-11.568,2.533-13.158,4.577a8.7,8.7,0,0,0-1.167,2.3,38.945,38.945,0,0,0-2.229,8.919" transform="translate(-326.296 -335.626)" fill="#fefff0"/>
      <path id="Caminho_1291" data-name="Caminho 1291" d="M1722.569,362.042l-10.987,16.073-.45-.023-60.889-3.175-.015-.748-1.675-87.686,55.612-1.7,7.044,19.32-44.5.559-1.249,14.669,33.171,2.576.042.714c0,.044.255,4.4.368,8.821.239,9.3-.333,9.775-.751,10.124-.389.323-.919.767-22.8.44a84.466,84.466,0,0,1-8.9-.418v15.233Z" transform="translate(-1066.456 -282.678)" fill="#fefff0"/>
      <path id="Caminho_1292" data-name="Caminho 1292" d="M946.656,279.717l96.9,3.523-20.431,19.8v-.078l-56.543.776-1.035,19.046h27.209l-5.821,21.828-21.469,1.342-2.519,66.209L948.8,407.881l-.011-.464-2.924-127.642" transform="translate(-655.445 -279.717)" fill="#fefff0"/>
      <path id="Caminho_1293" data-name="Caminho 1293" d="M1097.619,431.658l-22.49,6.615.628-71.184,21.442-8.842Z" transform="translate(-731.054 -325.65)" fill="#fefff0"/>
      <path id="Caminho_1294" data-name="Caminho 1294" d="M1209.976,405.863l.214,24.571-12.744,13.381-23.986-.417-18.176-5.072-7.961-56.574,16.908-27.711,21.175-17.9,19.432,4.436,20.867,17.334-19.208,17.9-16.433-12.371L1169.4,382.691l.32,27.234,13.926,11.446,11.847-17.068Z" transform="translate(-773.281 -312.718)" fill="#fefff0"/>
      <path id="Caminho_1295" data-name="Caminho 1295" d="M1364.09,304.5l-28.357,3.16-21.506,94.923,21.063-.6,9.167-45.406,10.966-.166,9.2,46.361,17.611-1.925Zm-22.556,32.7,16.579,5.97-15.633.266,3.115-17.05,9.248-.13Z" transform="translate(-870.905 -294.213)" fill="#fefff0"/>
      <path id="Caminho_1296" data-name="Caminho 1296" d="M1497.128,409.924l.728.009,2.69-65.152,34.219,50.024.057.07,75.039,6.3,10.62-16.3-68.1-5.637-31.716-41.93,16.84-9.506,9.912-15.16-.118-.365c-.214-.661-5.314-16.288-12.277-24.814-7.115-8.712-50.446-7.68-52.288-7.632l-.8.021,1.755,123.5m33.935-83.01-17.207.266,3.428-17.05,10.179-.131Z" transform="translate(-968.997 -279.752)" fill="#fefff0"/>
    </g>
  </g>
</svg>
