<svg id="moon" xmlns="http://www.w3.org/2000/svg" width="146.622" height="146.621" viewBox="0 0 146.622 146.621">
  <g id="Grupo_1868" data-name="Grupo 1868" transform="translate(0 0)">
    <circle id="Elipse_40" data-name="Elipse 40" cx="72.734" cy="72.734" r="72.734" transform="translate(0.553 0.577)" fill="#fd64e0"/>
    <path id="Caminho_1071" data-name="Caminho 1071" d="M4709.519,3238.615a73.311,73.311,0,1,1,73.311-73.311A73.394,73.394,0,0,1,4709.519,3238.615Zm0-145.467a72.157,72.157,0,1,0,72.157,72.156A72.239,72.239,0,0,0,4709.519,3093.147Z" transform="translate(-4636.208 -3091.994)"/>
  </g>
  <g id="Grupo_1869" data-name="Grupo 1869" transform="translate(20.126 42.833)">
    <path id="Caminho_1072" data-name="Caminho 1072" d="M4853.783,3498.692c-6.709-1.506-14.572-.985-19.288,4.02a18.58,18.58,0,0,0-4.4,10.144,24.95,24.95,0,0,0,2.181,15.033,17.8,17.8,0,0,0,11.671,9.335c9.2,1.986,18.763-5.714,20.305-15s-3.835-18.846-11.763-23.915" transform="translate(-4829.21 -3497.372)" fill="#3564da"/>
    <path id="Caminho_1073" data-name="Caminho 1073" d="M4842.129,3533.291a14.658,14.658,0,0,1-3.095-.328,18.325,18.325,0,0,1-12.062-9.633,25.609,25.609,0,0,1-2.239-15.383c.652-4.425,2.183-7.943,4.551-10.455,4.01-4.255,10.931-5.877,18.682-4.424l.042-.067.165.106c.314.061.159.106.476.177l.383.4c7.931,5.6,12.424,15.224,11,23.807a19.671,19.671,0,0,1-8.355,12.7A17.025,17.025,0,0,1,4842.129,3533.291Zm.41-39.593c-5.169,0-9.589,1.586-12.415,4.584-2.2,2.337-3.632,5.646-4.249,9.832A24.454,24.454,0,0,0,4828,3522.8a17.16,17.16,0,0,0,11.281,9.036,15.183,15.183,0,0,0,11.749-2.591,18.5,18.5,0,0,0,7.866-11.937c1.394-8.383-3.185-17.827-11.16-23.11A28.346,28.346,0,0,0,4842.54,3493.7Z" transform="translate(-4824.421 -3492.546)"/>
  </g>
  <g id="Grupo_1870" data-name="Grupo 1870" transform="translate(20.032 43.619)">
    <path id="Caminho_1074" data-name="Caminho 1074" d="M4842.523,3505.377c-2.745,1.461-4.192,4.68-4.356,7.786s.745,6.158,1.673,9.127c2.433,7.781,5.556,16.139,12.545,20.333-5.777,2.611-13.011.861-17.534-3.581s-6.432-11.153-5.753-17.457a20.413,20.413,0,0,1,4.387-10.913,14.707,14.707,0,0,1,10.274-5.388" transform="translate(-4828.384 -3504.708)" fill="#071f56"/>
    <path id="Caminho_1075" data-name="Caminho 1075" d="M4841.674,3539.615a17.43,17.43,0,0,1-12.072-4.971c-4.447-4.367-6.661-11.07-5.922-17.93a20.837,20.837,0,0,1,4.518-11.221,15.678,15.678,0,0,1,9.2-5.428l.014-.008,0,0a13.029,13.029,0,0,1,1.473-.164l.068.522c-.855.333-1.393.366-1.592.784-2.655,1.521-3.329,4.67-3.461,7.178-.165,3.125.84,6.341,1.647,8.924,2.353,7.525,5.437,15.9,12.292,20.011l.944.567-1,.454A14.8,14.8,0,0,1,4841.674,3539.615Zm-6.489-37.757a14.911,14.911,0,0,0-6.1,4.374,19.687,19.687,0,0,0-4.256,10.6c-.7,6.513,1.386,12.861,5.584,16.983a15.75,15.75,0,0,0,15.878,3.874c-6.533-4.488-9.538-12.665-11.844-20.042-.835-2.672-1.875-6-1.7-9.33A10.8,10.8,0,0,1,4835.185,3501.858Z" transform="translate(-4823.54 -3499.898)"/>
  </g>
  <g id="Grupo_1871" data-name="Grupo 1871" transform="translate(83.301 33.999)">
    <path id="Caminho_1076" data-name="Caminho 1076" d="M5439.572,3415.936c-5.312-1.192-11.536-.78-15.269,3.181a14.715,14.715,0,0,0-3.483,8.03,19.746,19.746,0,0,0,1.726,11.9,14.086,14.086,0,0,0,9.239,7.39c7.281,1.572,14.853-4.524,16.074-11.872s-3.037-14.919-9.312-18.932" transform="translate(-5419.999 -3414.77)" fill="#3564da"/>
    <path id="Caminho_1077" data-name="Caminho 1077" d="M5434.175,3410.393m.662.448c6.341,4.458,9.936,12.14,8.8,18.993a15.7,15.7,0,0,1-6.665,10.135,13.6,13.6,0,0,1-7.624,2.469,11.737,11.737,0,0,1-2.476-.263,14.631,14.631,0,0,1-9.63-7.688,20.4,20.4,0,0,1-1.784-12.25,15.08,15.08,0,0,1,3.634-8.342c3.211-3.407,8.752-4.7,14.946-3.529m-4.367.729c-4.058,0-7.526,1.242-9.739,3.591a13.974,13.974,0,0,0-3.333,7.719,19.237,19.237,0,0,0,1.668,11.552,13.463,13.463,0,0,0,8.85,7.091,11.892,11.892,0,0,0,9.207-2.033,14.524,14.524,0,0,0,6.176-9.37c1.095-6.584-2.5-14-8.762-18.162A22.327,22.327,0,0,0,5429.667,3411.095Z" transform="translate(-5415.205 -3409.943)"/>
  </g>
  <g id="Grupo_1872" data-name="Grupo 1872" transform="translate(83.226 34.622)">
    <path id="Caminho_1078" data-name="Caminho 1078" d="M5430.658,3421.228a7.325,7.325,0,0,0-3.449,6.163,20.842,20.842,0,0,0,1.324,7.225c1.927,6.16,4.4,12.776,9.932,16.1-4.573,2.066-10.3.681-13.881-2.835a16.958,16.958,0,0,1-4.554-13.819,16.145,16.145,0,0,1,3.473-8.639,11.636,11.636,0,0,1,8.133-4.265" transform="translate(-5419.345 -3420.579)" fill="#071f56"/>
    <path id="Caminho_1079" data-name="Caminho 1079" d="M5428.982,3447.448a13.92,13.92,0,0,1-9.642-3.969,17.44,17.44,0,0,1-4.723-14.293,16.613,16.613,0,0,1,3.6-8.948,12.287,12.287,0,0,1,8.545-4.471l1.171.274c-.3.015-1.7.924-2,.969a6.863,6.863,0,0,0-2.991,5.6,20.646,20.646,0,0,0,1.3,7.023c1.856,5.935,4.287,12.538,9.678,15.774l.944.567-1,.453A11.834,11.834,0,0,1,5428.982,3447.448Zm-5.52-29.726a11.745,11.745,0,0,0-4.358,3.257,15.481,15.481,0,0,0-3.342,8.331,16.284,16.284,0,0,0,4.386,13.345,12.376,12.376,0,0,0,12.222,3.115c-5.069-3.6-7.418-10.007-9.228-15.792a21.541,21.541,0,0,1-1.35-7.428A8.809,8.809,0,0,1,5423.462,3417.722Z" transform="translate(-5414.505 -3415.768)"/>
  </g>
  <g id="Grupo_1873" data-name="Grupo 1873" transform="translate(66.459 76.649)">
    <path id="Caminho_1080" data-name="Caminho 1080" d="M5277.4,3814.807c-4.168-.936-9.054-.612-11.984,2.5a11.542,11.542,0,0,0-2.734,6.3,15.5,15.5,0,0,0,1.354,9.34,11.058,11.058,0,0,0,7.252,5.8c5.715,1.234,11.657-3.551,12.616-9.318s-2.383-11.709-7.309-14.859" transform="translate(-5261.979 -3813.75)" fill="#3564da"/>
    <path id="Caminho_1081" data-name="Caminho 1081" d="M5268.93,3834.551a9.347,9.347,0,0,1-1.97-.209,11.607,11.607,0,0,1-7.642-6.1,16.13,16.13,0,0,1-1.413-9.689,11.958,11.958,0,0,1,2.885-6.615c2.558-2.715,7.059-3.762,11.982-2.819l-.071-.005c.022.015.134.008.156.022.183.036.465.323.649.364h0c5.041,3.521,7.666,9.613,6.762,15.054a12.449,12.449,0,0,1-5.285,8.037A10.8,10.8,0,0,1,5268.93,3834.551Zm.251-24.6a10.174,10.174,0,0,0-7.552,2.779,10.843,10.843,0,0,0-2.583,5.992,14.973,14.973,0,0,0,1.3,8.991,10.445,10.445,0,0,0,6.861,5.5,9.221,9.221,0,0,0,7.131-1.577,11.271,11.271,0,0,0,4.794-7.272c.851-5.114-1.939-10.877-6.8-14.117A17.384,17.384,0,0,0,5269.182,3809.95Z" transform="translate(-5257.708 -3808.78)"/>
  </g>
  <g id="Grupo_1874" data-name="Grupo 1874" transform="translate(66.337 77.155)">
    <path id="Caminho_1082" data-name="Caminho 1082" d="M5270.4,3818.96a5.749,5.749,0,0,0-2.707,4.838,16.326,16.326,0,0,0,1.039,5.671c1.512,4.835,3.452,10.027,7.795,12.634a10.1,10.1,0,0,1-10.895-2.225,13.311,13.311,0,0,1-3.575-10.847,12.685,12.685,0,0,1,2.726-6.781,9.136,9.136,0,0,1,6.383-3.348" transform="translate(-5261.4 -3818.327)" fill="#071f56"/>
    <path id="Caminho_1083" data-name="Caminho 1083" d="M5268.057,3838.629a11.051,11.051,0,0,1-7.656-3.151,13.813,13.813,0,0,1-3.744-11.32,13.16,13.16,0,0,1,2.856-7.089,9.635,9.635,0,0,1,6.8-3.553l.429.69a1.4,1.4,0,0,0-1.031.529,5.275,5.275,0,0,0-2.266,4.283,16.079,16.079,0,0,0,1.014,5.469c1.449,4.637,3.347,9.794,7.541,12.312l.945.567-1,.454A9.416,9.416,0,0,1,5268.057,3838.629Zm-4.693-23.155a9.129,9.129,0,0,0-2.965,2.335,12.018,12.018,0,0,0-2.6,6.472,12.651,12.651,0,0,0,3.406,10.373,9.619,9.619,0,0,0,9.232,2.488c-3.871-2.872-5.686-7.829-7.087-12.312a16.712,16.712,0,0,1-1.065-5.874A7.177,7.177,0,0,1,5263.364,3815.475Z" transform="translate(-5256.569 -3813.516)"/>
  </g>
  <g id="Grupo_1875" data-name="Grupo 1875" transform="translate(57.778 18.077)">
    <path id="Caminho_1084" data-name="Caminho 1084" d="M5193.769,3267.027c-3.316-.745-7.2-.487-9.534,1.987a9.175,9.175,0,0,0-2.175,5.014,12.327,12.327,0,0,0,1.078,7.431,8.8,8.8,0,0,0,5.769,4.615c4.547.982,9.274-2.825,10.038-7.413s-1.9-9.316-5.815-11.822" transform="translate(-5181.331 -3266.058)" fill="#3564da"/>
    <path id="Caminho_1085" data-name="Caminho 1085" d="M5185.574,3281.787a7.518,7.518,0,0,1-1.592-.169,9.353,9.353,0,0,1-6.16-4.914,12.956,12.956,0,0,1-1.137-7.78,9.624,9.624,0,0,1,2.327-5.325c2.07-2.2,5.28-3.056,9.257-2.279l.072.016c.012.008.3.087.316.1.14.028.058.024.2.055l.2.125c4.07,2.823,6.383,7.739,5.655,12.124a10.024,10.024,0,0,1-4.254,6.472A8.706,8.706,0,0,1,5185.574,3281.787Zm.2-19.573a7.972,7.972,0,0,0-5.919,2.175,8.511,8.511,0,0,0-2.025,4.7,11.793,11.793,0,0,0,1.02,7.081,8.191,8.191,0,0,0,5.379,4.316,7.223,7.223,0,0,0,5.582-1.237,8.851,8.851,0,0,0,3.764-5.707c.667-4.016-1.522-8.544-5.34-11.1A13.71,13.71,0,0,0,5185.771,3262.215Z" transform="translate(-5176.528 -3261.039)"/>
  </g>
  <g id="Grupo_1876" data-name="Grupo 1876" transform="translate(57.732 18.489)">
    <path id="Caminho_1086" data-name="Caminho 1086" d="M5188.2,3270.331a4.574,4.574,0,0,0-2.154,3.849,12.994,12.994,0,0,0,.827,4.512c1.2,3.846,2.746,7.978,6.2,10.051a8.034,8.034,0,0,1-8.667-1.77,10.588,10.588,0,0,1-2.844-8.629,10.09,10.09,0,0,1,2.168-5.4,7.27,7.27,0,0,1,5.079-2.663" transform="translate(-5180.923 -3269.709)" fill="#071f56"/>
    <path id="Caminho_1087" data-name="Caminho 1087" d="M5185.351,3285.111a8.91,8.91,0,0,1-6.173-2.54,11.108,11.108,0,0,1-3.014-9.1,10.593,10.593,0,0,1,2.3-5.7,7.792,7.792,0,0,1,5.491-2.87l.055.843a1.666,1.666,0,0,0-.714.19c-1.177.7-1.437,2.321-1.5,3.469a12.707,12.707,0,0,0,.8,4.309c1.146,3.668,2.646,7.748,5.947,9.729l.944.567-1,.454A7.607,7.607,0,0,1,5185.351,3285.111Zm-4.042-18.242a7.184,7.184,0,0,0-1.96,1.637,9.444,9.444,0,0,0-2.037,5.086,9.949,9.949,0,0,0,2.674,8.156,7.565,7.565,0,0,0,7,2.013c-2.977-2.324-4.393-6.2-5.49-9.71a13.4,13.4,0,0,1-.853-4.714A5.923,5.923,0,0,1,5181.309,3266.869Z" transform="translate(-5176.093 -3264.896)"/>
  </g>
  <g id="Grupo_1877" data-name="Grupo 1877" transform="translate(117.518 62.949)">
    <path id="Caminho_1088" data-name="Caminho 1088" d="M5752.43,3686.427c-3.316-.744-7.2-.487-9.534,1.987a9.185,9.185,0,0,0-2.176,5.014,12.333,12.333,0,0,0,1.078,7.431,8.8,8.8,0,0,0,5.769,4.615c4.547.981,9.275-2.825,10.038-7.413s-1.9-9.316-5.815-11.822" transform="translate(-5739.992 -3685.483)" fill="#3564da"/>
    <path id="Caminho_1089" data-name="Caminho 1089" d="M5744.235,3701.389a7.514,7.514,0,0,1-1.592-.169,9.354,9.354,0,0,1-6.16-4.913,12.949,12.949,0,0,1-1.137-7.78,9.634,9.634,0,0,1,2.326-5.326c2.071-2.2,5.639-3.026,9.616-2.251l.009-.014c.013.008.271.06.283.067.14.028.065.064.206.1l.048.015a12.894,12.894,0,0,1,5.536,12.225,10.021,10.021,0,0,1-4.254,6.472A8.7,8.7,0,0,1,5744.235,3701.389Zm.2-19.572a7.977,7.977,0,0,0-5.922,2.175,8.51,8.51,0,0,0-2.023,4.7,11.79,11.79,0,0,0,1.019,7.082,8.19,8.19,0,0,0,5.379,4.316,7.219,7.219,0,0,0,5.582-1.237,8.851,8.851,0,0,0,3.765-5.707c.668-4.017-1.522-8.545-5.341-11.1A13.716,13.716,0,0,0,5744.435,3681.817Z" transform="translate(-5735.188 -3680.665)"/>
  </g>
  <g id="Grupo_1878" data-name="Grupo 1878" transform="translate(117.472 63.337)">
    <path id="Caminho_1090" data-name="Caminho 1090" d="M5746.864,3689.732a4.577,4.577,0,0,0-2.154,3.849,13.009,13.009,0,0,0,.828,4.512c1.2,3.846,2.745,7.977,6.2,10.051a8.034,8.034,0,0,1-8.668-1.77,10.59,10.59,0,0,1-2.844-8.629,10.088,10.088,0,0,1,2.169-5.395,7.269,7.269,0,0,1,5.078-2.663" transform="translate(-5739.583 -3689.11)" fill="#071f56"/>
    <path id="Caminho_1091" data-name="Caminho 1091" d="M5744.012,3704.511a8.913,8.913,0,0,1-6.174-2.54,11.109,11.109,0,0,1-3.013-9.1,10.585,10.585,0,0,1,2.3-5.7,7.786,7.786,0,0,1,5.491-2.87l.807.535c-.164.008-1.075.643-1.239.666a4.09,4.09,0,0,0-1.726,3.3,12.72,12.72,0,0,0,.8,4.309c1.146,3.668,2.646,7.748,5.948,9.729l.944.567-1,.453A7.6,7.6,0,0,1,5744.012,3704.511Zm-4.043-18.242a7.183,7.183,0,0,0-1.959,1.637,9.441,9.441,0,0,0-2.038,5.086,9.946,9.946,0,0,0,2.675,8.156,7.571,7.571,0,0,0,7,2.013c-2.976-2.324-4.392-6.2-5.489-9.71a13.624,13.624,0,0,1-.853-4.715A5.949,5.949,0,0,1,5739.968,3686.269Z" transform="translate(-5734.753 -3684.296)"/>
  </g>
  <g id="Grupo_1879" data-name="Grupo 1879" transform="translate(84.624 105.48)">
    <path id="Caminho_1092" data-name="Caminho 1092" d="M5450.163,4084.33c-4.812-1.08-10.452-.707-13.833,2.883a13.321,13.321,0,0,0-3.157,7.275,17.9,17.9,0,0,0,1.564,10.782,12.761,12.761,0,0,0,8.372,6.7c6.6,1.425,13.457-4.1,14.563-10.756s-2.751-13.517-8.437-17.153" transform="translate(-5432.375 -4083.22)" fill="#3564da"/>
    <path id="Caminho_1093" data-name="Caminho 1093" d="M5440.443,4107.947a10.668,10.668,0,0,1-2.255-.24,13.309,13.309,0,0,1-8.762-6.994,18.537,18.537,0,0,1-1.623-11.131,13.722,13.722,0,0,1,3.307-7.587c2.925-3.1,7.972-4.283,13.613-3.209l.024-.037c.031.02.9.335.932.355.216.042.748.98.966,1.03l-1.213-.926c5.772,4.049,9.047,11.039,8.01,17.274a14.28,14.28,0,0,1-6.062,9.219A12.379,12.379,0,0,1,5440.443,4107.947Zm.291-28.4c-3.661,0-6.789,1.12-8.784,3.237a12.611,12.611,0,0,0-3,6.964,17.369,17.369,0,0,0,1.505,10.433,12.144,12.144,0,0,0,7.98,6.4,10.724,10.724,0,0,0,8.3-1.833,13.1,13.1,0,0,0,5.573-8.454c.987-5.94-2.255-12.636-7.905-16.393A20.123,20.123,0,0,0,5440.734,4079.549Z" transform="translate(-5427.578 -4078.397)"/>
  </g>
  <g id="Grupo_1880" data-name="Grupo 1880" transform="translate(84.557 106.044)">
    <path id="Caminho_1094" data-name="Caminho 1094" d="M5442.086,4089.125a6.638,6.638,0,0,0-3.125,5.584,18.9,18.9,0,0,0,1.2,6.546c1.745,5.581,3.984,11.575,9,14.584-4.144,1.873-9.332.618-12.576-2.568a15.365,15.365,0,0,1-4.126-12.521,14.64,14.64,0,0,1,3.146-7.828,10.545,10.545,0,0,1,7.368-3.864" transform="translate(-5431.782 -4088.483)" fill="#071f56"/>
    <path id="Caminho_1095" data-name="Caminho 1095" d="M5440.118,4112.482a12.665,12.665,0,0,1-8.774-3.611,15.859,15.859,0,0,1-4.3-12.994,15.1,15.1,0,0,1,3.277-8.135,11.033,11.033,0,0,1,7.781-4.07l1.29.427c-.262.013-1.756.765-2.019.8a6.167,6.167,0,0,0-2.675,5.025,18.648,18.648,0,0,0,1.174,6.343c1.678,5.369,3.876,11.341,8.745,14.262l.944.566-1,.454A10.77,10.77,0,0,1,5440.118,4112.482Zm-5.164-26.856a10.6,10.6,0,0,0-3.744,2.855,13.956,13.956,0,0,0-3.015,7.519,14.7,14.7,0,0,0,3.957,12.047,11.175,11.175,0,0,0,10.917,2.842c-4.544-3.282-6.661-9.057-8.292-14.274a19.54,19.54,0,0,1-1.226-6.748A8.105,8.105,0,0,1,5434.954,4085.626Z" transform="translate(-5426.946 -4083.671)"/>
  </g>
  <g id="Grupo_1881" data-name="Grupo 1881" transform="translate(39.199 105.459)">
    <path id="Caminho_1096" data-name="Caminho 1096" d="M5021,4084.194c-3.588-.806-7.794-.527-10.317,2.15a9.938,9.938,0,0,0-2.354,5.426,13.338,13.338,0,0,0,1.166,8.042,9.518,9.518,0,0,0,6.243,4.994c4.92,1.062,10.037-3.057,10.862-8.022s-2.052-10.081-6.292-12.793" transform="translate(-5007.588 -4083.198)" fill="#3564da"/>
    <path id="Caminho_1097" data-name="Caminho 1097" d="M5012.527,4100.553a8.113,8.113,0,0,1-1.713-.182,10.072,10.072,0,0,1-6.634-5.293,13.965,13.965,0,0,1-1.225-8.39,10.377,10.377,0,0,1,2.5-5.738c2.227-2.363,5.8-3.28,10.078-2.451l.246.055c.015.01.072.03.087.04.154.03.114.028.269.063l.144.16c4.381,3.046,6.869,8.339,6.084,13.062a10.8,10.8,0,0,1-4.584,6.974A9.371,9.371,0,0,1,5012.527,4100.553Zm.216-21.18a8.679,8.679,0,0,0-6.443,2.368,9.255,9.255,0,0,0-2.2,5.115,12.815,12.815,0,0,0,1.108,7.692,8.906,8.906,0,0,0,5.853,4.695,7.854,7.854,0,0,0,6.077-1.345,9.623,9.623,0,0,0,4.094-6.208c.726-4.367-1.656-9.29-5.809-12.065A14.927,14.927,0,0,0,5012.743,4079.373Z" transform="translate(-5002.785 -4078.2)"/>
  </g>
  <g id="Grupo_1882" data-name="Grupo 1882" transform="translate(39.149 105.901)">
    <path id="Caminho_1098" data-name="Caminho 1098" d="M5014.977,4087.771a4.951,4.951,0,0,0-2.331,4.165,14.089,14.089,0,0,0,.9,4.882c1.3,4.162,2.971,8.632,6.711,10.877a8.7,8.7,0,0,1-9.38-1.916,11.456,11.456,0,0,1-3.077-9.338,10.921,10.921,0,0,1,2.346-5.837,7.865,7.865,0,0,1,5.5-2.882" transform="translate(-5007.145 -4087.146)" fill="#071f56"/>
    <path id="Caminho_1099" data-name="Caminho 1099" d="M5012.286,4104.114a9.6,9.6,0,0,1-6.648-2.735,11.978,11.978,0,0,1-3.247-9.812,11.412,11.412,0,0,1,2.477-6.146,8.377,8.377,0,0,1,5.908-3.088v.816a1.184,1.184,0,0,0-.625.4,4.32,4.32,0,0,0-1.759,3.609,13.794,13.794,0,0,0,.869,4.679c1.244,3.978,2.872,8.4,6.458,10.555l.944.567-1,.454A8.186,8.186,0,0,1,5012.286,4104.114Zm-4.255-19.814a7.8,7.8,0,0,0-2.277,1.861,10.268,10.268,0,0,0-2.216,5.53,10.814,10.814,0,0,0,2.908,8.864,8.23,8.23,0,0,0,7.715,2.167c-3.262-2.5-4.806-6.721-6-10.544a14.72,14.72,0,0,1-.92-5.084A6.339,6.339,0,0,1,5008.03,4084.3Z" transform="translate(-5002.314 -4082.333)"/>
  </g>
  <g id="Grupo_1883" data-name="Grupo 1883" transform="translate(15.068 94.246)">
    <path id="Caminho_1100" data-name="Caminho 1100" d="M4791.7,3979.153c-2.571-.533-5.584-.348-7.39,1.422a6.338,6.338,0,0,0-1.686,3.589,8.226,8.226,0,0,0,.835,5.318,6.743,6.743,0,0,0,4.472,3.3,6.9,6.9,0,0,0,7.779-5.305c.591-3.284-1.469-6.667-4.507-8.461" transform="translate(-4781.927 -3978.296)" fill="#3564da"/>
    <path id="Caminho_1101" data-name="Caminho 1101" d="M4784.242,3988.514a6.288,6.288,0,0,1-1.232-.12,7.309,7.309,0,0,1-4.862-3.585,8.832,8.832,0,0,1-.9-5.691,6.823,6.823,0,0,1,1.852-3.91c1.639-1.607,4.25-2.231,7.381-1.657l-.008-.008s.115.014.119.016c.1.019.111.057.214.079l.182.11c3.229,2.052,5.065,5.657,4.485,8.878a7.218,7.218,0,0,1-3.118,4.581A7.359,7.359,0,0,1,4784.242,3988.514Zm.169-14.005a6.365,6.365,0,0,0-4.506,1.522,5.708,5.708,0,0,0-1.52,3.268,7.675,7.675,0,0,0,.769,4.945,6.145,6.145,0,0,0,4.082,3.019,5.977,5.977,0,0,0,4.468-1.011,6.063,6.063,0,0,0,2.632-3.831c.5-2.795-1.156-5.953-4.048-7.75A11.417,11.417,0,0,0,4784.411,3974.509Z" transform="translate(-4777.121 -3973.342)"/>
  </g>
  <g id="Grupo_1884" data-name="Grupo 1884" transform="translate(15.032 94.541)">
    <path id="Caminho_1102" data-name="Caminho 1102" d="M4787.384,3981.518a3.227,3.227,0,0,0-1.669,2.754,8.679,8.679,0,0,0,.641,3.229c.932,2.753,2.128,5.709,4.807,7.194a6.609,6.609,0,0,1-6.718-1.267,7.224,7.224,0,0,1-2.2-6.175,6.927,6.927,0,0,1,1.681-3.861,5.791,5.791,0,0,1,3.936-1.906" transform="translate(-4781.61 -3980.909)" fill="#071f56"/>
    <path id="Caminho_1103" data-name="Caminho 1103" d="M4784.092,3990.891a7.334,7.334,0,0,1-4.863-1.848,7.762,7.762,0,0,1-2.39-6.67,7.453,7.453,0,0,1,1.826-4.181A6.326,6.326,0,0,1,4783,3976.1l.007.888c-.117.006-.428.214-.546.23a2.581,2.581,0,0,0-1,2.278,8.066,8.066,0,0,0,.612,3.011c.879,2.6,2.026,5.481,4.54,6.873l1.042.578-1.1.459A6.409,6.409,0,0,1,4784.092,3990.891Zm-3.471-12.847a5.314,5.314,0,0,0-1.1.923,6.316,6.316,0,0,0-1.536,3.541,6.606,6.606,0,0,0,2.02,5.681,6.2,6.2,0,0,0,4.976,1.477c-2.13-1.7-3.178-4.368-4-6.791a9.252,9.252,0,0,1-.671-3.447A4.293,4.293,0,0,1,4780.621,3978.044Z" transform="translate(-4776.782 -3976.098)"/>
  </g>
  <g id="Grupo_1885" data-name="Grupo 1885" transform="translate(93.188 12.884)">
    <path id="Caminho_1104" data-name="Caminho 1104" d="M5518.4,3218.092a4.818,4.818,0,0,0-4.3.827,3.68,3.68,0,0,0-.98,2.086,4.779,4.779,0,0,0,.485,3.092,3.922,3.922,0,0,0,2.6,1.92,4.013,4.013,0,0,0,4.523-3.084,4.984,4.984,0,0,0-2.62-4.918" transform="translate(-5512.478 -3217.355)" fill="#3564da"/>
    <path id="Caminho_1105" data-name="Caminho 1105" d="M5512.066,3221.785a3.969,3.969,0,0,1-.781-.077,4.49,4.49,0,0,1-2.99-2.2,5.371,5.371,0,0,1-.552-3.465,4.2,4.2,0,0,1,1.146-2.406c1.5-1.474,3.724-1.185,4.671-.989l.135.061a5.483,5.483,0,0,1,2.793,5.455,4.64,4.64,0,0,1-4.422,3.625Zm.075-8.145a3.458,3.458,0,0,0-2.446.816,3.085,3.085,0,0,0-.813,1.765,4.221,4.221,0,0,0,.418,2.718,3.328,3.328,0,0,0,2.21,1.636,3.231,3.231,0,0,0,2.414-.551,3.326,3.326,0,0,0,1.428-2.07,4.378,4.378,0,0,0-2.2-4.232A6.4,6.4,0,0,0,5512.141,3213.64Z" transform="translate(-5507.667 -3212.482)"/>
  </g>
  <g id="Grupo_1886" data-name="Grupo 1886" transform="translate(93.167 13.053)">
    <path id="Caminho_1106" data-name="Caminho 1106" d="M5515.891,3219.467a1.877,1.877,0,0,0-.971,1.6,5.043,5.043,0,0,0,.373,1.877c.542,1.6,1.237,3.319,2.794,4.181a3.842,3.842,0,0,1-3.905-.736,4.2,4.2,0,0,1-1.282-3.59,4.032,4.032,0,0,1,.977-2.244,3.366,3.366,0,0,1,2.289-1.108" transform="translate(-5512.293 -3218.872)" fill="#071f56"/>
    <path id="Caminho_1107" data-name="Caminho 1107" d="M5511.964,3223.14a4.512,4.512,0,0,1-2.991-1.135,4.756,4.756,0,0,1-1.467-4.085,4.561,4.561,0,0,1,1.123-2.564,3.912,3.912,0,0,1,2.688-1.3l.085.873c-.046,0-.122.286-.168.291a1.373,1.373,0,0,0-.559,1.067,4.507,4.507,0,0,0,.343,1.659c.5,1.466,1.143,3.094,2.527,3.862l.958.335-1.015.7A3.965,3.965,0,0,1,5511.964,3223.14Zm-2.429-7.065-.051.055a3.449,3.449,0,0,0-.832,1.925,3.6,3.6,0,0,0,1.1,3.1,3.367,3.367,0,0,0,2.146.836,9.389,9.389,0,0,1-1.968-3.668,5.556,5.556,0,0,1-.4-2.1C5509.525,3216.173,5509.53,3216.124,5509.535,3216.075Z" transform="translate(-5507.472 -3214.059)"/>
  </g>
</svg>
