<svg id="planet1" xmlns="http://www.w3.org/2000/svg" width="396.017" height="404.075" viewBox="0 0 396.017 404.075">
  <g id="Grupo_1888" data-name="Grupo 1888" transform="translate(33.99 20.612)">
    <circle id="Elipse_41" data-name="Elipse 41" cx="180.513" cy="180.513" r="180.513" fill="#3564da" stroke="#071f56" stroke-width="2"/>
  </g>
  <g id="Grupo_1889" data-name="Grupo 1889" transform="translate(0)">
    <path id="Caminho_1108" data-name="Caminho 1108" d="M2401.746,3214.172c-4.653,16.073-14.332,30.29-19.441,46.225s-4.351,35.84,8.615,46.418c8.712,7.107,21.157,8.266,32.042,5.448s20.512-9.125,29.564-15.794c35.479-26.141,65.239-59.16,94.061-92.5q53.591-61.988,104.086-126.565c17.779-22.738,35.553-46.241,44.858-73.564,1.073-3.151,1.867-7.081-.481-9.44-1.974-1.982-5.19-1.8-7.951-1.351a93.586,93.586,0,0,0-42.019,18.205c12.131-13.093,26.718-24.9,44.11-28.911s37.924,1.605,47.171,16.872c11.765,19.423,1.715,44.306-9.023,64.315-35.586,66.313-78.027,128.824-124.734,187.833-34.621,43.74-72.445,86.312-120.29,114.994-19,11.392-41.485,20.67-62.9,14.985-12.327-3.272-23-11.3-31.311-20.971a91.779,91.779,0,0,1-20.626-73.741c4.394-26.494,20.183-49.488,35.561-71.5" transform="translate(-2365.219 -2980.062)" fill="#fed15c"/>
    <path id="Caminho_1109" data-name="Caminho 1109" d="M2429.931,3381.349a53.257,53.257,0,0,1-13.732-1.754c-11.476-3.046-22.489-10.414-31.85-21.309a92.528,92.528,0,0,1-20.871-74.617c4.2-25.342,18.848-47.658,32.652-67.513.6-1.676,1.154-3.366,1.647-5.071l2.063.6-.116.4,1.255.877q-1.451,2.079-2.923,4.193a202.469,202.469,0,0,1-8.333,18.912c-3.4,7.054-6.919,14.348-9.332,21.876-4.514,14.083-5.057,34.385,8.271,45.258,7.747,6.317,19.369,8.275,31.093,5.241,10.84-2.808,20.439-9.167,29.2-15.619,35.735-26.332,65.974-60.054,93.885-92.337,35.555-41.124,70.562-83.693,104.052-126.524,19.135-24.471,35.706-46.874,44.688-73.249,1.384-4.066,1.31-6.793-.226-8.336-1.662-1.668-4.624-1.437-7.019-1.049-15.08,2.44-29.435,10-41.528,19.331l-2.558-1.439c15-16.2,30.72-27.231,45.765-30.7,16.482-3.8,38.38.937,48.33,17.362,12.26,20.243,1.633,45.574-9,65.38-33.474,62.377-75.476,125.627-124.839,187.992-33.611,42.463-71.481,85.815-120.58,115.247C2461.115,3375.771,2444.621,3381.349,2429.931,3381.349Zm-37.619-155.833c-11.834,17.575-23.15,37-26.718,58.506a90.359,90.359,0,0,0,20.383,72.866c6.33,7.366,16.806,16.925,30.772,20.632,17.382,4.616,37.688-.249,62.072-14.868,48.8-29.255,86.517-72.435,120-114.739,49.285-62.266,91.216-125.408,124.631-187.674,10.358-19.3,20.749-43.938,9.05-63.252-9.421-15.553-30.275-20.017-46.011-16.382-11.992,2.767-23.741,9.564-35.7,20.686a94.51,94.51,0,0,1,33.193-12.086c2.9-.472,6.533-.707,8.884,1.653,3.222,3.238,1.352,8.737.736,10.543-9.091,26.693-25.771,49.251-45.028,73.88-33.512,42.859-68.543,85.455-104.12,126.606-27.99,32.374-58.323,66.2-94.237,92.66-8.931,6.581-18.739,13.07-29.932,15.969-12.381,3.21-24.715,1.1-32.989-5.656-14.165-11.556-13.679-32.851-8.958-47.577,2.459-7.67,6.009-15.032,9.442-22.152C2389.31,3231.969,2390.854,3228.768,2392.313,3225.516Z" transform="translate(-2362.281 -2977.274)"/>
  </g>
  <g id="Grupo_1890" data-name="Grupo 1890" transform="translate(92.741 19.6)">
    <path id="Caminho_1110" data-name="Caminho 1110" d="M2714.312,3091.793c-13.858,14.379-9.561,38.191,7.1,49.2s41.913,4.5,51.993-12.739c3.087-5.279,4.938-11.329,8.886-16,12.515-14.8,38.984-8.937,52.2-23.118,9.713-10.427,6.286-29.878-6.406-36.357-9.141-4.666-20.148-2.778-30.089-.225-36.57,9.392-51.378,14.912-77.02,33.055" transform="translate(-2706.023 -3049.922)" fill="#30cf7f"/>
  </g>
  <g id="Grupo_1891" data-name="Grupo 1891" transform="translate(75.518 20.431)">
    <path id="Caminho_1111" data-name="Caminho 1111" d="M2689.827,3187.15c-13.9,0-27.73-8.182-35.478-18.894-9.552-13.205-13.508-31.148-11.76-53.331l2.14.167c-1.708,21.662,2.115,39.125,11.359,51.906,9.9,13.69,30.168,23.068,46.957,15.072,6-2.859,10.975-7.637,15.788-12.26,1.752-1.681,3.562-3.42,5.406-5.054,9.346-8.274,20.373-14.515,31.037-20.551,4.816-2.726,9.8-5.544,14.544-8.508,19.006-11.864,30.33-24.567,34.616-38.834a38.808,38.808,0,0,0-3.293-29.221c-2.707-4.812-9.491-12.256-18.065-14.484l5.116-.16c7.26,1.886,10.705,6.275,14.82,13.591a41.028,41.028,0,0,1,3.478,30.892c-4.443,14.789-16.068,27.885-35.537,40.038-4.787,2.987-9.788,5.818-14.624,8.555-10.567,5.98-21.494,12.165-30.67,20.29-1.812,1.6-3.607,3.327-5.343,4.995-4.935,4.739-10.038,9.64-16.352,12.648A32.646,32.646,0,0,1,2689.827,3187.15Z" transform="translate(-2642.187 -3053)" fill="#fefff0"/>
  </g>
  <g id="Grupo_1892" data-name="Grupo 1892" transform="translate(61.928 241.689)">
    <path id="Caminho_1112" data-name="Caminho 1112" d="M2591.815,3924.51c.924-21.824,16.1-41.642,36.472-49.513,4.049-1.563,8.577-2.654,12.69-1.267,3.667,1.237,6.412,4.236,9.593,6.441,4.385,3.04,9.918,4.814,12.906,9.235,3.089,4.571,2.476,10.876-.112,15.748s-6.836,8.617-11.029,12.2c-12.671,10.834-26.274,22.5-39.616,32.5-.844.633-2.431,2.377-3.477,2.238-.773-.1-2.888-3.054-3.357-3.677-8.753-11.631-11.519-13.1-14.029-23.782" transform="translate(-2591.815 -3873.094)" fill="#30cf7f"/>
  </g>
  <g id="Grupo_1893" data-name="Grupo 1893" transform="translate(45.839 214.681)">
    <path id="Caminho_1113" data-name="Caminho 1113" d="M2534.329,3827.64l-2.147-.04c.233-12.726,8.118-25.5,21.091-34.18,11.543-7.719,25.014-11.424,38.041-15.006l14.945-4.11c3.035-.836,6.472-1.781,9.919-1.059,3.367.707,6.1,2.876,8.507,4.789,4.782,3.8,9.727,7.728,13.337,12.913,4.108,5.9,5.579,12.534,4.038,18.205l-2.071-.564c1.374-5.056.016-11.038-3.728-16.415-3.431-4.927-8.251-8.755-12.912-12.458-2.222-1.765-4.741-3.766-7.612-4.369-2.936-.617-6.109.259-8.908,1.027l-14.945,4.11c-12.864,3.538-26.164,7.2-37.418,14.721C2542.077,3803.49,2534.549,3815.616,2534.329,3827.64Z" transform="translate(-2532.182 -3772.988)" fill="#fefff0"/>
  </g>
  <g id="Grupo_1894" data-name="Grupo 1894" transform="translate(281.785 201.319)">
    <path id="Caminho_1114" data-name="Caminho 1114" d="M3419.423,3886.188c-18.12-23.453-16.9-61.079,3.883-82.215a129.276,129.276,0,0,1,9.795-8.686c7.129-5.9,13.863-11.477,17.358-19.494,2-4.579,2.75-9.741,3.479-14.735.886-6.063,1.8-12.334,4.928-17.778,6.432-11.2,20.177-15.585,31.434-18.155,5.941-1.357,12.8-2.634,19.074-.6,6.173,2,11.912,8.422,10.421,15.326l-.987,4.174c1.238-5.731-4.811-15.75-10.094-17.458-5.752-1.862-12.016-.7-17.936.654-10.83,2.473-24.033,6.656-30.05,17.132-2.923,5.09-3.77,10.885-4.665,17.019-.75,5.132-1.524,10.44-3.636,15.282-3.7,8.487-10.948,14.487-17.956,20.291a127.533,127.533,0,0,0-9.635,8.537c-20.053,20.4-21.2,56.761-3.715,79.4Z" transform="translate(-3406.715 -3723.463)" fill="#fefff0"/>
  </g>
  <g id="Grupo_1895" data-name="Grupo 1895" transform="translate(303.156 229.952)">
    <path id="Caminho_1115" data-name="Caminho 1115" d="M3495.738,3950.355c-14.405,2.083-11.524-25.942-.533-35.484,3.553-3.084,7.975-5.025,11.571-8.059,19.473-16.423,5.209-53.059,23.792-70.483a25.553,25.553,0,0,1,23.762-5.891c8.223,2.251,14.021,12.149,16.4,20.335,0,0-9.753,34.054-24.093,52.337C3526.447,3931.193,3503,3949.3,3495.738,3950.355Z" transform="translate(-3485.927 -3829.589)" fill="#30cf7f"/>
  </g>
</svg>
