<svg id="planet2" xmlns="http://www.w3.org/2000/svg" width="348.274" height="352.75" viewBox="0 0 348.274 352.75">
  <g id="Grupo_1865" data-name="Grupo 1865" transform="translate(14.201 0)">
    <circle id="Elipse_39" data-name="Elipse 39" cx="165.722" cy="165.722" r="165.722" transform="translate(1.315 1.314)" fill="#3564da"/>
    <path id="Caminho_1068" data-name="Caminho 1068" d="M6988.154,3440.062c-92.1,0-167.037-74.932-167.037-167.036s74.932-167.037,167.037-167.037,167.037,74.933,167.037,167.037S7080.258,3440.062,6988.154,3440.062Zm0-331.444c-90.655,0-164.408,73.753-164.408,164.408s73.753,164.407,164.408,164.407,164.408-73.752,164.408-164.407S7078.809,3108.618,6988.154,3108.618Z" transform="translate(-6821.117 -3105.989)"/>
  </g>
  <g id="Grupo_1866" data-name="Grupo 1866" transform="translate(0 18.968)">
    <path id="Caminho_1069" data-name="Caminho 1069" d="M7093.639,3410.236l-91.355-2.151a18.166,18.166,0,0,0-17.567,12.142l-30.275,86.219c-5.831,16.6-29.5,16.047-34.545-.813l-26.185-87.548a18.168,18.168,0,0,0-16.978-12.956l-91.354-2.151c-17.594-.415-24.379-23.1-9.9-33.105l75.172-51.957a18.168,18.168,0,0,0,7.075-20.15l-26.185-87.548c-5.043-16.86,14.436-30.323,28.426-19.647l72.643,55.437a18.168,18.168,0,0,0,21.351.5l75.172-51.957c14.477-10.006,33.3,4.359,27.469,20.963l-30.275,86.219a18.167,18.167,0,0,0,6.119,20.46l72.644,55.437C7119.077,3388.309,7111.232,3410.65,7093.639,3410.236Z" transform="translate(-6766.648 -3185.746)" fill="#fed15c"/>
    <path id="Caminho_1070" data-name="Caminho 1070" d="M6934.423,3516.427c-.165,0-.33,0-.5-.006a19.362,19.362,0,0,1-18.365-14.015l-26-86.927a16.981,16.981,0,0,0-15.909-12.138l-90.705-2.136a19.652,19.652,0,0,1-10.711-35.812l74.638-51.588a16.983,16.983,0,0,0,6.63-18.882l-26-86.925a19.651,19.651,0,0,1,30.749-21.253l72.127,55.042a16.983,16.983,0,0,0,20.007.472l74.637-51.588a19.651,19.651,0,0,1,29.715,22.676l-30.061,85.605a16.979,16.979,0,0,0,5.734,19.172l72.127,55.043a19.652,19.652,0,0,1-12.384,35.269l-90.705-2.135a16.932,16.932,0,0,0-16.463,11.377l-30.061,85.606A19.346,19.346,0,0,1,6934.423,3516.427Zm-88.074-331.144a17.009,17.009,0,0,0-9.692,3.081,16.772,16.772,0,0,0-6.63,18.882l26,86.925a19.6,19.6,0,0,1-7.654,21.8l-74.637,51.588a17.023,17.023,0,0,0,9.279,31.022l90.7,2.136a19.6,19.6,0,0,1,18.365,14.015l26,86.926a17.023,17.023,0,0,0,32.371.761l30.061-85.605a19.684,19.684,0,0,1,19-13.136l90.7,2.136a17.023,17.023,0,0,0,10.729-30.551l-72.127-55.043a19.6,19.6,0,0,1-6.62-22.132l30.061-85.605a17.023,17.023,0,0,0-25.74-19.645l-74.637,51.588a19.6,19.6,0,0,1-23.1-.544l-72.126-55.042A16.958,16.958,0,0,0,6846.349,3185.284Z" transform="translate(-6763.725 -3182.646)"/>
  </g>
</svg>
