<svg xmlns="http://www.w3.org/2000/svg" xmlns:xlink="http://www.w3.org/1999/xlink" width="388.667" height="389.617" viewBox="0 0 388.667 389.617">
  <defs>
    <clipPath id="clip-path">
      <path id="Caminho_1147" data-name="Caminho 1147" d="M613.468,3438.583c-8.35-38.666,7.114-81.141,37.454-106.522s74.005-33.224,111.754-21.4,68.751,42.46,82.459,79.566c5.207,14.1,8.049,28.952,10.226,43.821,3.719,25.4,5.371,52.295-4.268,76.966l-123.786,6.163c-11.236.559-22.609,1.142-33.362,4.449s-20.995,9.682-26.649,19.407a38.64,38.64,0,0,0-34.854-44.162c5.507-9.651.259-21.659-4.968-31.465l-15.246-28.6" transform="translate(-611.221 -3305.27)" fill="none"/>
    </clipPath>
  </defs>
  <g id="SPUT" transform="translate(-334.08 -3160.667)">
    <g id="Grupo_1954" data-name="Grupo 1954" transform="translate(334.08 3160.667)">
      <g id="Grupo_1944" data-name="Grupo 1944">
        <g id="Grupo_1943" data-name="Grupo 1943">
          <g id="Grupo_1897" data-name="Grupo 1897" transform="translate(343.971 38.858)">
            <rect id="Retângulo_59" data-name="Retângulo 59" width="3.117" height="72.413" transform="matrix(1, -0.007, 0.007, 1, 0, 0.022)" fill="#fefff0"/>
          </g>
          <g id="Grupo_1898" data-name="Grupo 1898" transform="translate(327.807 8.14)">
            <path id="Caminho_1116" data-name="Caminho 1116" d="M1389.908,3189.005c8.079-.944,16.133,4.676,18.557,12.023s-.314,15.718-5.939,21.281a17.824,17.824,0,0,1-7.747,4.733,15.608,15.608,0,0,1-12.7-2.426,18.762,18.762,0,0,1-7.152-10.447,21.375,21.375,0,0,1,7.569-22.263,12.939,12.939,0,0,1,7.943-2.851" transform="translate(-1373.446 -3188.122)" fill="#fd64e0"/>
            <path id="Caminho_1117" data-name="Caminho 1117" d="M1389.478,3226.605a16.747,16.747,0,0,1-9.515-3.039,19.477,19.477,0,0,1-7.456-10.879,22.275,22.275,0,0,1,7.847-23.089,13.647,13.647,0,0,1,7.8-2.984l-.008-.071c8.231-.964,16.746,4.55,19.386,12.552,2.421,7.335.014,16-6.131,22.08a18.45,18.45,0,0,1-8.093,4.932A14.785,14.785,0,0,1,1389.478,3226.605Zm-.69-38.56,0,.1a12.212,12.212,0,0,0-7.491,2.691,20.683,20.683,0,0,0-7.29,21.437,17.918,17.918,0,0,0,6.847,10.014,14.9,14.9,0,0,0,12.052,2.313,16.918,16.918,0,0,0,7.4-4.535c5.728-5.666,7.983-13.706,5.747-20.483C1403.73,3192.53,1396.067,3187.433,1388.788,3188.046Z" transform="translate(-1371.779 -3186.434)"/>
          </g>
          <g id="Grupo_1899" data-name="Grupo 1899" transform="translate(68.029 38.858)">
            <rect id="Retângulo_60" data-name="Retângulo 60" width="3.117" height="72.413" transform="matrix(1, -0.007, 0.007, 1, 0, 0.022)" fill="#fefff0"/>
          </g>
          <g id="Grupo_1900" data-name="Grupo 1900" transform="translate(31.867 280.009)">
            <path id="Caminho_1118" data-name="Caminho 1118" d="M757.961,4152.756,522.4,4155.69c-7.729.1-15.771.127-22.752-3.192-5.981-2.845-10.587-7.875-15.032-12.784-17.83-19.69-36.019-39.944-45.887-64.607-1.06-2.649-1.993-5.76-.583-8.241a9.4,9.4,0,0,1,4.228-3.372c18.968-9.506,40.974-10.219,62.184-10.742l116.117-2.863c29.539-.728,59.923-1.323,87.615,8.987,14.173,5.277,27.637,13.669,36.246,26.1,6.506,9.4,9.9,20.54,13.105,31.51,3.642,12.479,6.716,27.339-1.591,37.338" transform="translate(-436.653 -4048.754)" fill="#fefff0"/>
            <path id="Caminho_1119" data-name="Caminho 1119" d="M517,4154.8c-6.42,0-13.288-.4-19.379-3.3-6.208-2.952-11.026-8.272-15.276-12.966-16.871-18.631-35.992-39.748-46.032-64.839-1.145-2.861-2.1-6.158-.536-8.916a10.1,10.1,0,0,1,4.556-3.683c19.481-9.764,42.343-10.327,62.514-10.824l116.117-2.863c27.977-.69,59.685-1.471,87.906,9.036,16.169,6.02,28.829,15.145,36.615,26.389,6.827,9.858,10.368,21.989,13.213,31.736,3.626,12.423,6.32,26.32-.437,36.318l.012.946-.695.009q-.3.394-.62.781l-.918-.762-233.324,2.906C519.5,4154.789,518.261,4154.8,517,4154.8Zm123.9-106.187c-7.459,0-14.8.181-21.9.355l-116.117,2.864c-20.008.493-42.684,1.052-61.854,10.659a8.823,8.823,0,0,0-3.9,3.06c-1.241,2.183-.378,5.05.63,7.566,9.935,24.832,28.137,44.934,45.74,64.372,4.153,4.587,8.861,9.785,14.79,12.6,6.958,3.309,15.166,3.2,22.406,3.117L754.78,4150.3c6.639-9.493,3.979-23.1.424-35.288-2.813-9.639-6.315-21.635-13-31.286-7.6-10.981-20.009-19.908-35.877-25.815C685.514,4050.161,662.694,4048.617,640.9,4048.617Z" transform="translate(-434.957 -4047.057)"/>
          </g>
          <g id="Grupo_1901" data-name="Grupo 1901" transform="translate(305.845 290.009)">
            <path id="Caminho_1120" data-name="Caminho 1120" d="M1305.451,4093.949c5.068-9.852,17.119-14.236,27.672-12.3s19.635,9.081,26.718,17.471c12.591,14.915,19.924,33.92,24.673,53.169.929,3.765,1.774,7.636,1.421,11.506s-2.1,7.795-5.3,9.777c-2.329,1.441-5.134,1.714-7.835,1.907a232.017,232.017,0,0,1-39.209-.531,214.938,214.938,0,0,0-21.318-55.685c-4.525-8.175-9.767-17.666-6.468-26.457" transform="translate(-1303.974 -4080.415)" fill="#fd64e0"/>
            <path id="Caminho_1121" data-name="Caminho 1121" d="M1354.626,4175.14c-7.629,0-15.263-.373-22.83-1.119l-.557-.054-.126-.546a213.689,213.689,0,0,0-21.24-55.483c-4.662-8.421-9.946-17.966-6.515-27.108l.222.083c5.185-8.883,16.739-13.791,27.968-11.733,9.444,1.731,18.841,7.864,27.173,17.735,11.065,13.106,19.188,30.6,24.834,53.484.928,3.765,1.8,7.774,1.441,11.765-.415,4.554-2.535,8.431-5.668,10.368-2.427,1.5-5.259,1.813-8.19,2.022C1365.654,4174.944,1360.141,4175.14,1354.626,4175.14Zm-22.122-2.615a231.6,231.6,0,0,0,38.521.475c2.73-.194,5.356-.478,7.481-1.792,2.72-1.683,4.565-5.116,4.936-9.185.342-3.75-.5-7.613-1.4-11.249-5.587-22.645-13.6-39.933-24.512-52.854-8.1-9.591-17.179-15.541-26.264-17.207-9.409-1.724-21.649,1.806-26.838,11.892l-.012-.006c-2.291,8.127,2.536,16.846,6.82,24.584A215.207,215.207,0,0,1,1332.5,4172.524Z" transform="translate(-1302.259 -4078.714)"/>
          </g>
          <g id="Grupo_1902" data-name="Grupo 1902" transform="translate(23.637 16.829)">
            <path id="Caminho_1122" data-name="Caminho 1122" d="M411.076,3450.007c5.72,10.57,11.737,21.133,19.951,29.907s18.913,15.714,30.828,17.291c4.665.618,9.415.408,14.066,1.128s9.4,2.553,12.23,6.313c27.76,19.312,61.962,28.344,95.892,29.1s67.673-6.417,99.768-17.453c12.676-4.359,25.4-9.472,35.6-18.165,13.978-12.052,23.424-28.959,28.532-46.656s6.2-36.286,6.563-54.7c.335-17.227.037-34.6-3.575-51.45-6.214-28.985-22.25-55.476-43.71-75.926s-48.167-35.008-76.43-43.948c-35.5-11.229-75.053-13.52-109.395.865s-61.964,47.616-63,84.834a26.21,26.21,0,0,0-25.367,16.687c-3.747,10.241-.641,21.737-2.157,32.421a215.921,215.921,0,0,1-11.464,64.689c-2.827,8.3-6.173,16.467-7.855,25.069" transform="translate(-410.391 -3215.534)" fill="#fefff0"/>
            <path id="Caminho_1123" data-name="Caminho 1123" d="M587.6,3532.992q-2.536,0-5.057-.056c-36.7-.823-70-10.936-96.32-29.244l-.1-.071-.075-.1c-2.953-3.926-8.007-5.436-11.726-6.012a71,71,0,0,0-7.356-.614c-2.195-.106-4.464-.216-6.692-.512-10.956-1.45-22.07-7.675-31.3-17.53-8.3-8.868-14.465-19.717-20.067-30.069l.8-.434-.4-.079a135.329,135.329,0,0,1,5.818-19.3c.7-1.956,1.4-3.912,2.065-5.874a214.467,214.467,0,0,0,11.421-64.456l.008-.092a76.742,76.742,0,0,0,.325-13.039c-.2-6.53-.417-13.283,1.872-19.54,3.665-10.017,14.179-17.233,24.828-17.233.173,0,.346,0,.517.005.67-17.691,7.282-35.186,19.147-50.645a110.548,110.548,0,0,1,44.307-34.1c31.281-13.1,70.322-13.419,109.931-.889,29.8,9.425,56.329,24.684,76.732,44.127,22.345,21.294,37.948,48.4,43.934,76.327,3.7,17.277,3.916,35.024,3.593,51.628-.348,17.855-1.387,36.864-6.593,54.9-5.587,19.355-15.537,35.617-28.773,47.03-10.345,8.814-23.348,14.009-35.86,18.313C648.28,3527.234,617.147,3532.992,587.6,3532.992Zm-100.386-30.509c26.05,18.089,59.023,28.08,95.364,28.9,30.871.7,63.413-5,99.5-17.412,12.367-4.252,25.209-9.378,35.353-18.021,13-11.211,22.787-27.216,28.289-46.279,5.156-17.865,6.187-36.752,6.532-54.5.322-16.511.113-34.148-3.558-51.271-5.922-27.623-21.365-54.445-43.485-75.525-20.233-19.281-46.557-34.417-76.128-43.77-39.259-12.418-77.918-12.119-108.858.84-36.42,15.255-61.546,49.067-62.524,84.137l-.023.8-.8-.045a25.552,25.552,0,0,0-24.591,16.177c-2.186,5.973-1.979,12.573-1.779,18.955a78.227,78.227,0,0,1-.333,13.261,216.02,216.02,0,0,1-11.5,64.877c-.671,1.97-1.371,3.933-2.072,5.9a134.067,134.067,0,0,0-5.756,19.072l-.3-.06c5.486,10.121,11.53,20.677,19.581,29.276,8.979,9.592,19.761,15.647,30.361,17.05,2.165.287,4.4.4,6.563.5a72.14,72.14,0,0,1,7.52.63C478.529,3496.584,483.935,3498.215,487.211,3502.483Z" transform="translate(-408.906 -3213.94)"/>
          </g>
          <g id="Grupo_1903" data-name="Grupo 1903" transform="translate(15.212 163.33)">
            <path id="Caminho_1124" data-name="Caminho 1124" d="M390.308,3695.423c4.59-10.147,16.335-16.086,27.434-15.162s21.171,7.981,27.174,17.361,8.23,20.83,7.8,31.958c-.394,10.291-3.054,20.675-8.893,29.158s-15.083,14.875-25.318,16.01a37.335,37.335,0,0,1-11.217-.579c-5.362-1.044-10.769-3.188-14.273-7.379-2.676-3.2-4-7.3-5.042-11.337-5.15-20.05-3.967-40.5,2.394-60.2" transform="translate(-383.958 -3679.388)" fill="#fefff0"/>
            <path id="Caminho_1125" data-name="Caminho 1125" d="M413.214,3774.034a40.845,40.845,0,0,1-7.795-.787c-6.6-1.285-11.556-3.857-14.722-7.644-2.8-3.352-4.154-7.577-5.2-11.643-5.04-19.625-4.241-40,2.377-60.543h0l.007-.016.025-.076.009,0c4.567-9.983,16.394-16.506,28.168-15.529,10.864.9,21.244,7.528,27.766,17.717,7.149,11.168,8.257,23.789,7.927,32.408-.436,11.4-3.559,21.624-9.031,29.57-6.287,9.135-15.959,15.244-25.873,16.343A33.176,33.176,0,0,1,413.214,3774.034Zm-23.877-80.069c-6.506,20.241-7.29,40.294-2.328,59.608,1,3.89,2.28,7.917,4.885,11.031,2.93,3.505,7.582,5.9,13.825,7.114a36.58,36.58,0,0,0,10.982.57c9.47-1.05,18.728-6.911,24.762-15.677,5.3-7.7,8.331-17.645,8.756-28.747.321-8.4-.75-20.68-7.681-31.508-6.169-9.637-16.355-16.153-26.583-17C404.81,3678.422,393.644,3684.565,389.337,3693.964Z" transform="translate(-382.234 -3677.702)"/>
          </g>
          <g id="Grupo_1904" data-name="Grupo 1904" transform="translate(86.792 44.942)">
            <path id="Caminho_1126" data-name="Caminho 1126" d="M613.468,3438.583c-8.35-38.666,7.114-81.141,37.454-106.522s74.005-33.224,111.754-21.4,68.751,42.46,82.459,79.566c5.207,14.1,8.049,28.952,10.226,43.821,3.719,25.4,5.371,52.295-4.268,76.966l-123.786,6.163c-11.236.559-22.609,1.142-33.362,4.449s-20.995,9.682-26.649,19.407a38.64,38.64,0,0,0-34.854-44.162c5.507-9.651.259-21.659-4.968-31.465l-15.246-28.6" transform="translate(-610.465 -3304.532)" fill="#071f56"/>
            <path id="Caminho_1127" data-name="Caminho 1127" d="M664.291,3543.334l.6-4.015a37.861,37.861,0,0,0-34.151-43.271l-1.212-.106.6-1.056c5.189-9.1.395-20.629-4.979-30.712L609.9,3435.568l.759-.4c-7.353-37.86,7.809-79.939,38.123-105.3,30-25.1,74.153-33.554,112.487-21.548,37.241,11.663,69.028,42.332,82.958,80.039,5.586,15.124,8.325,30.718,10.265,43.978,3.493,23.858,5.711,51.706-4.313,77.362l-.183.47-.5.024-123.786,6.163c-11.037.549-22.448,1.118-33.171,4.416-11.879,3.652-21.185,10.419-26.205,19.054Zm-32.259-48.719a39.4,39.4,0,0,1,34.735,41.672c5.479-7.655,14.341-13.633,25.312-17.007,10.909-3.355,22.42-3.928,33.551-4.481l123.281-6.138c9.683-25.19,7.483-52.59,4.042-76.1-1.929-13.181-4.648-28.675-10.186-43.664-13.765-37.264-45.172-67.57-81.961-79.093-37.843-11.852-81.42-3.507-111.021,21.257-30.412,25.442-45.359,67.943-37.192,105.759l-.229.05,14.161,26.569C631.9,3473.529,636.695,3485.059,632.031,3494.616Z" transform="translate(-608.827 -3302.935)"/>
          </g>
          <g id="Grupo_1905" data-name="Grupo 1905" transform="translate(75.085 170.848)">
            <path id="Caminho_1128" data-name="Caminho 1128" d="M585.562,3709.759a15.333,15.333,0,0,0-3.25-2.764,25.356,25.356,0,0,0-4.332-2.634,18.2,18.2,0,0,0-6.211-1.307l.1-1.555a19.686,19.686,0,0,1,6.735,1.433,26.593,26.593,0,0,1,4.607,2.789,16.5,16.5,0,0,1,3.571,3.065Z" transform="translate(-571.769 -3701.5)"/>
          </g>
          <g id="Grupo_1906" data-name="Grupo 1906" transform="translate(345.907 51.104)">
            <path id="Caminho_1129" data-name="Caminho 1129" d="M1429.077,3322.44" transform="translate(-1429.077 -3322.44)" fill="none" stroke="#fefff0" stroke-miterlimit="10" stroke-width="4"/>
          </g>
          <g id="Grupo_1907" data-name="Grupo 1907" transform="translate(349.461 106.915)">
            <path id="Caminho_1130" data-name="Caminho 1130" d="M1440.328,3499.114" transform="translate(-1440.328 -3499.114)" fill="none" stroke="#fefff0" stroke-miterlimit="10" stroke-width="4"/>
          </g>
          <g id="Grupo_1908" data-name="Grupo 1908" transform="translate(0 168.738)">
            <path id="Caminho_1131" data-name="Caminho 1131" d="M352.611,3700.3c13.1-7.307,31.014-1.624,39.786,10.49s9.277,28.81,4.085,42.813c-2.465,6.647-6.309,13.075-12.267,16.967-10.129,6.617-24.531,4.067-33.584-3.943s-13.3-20.322-13.96-32.348c-.37-6.729-.055-13.623,2.592-19.828s7.429-11.676,13.69-14.27" transform="translate(-335.765 -3696.347)" fill="#fd64e0"/>
            <path id="Caminho_1132" data-name="Caminho 1132" d="M369.171,3773.567a31.7,31.7,0,0,1-20.742-7.885c-8.414-7.445-13.465-19.126-14.221-32.89-.47-8.55.348-14.772,2.653-20.176,2.844-6.668,7.82-11.93,13.7-14.508l-.01-.018c12.754-7.117,31.436-2.212,40.8,10.713,8.294,11.452,9.9,28.135,4.185,43.541-2.966,8-7.2,13.837-12.571,17.349A25.132,25.132,0,0,1,369.171,3773.567Zm-17.626-74.247.021.052c-5.682,2.354-10.52,7.4-13.271,13.855-2.206,5.173-2.987,11.18-2.531,19.479.734,13.344,5.6,24.64,13.7,31.807,9.34,8.265,23.374,9.929,32.641,3.874,5.089-3.325,9.114-8.9,11.963-16.585,5.533-14.923,4.006-31.049-3.986-42.085C381.219,3697.482,363.636,3692.761,351.545,3699.32Z" transform="translate(-334.08 -3694.819)"/>
          </g>
          <g id="Grupo_1909" data-name="Grupo 1909" transform="translate(9.806 278.553)">
            <path id="Caminho_1133" data-name="Caminho 1133" d="M397.5,4047.33c14.186-4.925,30.411-1.961,43.16,5.972s22.235,20.4,28.559,34.021a106.968,106.968,0,0,1,8.879,59.3,8.187,8.187,0,0,1-1.712,4.657c-1.429,1.5-3.7,1.745-5.773,1.883a572.385,572.385,0,0,1-88.283-.946c-3.862-.34-8.126-.923-10.638-3.875-1.676-1.97-2.23-4.635-2.64-7.187A117.036,117.036,0,0,1,388.831,4056c2.709-3.829,5.908-7.68,10.36-9.157" transform="translate(-366.841 -4044.143)" fill="#fd64e0"/>
            <path id="Caminho_1134" data-name="Caminho 1134" d="M430.906,4153.513c-16.827,0-33.662-.736-50.358-2.21-3.994-.352-8.48-.991-11.163-4.146-1.819-2.138-2.408-5.027-2.817-7.568a117.386,117.386,0,0,1,19.908-85.737c2.481-3.507,5.3-6.948,9.114-8.784l-.059-.17c13.709-4.76,30.093-2.5,43.828,6.047,11.872,7.387,21.85,19.267,28.854,34.354a108.31,108.31,0,0,1,8.944,59.739,8.8,8.8,0,0,1-1.919,5.088c-1.6,1.679-3.981,1.97-6.286,2.123C456.32,4153.093,443.615,4153.513,430.906,4153.513Zm-33.2-107.678.018.05c-4.245,1.409-7.3,5.095-9.97,8.868a115.813,115.813,0,0,0-19.642,84.588c.393,2.439.906,4.975,2.465,6.807,2.3,2.705,6.258,3.264,10.113,3.6a573.155,573.155,0,0,0,88.163.945c2-.134,4.051-.371,5.261-1.643a7.569,7.569,0,0,0,1.505-4.229,106.735,106.735,0,0,0-8.815-58.869c-6.876-14.812-16.649-26.46-28.263-33.687C425.749,4044.312,410.621,4041.957,397.7,4045.834Z" transform="translate(-365.123 -4042.448)"/>
          </g>
          <g id="Grupo_1941" data-name="Grupo 1941" transform="translate(87.548 45.68)">
            <g id="Grupo_1940" data-name="Grupo 1940" clip-path="url(#clip-path)">
              <g id="Grupo_1939" data-name="Grupo 1939" transform="translate(18.838 63.523)">
                <g id="Grupo_1912" data-name="Grupo 1912" transform="translate(168.466 50.537)">
                  <g id="Grupo_1910" data-name="Grupo 1910" transform="translate(1.522 1.522)">
                    <circle id="Elipse_42" data-name="Elipse 42" cx="20.614" cy="20.614" r="20.614" fill="#e87064"/>
                  </g>
                  <g id="Grupo_1911" data-name="Grupo 1911">
                    <path id="Caminho_1135" data-name="Caminho 1135" d="M1211.733,3705.156a22.136,22.136,0,1,1,36.633-18.192h0a22.125,22.125,0,0,1-36.633,18.192Zm33.6-17.985a19.094,19.094,0,1,0-4.659,13.851,19.115,19.115,0,0,0,4.659-13.851Z" transform="translate(-1204.145 -3666.336)"/>
                  </g>
                </g>
                <g id="Grupo_1915" data-name="Grupo 1915" transform="translate(0 67.213)">
                  <g id="Grupo_1913" data-name="Grupo 1913" transform="translate(1.523 1.522)">
                    <circle id="Elipse_43" data-name="Elipse 43" cx="20.614" cy="20.614" r="20.614" fill="#e87064"/>
                  </g>
                  <g id="Grupo_1914" data-name="Grupo 1914">
                    <path id="Caminho_1136" data-name="Caminho 1136" d="M678.442,3757.944a22.136,22.136,0,1,1,36.633-18.192h0a22.125,22.125,0,0,1-36.633,18.192Zm33.6-17.984a19.094,19.094,0,1,0-4.659,13.851,19.114,19.114,0,0,0,4.659-13.851Z" transform="translate(-670.853 -3719.125)"/>
                  </g>
                </g>
                <g id="Grupo_1918" data-name="Grupo 1918" transform="translate(29.783)">
                  <g id="Grupo_1916" data-name="Grupo 1916" transform="translate(1.52 1.517)">
                    <path id="Caminho_1137" data-name="Caminho 1137" d="M852.738,3511.566c26.144,1.119,54.289,7.3,60.982,36.227,3.276,12.667,2.69,26.535,6.489,39.151,3.136,11.558,9.669,22.183,10.838,34.238,1.636,20.411-14.64,37.629-30.431,50.068-13.627,10.495-31.863,14.923-49.126,15.172-37.315-.358-76.916-17.674-79.078-57.079-.828-9.127-.9-18.392-1.494-27.553-.974-16.618-2.461-33.72,2.711-49.756,10.465-34.33,47.888-38.694,78.651-40.873" transform="translate(-769.946 -3511.16)" fill="#e87064"/>
                  </g>
                  <g id="Grupo_1917" data-name="Grupo 1917">
                    <path id="Caminho_1138" data-name="Caminho 1138" d="M820.922,3681.3a119.412,119.412,0,0,0,27.261,3.363c19.7-.283,37.468-5.784,50.068-15.488,22.244-17.524,32.387-34.332,31.019-51.395-.737-7.614-3.546-14.672-6.263-21.5a122.753,122.753,0,0,1-4.623-13.018c-1.989-6.606-2.774-13.7-3.534-20.559a132.934,132.934,0,0,0-2.951-18.574c-7.263-31.405-39.087-36.369-62.389-37.365l-.131,3.039c22.312.956,52.759,5.629,59.565,35.051a130.633,130.633,0,0,1,2.881,18.185c.775,7,1.576,14.229,3.634,21.062a124.994,124.994,0,0,0,4.721,13.306c2.637,6.628,5.365,13.481,6.06,20.64,1.277,15.944-8.489,31.892-29.858,48.726-12.071,9.3-29.2,14.572-48.206,14.846-37.078-.356-75.456-17.7-77.538-55.642-.488-5.393-.715-10.888-.934-16.2-.154-3.729-.313-7.584-.56-11.368l-.2-3.408c-.927-15.3-1.886-31.115,2.844-45.783,9.876-32.4,43.607-37.435,77.311-39.822l-.215-3.034c-25.693,1.819-68.695,4.864-80,41.946-4.9,15.19-3.923,31.3-2.979,46.877l.2,3.412c.245,3.757.4,7.595.556,11.305.222,5.351.449,10.883.941,16.3C769.269,3656.547,792.785,3674.362,820.922,3681.3Z" transform="translate(-765.133 -3506.358)"/>
                  </g>
                </g>
                <g id="Grupo_1921" data-name="Grupo 1921" transform="translate(114.656 40.091)">
                  <g id="Grupo_1920" data-name="Grupo 1920" transform="translate(0 0)">
                    <g id="Grupo_1919" data-name="Grupo 1919">
                      <rect id="Retângulo_61" data-name="Retângulo 61" width="45.738" height="73.654" rx="22.869" transform="matrix(-0.998, 0.068, -0.068, -0.998, 50.653, 73.482)" fill="#fefff0"/>
                      <path id="Caminho_1139" data-name="Caminho 1139" d="M1061.225,3710.493a23.87,23.87,0,0,1-23.768-22.216l-1.9-27.851a23.84,23.84,0,0,1,47.569-3.25l1.9,27.851a23.84,23.84,0,0,1-22.159,25.41Q1062.041,3710.493,1061.225,3710.493Zm1.509-1.994.066.969-.066-.969a21.9,21.9,0,0,0,20.355-23.34l-1.9-27.85a21.9,21.9,0,1,0-43.695,2.985l1.9,27.851A21.919,21.919,0,0,0,1062.734,3708.5Z" transform="translate(-1034.963 -3634.427)"/>
                    </g>
                  </g>
                </g>
                <g id="Grupo_1924" data-name="Grupo 1924" transform="translate(61.818 42.927)">
                  <g id="Grupo_1923" data-name="Grupo 1923" transform="translate(0 0)">
                    <g id="Grupo_1922" data-name="Grupo 1922">
                      <rect id="Retângulo_62" data-name="Retângulo 62" width="50.785" height="75.694" rx="25.392" transform="matrix(-0.998, 0.068, -0.068, -0.998, 55.826, 75.518)" fill="#fefff0"/>
                      <path id="Caminho_1140" data-name="Caminho 1140" d="M896.781,3722.041a26.366,26.366,0,0,1-26.263-24.567l-1.7-24.852a26.363,26.363,0,1,1,52.6-3.594l1.7,24.851a26.393,26.393,0,0,1-24.5,28.1Q897.7,3722.041,896.781,3722.041Zm-1.622-75.639q-.848,0-1.7.058a24.422,24.422,0,0,0-22.7,26.03l1.7,24.851a24.422,24.422,0,1,0,48.729-3.329l-1.7-24.852a24.425,24.425,0,0,0-24.329-22.758Z" transform="translate(-868.059 -3643.761)"/>
                    </g>
                  </g>
                </g>
                <g id="Grupo_1927" data-name="Grupo 1927" transform="translate(138.066 64.885)">
                  <g id="Grupo_1925" data-name="Grupo 1925" transform="translate(1.027 1.027)">
                    <rect id="Retângulo_63" data-name="Retângulo 63" width="15.031" height="23.621" rx="7.516" transform="translate(16.607 23.566) rotate(176.091)"/>
                  </g>
                  <g id="Grupo_1926" data-name="Grupo 1926">
                    <path id="Caminho_1141" data-name="Caminho 1141" d="M1108.517,3729.981l-.585-8.569a9.037,9.037,0,1,1,18.031-1.232l.586,8.57a9.049,9.049,0,0,1-8.4,9.631h0a9.034,9.034,0,0,1-9.632-8.4Zm9.426,5.364a6,6,0,0,0,5.572-6.389l-.586-8.57a5.994,5.994,0,0,0-11.96.818l.585,8.569a6,6,0,0,0,6.39,5.572Z" transform="translate(-1107.911 -3711.758)"/>
                  </g>
                </g>
                <g id="Grupo_1930" data-name="Grupo 1930" transform="translate(89.762 68.633)">
                  <g id="Grupo_1928" data-name="Grupo 1928" transform="translate(1.027 1.027)">
                    <rect id="Retângulo_64" data-name="Retângulo 64" width="15.031" height="23.621" rx="7.516" transform="matrix(-0.998, 0.068, -0.068, -0.998, 16.607, 23.566)"/>
                  </g>
                  <g id="Grupo_1929" data-name="Grupo 1929">
                    <path id="Caminho_1142" data-name="Caminho 1142" d="M955.608,3741.845l-.585-8.569a9.037,9.037,0,1,1,18.032-1.233l.586,8.57a9.048,9.048,0,0,1-8.4,9.632h0a9.035,9.035,0,0,1-9.632-8.4Zm9.426,5.364a6,6,0,0,0,5.571-6.389l-.586-8.57a5.994,5.994,0,0,0-11.961.817l.585,8.569a6,6,0,0,0,6.39,5.572Z" transform="translate(-955.002 -3723.622)"/>
                  </g>
                </g>
                <g id="Grupo_1933" data-name="Grupo 1933" transform="translate(111.11 94.682)">
                  <g id="Grupo_1931" data-name="Grupo 1931" transform="translate(1.399 1.52)">
                    <path id="Caminho_1143" data-name="Caminho 1143" d="M1027.012,3824.958c13.14-30.823,38.483-4.124,14.876,14.927" transform="translate(-1027.012 -3810.893)" fill="#e87064"/>
                  </g>
                  <g id="Grupo_1932" data-name="Grupo 1932">
                    <path id="Caminho_1144" data-name="Caminho 1144" d="M1039.814,3837.777c10-8.071,11.451-17.358,9.474-23.357-1.6-4.868-5.567-8.138-10.1-8.33-3.017-.128-10.677,1.076-16.6,14.979l2.8,1.193c3.649-8.56,8.635-13.347,13.677-13.133,3.309.143,6.119,2.533,7.34,6.244,1.659,5.033.3,12.94-8.5,20.037Z" transform="translate(-1022.582 -3806.081)"/>
                  </g>
                </g>
                <g id="Grupo_1938" data-name="Grupo 1938" transform="translate(64.956 126.422)">
                  <g id="Grupo_1935" data-name="Grupo 1935" transform="translate(10.113 1.37)">
                    <g id="Grupo_1934" data-name="Grupo 1934">
                      <path id="Caminho_1145" data-name="Caminho 1145" d="M932.371,3926.243c13.594,3.35,26.3-1.157,42.841-10.211a1.521,1.521,0,1,0-1.462-2.668c-24.679,13.516-39.6,16.411-62.788-2.136a1.521,1.521,0,0,0-1.9,2.375C917.563,3920.405,925.094,3924.451,932.371,3926.243Z" transform="translate(-908.489 -3910.894)"/>
                    </g>
                  </g>
                  <g id="Grupo_1937" data-name="Grupo 1937">
                    <g id="Grupo_1936" data-name="Grupo 1936">
                      <path id="Caminho_1146" data-name="Caminho 1146" d="M877.632,3916.265a1.523,1.523,0,0,0,1.318-.291c6.368-5.117,13.879-7.073,23.64-6.156a1.521,1.521,0,1,0,.285-3.028c-10.6-1-18.806,1.169-25.831,6.812a1.522,1.522,0,0,0,.588,2.663Z" transform="translate(-876.475 -3906.556)"/>
                    </g>
                  </g>
                </g>
              </g>
            </g>
          </g>
          <g id="Grupo_1942" data-name="Grupo 1942" transform="translate(52.833)">
            <path id="Caminho_1148" data-name="Caminho 1148" d="M519.456,3163.238c8.078-.945,16.133,4.676,18.556,12.022s-.314,15.719-5.939,21.282a17.828,17.828,0,0,1-7.747,4.733,15.608,15.608,0,0,1-12.7-2.427,18.758,18.758,0,0,1-7.152-10.447,21.375,21.375,0,0,1,7.569-22.263,12.94,12.94,0,0,1,7.943-2.851" transform="translate(-502.994 -3162.355)" fill="#fd64e0"/>
            <path id="Caminho_1149" data-name="Caminho 1149" d="M519.025,3200.838a16.743,16.743,0,0,1-9.514-3.038,19.484,19.484,0,0,1-7.457-10.88,22.275,22.275,0,0,1,7.848-23.088,13.647,13.647,0,0,1,7.8-2.985l-.009-.071c8.226-.963,16.748,4.552,19.387,12.553,2.421,7.335.015,16-6.13,22.08a18.454,18.454,0,0,1-8.093,4.932A14.8,14.8,0,0,1,519.025,3200.838Zm-.69-38.56,0,.1a12.213,12.213,0,0,0-7.491,2.692,20.682,20.682,0,0,0-7.29,21.437,17.922,17.922,0,0,0,6.847,10.014,14.9,14.9,0,0,0,12.052,2.313,16.919,16.919,0,0,0,7.4-4.535c5.728-5.665,7.983-13.706,5.747-20.483C533.278,3166.763,525.608,3161.677,518.336,3162.278Z" transform="translate(-501.326 -3160.667)"/>
          </g>
        </g>
      </g>
      <g id="Grupo_1951" data-name="Grupo 1951" transform="translate(112.36 49.06)">
        <g id="Grupo_1945" data-name="Grupo 1945" transform="translate(10.761)">
          <path id="Caminho_1150" data-name="Caminho 1150" d="M802.83,3320.419s-72.372,10.682-75.106,65.021a113.6,113.6,0,0,0-.768,17.618s33.083-28.181,85.784-29.779c20.526.165,59.665,1.546,68.754,9l9.089,7.457s.894-39.12-25.07-53.237C840.056,3322.854,823.65,3315.687,802.83,3320.419Z" transform="translate(-725.926 -3318.017)" fill="#3564da"/>
          <path id="Caminho_1151" data-name="Caminho 1151" d="M723.968,3403.044l-.079-1.994a115.448,115.448,0,0,1,.777-17.8c1.127-22.491,14.649-41.06,39.1-53.609a134.269,134.269,0,0,1,36.79-12.224c21.668-4.914,39.143,3.219,63.323,16.182,26.187,14.237,25.59,53.717,25.582,54.114l-.046,1.993-10.63-8.721c-9.152-7.508-50.706-8.643-68.146-8.783-51.687,1.568-84.818,29.267-85.146,29.546Zm89.43-85.165a55.826,55.826,0,0,0-12.449,1.439l-.073.014a132.021,132.021,0,0,0-36.271,12.06c-24.106,12.388-36.893,29.9-38.007,52.049a107.248,107.248,0,0,0-.813,15.6c7.18-5.47,38.732-27.384,84.83-28.782,21.957.175,60.116,1.607,69.4,9.224l7.474,6.13c-.274-8.174-2.773-38.476-24.533-50.307C843.448,3324.851,829.073,3317.879,813.4,3317.879Z" transform="translate(-723.829 -3315.97)"/>
        </g>
        <g id="Grupo_1946" data-name="Grupo 1946" transform="translate(0 44.333)">
          <path id="Caminho_1152" data-name="Caminho 1152" d="M705.2,3488.791s-14.909,5.964-11.987,18.063,7.993,16.783,7.795,24.119-.589,9.794,7.7,9.466c6.732-2.71,39.758-32.353,97.471-30.73,13.677-.053,53.42,4.236,64.287,7.226,4.448,1.29,4.955,1.758,1.956-12.291-.72-5.834,4.965-22.67,4.965-22.67s2.092-8.876-5.848-11.982S768.692,3438.887,705.2,3488.791Z" transform="translate(-691.865 -3458.403)" fill="#3564da"/>
          <path id="Caminho_1153" data-name="Caminho 1153" d="M705.269,3539.344c-3.041,0-4.8-.485-5.919-1.591-1.62-1.6-1.546-4.188-1.433-8.1l.022-.8c.1-3.747-1.288-6.837-3.045-10.749a69.577,69.577,0,0,1-4.722-13.116c-2.928-12.122,10.892-18.469,12.433-19.134,33.366-26.167,75.262-30.441,104.534-29.405,32.253,1.136,58.011,8.726,62.658,10.545,8.624,3.373,6.463,13.011,6.44,13.109-.082.254-5.631,16.78-4.947,22.328,2.065,9.654,2.452,12.257,1.152,13.464-.939.872-2.236.493-4.032-.031l-.309-.09c-10.974-3.02-50.828-7.23-64.013-7.188-47.556-1.335-78.119,18.589-91.174,27.1a45.278,45.278,0,0,1-5.939,3.561l-.155.063-.168.007C706.163,3539.333,705.7,3539.344,705.269,3539.344Zm94.069-81.092c-28.312,0-65.542,5.554-95.637,29.208l-.239.138c-.576.232-14.093,5.8-11.406,16.934a67.924,67.924,0,0,0,4.607,12.776c1.86,4.138,3.329,7.406,3.216,11.6l-.023.8c-.1,3.406-.162,5.656.858,6.666.814.8,2.571,1.117,5.684,1.007a52.08,52.08,0,0,0,5.454-3.323c13.206-8.608,44.121-28.765,92.258-27.413,13.261-.055,53.426,4.209,64.517,7.261l.324.094a7.032,7.032,0,0,0,2.195.455c.568-.748-.783-7.079-1.77-11.7-.753-6.069,4.759-22.487,4.994-23.183.05-.24,1.761-8.013-5.283-10.768-4.587-1.794-30.038-9.286-62.019-10.412C804.581,3458.3,802,3458.252,799.339,3458.252Z" transform="translate(-689.765 -3456.309)"/>
        </g>
        <g id="Grupo_1947" data-name="Grupo 1947" transform="translate(26.44 64.691)" opacity="0.51">
          <path id="Caminho_1154" data-name="Caminho 1154" d="M779.413,3570.015c-10.835-14.244-3.623-47.836-3.31-49.26l.948.208c-.076.345-7.429,34.578,3.134,48.464Z" transform="translate(-773.462 -3520.755)" fill="#fff"/>
        </g>
        <g id="Grupo_1948" data-name="Grupo 1948" transform="translate(66.634 51.075)" opacity="0.51">
          <path id="Caminho_1155" data-name="Caminho 1155" d="M903.564,3524.348c-1.237-6.747-2.8-45.03-2.863-46.656l.971-.039c.016.4,1.622,39.841,2.848,46.52Z" transform="translate(-900.701 -3477.652)" fill="#fff"/>
        </g>
        <g id="Grupo_1949" data-name="Grupo 1949" transform="translate(113.822 45.717)" opacity="0.51">
          <path id="Caminho_1156" data-name="Caminho 1156" d="M1056.794,3509l-.958-.162c1.552-9.153-5.685-47.577-5.758-47.964l.954-.18C1051.333,3462.276,1058.375,3499.672,1056.794,3509Z" transform="translate(-1050.079 -3460.689)" fill="#fff"/>
        </g>
        <g id="Grupo_1950" data-name="Grupo 1950" transform="translate(153.603 50.987)" opacity="0.51">
          <path id="Caminho_1157" data-name="Caminho 1157" d="M1181.238,3524.351l-.916-.324c2.564-7.229-4.244-46.093-4.313-46.485l.956-.168C1177.249,3478.983,1183.887,3516.884,1181.238,3524.351Z" transform="translate(-1176.009 -3477.374)" fill="#fff"/>
        </g>
      </g>
      <g id="Grupo_1952" data-name="Grupo 1952" transform="translate(115.101 189.15)">
        <path id="Caminho_1158" data-name="Caminho 1158" d="M707.2,3777.275a24.656,24.656,0,0,1-8.1-1.359.971.971,0,1,1,.641-1.833,22.787,22.787,0,0,0,12.475.688,2.547,2.547,0,0,0,.839-.3,2.3,2.3,0,0,0,.6-.83,10.432,10.432,0,0,0,.651-7.771,6.943,6.943,0,0,0-2.573-3.75,3.96,3.96,0,0,0-4-.351,2.061,2.061,0,0,0-1.077,2.427c.563,1.142,2.548,1.076,4.113.821a.971.971,0,1,1,.313,1.916c-3.219.524-5.291-.107-6.166-1.877-.918-1.854.23-4.075,1.877-4.986a5.861,5.861,0,0,1,6.026.438,8.864,8.864,0,0,1,3.345,4.783,12.389,12.389,0,0,1-.773,9.231,4,4,0,0,1-1.222,1.541,4.2,4.2,0,0,1-1.516.6A24.346,24.346,0,0,1,707.2,3777.275Z" transform="translate(-698.441 -3759.437)"/>
      </g>
      <g id="Grupo_1953" data-name="Grupo 1953" transform="translate(292.687 171.806)">
        <path id="Caminho_1159" data-name="Caminho 1159" d="M1270.727,3722a12.332,12.332,0,0,1-5.123-1.107,8.87,8.87,0,0,1-4.324-3.92,5.862,5.862,0,0,1,.326-6.033c1.11-1.519,3.456-2.376,5.182-1.235,1.646,1.093,2.011,3.23,1.085,6.354a.971.971,0,1,1-1.862-.552c.45-1.52.765-3.479-.3-4.184a2.062,2.062,0,0,0-2.542.762,3.965,3.965,0,0,0-.157,4.018,6.941,6.941,0,0,0,3.4,3.024,10.433,10.433,0,0,0,7.792.333,2.313,2.313,0,0,0,.9-.493,2.6,2.6,0,0,0,.4-.8,22.8,22.8,0,0,0,.888-12.463.971.971,0,0,1,1.9-.4,24.77,24.77,0,0,1-.965,13.538,4.222,4.222,0,0,1-.783,1.428,3.991,3.991,0,0,1-1.683,1.018A12.278,12.278,0,0,1,1270.727,3722Z" transform="translate(-1260.603 -3704.532)"/>
      </g>
    </g>
  </g>
</svg>
