<svg xmlns="http://www.w3.org/2000/svg" width="385.617" height="582.902" viewBox="0 0 385.617 582.902">
  <g id="trofeu" transform="matrix(0.995, 0.105, -0.105, 0.995, 26.982, 114.205)">
    <path id="Caminho_1556" data-name="Caminho 1556" d="M252.459.072s22.432-1.924,17.305,14.1S210.793,72.5,207.589,71.22s-116.661,10.258-192.3-42.3C-22.525,3.916,21.706.072,21.706.072Z" transform="translate(20.196 368.205)" fill="#fed15c" stroke="#000" stroke-linecap="round" stroke-linejoin="round" stroke-width="2"/>
    <path id="Caminho_1549" data-name="Caminho 1549" d="M85.91,136.981s-60.1-41.138-56.019-79.356S47.981,33.7,47.981,33.7,54.4,50.913,60.526,57.625c8.751,4.375,12.545-2.917,12.255-7a35.542,35.542,0,0,0-1.751-8.168V16.779S23.183-14.729,8.6,8.609-2.2,88.843,21.431,115.683s45.805,43.471,81.4,48.722C94.369,134.938,85.91,136.981,85.91,136.981Z" transform="translate(0 32.096)" fill="#fed15c" stroke="#000" stroke-linecap="round" stroke-linejoin="round" stroke-width="2"/>
    <path id="Caminho_1550" data-name="Caminho 1550" d="M31.372,113.855s45.855,1.971,67.551-33.529,5.916-49.308,5.916-49.308S87.583,21.653,83.146,47.291,51.589,50.744,51.1,42.361,73.776,5.871,73.776,5.871s64.592-17.256,69.524,7.4-5.424,71.493-55.225,109.951S4.254,137.522.31,137.522,31.372,113.855,31.372,113.855Z" transform="translate(221.647 63.544)" fill="#fed15c" stroke="#000" stroke-linecap="round" stroke-linejoin="round" stroke-width="2"/>
    <path id="Caminho_1553" data-name="Caminho 1553" d="M0,35.653C26.931,18.965,93.683,0,93.683,0L195.329,35.653l-29.2,30.719S26.171,60.687,0,35.653Z" transform="translate(64.413 256.529)" fill="#fed15c" stroke="#000" stroke-linecap="round" stroke-linejoin="round" stroke-width="2"/>
    <path id="Caminho_1552" data-name="Caminho 1552" d="M42.783,0,1.442,38.307S-16,56.511,70.471,67.89C120.157,70.925,117.5,45.513,117.5,45.513L79.574,2.276Z" transform="translate(106.961 236.034)" fill="#fed15c" stroke="#000" stroke-linecap="round" stroke-linejoin="round" stroke-width="2"/>
    <path id="Caminho_1554" data-name="Caminho 1554" d="M0,31.094V122.88L45.894,80.4,30.346,0Z" transform="translate(230.538 291.808)" fill="#fed15c" stroke="#000" stroke-linecap="round" stroke-linejoin="round" stroke-width="2"/>
    <path id="Caminho_1555" data-name="Caminho 1555" d="M.055,80.028s70.167,71.686,195.33,44.754c-1.138-94.44,0-93.3,0-93.3S90.322,34.136,28.881,0C-2.6,80.028.055,80.028.055,80.028Z" transform="translate(34.779 291.808)" fill="#fed15c" stroke="#000" stroke-linecap="round" stroke-linejoin="round" stroke-width="2"/>
    <path id="Caminho_1551" data-name="Caminho 1551" d="M2.031.655S-.621,17.344.136,20,28.2,38.205,57.788,26.826C61.2-6.551,59.681.655,59.681.655Z" transform="translate(135.575 213.383)" fill="#fed15c" stroke="#000" stroke-linecap="round" stroke-linejoin="round" stroke-width="2"/>
    <path id="Caminho_1548" data-name="Caminho 1548" d="M9.975,53.122c.495,13.808-15.284,139.535,91.71,144.469,84.807-1.48,98.12-55.222,110.938-127.7,9.863-18.735,10.848-16.765,10.848-16.765V31.431S217.553,3.818,115.49.364,6.523,19.1,6.523,19.1-10.238,38.823,9.975,53.122Z" transform="translate(66.515 27.61)" fill="#fed15c" stroke="#000" stroke-linecap="round" stroke-linejoin="round" stroke-width="2"/>
    <path id="Caminho_1557" data-name="Caminho 1557" d="M0,0S45.064,35.206,180.256,9.858" transform="translate(92.567 50.305)" fill="#fed15c" stroke="#000" stroke-linecap="round" stroke-width="2"/>
    <path id="Caminho_1558" data-name="Caminho 1558" d="M84.819,0c51.612,0,97.5,11.683,97.5,20.581-18.464,5.965-45.883,13-97.5,13S13.276,20.1,0,10.616C0,1.717,33.207,0,84.819,0Z" transform="translate(90.838 38.237)" opacity="0.17"/>
    <text id="_1" data-name="#1" transform="translate(100.754 176.417) rotate(4)" font-size="72" font-family="PressStart2P-Regular, 'Press Start \32 P'"><tspan x="0" y="0">#1</tspan></text>
    <path id="Caminho_1559" data-name="Caminho 1559" d="M67.021,7.549S99.993,150.441,0,164.609c69.163-9.167,77.018-52.9,77.018-52.9S92.983,81.167,98.233,39.446c1.462-3.207,9.384-18.777,9.384-18.777V0Z" transform="translate(180.373 58.753)" opacity="0.17"/>
    <path id="Caminho_1560" data-name="Caminho 1560" d="M0,0V22.132l16.213,57.5s20-3.335,27.5-19.165A293.572,293.572,0,0,0,9.545,22.132v-5h6.668V0Z" transform="translate(180.373 223.36)" opacity="0.17"/>
    <path id="Caminho_1561" data-name="Caminho 1561" d="M0,27.611v90.724L45.365,76.917,29.091,0Z" transform="translate(230.88 294.571)" opacity="0.17"/>
    <path id="Caminho_1562" data-name="Caminho 1562" d="M1.49,0a56.687,56.687,0,0,0,22,6.733c-4.333,19.5-2.246,25.583-2.246,25.583L0,27.288Z" transform="translate(100.977 60.304)" fill="#fff" opacity="0.5"/>
    <path id="Caminho_1563" data-name="Caminho 1563" d="M4.5,0,23.446,5.377S16.781,57.04,26.781,82.039-2.386,91.207.115,25.377C.947,7.046,4.5,0,4.5,0Z" transform="translate(96.473 92.621)" fill="#fff" opacity="0.5"/>
    <g id="Grupo_2206" data-name="Grupo 2206" transform="matrix(0.995, -0.105, 0.105, 0.995, 91.396, -126.977)">
      <path id="União_6" data-name="União 6" d="M23.277,63.557a4,4,0,0,1-4-4V43.267H4a4,4,0,0,1-4-4V24.292a4,4,0,0,1,4-4H19.276V4a4,4,0,0,1,4-4h17a4,4,0,0,1,4,4V20.291H59.557a4,4,0,0,1,4,4V39.267a4,4,0,0,1-4,4H44.28v16.29a4,4,0,0,1-4,4Z" transform="translate(9.942 101.628) rotate(9)" fill="#fd64e0" stroke="#000" stroke-linecap="round" stroke-linejoin="round" stroke-width="3"/>
      <g id="Elipse_10" data-name="Elipse 10" transform="translate(111.938 126.098) rotate(51)" fill="#fd64e0" stroke="#000" stroke-width="3">
        <ellipse cx="9.71" cy="9.71" rx="9.71" ry="9.71" stroke="none"/>
        <ellipse cx="9.71" cy="9.71" rx="11.21" ry="11.21" fill="none"/>
      </g>
      <g id="Elipse_11" data-name="Elipse 11" transform="translate(147.762 126.171) rotate(51)" fill="#fd64e0" stroke="#000" stroke-width="3">
        <ellipse cx="9.71" cy="9.71" rx="9.71" ry="9.71" stroke="none"/>
        <ellipse cx="9.71" cy="9.71" rx="11.21" ry="11.21" fill="none"/>
      </g>
      <g id="Elipse_12" data-name="Elipse 12" transform="translate(130.108 157.918) rotate(51)" fill="#fd64e0" stroke="#000" stroke-width="3">
        <ellipse cx="9.71" cy="9.71" rx="9.71" ry="9.71" stroke="none"/>
        <ellipse cx="9.71" cy="9.71" rx="11.21" ry="11.21" fill="none"/>
      </g>
      <g id="Elipse_13" data-name="Elipse 13" transform="translate(93.274 156.19) rotate(51)" fill="#fd64e0" stroke="#000" stroke-width="3">
        <ellipse cx="9.71" cy="9.71" rx="9.71" ry="9.71" stroke="none"/>
        <ellipse cx="9.71" cy="9.71" rx="11.21" ry="11.21" fill="none"/>
      </g>
      <g id="Grupo_129" data-name="Grupo 129" transform="translate(165.318 78.16) rotate(-22)">
        <g id="Retângulo_81" data-name="Retângulo 81" transform="translate(0 0)" fill="#fd64e0" stroke="#000" stroke-width="3">
          <rect width="51.78" height="51.78" rx="4" stroke="none"/>
          <rect x="1.5" y="1.5" width="48.78" height="48.78" rx="2.5" fill="none"/>
        </g>
        <rect id="Retângulo_82" data-name="Retângulo 82" width="12.945" height="12.945" transform="translate(25.89 12.945)"/>
      </g>
      <g id="Grupo_128" data-name="Grupo 128" transform="translate(100.775 28.071) rotate(-24)">
        <g id="Polígono_3" data-name="Polígono 3" transform="translate(52.51 0) rotate(60)" fill="#fd64e0" stroke-linecap="round" stroke-linejoin="round">
          <path d="M 35.53813171386719 31.76043891906738 L 33.01132202148438 31.76043891906738 L 2.91809078589722e-06 31.76043891906738 L -2.526807069778442 31.76043891906738 L -1.316837072372437 29.54215812683105 L 15.18882274627686 -0.7182815074920654 L 16.50566291809082 -3.132501602172852 L 17.82250213623047 -0.7182815074920654 L 34.32816314697266 29.54215812683105 L 35.53813171386719 31.76043891906738 Z" stroke="none"/>
          <path d="M 16.50566291809082 -1.9073486328125e-06 L 3.814697265625e-06 30.26043891906738 L 33.01132202148438 30.26043891906738 L 16.50566291809082 -1.9073486328125e-06 M 16.50566291809082 -3 C 17.60349273681641 -3 18.6136531829834 -2.400341033935547 19.13935279846191 -1.436552047729492 L 35.64501190185547 28.82388877868652 C 36.15202331542969 29.75340843200684 36.13150405883789 30.8813591003418 35.59102249145508 31.79182815551758 C 35.05053329467773 32.70229721069336 34.07013320922852 33.26043701171875 33.01132202148438 33.26043701171875 L 3.814697265625e-06 33.26043701171875 C -1.058807373046875 33.26043701171875 -2.039207458496094 32.70229721069336 -2.579696655273438 31.79182815551758 C -3.12017822265625 30.8813591003418 -3.140697479248047 29.75340843200684 -2.633686065673828 28.82388877868652 L 13.87197303771973 -1.436552047729492 C 14.39767265319824 -2.400341033935547 15.40783309936523 -3 16.50566291809082 -3 Z" stroke="none" fill="#000"/>
        </g>
        <line id="Linha_17" data-name="Linha 17" x1="26.826" y2="15.915" transform="translate(0 33.404)" fill="none" stroke="#000" stroke-linecap="round" stroke-width="3"/>
      </g>
      <g id="Caminho_1564" data-name="Caminho 1564" transform="translate(22.801 20.084)" fill="#fd64e0" stroke-linecap="round" stroke-linejoin="round">
        <path d="M 43.59751892089844 73.58600616455078 L 41.61795425415039 69.98659515380859 L 29.39050102233887 47.75355911254883 L -0.1963917762041092 43.84625244140625 L -3.841147422790527 43.36491775512695 L -0.8999806642532349 41.15914154052734 L 21.27339553833008 24.52988624572754 L 17.40778541564941 0.2357074171304703 L 16.80744171142578 -3.537303686141968 L 19.8144416809082 -1.180614829063416 L 40.18396377563477 14.78369808197021 L 59.33454132080078 3.293551921844482 L 62.16789627075195 1.593562960624695 L 61.58255386352539 4.845518589019775 L 56.62696838378906 32.37687301635742 L 73.38728332519531 41.02619552612305 L 77.44929504394531 43.12242889404297 L 72.93504333496094 43.84054183959961 L 48.77830505371094 47.68326187133789 L 44.40316390991211 69.55793762207031 L 43.59751892089844 73.58600616455078 Z" stroke="none"/>
        <path d="M 18.88914489746094 0 L 22.89687347412109 25.18729782104492 L 0 42.35915374755859 L 30.33917999267578 46.36581420898438 L 42.93229675292969 69.26374816894531 L 47.5120964050293 46.36581420898438 L 72.69939422607422 42.35915374755859 L 54.95440292358398 33.20168685913086 L 60.10627365112305 4.579788208007812 L 40.07085037231445 16.60083770751953 L 18.88914489746094 0 M 18.88875198364258 -3.000007629394531 C 19.54567718505859 -3.000007629394531 20.1994514465332 -2.784645080566406 20.73971939086914 -2.361221313476562 L 40.29706954956055 12.96654891967773 L 58.56280517578125 2.007301330566406 C 59.57203674316406 1.401756286621094 60.84211730957031 1.44232177734375 61.81067276000977 2.110977172851562 C 62.77923965454102 2.779647827148438 63.26731872558594 3.952911376953125 63.0588264465332 5.111236572265625 L 58.29954528808594 31.55204772949219 L 74.07518005371094 39.69321441650391 C 75.22726440429688 40.28775787353516 75.86708831787109 41.55509948730469 75.66139221191406 42.83512115478516 C 75.45569610595703 44.11515808105469 74.45103454589844 45.11824035644531 73.17068481445312 45.32190704345703 L 50.04451751708984 49.00069427490234 L 45.87403869628906 69.85211944580078 C 45.62690734863281 71.08769989013672 44.63402557373047 72.03717041015625 43.38863754272461 72.22883605957031 C 42.14326095581055 72.42050933837891 40.91082763671875 71.81352233886719 40.30361557006836 70.70944213867188 L 28.44183731079102 49.14129638671875 L -0.3927764892578125 45.33333206176758 C -1.601470947265625 45.17370986938477 -2.593338012695312 44.2984733581543 -2.90216064453125 43.11904907226562 C -3.210983276367188 41.93962860107422 -2.775306701660156 40.69060516357422 -1.799934387207031 39.95912170410156 L 19.64992141723633 23.87247085571289 L 15.92641448974609 0.4714279174804688 C 15.7325553894043 -0.7469406127929688 16.3043327331543 -1.959770202636719 17.36756896972656 -2.585487365722656 C 17.8392219543457 -2.863067626953125 18.3650016784668 -3.000007629394531 18.88875198364258 -3.000007629394531 Z" stroke="none" fill="#000"/>
      </g>
    </g>
  </g>
</svg>
