<svg xmlns="http://www.w3.org/2000/svg" width="168" height="156.999" viewBox="0 0 168 156.999">
  <g id="business" transform="translate(-1343 -1408)">
    <path id="SOMBRA" d="M92,120a5,5,0,0,1-5-5V57H235v58a5,5,0,0,1-5,5ZM86,57a5,5,0,0,1-5-5V-1a5,5,0,0,1,5-5h46V-23a6.006,6.006,0,0,1,6-6h46a6.006,6.006,0,0,1,6,6V-6h46a5,5,0,0,1,5,5V52a5,5,0,0,1-5,5ZM178-6V-17H144V-6Z" transform="translate(1266 1441)" stroke="#000" stroke-linecap="round" stroke-width="8"/>
    <rect id="Retângulo_117" data-name="Retângulo 117" width="160" height="63" rx="5" transform="translate(1347 1435)" fill="#8e562e"/>
    <path id="Retângulo_118" data-name="Retângulo 118" d="M0,0H148a0,0,0,0,1,0,0V58a5,5,0,0,1-5,5H5a5,5,0,0,1-5-5V0A0,0,0,0,1,0,0Z" transform="translate(1353 1498)" fill="#613d30"/>
    <path id="Exclusão_1" data-name="Exclusão 1" d="M93-6H81V-23a6.007,6.007,0,0,1,6-6h46a6.006,6.006,0,0,1,6,6V-6H127V-17H93V-6Z" transform="translate(1317 1441)" fill="#613d30"/>
    <rect id="Retângulo_121" data-name="Retângulo 121" width="34" height="12" transform="translate(1410 1498)" fill="#ffb900"/>
  </g>
</svg>
