<svg xmlns="http://www.w3.org/2000/svg" xmlns:xlink="http://www.w3.org/1999/xlink" width="517.969" height="598" viewBox="0 0 517.969 598">
  <defs>
    <clipPath id="clip-path">
      <path id="Caminho_1002" data-name="Caminho 1002" d="M1252.853,5351.395c16.338-55.389-33.665-103.859-88.763-81.7-27.578,10.017-75.609,84.306-38.964,99.244,26.934,10.02,71.462,4.933,83.274,36.528,1.064-11.941,11.192-29.787,24.782-21.614a44.083,44.083,0,0,1,20.968-33.155" transform="translate(-1111.867 -5264.203)" fill="none"/>
    </clipPath>
  </defs>
  <g id="character3" transform="translate(-215.961 -5093.248)">
    <g id="Grupo_1864" data-name="Grupo 1864" transform="translate(215.961 5093.248)">
      <path id="Caminho_948" data-name="Caminho 948" d="M414.271,5691.248c-.836,0-1.726-.035-2.72-.107a52.977,52.977,0,0,1-25.456-8.272c-16.094-10.463-25.609-27.692-32.1-41.533-4.6-9.8-10.134-22.894-12.177-37.237a120.123,120.123,0,0,1-.567-25.6c.621-8.96,2.1-22.3,7.685-34.636,5.841-12.89,15.294-22.671,26.62-27.544.226-.1.454-.193.683-.287a55.857,55.857,0,0,1-9.213-9.309,105.759,105.759,0,0,1-19.285,16.5l-.231.152c-.374.247-.9.594-1.17.806-.2.406-.492,1.241-.691,1.815-.995,2.869-1.982,5.8-2.937,8.636-3.625,10.759-7.368,21.871-12.42,32.456-1.76,12.017-6.108,21.58-12.934,28.441-7.241,7.279-16.87,11.126-27.849,11.126a51,51,0,0,1-28.56-9.062c-16.025-11.212-25.489-29.653-31.944-44.466-4.563-10.474-10.062-24.455-12.083-39.735a137.569,137.569,0,0,1-.559-27.266c.616-9.545,2.073-23.75,7.589-36.852,5.784-13.736,15.191-24.182,26.49-29.415a39.21,39.21,0,0,1,16.361-3.614c.72,0,1.446.02,2.168.061.827-.045,1.657-.069,2.476-.069a42.934,42.934,0,0,1,11.5,1.559,320.029,320.029,0,0,1,25.262-51.535,15.172,15.172,0,0,1,1.071-3.7c2.1-5.026,5.321-9.041,8.442-12.721,2.858-3.373,5.289-6.064,7.624-8.435a61.555,61.555,0,0,1,14.9-13.266,40.53,40.53,0,0,1,20.553-6.042q-.5-.738-.973-1.475l-15.251-23.657c-5.632-8.738-12.638-19.608-13.94-32.413-.976-9.617,1.639-18.875,7.174-25.4a26.731,26.731,0,0,1,17.729-9.27,25.021,25.021,0,0,1,11.166-9.905,27.732,27.732,0,0,1,11.583-2.687,22.368,22.368,0,0,1,4.6.471c.138.029.276.06.413.092a19.223,19.223,0,0,1,13.824-6.806c.4-.021.792-.032,1.19-.032a28.065,28.065,0,0,1,12.468,3.211,34.886,34.886,0,0,1,8.47,5.788,26.33,26.33,0,0,1,9.723-6.562,29.185,29.185,0,0,1,10.553-1.766c.763,0,1.565.021,2.383.063a22.585,22.585,0,0,1,9.1,2.114c8.77,4.381,11.311,14.42,9.938,22.426-1.473,8.587-6.434,15.107-10.812,20.859-.905,1.19-1.812,2.382-2.627,3.513a33.757,33.757,0,0,0-3,4.95,8.649,8.649,0,0,1,4.62,3,20.162,20.162,0,0,1,3.67-5.982,17.2,17.2,0,0,1,12.9-6.01q.744,0,1.483.066a31.259,31.259,0,0,1,5.91-5.443,49.85,49.85,0,0,1,12.26-6.467c-2.722-16.3-.3-34.844,7.235-55.273,5.669-15.37,12.485-27.815,20.837-38.045,1.349-1.653,2.823-3.328,4.4-5,2.257-5.544,4.368-11.209,6.305-16.922a20.662,20.662,0,0,1-7.616-15.124c-.333-10.816,8.862-20.706,19.675-21.161.124-.005.247-.007.37-.007a8.61,8.61,0,0,1,4.558,1.3c4.332,1.322,11.459,4.391,14.232,12,2.207,6.058.332,11.9-1.142,15.243q2.665-1.077,5.417-2.027a110.36,110.36,0,0,1,36.088-6.1,106.807,106.807,0,0,1,17.909,1.509h.4a79.711,79.711,0,0,1,72.759,46.719q.532-3.877,1.055-7.744a20.867,20.867,0,0,1-8.326-15.649c-.3-9.867,7.147-18.735,16.911-20.538a8.65,8.65,0,0,1,2.575-.392,12.4,12.4,0,0,1,3.714.664c4,1.061,12.536,3.895,15.635,12.4,2.78,7.627-.915,14.909-2.129,17.3a20.044,20.044,0,0,1-4.979,6.647,16.233,16.233,0,0,1-5.268,2.9c-1.678,12.386-3.424,24.843-5.212,37.183,3.823,3.153,5.539,8.092,5.1,14.712a121.422,121.422,0,0,1-2.1,16.174,24.587,24.587,0,0,1,5.278,4.143,8.577,8.577,0,0,1,1.349.97c9.779,6.658,13.184,22.005,10.734,33.729-2.13,10.188-11.67,22.072-23.489,23.876q-.162.067-.329.132-.164.508-.365,1.022a22.737,22.737,0,0,1-5.87,8.005c-.381.37-.747.723-1.093,1.086a42.935,42.935,0,0,0-3.479,4.474c-3.058,4.285-6.852,9.6-13.473,12.289q-.309.126-.623.242a18.64,18.64,0,0,1,8.657,5.838c.137-.033.274-.062.411-.092a22.4,22.4,0,0,1,4.6-.471,27.733,27.733,0,0,1,11.583,2.688,25.023,25.023,0,0,1,11.165,9.9,26.729,26.729,0,0,1,17.729,9.27c5.537,6.527,8.151,15.785,7.175,25.4-1.3,12.8-8.308,23.674-13.938,32.407l-15.253,23.662c-2.216,3.437-6.854,10.632-14.51,13.258a24.569,24.569,0,0,1-5.972,14.354c-1.226,11.991-10.623,22.765-22.583,25.064l-.344.064a35.284,35.284,0,0,1-28.742,15.064c-.816,0-1.638-.03-2.444-.089a19.873,19.873,0,0,1-9.941-3.312,41.616,41.616,0,0,1-11.616,1.787,33.08,33.08,0,0,1-4.273-.274,28.467,28.467,0,0,1-10.369-3.441,470.565,470.565,0,0,1-31.788,53.946c-6.654,9.753-13.949,19.959-23.495,28.131-10.512,9-23.022,9.151-34.059,9.286-1.283.016-2.531.031-3.758.059a81.538,81.538,0,0,1-15.53,24.423c-.567.611-1.15,1.219-1.734,1.825l-.1.105a32.364,32.364,0,0,0-4.445,5.266,33.919,33.919,0,0,0-2.821,7.67l-.824,2.915c-4.834,17.1-9.829,34.775-20.918,49.319a59.137,59.137,0,0,1-16.118,14.511,40.632,40.632,0,0,1-22.937,7.156l-.066,0C414.857,5691.237,414.563,5691.248,414.271,5691.248Z" transform="translate(-215.961 -5093.248)" fill="#fefff0"/>
      <g id="Grupo_1863" data-name="Grupo 1863" transform="translate(8.647 8.647)">
        <g id="Grupo_1727" data-name="Grupo 1727" transform="translate(381.134 221.739)">
          <g id="Grupo_1721" data-name="Grupo 1721" transform="translate(3.373)">
            <path id="Caminho_949" data-name="Caminho 949" d="M1413.723,5771.05c4.958-.036,8.42,2.963,8.654,7.915a13.8,13.8,0,0,1-2.653,8.144c-5.2,7.771-14.5,11.637-23.479,14.249-5.993,1.744-12.6,3.086-18.328.6-1.7-.736-4.742-.932-5.635-2.55-.615-1.114-.861-.942-.813-2.216.318-8.568.561-15.157,1.974-21.381a2.446,2.446,0,0,1,3.075-2.5c6.336.521,12.639,1.592,19,1.582s12.328.25,17.575-3.339" transform="translate(-1370.902 -5770.488)" fill="#fefff0"/>
            <path id="Caminho_950" data-name="Caminho 950" d="M1371.425,5799.435a9.368,9.368,0,0,0,3.4,1.393,13.876,13.876,0,0,1,1.79.56c5.916,2.567,12.776,1.149,18.707-.576,8.153-2.372,18.225-6.161,23.789-14.476a14.132,14.132,0,0,0,2.747-8.482c-.244-5.171-3.862-8.488-9.218-8.449l.009,1.122c4.774-.035,7.872,2.793,8.089,7.38a13.043,13.043,0,0,1-2.559,7.8c-5.363,8.015-15.2,11.7-23.17,14.023-5.739,1.669-12.359,3.049-17.948.625a14.485,14.485,0,0,0-1.945-.615c-1.37-.367-2.922-.782-3.422-1.69a8.6,8.6,0,0,0-.463-.745c-.26-.383-.307-.451-.28-1.18.313-8.452.56-15.11,1.961-21.277a1.926,1.926,0,0,1,2.482-2.062c2.133.175,4.3.417,6.4.652a113.237,113.237,0,0,0,12.644.932h1.247c5.964.008,11.6.014,16.644-3.437l-.634-.926c-4.759,3.255-10.224,3.249-16.01,3.241h-1.25a112.025,112.025,0,0,1-12.518-.926c-2.105-.234-4.282-.478-6.431-.655a2.978,2.978,0,0,0-3.668,2.933c-1.424,6.269-1.672,12.973-1.987,21.462a2.458,2.458,0,0,0,.473,1.874,7.449,7.449,0,0,1,.409.657A2.886,2.886,0,0,0,1371.425,5799.435Z" transform="translate(-1369.819 -5769.403)"/>
          </g>
          <g id="Grupo_1724" data-name="Grupo 1724" transform="translate(0 18.171)">
            <g id="Grupo_1722" data-name="Grupo 1722" transform="translate(0.567 0.393)">
              <path id="Caminho_951" data-name="Caminho 951" d="M1411.608,5824.078a48.24,48.24,0,0,1-13.318,22.439c1.839,1.3,1.666,4.06,1.134,6.251-4.267,17.56-19.943,31.762-37.838,34.278a375.047,375.047,0,0,1,4.086-51.575c15.895,4.878,34.456.29,46.092-11.587" transform="translate(-1361.586 -5823.885)" fill="#fefff0"/>
            </g>
            <g id="Grupo_1723" data-name="Grupo 1723">
              <path id="Caminho_952" data-name="Caminho 952" d="M1359.928,5886.282a376.68,376.68,0,0,1,4.092-51.652l.1-.646.624.191c15.78,4.843,34.076.244,45.526-11.444l.736.722.049.014-.008.027.024.023-.042.042a48.88,48.88,0,0,1-13.006,22.166c1.268,1.289,1.564,3.487.853,6.415a46.978,46.978,0,0,1-38.3,34.7l-.646.091Zm36.94-40.067-.545-.388.476-.469a47.967,47.967,0,0,0,12.588-20.217,47.5,47.5,0,0,1-44.351,10.295,375.671,375.671,0,0,0-3.978,50.2,45.863,45.863,0,0,0,36.724-33.761c.46-1.9.687-4.371-.781-5.561C1396.957,5846.281,1396.913,5846.247,1396.867,5846.215Z" transform="translate(-1359.921 -5822.732)"/>
            </g>
          </g>
          <g id="Grupo_1726" data-name="Grupo 1726" transform="translate(12.057 36.258)">
            <g id="Grupo_1725" data-name="Grupo 1725">
              <path id="Caminho_953" data-name="Caminho 953" d="M1395.516,5893.2a.561.561,0,0,0,.533.1c9.481-3.206,18.39-8.446,28.039-16.495a.561.561,0,1,0-.719-.861c-9.538,7.957-18.333,13.134-27.679,16.292a.561.561,0,0,0-.352.711A.553.553,0,0,0,1395.516,5893.2Z" transform="translate(-1395.308 -5875.815)"/>
            </g>
          </g>
        </g>
        <g id="Grupo_1754" data-name="Grupo 1754" transform="translate(114.478 117.768)">
          <g id="Grupo_1752" data-name="Grupo 1752">
            <g id="Grupo_1728" data-name="Grupo 1728">
              <path id="Caminho_954" data-name="Caminho 954" d="M674.178,5523.206c-3.259-7.289.525-15.767,5.194-22.244s10.485-12.675,11.833-20.544c.82-4.784-.638-10.464-4.979-12.633a13.715,13.715,0,0,0-5.46-1.156,22.489,22.489,0,0,0-9.182,1.11c-6.7,2.559-10.535,9.454-13.813,15.834,0-6.8-5.613-12.4-11.72-15.4a18.67,18.67,0,0,0-9.1-2.249,9.606,9.606,0,0,0-7.9,4.477c-1.459,2.6-1.257,5.782-1.014,8.758-.954-3.454-4.207-5.967-7.713-6.706a17.008,17.008,0,0,0-10.449,1.575c-4.566,2.1-8.89,6.529-7.985,11.471-6.152-2.311-13.476.28-17.727,5.292s-5.7,11.975-5.035,18.513c1.055,10.38,6.865,19.583,12.519,28.354l15.251,23.658c3.034,4.706,6.98,9.946,12.578,10.025a15.394,15.394,0,0,0,5.475-1.217c18.679-6.895,33.915-20.842,46.876-35.957a15.857,15.857,0,0,0,3.538-5.6c.627-2.134.206-4.736-1.578-6.064" transform="translate(-578.406 -5465.345)" fill="#fefff0"/>
              <path id="Caminho_955" data-name="Caminho 955" d="M618.5,5570.818h-.13c-5.688-.08-9.629-4.989-13.041-10.282l-15.251-23.658c-5.4-8.372-11.514-17.861-12.605-28.6-.741-7.288,1.142-14.188,5.166-18.932,4.386-5.17,11.6-7.5,17.491-5.743-.309-4.869,4.018-9.147,8.416-11.166a17.482,17.482,0,0,1,10.8-1.614,11.145,11.145,0,0,1,6.866,4.414,12.059,12.059,0,0,1,1.256-6.192,10.109,10.109,0,0,1,8.362-4.763,19.006,19.006,0,0,1,9.379,2.306c5.281,2.591,10.89,7.508,11.881,13.905,3.353-6.34,7.055-12.013,13.2-14.36a22.684,22.684,0,0,1,9.411-1.146,14.348,14.348,0,0,1,5.682,1.214c4.778,2.387,6.087,8.53,5.282,13.229-1.114,6.5-5.21,11.879-9.171,17.084-.92,1.209-1.871,2.458-2.761,3.694-4.049,5.617-8.2,13.744-5.42,21,1.845,1.619,2.081,4.425,1.49,6.436a16.132,16.132,0,0,1-3.65,5.8c-16.033,18.7-31,30.172-47.108,36.117A16.3,16.3,0,0,1,618.5,5570.818Zm-22.469-86.679a16.825,16.825,0,0,0-12.536,5.93c-3.827,4.512-5.615,11.106-4.905,18.093,1.063,10.472,7.1,19.841,12.432,28.107l15.251,23.658c3.243,5.03,6.955,9.695,12.114,9.768a14.928,14.928,0,0,0,5.273-1.182c15.92-5.876,30.741-17.249,46.645-35.795a15.235,15.235,0,0,0,3.426-5.389,5.361,5.361,0,0,0-.941-5.074l-.214.1q-.1-.229-.2-.458l-.025-.019.011-.015c-3.147-7.789,1.2-16.4,5.46-22.31.9-1.247,1.854-2.5,2.778-3.717,3.879-5.1,7.89-10.369,8.957-16.595.738-4.3-.411-9.9-4.677-12.036a13.128,13.128,0,0,0-5.238-1.1,21.574,21.574,0,0,0-8.953,1.074c-6.338,2.418-10.009,8.743-13.514,15.566l-1.06,2.063v-2.32c0-6.854-5.892-12.188-11.406-14.9a17.992,17.992,0,0,0-8.824-2.193,8.988,8.988,0,0,0-7.444,4.191c-1.426,2.546-1.159,5.813-.945,8.438l-1.1.2a9.518,9.518,0,0,0-7.288-6.306,16.653,16.653,0,0,0-10.1,1.537c-4.29,1.968-8.52,6.206-7.668,10.859l.179.975-.927-.348A12.963,12.963,0,0,0,596.034,5484.139Z" transform="translate(-577.318 -5464.26)"/>
            </g>
            <g id="Grupo_1729" data-name="Grupo 1729" transform="translate(18.916 20.179)">
              <path id="Caminho_956" data-name="Caminho 956" d="M646.662,5567.588a10.947,10.947,0,0,1-6.762-2.923,23.853,23.853,0,0,1-7.043-10.863.561.561,0,0,1,1.073-.327,22.71,22.71,0,0,0,6.707,10.345c2.494,2.175,6.285,3.656,8.712,1.764,1.17-.913,1.886-2.518,2.125-4.773.532-5.006-1.1-10.014-2.771-14.253a103.373,103.373,0,0,0-12.051-22.187.561.561,0,0,1,.913-.652,104.515,104.515,0,0,1,12.182,22.428c1.719,4.365,3.4,9.535,2.843,14.783-.273,2.569-1.132,4.434-2.551,5.54A5.375,5.375,0,0,1,646.662,5567.588Z" transform="translate(-632.833 -5523.483)"/>
            </g>
            <g id="Grupo_1730" data-name="Grupo 1730" transform="translate(40.816 10.803)">
              <path id="Caminho_957" data-name="Caminho 957" d="M707.263,5540.693c-3.435,0-6.787-2.158-9.935-4.571a.561.561,0,0,1,.683-.891c3.29,2.521,7.121,5.128,10.971,4.12,3.416-.894,5.4-4.414,5.846-7.5.5-3.424-.406-6.978-1.374-10.326a201.719,201.719,0,0,0-8.959-24.768.561.561,0,1,1,1.028-.45,202.62,202.62,0,0,1,9.009,24.907c1,3.465,1.936,7.153,1.407,10.8-.5,3.457-2.76,7.4-6.672,8.429A7.874,7.874,0,0,1,707.263,5540.693Z" transform="translate(-697.108 -5495.966)"/>
            </g>
            <g id="Grupo_1731" data-name="Grupo 1731" transform="translate(63.193 17.229)">
              <path id="Caminho_958" data-name="Caminho 958" d="M770.609,5547.844a9.5,9.5,0,0,1-2.81-.411,7.53,7.53,0,0,1-4.991-4.677.561.561,0,0,1,1.068-.345,6.393,6.393,0,0,0,4.253,3.948,9.973,9.973,0,0,0,6.108-.28,5.552,5.552,0,0,0,2.562-1.563,7.119,7.119,0,0,0,1.231-3.544,95.576,95.576,0,0,0,.506-25.52.561.561,0,0,1,1.115-.128,96.718,96.718,0,0,1-.511,25.818,8.13,8.13,0,0,1-1.479,4.092,6.6,6.6,0,0,1-3.058,1.905A12.368,12.368,0,0,1,770.609,5547.844Z" transform="translate(-762.781 -5514.826)"/>
            </g>
            <g id="Grupo_1734" data-name="Grupo 1734" transform="translate(39.584 54.326)">
              <g id="Grupo_1732" data-name="Grupo 1732" transform="translate(0.69 0.586)">
                <path id="Caminho_959" data-name="Caminho 959" d="M752.618,5628.833a7.38,7.38,0,0,1,5.606-3.415l2.93,4.785c3.894-1.688,8.922,2.188,8.281,6.384.247-1.658,2.874-1.825,3.957-.546s1.038,3.137.935,4.811q-.384,6.262-.769,12.524a18.165,18.165,0,0,1-.8,5.081,26.1,26.1,0,0,1-3.231,5.365c-8.994,13.512-5.466,32.115,2.888,46.03,1.145,1.908,2.407,3.867,2.584,6.086a12.961,12.961,0,0,1-1.268,5.67,235.914,235.914,0,0,1-13.753,28.948c-1.106,1.971-2.774,4.209-5.015,3.92a146.67,146.67,0,0,0-46.191-61.79c-5.45-4.241-11.6-8.665-13.255-15.371,17.181-2.844,30.9-15.406,43.469-27.459,6.373-6.11,13.14-13.062,13.823-21.864" transform="translate(-695.517 -5625.419)" fill="#fefff0"/>
              </g>
              <g id="Grupo_1733" data-name="Grupo 1733">
                <path id="Caminho_960" data-name="Caminho 960" d="M754.035,5753.93a3.79,3.79,0,0,1-.479-.031l-.329-.043-.121-.309A145.344,145.344,0,0,0,707.093,5692l-.965-.749c-5.353-4.145-10.889-8.43-12.489-14.931l-.145-.589.6-.1c16.417-2.718,29.265-13.977,43.172-27.311,6.653-6.38,12.694-12.784,13.594-20.883l-.05-.031.064-.1c.017-.161.031-.324.044-.487l.281.022a7.974,7.974,0,0,1,5.65-3.11l.342-.027,2.867,4.682a6.523,6.523,0,0,1,5.948,1.23,6.817,6.817,0,0,1,2.639,4.229,2.79,2.79,0,0,1,.546-.22,3.3,3.3,0,0,1,3.3.925c1.193,1.409,1.181,3.346,1.066,5.208l-.769,12.524a14.141,14.141,0,0,1-3.3,9.529c-.278.4-.556.793-.823,1.194-9.458,14.209-4.348,33.353,2.9,45.431l.221.366a13.97,13.97,0,0,1,2.441,5.964,13.45,13.45,0,0,1-1.3,5.92,237.3,237.3,0,0,1-13.785,29.017C757.538,5752.539,755.865,5753.929,754.035,5753.93Zm-59.151-77.3c1.7,5.806,6.9,9.832,11.93,13.729l.968.75a146.476,146.476,0,0,1,46.238,61.7c1.4,0,2.755-1.2,4.134-3.658a236.127,236.127,0,0,0,13.719-28.88,12.368,12.368,0,0,0,1.23-5.42,13.136,13.136,0,0,0-2.283-5.473l-.222-.369c-7.418-12.358-12.623-31.984-2.874-46.629.272-.409.555-.813.838-1.216a13.095,13.095,0,0,0,3.1-8.954l.769-12.524c.1-1.7.122-3.321-.8-4.414a2.166,2.166,0,0,0-2.134-.57,1.058,1.058,0,0,0-.839.831v.008l-1.11-.167,0-.011a5.744,5.744,0,0,0-7.505-5.775l-.447.193-3-4.9a6.837,6.837,0,0,0-4.641,2.818c-1.005,8.41-7.413,15.192-13.915,21.428C727.328,5659.4,712.7,5673.419,694.884,5676.629Z" transform="translate(-693.493 -5623.699)"/>
              </g>
            </g>
            <g id="Grupo_1736" data-name="Grupo 1736" transform="translate(85.449 58.734)">
              <g id="Grupo_1735" data-name="Grupo 1735">
                <path id="Caminho_961" data-name="Caminho 961" d="M828.662,5673.873a.561.561,0,0,1-.218-1.079c14.313-6.016,23.364-20.957,21.523-35.528a.561.561,0,1,1,1.113-.14c1.9,15.06-7.434,30.5-22.2,36.7A.562.562,0,0,1,828.662,5673.873Z" transform="translate(-828.1 -5636.637)"/>
              </g>
            </g>
            <g id="Grupo_1738" data-name="Grupo 1738" transform="translate(94.808 63.186)">
              <g id="Grupo_1737" data-name="Grupo 1737">
                <path id="Caminho_962" data-name="Caminho 962" d="M856.13,5688.738a.561.561,0,0,1-.279-1.048,41.3,41.3,0,0,0,20.308-37.393.561.561,0,0,1,1.12-.063,42.451,42.451,0,0,1-20.871,38.431A.558.558,0,0,1,856.13,5688.738Z" transform="translate(-855.568 -5649.705)"/>
              </g>
            </g>
            <g id="Grupo_1740" data-name="Grupo 1740" transform="translate(47.461 112.878)">
              <g id="Grupo_1739" data-name="Grupo 1739">
                <path id="Caminho_963" data-name="Caminho 963" d="M721.671,5801.981a13.217,13.217,0,0,1-4.7-.843.561.561,0,1,1,.4-1.049,13.168,13.168,0,0,0,14.792-4.32.561.561,0,0,1,.9.669A14.346,14.346,0,0,1,721.671,5801.981Z" transform="translate(-716.609 -5795.543)"/>
              </g>
            </g>
            <g id="Grupo_1742" data-name="Grupo 1742" transform="translate(64.399 124.46)">
              <g id="Grupo_1741" data-name="Grupo 1741">
                <path id="Caminho_964" data-name="Caminho 964" d="M767.962,5836.933q-.567,0-1.136-.057a.561.561,0,1,1,.112-1.116,11.324,11.324,0,0,0,10.852-5.919.561.561,0,1,1,1,.51A12.346,12.346,0,0,1,767.962,5836.933Z" transform="translate(-766.321 -5829.535)"/>
              </g>
            </g>
            <g id="Grupo_1744" data-name="Grupo 1744" transform="translate(78.976 138.557)">
              <g id="Grupo_1743" data-name="Grupo 1743">
                <path id="Caminho_965" data-name="Caminho 965" d="M809.664,5880.734a.561.561,0,0,1-.069-1.118,16.581,16.581,0,0,0,12.343-8.414.561.561,0,1,1,.986.535,17.721,17.721,0,0,1-13.19,8.993A.489.489,0,0,1,809.664,5880.734Z" transform="translate(-809.103 -5870.908)"/>
              </g>
            </g>
            <g id="Grupo_1746" data-name="Grupo 1746" transform="translate(92.603 146.11)">
              <g id="Grupo_1745" data-name="Grupo 1745">
                <path id="Caminho_966" data-name="Caminho 966" d="M849.656,5913.115a.561.561,0,0,1-.2-1.086,33.159,33.159,0,0,0,18.858-18.6.561.561,0,0,1,1.044.412,34.3,34.3,0,0,1-19.506,19.236A.554.554,0,0,1,849.656,5913.115Z" transform="translate(-849.095 -5893.076)"/>
              </g>
            </g>
            <g id="Grupo_1747" data-name="Grupo 1747" transform="translate(66.942 29.691)">
              <path id="Caminho_967" data-name="Caminho 967" d="M785.845,5554.042a.561.561,0,0,1-.264-.066,12.824,12.824,0,0,0-11.007-.412.561.561,0,0,1-.454-1.026,13.974,13.974,0,0,1,11.99.449.561.561,0,0,1-.265,1.056Z" transform="translate(-773.785 -5551.4)"/>
            </g>
            <g id="Grupo_1748" data-name="Grupo 1748" transform="translate(63.42 17.309)">
              <path id="Caminho_968" data-name="Caminho 968" d="M764.008,5519.767a.561.561,0,0,1-.405-.949,12.637,12.637,0,0,1,13.111-3.054.561.561,0,1,1-.385,1.054,11.486,11.486,0,0,0-11.915,2.776A.56.56,0,0,1,764.008,5519.767Z" transform="translate(-763.447 -5515.061)"/>
            </g>
            <g id="Grupo_1749" data-name="Grupo 1749" transform="translate(42.002 28.706)">
              <path id="Caminho_969" data-name="Caminho 969" d="M701.15,5553.647a.56.56,0,0,1-.454-.89,10.646,10.646,0,0,1,12.151-3.591.561.561,0,0,1-.405,1.046,9.492,9.492,0,0,0-10.836,3.2A.561.561,0,0,1,701.15,5553.647Z" transform="translate(-700.589 -5548.509)"/>
            </g>
            <g id="Grupo_1750" data-name="Grupo 1750" transform="translate(40.355 17.197)">
              <path id="Caminho_970" data-name="Caminho 970" d="M696.315,5519.521a.554.554,0,0,1-.3-.087.561.561,0,0,1-.173-.774,8.834,8.834,0,0,1,10.759-3.226.561.561,0,0,1-.461,1.023,7.675,7.675,0,0,0-9.351,2.8A.561.561,0,0,1,696.315,5519.521Z" transform="translate(-695.755 -5514.732)"/>
            </g>
            <g id="Grupo_1751" data-name="Grupo 1751" transform="translate(20.082 32.687)">
              <path id="Caminho_971" data-name="Caminho 971" d="M636.818,5567.689a.56.56,0,0,1-.526-.756,10.578,10.578,0,0,1,10.786-6.685.561.561,0,1,1-.12,1.115,9.549,9.549,0,0,0-9.613,5.959A.562.562,0,0,1,636.818,5567.689Z" transform="translate(-636.257 -5560.194)"/>
            </g>
          </g>
          <g id="Grupo_1753" data-name="Grupo 1753" transform="translate(27.162 45.268)">
            <path id="Caminho_972" data-name="Caminho 972" d="M657.594,5601.49a.561.561,0,0,1-.446-.9,8.983,8.983,0,0,1,8.768-3.31.561.561,0,0,1-.222,1.1,7.831,7.831,0,0,0-7.652,2.888A.56.56,0,0,1,657.594,5601.49Z" transform="translate(-657.034 -5597.115)"/>
          </g>
        </g>
        <g id="Grupo_1761" data-name="Grupo 1761" transform="translate(218.557 163.365)">
          <g id="Grupo_1755" data-name="Grupo 1755" transform="translate(12.796)">
            <path id="Caminho_973" data-name="Caminho 973" d="M936.845,5601.966c-3.83-3.149-8.407-3-11.706.7a13.8,13.8,0,0,0-3.063,8c-.849,9.312,3.945,18.17,9.278,25.851,3.56,5.127,7.851,10.328,13.864,12,1.781.5,4.271,2.261,5.984,1.565,1.18-.48,1.262-.191,2.027-1.211,5.146-6.858,9.1-12.132,11.922-17.857a2.446,2.446,0,0,0-.818-3.876c-5.251-3.583-10.824-6.718-15.758-10.726s-9.737-7.564-11.556-13.656" transform="translate(-921.417 -5599.174)" fill="#fefff0"/>
            <path id="Caminho_974" data-name="Caminho 974" d="M949.241,5649.714a9.343,9.343,0,0,1-3.515-1.055,13.875,13.875,0,0,0-1.744-.69c-6.213-1.729-10.652-7.148-14.175-12.222-4.843-6.974-10.286-16.258-9.377-26.221a14.131,14.131,0,0,1,3.2-8.321c3.444-3.865,8.343-4.166,12.481-.765l-.712.867c-3.688-3.032-7.876-2.784-10.931.645a13.045,13.045,0,0,0-2.923,7.676c-.876,9.6,4.446,18.66,9.18,25.479,3.409,4.91,7.685,10.148,13.554,11.781a14.63,14.63,0,0,1,1.9.746c1.3.577,2.764,1.231,3.723.841a8.5,8.5,0,0,1,.829-.287c.443-.133.522-.158.959-.74,5.076-6.766,9.075-12.1,11.868-17.769a1.927,1.927,0,0,0-.631-3.165c-1.768-1.207-3.606-2.382-5.383-3.521a112.927,112.927,0,0,1-10.413-7.233l-.969-.784c-4.64-3.748-9.023-7.289-10.771-13.147l1.075-.321c1.65,5.525,5.9,8.959,10.4,12.6l.971.786a112.149,112.149,0,0,0,10.31,7.159c1.784,1.143,3.629,2.324,5.41,3.539a2.976,2.976,0,0,1,1.005,4.587c-2.839,5.768-6.865,11.134-11.963,17.929a2.459,2.459,0,0,1-1.547,1.159,7.556,7.556,0,0,0-.731.253A2.864,2.864,0,0,1,949.241,5649.714Z" transform="translate(-920.332 -5598.083)"/>
          </g>
          <g id="Grupo_1758" data-name="Grupo 1758" transform="translate(0 13.863)">
            <g id="Grupo_1756" data-name="Grupo 1756" transform="translate(0.594 0.053)">
              <path id="Caminho_975" data-name="Caminho 975" d="M897.283,5639.172a48.237,48.237,0,0,0-3.773,25.819c-2.25-.143-3.85,2.106-4.815,4.144-7.736,16.332-4.492,37.234,7.83,50.453a375.048,375.048,0,0,0,29.284-42.652c-15.422-6.212-26.959-21.46-28.526-38.012" transform="translate(-884.521 -5638.924)" fill="#fefff0"/>
            </g>
            <g id="Grupo_1757" data-name="Grupo 1757">
              <path id="Caminho_976" data-name="Caminho 976" d="M895.412,5720.345l-.445-.477a46.979,46.979,0,0,1-7.927-51.075c1.29-2.722,2.9-4.245,4.7-4.448a48.888,48.888,0,0,1,3.843-25.412l-.006-.059.033,0,.011-.025.047.02,1.026-.1c1.542,16.289,12.866,31.377,28.177,37.545l.6.244-.331.562a376.736,376.736,0,0,1-29.327,42.715Zm-3.251-54.9c-1.889,0-3.271,2.066-4.107,3.83a45.861,45.861,0,0,0,7.292,49.348,375.787,375.787,0,0,0,28.5-41.515,47.5,47.5,0,0,1-27.988-35.913,47.965,47.965,0,0,0-2.942,23.633l.075.665-.668-.042C892.271,5665.446,892.216,5665.444,892.161,5665.444Z" transform="translate(-882.778 -5638.768)"/>
            </g>
          </g>
          <g id="Grupo_1760" data-name="Grupo 1760" transform="translate(9.286 34.003)">
            <g id="Grupo_1759" data-name="Grupo 1759">
              <path id="Caminho_977" data-name="Caminho 977" d="M921.925,5729.272a.561.561,0,0,1-.475-.261c-5.351-8.458-8.976-18.137-11.409-30.464a.561.561,0,1,1,1.1-.216c2.4,12.186,5.982,21.744,11.256,30.08a.561.561,0,0,1-.474.861Z" transform="translate(-910.031 -5697.877)"/>
            </g>
          </g>
        </g>
        <g id="Grupo_1762" data-name="Grupo 1762" transform="translate(268.31 20.422)">
          <path id="Caminho_978" data-name="Caminho 978" d="M1149.672,5181.753a70.759,70.759,0,0,1,71.768,63.329c.5,4.76,1.228,10.613,5.693,12.337,1.39.537,2.982.559,4.238,1.361,2.27,1.452,2.425,4.66,2.249,7.349a101.493,101.493,0,0,1-3.027,19.57,232.561,232.561,0,0,0-4.646,51.849,14.9,14.9,0,0,1-.621,5.847c-.982,2.482-3.224,4.191-5.066,6.124-4.665,4.9-7.481,12.041-13.747,14.583-4.777,1.938-10.263.551-14.938-1.623s-9.035-5.126-14.007-6.49a5.416,5.416,0,0,0-2.639-.221c-1.506.35-2.492,1.74-3.476,2.933-5.043,6.113-10.743,16.965-18.66,17.3s-18.205-9.533-25.909-11.39l-26.383-6.359c-4.5-1.084-9.078-2.2-13.022-4.618s-7.22-6.391-7.6-11l-6.787,5.08-19.921-19.626a25.578,25.578,0,0,0-6.772-5.309c-1.822-.854-3.837-1.273-5.595-2.252-3.6-2-5.562-6-6.9-9.9-6.727-19.531-2.869-41.213,4.279-60.593,4.675-12.675,10.786-24.943,19.33-35.409,21.859-26.775,59.249-39.149,93.21-32.718" transform="translate(-1029.862 -5179.672)" fill="#fefff0"/>
          <path id="Caminho_979" data-name="Caminho 979" d="M1147.358,5367.5c-7.387,0-14.639-1.748-21.672-3.443L1099.3,5357.7c-4.488-1.083-9.128-2.2-13.184-4.686-4.223-2.587-7.055-6.438-7.74-10.452l-6.4,4.791-20.264-19.964a25.031,25.031,0,0,0-6.616-5.2,25.577,25.577,0,0,0-2.4-.931,20.218,20.218,0,0,1-3.225-1.339c-4.043-2.252-6.023-6.9-7.16-10.2-5.833-16.937-4.392-37.449,4.283-60.97,5.333-14.458,11.686-26.093,19.422-35.57a93.839,93.839,0,0,1,42.318-28.986,100.66,100.66,0,0,1,50.471-4.1,71.321,71.321,0,0,1,72.131,63.835c.455,4.316,1.078,10.228,5.337,11.873a11.75,11.75,0,0,0,1.632.451,8.229,8.229,0,0,1,2.706.961c2.6,1.663,2.675,5.28,2.506,7.857a101.9,101.9,0,0,1-3.047,19.681,232.124,232.124,0,0,0-4.626,51.689l0,.1a11.375,11.375,0,0,1-4.517,10.953c-.449.436-.9.873-1.326,1.32a49.577,49.577,0,0,0-4.264,5.428c-2.648,3.71-5.386,7.546-9.679,9.288-4.207,1.708-9.384,1.157-15.385-1.633-1.56-.726-3.1-1.547-4.6-2.342a46.585,46.585,0,0,0-9.322-4.117,4.947,4.947,0,0,0-2.364-.215,5.913,5.913,0,0,0-2.858,2.361l-.313.383c-4.664,5.654-12.511,9.118-21.53,9.5Q1148.322,5367.5,1147.358,5367.5Zm-68.067-27.022.083,1.01c.328,4.007,3.069,7.957,7.332,10.568,3.9,2.392,8.458,3.49,12.861,4.552l26.383,6.359c7.569,1.824,15.4,3.712,23.292,3.371,8.7-.373,16.251-3.689,20.713-9.1l.307-.375c.909-1.121,1.939-2.39,3.475-2.747a5.914,5.914,0,0,1,2.915.227,47.4,47.4,0,0,1,9.552,4.208c1.479.787,3.01,1.6,4.542,2.313,5.709,2.655,10.584,3.2,14.491,1.611,3.991-1.619,6.515-5.156,9.187-8.9a50.382,50.382,0,0,1,4.365-5.549c.437-.459.9-.906,1.356-1.352a13.88,13.88,0,0,0,3.593-4.592,14.24,14.24,0,0,0,.584-5.53l0-.1a233.223,233.223,0,0,1,4.656-51.975,100.865,100.865,0,0,0,3.018-19.494c.151-2.293.108-5.5-1.991-6.839a7.273,7.273,0,0,0-2.35-.812,12.692,12.692,0,0,1-1.787-.5c-4.9-1.892-5.564-8.2-6.049-12.8a70.2,70.2,0,0,0-69.867-62.84h-.365l-.031.166q-.421-.081-.842-.155h-.093v-.018c-33.993-6.075-70.753,6.992-91.736,32.694-7.656,9.377-13.949,20.908-19.238,35.248-8.583,23.271-10.021,43.532-4.275,60.217,1.077,3.127,2.938,7.523,6.645,9.587a19.112,19.112,0,0,0,3.048,1.26,19.678,19.678,0,0,1,9.439,6.393l19.577,19.286Z" transform="translate(-1028.796 -5178.563)"/>
        </g>
        <g id="Grupo_1763" data-name="Grupo 1763" transform="translate(283.31 29.73)">
          <path id="Caminho_980" data-name="Caminho 980" d="M1240.383,5310.107c19.228-65.184-39.619-122.227-104.46-96.151-32.455,11.789-88.98,99.215-45.854,116.795,31.7,11.792,84.1,5.806,98,42.988,1.252-14.053,13.171-35.054,29.165-25.436a51.878,51.878,0,0,1,24.676-39.019" transform="translate(-1073.903 -5206.946)" fill="#071f56"/>
          <path id="Caminho_981" data-name="Caminho 981" d="M1187.324,5375.186l-.865-2.314c-9.618-25.728-37.8-30.531-65.057-35.175-11.857-2.021-23.057-3.93-32.614-7.484-10.7-4.361-16.211-13.479-15.962-26.377.293-15.145,8.35-35.106,22.1-54.766,12.891-18.424,28.109-32.489,39.716-36.7,29.932-12.037,61.133-7.123,83.445,13.152a77.557,77.557,0,0,1,22.489,36.582,85.043,85.043,0,0,1-.382,45.843l.34-.205.574.964a51.319,51.319,0,0,0-24.4,38.59l-.084.887-.763-.458c-4.68-2.814-9.267-3.114-13.633-.9-8.115,4.125-13.839,16.408-14.685,25.9Zm-20.233-168.178a85.865,85.865,0,0,0-32.044,6.4c-11.418,4.148-26.431,18.055-39.2,36.3-13.63,19.482-21.614,39.217-21.9,54.145-.243,12.571,4.887,21.086,15.247,25.31,9.442,3.512,20.591,5.413,32.4,7.423,26.844,4.575,54.578,9.3,65.1,33.856,1.483-9.421,7.177-20.634,15.024-24.623,4.5-2.286,9.189-2.117,13.961.5a52.574,52.574,0,0,1,23.092-37.48c9.03-30.665.818-62.271-21.436-82.494A73.889,73.889,0,0,0,1167.091,5207.007Z" transform="translate(-1072.818 -5205.881)"/>
        </g>
        <g id="Grupo_1764" data-name="Grupo 1764" transform="translate(442.176 128.082)">
          <path id="Caminho_982" data-name="Caminho 982" d="M1569.451,5544.187c4.211-4.014,6.672-9.584,7.895-15.272s1.3-11.55,1.373-17.368a18.419,18.419,0,0,0-.583-5.985c-1.517-4.632-6.363-7.277-11-8.765-2.86-.916-5.711-.625-8.7-.3-5.408.592-10.71,4.583-13.438,9.29a26.465,26.465,0,0,0-4.085,12.935c-.644,7.25.069,14.527,5.106,19.782,3.445,3.594,8.141,6.676,13.061,7.442a17.237,17.237,0,0,0,7.523-.209c2.2-.75,2.64-1.2,5.281-3.841" transform="translate(-1540.152 -5495.619)" fill="#fefff0"/>
          <path id="Caminho_983" data-name="Caminho 983" d="M1561.744,5545.727a25.634,25.634,0,0,1-3.834-.315c-4.547-.707-9.423-3.48-13.38-7.607-4.406-4.6-6.077-11.022-5.26-20.22a26.878,26.878,0,0,1,4.159-13.166c2.98-5.142,8.552-8.986,13.863-9.566,2.9-.317,5.908-.645,8.929.323,6.124,1.961,10.054,5.117,11.366,9.125a19.064,19.064,0,0,1,.611,6.167c-.072,5.76-.147,11.716-1.385,17.479a32.029,32.029,0,0,1-5.8,13.071l.188.188-.046.046c-2.6,2.6-3.143,3.143-5.451,3.929A12.55,12.55,0,0,1,1561.744,5545.727Zm-.031-50.072a39.678,39.678,0,0,0-4.3.313c-4.974.543-10.2,4.166-13.014,9.014a25.922,25.922,0,0,0-4.012,12.7c-.787,8.852.787,15,4.952,19.343,3.79,3.954,8.434,6.606,12.742,7.276,1.72.269,4.952.6,7.256-.186a7.221,7.221,0,0,0,2.664-1.4l-.02-.02c3.713-3.54,6.387-8.721,7.734-14.984,1.215-5.653,1.289-11.552,1.36-17.257a17.933,17.933,0,0,0-.555-5.8c-1.51-4.613-6.621-7.117-10.643-8.405A13.53,13.53,0,0,0,1561.713,5495.655Z" transform="translate(-1539.07 -5494.532)"/>
        </g>
        <g id="Grupo_1765" data-name="Grupo 1765" transform="translate(465.523 47.033)">
          <path id="Caminho_984" data-name="Caminho 984" d="M1608.7,5307.759l-1.11-.164c2.477-16.892,4.879-34.028,7.137-50.932l1.112.148C1613.582,5273.72,1611.181,5290.86,1608.7,5307.759Z" transform="translate(-1607.592 -5256.663)"/>
        </g>
        <g id="Grupo_1766" data-name="Grupo 1766" transform="translate(463.544 24.326)">
          <path id="Caminho_985" data-name="Caminho 985" d="M1614.306,5191.707c-5.891.248-11.052,5.479-10.871,11.371a11.782,11.782,0,0,0,11.555,10.993,8.17,8.17,0,0,0,5.079-1.706,11.383,11.383,0,0,0,2.658-3.736c1.573-3.1,2.879-6.719,1.689-9.985-1.538-4.221-6.457-5.988-10.828-7.022" transform="translate(-1602.869 -5191.077)" fill="#fd64e0"/>
          <path id="Caminho_986" data-name="Caminho 986" d="M1613.72,5213.579a12.421,12.421,0,0,1-11.931-11.54c-.181-5.907,4.812-11.33,10.816-11.907l.027-.111.341.082.224-.011,0,.067c3.948.985,9.048,2.824,10.657,7.238,1.34,3.677-.338,7.714-1.716,10.431a11.938,11.938,0,0,1-2.8,3.914,8.734,8.734,0,0,1-5.427,1.835Zm-.843-22.345c-5.513.436-10.132,5.38-9.967,10.771a11.219,11.219,0,0,0,10.983,10.45,7.619,7.619,0,0,0,4.731-1.577,10.985,10.985,0,0,0,2.516-3.558c1.284-2.53,2.853-6.272,1.662-9.539C1621.379,5193.873,1616.842,5192.215,1612.877,5191.234Z" transform="translate(-1601.784 -5190.021)"/>
        </g>
        <g id="Grupo_1767" data-name="Grupo 1767" transform="translate(300.55)">
          <path id="Caminho_987" data-name="Caminho 987" d="M1135.926,5120.27a11.343,11.343,0,0,0,.695,22.673,8.168,8.168,0,0,0,5.079-1.707,11.393,11.393,0,0,0,2.658-3.735c1.573-3.1,2.879-6.719,1.689-9.985-1.538-4.22-6.456-5.988-10.827-7.022" transform="translate(-1124.501 -5119.71)" fill="#fd64e0"/>
          <path id="Caminho_988" data-name="Caminho 988" d="M1135.352,5142.422a11.9,11.9,0,0,1-.534-23.8l.016.376c3.948.984,9.047,2.823,10.655,7.238,1.34,3.677-.338,7.714-1.716,10.431a11.933,11.933,0,0,1-2.8,3.912,8.733,8.733,0,0,1-5.427,1.837Zm-1.314-22.6a10.779,10.779,0,0,0,1.487,21.479,7.622,7.622,0,0,0,4.731-1.577,10.991,10.991,0,0,0,2.516-3.558c1.284-2.53,2.853-6.272,1.662-9.54-1.484-4.075-6.354-5.7-10.43-6.669Z" transform="translate(-1123.416 -5118.626)"/>
        </g>
        <g id="Grupo_1768" data-name="Grupo 1768" transform="translate(300.592 23.068)">
          <path id="Caminho_989" data-name="Caminho 989" d="M1124.577,5213.076l-1.037-.429c3.554-8.594,6.758-17.448,9.524-26.32l1.071.334C1131.359,5195.564,1128.144,5204.453,1124.577,5213.076Z" transform="translate(-1123.54 -5186.327)"/>
        </g>
        <g id="Grupo_1769" data-name="Grupo 1769" transform="translate(451.843 133.719)">
          <path id="Caminho_990" data-name="Caminho 990" d="M1596.489,5514.218c-7.916-3.8-18.067-.034-23.184,7.1a23.95,23.95,0,0,0-1.243,25.34c3.239,5.6,9.483,9.9,15.907,9.1,7.51-.936,14.63-9.292,16.178-16.7,1.86-8.9-.884-21.186-7.911-24.839" transform="translate(-1568.485 -5512.155)" fill="#071f56"/>
          <path id="Caminho_991" data-name="Caminho 991" d="M1585.331,5555.334c-6.421,0-11.971-4.589-14.8-9.477a24.637,24.637,0,0,1,1.273-25.947c5.606-7.817,16.1-11.014,23.883-7.278l-.05.1c7.157,3.906,9.927,16.2,8.015,25.352-1.53,7.317-8.747,16.157-16.658,17.142A13.294,13.294,0,0,1,1585.331,5555.334Zm3.259-43.144a19.991,19.991,0,0,0-15.871,8.375,23.486,23.486,0,0,0-1.213,24.732c2.881,4.983,8.743,9.645,15.352,8.82,7.442-.927,14.247-9.313,15.7-16.258,1.807-8.646-.878-20.722-7.621-24.226l.048-.092A15.291,15.291,0,0,0,1588.59,5512.19Z" transform="translate(-1567.443 -5511.074)"/>
        </g>
        <g id="Grupo_1798" data-name="Grupo 1798" transform="translate(296.615 49.602)">
          <g id="Grupo_1797" data-name="Grupo 1797" clip-path="url(#clip-path)">
            <g id="Grupo_1772" data-name="Grupo 1772" transform="translate(10.682 47.646)">
              <g id="Grupo_1770" data-name="Grupo 1770" transform="translate(0.943 0.937)">
                <circle id="Elipse_37" data-name="Elipse 37" cx="12.684" cy="12.684" r="12.684" fill="#e87064"/>
              </g>
              <g id="Grupo_1771" data-name="Grupo 1771">
                <path id="Caminho_992" data-name="Caminho 992" d="M1156.858,5431.285a13.668,13.668,0,0,1-4.168-.655,13.621,13.621,0,0,1-8.819-17.124h0a13.613,13.613,0,1,1,12.987,17.779Zm-11.2-17.209a11.748,11.748,0,1,0,14.77-7.606,11.673,11.673,0,0,0-14.77,7.606Z" transform="translate(-1143.216 -5404.037)"/>
              </g>
            </g>
            <g id="Grupo_1775" data-name="Grupo 1775" transform="translate(108.873 82.407)">
              <g id="Grupo_1773" data-name="Grupo 1773" transform="translate(0.943 0.937)">
                <circle id="Elipse_38" data-name="Elipse 38" cx="12.684" cy="12.684" r="12.684" fill="#e87064"/>
              </g>
              <g id="Grupo_1774" data-name="Grupo 1774">
                <path id="Caminho_993" data-name="Caminho 993" d="M1445.039,5533.306a13.628,13.628,0,0,1-12.987-17.779h0a13.614,13.614,0,1,1,12.987,17.779Zm-11.2-17.208a11.748,11.748,0,1,0,14.77-7.607,11.672,11.672,0,0,0-14.77,7.607Z" transform="translate(-1431.397 -5506.058)"/>
              </g>
            </g>
            <g id="Grupo_1778" data-name="Grupo 1778" transform="translate(15.424 27.557)">
              <g id="Grupo_1776" data-name="Grupo 1776" transform="translate(0.952 0.948)">
                <path id="Caminho_994" data-name="Caminho 994" d="M1223.984,5349.617c-15.784-3.18-33.508-3.632-41.765,12.667-3.822,7.085-5.513,15.457-9.64,22.435-3.575,6.443-9.042,11.83-11.515,18.86-3.981,11.953,3.207,24.636,10.81,34.392,6.6,8.275,16.839,13.606,27.116,16.3,22.346,5.279,48.554.763,55.646-22.46,1.838-5.331,3.243-10.856,4.948-16.241,3.028-9.785,6.434-19.783,5.7-30.125-1.2-22.05-22.914-30.166-40.972-36" transform="translate(-1159.929 -5347.861)" fill="#e87064"/>
              </g>
              <g id="Grupo_1777" data-name="Grupo 1777">
                <path id="Caminho_995" data-name="Caminho 995" d="M1213.714,5455.347a73.475,73.475,0,0,1-16.782-2c-11.727-3.069-21.533-8.971-27.632-16.624-10.71-13.743-14.3-25.278-10.966-35.271,1.561-4.44,4.278-8.243,6.906-11.921a75.691,75.691,0,0,0,4.678-7.1,71.3,71.3,0,0,0,5.138-11.763,81.776,81.776,0,0,1,4.5-10.662c8.962-17.693,28.706-15.976,42.773-13.14l-.369,1.834c-13.471-2.713-32.348-4.4-40.745,12.172a80.36,80.36,0,0,0-4.4,10.44,72.665,72.665,0,0,1-5.271,12.048,76.858,76.858,0,0,1-4.779,7.254c-2.551,3.572-5.19,7.265-6.658,11.439-3.11,9.338.376,20.3,10.666,33.506,5.843,7.33,15.3,13,26.614,15.966,22.2,5.245,47.685.533,54.515-21.829,1.085-3.149,2.03-6.4,2.943-9.541.64-2.205,1.3-4.485,2.008-6.709l.624-2.006c2.806-9,5.707-18.312,5.04-27.771-1.131-20.809-20.542-28.785-40.326-35.172l.575-1.781c15.082,4.869,40.325,13.018,41.62,36.836.69,9.8-2.264,19.276-5.121,28.444l-.625,2.009c-.7,2.208-1.359,4.478-2,6.672-.92,3.164-1.871,6.436-2.961,9.6C1248.215,5448.164,1231.544,5455.346,1213.714,5455.347Z" transform="translate(-1157.134 -5345.08)"/>
              </g>
            </g>
            <g id="Grupo_1780" data-name="Grupo 1780" transform="translate(33.399 46.264)">
              <g id="Grupo_1779" data-name="Grupo 1779" transform="translate(0)">
                <rect id="Retângulo_55" data-name="Retângulo 55" width="28.143" height="45.319" rx="14.071" transform="translate(13.816 0) rotate(17.75)" fill="#fefff0" stroke="#000" stroke-miterlimit="10" stroke-width="1"/>
              </g>
            </g>
            <g id="Grupo_1782" data-name="Grupo 1782" transform="translate(61.158 54.995)">
              <g id="Grupo_1781" data-name="Grupo 1781" transform="translate(0 0)">
                <rect id="Retângulo_56" data-name="Retângulo 56" width="31.248" height="46.574" rx="15.624" transform="translate(14.199 0) rotate(17.75)" fill="#fefff0" stroke="#000" stroke-miterlimit="10" stroke-width="1"/>
              </g>
            </g>
            <g id="Grupo_1785" data-name="Grupo 1785" transform="translate(42.687 62.603)">
              <g id="Grupo_1783" data-name="Grupo 1783" transform="translate(0)">
                <rect id="Retângulo_57" data-name="Retângulo 57" width="9.249" height="14.534" rx="4.624" transform="translate(4.431 0) rotate(17.75)"/>
              </g>
              <g id="Grupo_1784" data-name="Grupo 1784" transform="translate(0.253 0.25)">
                <path id="Caminho_996" data-name="Caminho 996" d="M1243.448,5464.828a5.571,5.571,0,0,1-1.692-.265h0a5.569,5.569,0,0,1-3.6-6.991l1.612-5.034a5.561,5.561,0,1,1,10.591,3.392l-1.611,5.032A5.57,5.57,0,0,1,1243.448,5464.828Zm-1.121-2.048a3.691,3.691,0,0,0,4.638-2.389l1.611-5.033a3.688,3.688,0,0,0-7.026-2.249l-1.612,5.033a3.694,3.694,0,0,0,2.388,4.638Z" transform="translate(-1237.891 -5448.67)"/>
              </g>
            </g>
            <g id="Grupo_1788" data-name="Grupo 1788" transform="translate(69.865 71.847)">
              <g id="Grupo_1786" data-name="Grupo 1786" transform="translate(0)">
                <rect id="Retângulo_58" data-name="Retângulo 58" width="9.249" height="14.534" rx="4.624" transform="translate(4.431 0) rotate(17.75)"/>
              </g>
              <g id="Grupo_1787" data-name="Grupo 1787" transform="translate(0.253 0.251)">
                <path id="Caminho_997" data-name="Caminho 997" d="M1323.212,5491.959a5.545,5.545,0,0,1-1.692-.266h0a5.567,5.567,0,0,1-3.6-6.99l1.612-5.034a5.56,5.56,0,1,1,10.591,3.391l-1.611,5.033A5.571,5.571,0,0,1,1323.212,5491.959Zm-1.121-2.049a3.691,3.691,0,0,0,4.638-2.388l1.611-5.033a3.688,3.688,0,1,0-7.025-2.249l-1.612,5.033a3.693,3.693,0,0,0,2.388,4.637Z" transform="translate(-1317.655 -5475.8)"/>
              </g>
            </g>
            <g id="Grupo_1791" data-name="Grupo 1791" transform="translate(49.877 83.557)">
              <g id="Grupo_1789" data-name="Grupo 1789" transform="translate(0.927 0.934)">
                <path id="Caminho_998" data-name="Caminho 998" d="M1275.6,5522.9c-3.313-20.349-22.383-8.128-11.085,6.729" transform="translate(-1260.972 -5512.172)" fill="#e87064"/>
              </g>
              <g id="Grupo_1790" data-name="Grupo 1790">
                <path id="Caminho_999" data-name="Caminho 999" d="M1261.972,5528.392c-4.787-6.293-4.286-12.056-2.222-15.349a7.049,7.049,0,0,1,7.261-3.49c1.822.368,6.22,2.214,7.715,11.394l-1.848.3c-.92-5.651-3.194-9.245-6.238-9.859a5.136,5.136,0,0,0-5.3,2.649c-1.732,2.763-2.083,7.687,2.126,13.222Z" transform="translate(-1258.25 -5509.432)"/>
              </g>
            </g>
            <g id="Grupo_1796" data-name="Grupo 1796" transform="translate(44.297 102.826)">
              <g id="Grupo_1793" data-name="Grupo 1793">
                <g id="Grupo_1792" data-name="Grupo 1792">
                  <path id="Caminho_1000" data-name="Caminho 1000" d="M1266.267,5580.018c-8.614,0-15.545-4.563-24.091-12.407a.936.936,0,0,1,1.266-1.379c12.755,11.707,21.246,15.635,37.826,7.967a.936.936,0,0,1,.786,1.7C1275.973,5578.709,1270.878,5580.018,1266.267,5580.018Z" transform="translate(-1241.873 -5565.985)"/>
                </g>
              </g>
              <g id="Grupo_1795" data-name="Grupo 1795" transform="translate(30.285 5.291)">
                <g id="Grupo_1794" data-name="Grupo 1794">
                  <path id="Caminho_1001" data-name="Caminho 1001" d="M1345.515,5590.9a.937.937,0,0,1-.744-.368c-3.051-3.994-7.251-6.269-13.217-7.157a.936.936,0,0,1,.275-1.852c6.479.966,11.063,3.467,14.43,7.872a.937.937,0,0,1-.744,1.5Z" transform="translate(-1330.755 -5581.514)"/>
                </g>
              </g>
            </g>
          </g>
        </g>
        <g id="Grupo_1799" data-name="Grupo 1799" transform="translate(26.508 171.631)">
          <path id="Caminho_1003" data-name="Caminho 1003" d="M493.337,5752.878a885.674,885.674,0,0,1,50.834-109.271c2.577-4.676,5.269-9.417,9.152-12.885,9.138-8.161,22.405-7.392,34.1-5.253a230.656,230.656,0,0,1,92.489,39.508c4.154,2.975,8.326,6.2,11.026,10.73,4.382,7.348,4.148,16.758,3.324,25.454-6.106,64.463-35.242,131.951-70.83,184.12-6.5,9.523-13.3,18.98-21.879,26.328-10.716,9.172-24.728,6.462-38.371,7.445a72.631,72.631,0,0,1-15.735,27.051c-2.6,2.8-5.451,5.409-7.44,8.744a40.956,40.956,0,0,0-3.774,9.886c-4.9,17.257-9.578,35.218-20.2,49.152s-29.116,22.723-44.4,15.5c15.626-41.945,14.958-90.658-1.81-132.086-4.067-10.048-9.15-20.983-5.132-31.909a54.584,54.584,0,0,1-26.38-26.236,97.659,97.659,0,0,1-26.567,26.314,10.964,10.964,0,0,0-5.705,7.434c-4.816,13.888-9.074,28.073-15.474,41.193s-15.2,25.312-26.632,29.96c-13.851-20.649-21.168-45.554-26.317-70.439s-8.367-50.271-15.121-74.7c-1.732-6.266-3.388-13.987.922-18.577a13.525,13.525,0,0,1,6.319-3.375,35.193,35.193,0,0,1,27.6,2.843,309.962,309.962,0,0,1,36.32-72.137c5.707-8.369,12.021-16.611,20.4-21.724s19.278-6.545,27.7-1.966c24.04,15.79,42.752,40.826,51.972,69.536" transform="translate(-320.148 -5623.46)" fill="#fefff0"/>
          <path id="Caminho_1004" data-name="Caminho 1004" d="M482.292,6031.416a27.565,27.565,0,0,1-11.889-2.636l-.462-.218.188-.5a183.832,183.832,0,0,0-1.8-131.651q-.409-1.01-.828-2.03c-3.753-9.174-8-19.552-4.494-29.8a55.449,55.449,0,0,1-25.791-25.5,98.74,98.74,0,0,1-26.221,25.745l-.228.151a13.453,13.453,0,0,0-3.1,2.517,14.5,14.5,0,0,0-2.162,4.485c-1,2.893-2,5.85-2.963,8.709-3.666,10.88-7.456,22.13-12.538,32.548-7.787,15.964-16.841,26.133-26.908,30.225l-.371.151-.232-.346c-15.105-22.519-22.045-49.583-26.4-70.646-1.819-8.792-3.423-17.79-4.975-26.492-2.839-15.925-5.774-32.393-10.136-48.174-2-7.228-3.253-14.549,1.055-19.138a14.037,14.037,0,0,1,6.548-3.517,35.518,35.518,0,0,1,27.453,2.6,310,310,0,0,1,36.183-71.688c5.66-8.3,12.069-16.7,20.563-21.881,9.111-5.559,20.175-6.336,28.185-1.979,23.384,15.356,42.037,39.9,51.489,67.618A888.876,888.876,0,0,1,542.713,5642.2c2.3-4.172,5.162-9.363,9.268-13.03,9.626-8.6,23.5-7.388,34.514-5.375a232.115,232.115,0,0,1,92.689,39.595c4.131,2.958,8.4,6.235,11.175,10.893,4.436,7.439,4.258,16.8,3.4,25.814-5.266,55.6-28.008,121.478-70.929,184.4-6.326,9.273-13.233,18.953-21.974,26.435-10.684,9.145-24.719,6.482-38.317,7.539a73.279,73.279,0,0,1-15.744,26.914c-.569.614-1.151,1.218-1.732,1.822a38.969,38.969,0,0,0-5.638,6.829,40.675,40.675,0,0,0-3.714,9.747l-.825,2.914c-4.612,16.319-9.381,33.192-19.473,46.43C507.614,6023.356,494.93,6031.415,482.292,6031.416Zm-11.01-3.451c15.391,6.917,33.395-2.522,43.332-15.556,9.961-13.066,14.7-29.831,19.281-46.044l.826-2.915a41.562,41.562,0,0,1,3.834-10.026,39.813,39.813,0,0,1,5.791-7.03c.577-.6,1.154-1.2,1.719-1.808a72.162,72.162,0,0,0,15.611-26.838l.113-.351.343-.024c13.508-.973,27.473,1.757,38.083-7.325,8.641-7.4,15.5-17.008,21.783-26.22,42.808-62.752,65.485-128.452,70.732-183.845.834-8.808,1.019-17.944-3.244-25.092-2.669-4.475-6.836-7.674-10.876-10.566a231.1,231.1,0,0,0-92.289-39.423c-10.794-1.974-24.377-3.174-33.678,5.133-3.967,3.543-6.778,8.643-9.037,12.74a887.643,887.643,0,0,0-50.632,108.763c.073.223.146.449.218.673l-.982.368c-.11-.341-.22-.681-.333-1.021l-.031-.014.014-.037c-9.244-27.952-27.93-52.753-51.4-68.168-7.674-4.173-18.353-3.405-27.171,1.976-8.323,5.079-14.645,13.368-20.237,21.568a308.92,308.92,0,0,0-36.253,72l-.205.587-.517-.285a34.573,34.573,0,0,0-27.229-2.8,13.136,13.136,0,0,0-6.089,3.232c-3.917,4.173-2.695,11.125-.79,18.018,4.377,15.836,7.318,32.332,10.162,48.284,1.55,8.694,3.152,17.683,4.969,26.459,4.314,20.849,11.165,47.6,26,69.882,9.676-4.091,18.417-14.027,25.985-29.543,5.049-10.352,8.827-21.565,12.481-32.41.964-2.862,1.961-5.821,2.966-8.719a15.384,15.384,0,0,1,2.358-4.837,14.3,14.3,0,0,1,3.336-2.73l.227-.149a97.736,97.736,0,0,0,26.422-26.168l.5-.726.383.8a54.336,54.336,0,0,0,26.118,25.975l.472.212-.189.513c-3.668,9.976.381,19.874,4.3,29.444q.418,1.022.829,2.034a186.241,186.241,0,0,1,2.005,132.008Z" transform="translate(-319.137 -5622.341)"/>
        </g>
        <g id="Grupo_1800" data-name="Grupo 1800" transform="translate(387.254 182.006)">
          <path id="Caminho_1005" data-name="Caminho 1005" d="M1413.588,5658c-3.94-1.748-8.021-3.526-12.331-3.558-6.675-.048-12.846,4.273-16.411,9.917s-4.867,12.434-5.279,19.1a6.771,6.771,0,0,0,.509,3.732,7,7,0,0,0,2.453,2.248c5.051,3.309,10.241,6.58,16.036,8.275s12.362,1.644,17.543-1.458c6.553-3.921,9.7-12.263,8.62-19.824s-5.843-14.248-11.87-18.937" transform="translate(-1378.965 -5653.878)" fill="#071f56"/>
          <path id="Caminho_1006" data-name="Caminho 1006" d="M1404.986,5698.293a27.408,27.408,0,0,1-7.663-1.133c-5.756-1.684-10.94-4.908-16.186-8.344a7.536,7.536,0,0,1-2.636-2.443,7.245,7.245,0,0,1-.578-4.041c.5-8.107,2.255-14.441,5.365-19.361,3.972-6.287,10.392-10.178,16.777-10.178h.113c4.217.03,8.245,1.7,11.844,3.291l.1-.124q.24.187.476.377l.137.061-.016.037c6.331,5.137,10.5,11.961,11.483,18.826,1.167,8.171-2.488,16.554-8.887,20.385A20.052,20.052,0,0,1,1404.986,5698.293Zm-4.921-44.379c-6,0-12.06,3.691-15.828,9.655-3.005,4.757-4.7,10.917-5.193,18.831a6.335,6.335,0,0,0,.439,3.425,6.558,6.558,0,0,0,2.27,2.05c5.172,3.389,10.278,6.565,15.886,8.207,6.3,1.843,12.532,1.333,17.1-1.4,6.023-3.6,9.458-11.526,8.353-19.262-.941-6.59-4.967-13.157-11.084-18.118-3.609-1.6-7.676-3.358-11.835-3.388Z" transform="translate(-1377.88 -5652.792)"/>
        </g>
        <g id="Grupo_1801" data-name="Grupo 1801" transform="translate(296.375 180.987)">
          <path id="Caminho_1007" data-name="Caminho 1007" d="M1204.582,5685.8l-93.418-34.93.295-1.068,93.418,34.93Z" transform="translate(-1111.164 -5649.8)"/>
        </g>
        <g id="Grupo_1810" data-name="Grupo 1810" transform="translate(355.093 284.53)">
          <g id="Grupo_1802" data-name="Grupo 1802">
            <path id="Caminho_1008" data-name="Caminho 1008" d="M1285.514,6030.714a9.079,9.079,0,0,0-.217,4.038c1.048,4.139,6.663,4.625,10.913,4.217,1.972,5.768,7.929,9.5,13.974,10.292s12.147-.912,17.79-3.219c.46,3.224,4.276,4.728,7.524,4.965a26.1,26.1,0,0,0,23.151-11.342,8.887,8.887,0,0,1,1.8-2.237c1.166-.9,2.723-1.041,4.17-1.319,9.01-1.732,15.95-10.877,15.2-20.021a15.362,15.362,0,0,0,5.947-12.222,10.648,10.648,0,0,1,.255-3.864c.507-1.372,1.716-2.333,2.737-3.379a15.938,15.938,0,0,0,3.893-15.033c-5.914,3.413-13.473.158-18.8-4.113s-10.154-9.746-16.776-11.413c-4.16-1.048-8.607-.447-12.752-1.55s-8.184-5.074-6.95-9.182" transform="translate(-1284.582 -5954.77)" fill="#fefff0"/>
            <path id="Caminho_1009" data-name="Caminho 1009" d="M1336.179,6050.547q-.9,0-1.81-.065c-3.162-.231-6.98-1.62-7.891-4.755-6.817,2.711-12.377,3.668-17.455,3.006-6.686-.871-12.239-4.874-14.282-10.252-3.235.254-9.852.156-11.076-4.675a9.546,9.546,0,0,1,.211-4.289.561.561,0,1,1,1.1.227,8.7,8.7,0,0,0-.222,3.787c1.068,4.216,7.571,4.059,10.315,3.8a.562.562,0,0,1,.584.377c1.747,5.105,7.178,9.091,13.516,9.917,5.028.655,10.592-.356,17.505-3.182a.561.561,0,0,1,.768.439c.4,2.774,3.806,4.251,7.009,4.485a25.384,25.384,0,0,0,22.644-11.093l.2-.3a6.226,6.226,0,0,1,5.44-3.375c.232-.041.463-.081.691-.125,8.722-1.677,15.473-10.572,14.742-19.424a.559.559,0,0,1,.219-.492,14.811,14.811,0,0,0,5.727-11.769c0-.259-.014-.52-.024-.781a6.437,6.437,0,0,1,2.569-6.262c.205-.2.41-.4.607-.6a15.346,15.346,0,0,0,3.923-13.807c-7.542,3.722-16.238-2.472-18.779-4.51-1.254-1.006-2.5-2.092-3.7-3.143-3.893-3.4-7.919-6.919-12.862-8.164a32.87,32.87,0,0,0-6.167-.732,32.523,32.523,0,0,1-6.592-.819,11.261,11.261,0,0,1-6.71-4.992,6.2,6.2,0,0,1-.633-4.894.561.561,0,1,1,1.075.322,5.108,5.108,0,0,0,.538,4.024,10.086,10.086,0,0,0,6.019,4.454,31.63,31.63,0,0,0,6.365.784,33.589,33.589,0,0,1,6.379.764c5.2,1.311,9.333,4.918,13.326,8.407,1.194,1.043,2.428,2.122,3.664,3.113,2.475,1.985,11.1,8.143,18.169,4.064a.562.562,0,0,1,.822.338,16.464,16.464,0,0,1-4.033,15.573c-.2.209-.415.415-.627.622a5.39,5.39,0,0,0-2.23,5.414c.01.271.02.541.024.809a15.961,15.961,0,0,1-5.927,12.487c.6,9.295-6.513,18.553-15.671,20.314-.234.045-.472.087-.71.128a5.182,5.182,0,0,0-4.7,2.884l-.2.3A26.57,26.57,0,0,1,1336.179,6050.547Z" transform="translate(-1283.495 -5953.685)"/>
          </g>
          <g id="Grupo_1803" data-name="Grupo 1803" transform="translate(28.196 0.296)">
            <path id="Caminho_1010" data-name="Caminho 1010" d="M1392.34,5956.2c-8.234,1.227-14.564,9.929-13.2,18.141-1.846-1.29-7.47-1.089-8.5.913-3.219,6.256-4.271,15.9.479,21.093" transform="translate(-1367.331 -5955.639)" fill="#fefff0"/>
            <path id="Caminho_1011" data-name="Caminho 1011" d="M1370.039,5995.821a.559.559,0,0,1-.414-.183c-4.883-5.334-3.935-15.176-.564-21.727a3.981,3.981,0,0,1,2.732-1.731,11.061,11.061,0,0,1,5.581.125,16.5,16.5,0,0,1,3.229-11.069,16.294,16.294,0,0,1,10.57-6.678.561.561,0,0,1,.165,1.11,15.792,15.792,0,0,0-12.724,17.494.562.562,0,0,1-.875.553c-1.043-.729-3.7-.938-5.677-.446a3.069,3.069,0,0,0-2,1.155c-3.2,6.215-4.146,15.5.394,20.457a.561.561,0,0,1-.414.939Z" transform="translate(-1366.245 -5954.553)"/>
          </g>
          <g id="Grupo_1804" data-name="Grupo 1804" transform="translate(76.309 41.148)">
            <path id="Caminho_1012" data-name="Caminho 1012" d="M1525.543,6079.382a34.457,34.457,0,0,1-6.783-.8,79.471,79.471,0,0,1-10.937-3.038.561.561,0,1,1,.377-1.057,78.131,78.131,0,0,0,10.782,2.994,29.532,29.532,0,0,0,8.089.724,12.947,12.947,0,0,0,7.322-2.763.561.561,0,1,1,.725.855,14.054,14.054,0,0,1-7.958,3.026C1526.619,6079.361,1526.079,6079.382,1525.543,6079.382Z" transform="translate(-1507.451 -6074.45)"/>
          </g>
          <g id="Grupo_1805" data-name="Grupo 1805" transform="translate(39.152 16.789)">
            <path id="Caminho_1013" data-name="Caminho 1013" d="M1406.292,6020.081a.56.56,0,0,1-.4-.167l-.492-.5a.556.556,0,0,1-.157-.319,35.7,35.7,0,0,1-6.833-15.48.561.561,0,1,1,1.1-.2,34.584,34.584,0,0,0,7.212,15.743.561.561,0,0,1-.435.916Z" transform="translate(-1398.402 -6002.959)"/>
          </g>
          <g id="Grupo_1806" data-name="Grupo 1806" transform="translate(33.723 35.952)">
            <path id="Caminho_1014" data-name="Caminho 1014" d="M1395.384,6070.81a.554.554,0,0,1-.231-.05c-4.917-2.221-9.851-5.061-12.629-10.751a.561.561,0,0,1,1.008-.493c2.623,5.372,7.357,8.087,12.083,10.221a.561.561,0,0,1-.231,1.073Z" transform="translate(-1382.467 -6059.201)"/>
          </g>
          <g id="Grupo_1807" data-name="Grupo 1807" transform="translate(68.143 78.146)">
            <path id="Caminho_1015" data-name="Caminho 1015" d="M1490.847,6187.563a8.11,8.11,0,0,1-2.45-.387,11.227,11.227,0,0,1-4.765-3.2.561.561,0,1,1,.827-.758,10.1,10.1,0,0,0,4.278,2.89,6.252,6.252,0,0,0,4.906-.356.561.561,0,0,1,.544.981A6.875,6.875,0,0,1,1490.847,6187.563Z" transform="translate(-1483.484 -6183.034)"/>
          </g>
          <g id="Grupo_1808" data-name="Grupo 1808" transform="translate(18.996 72.514)">
            <path id="Caminho_1016" data-name="Caminho 1016" d="M1346.678,6188.776a.563.563,0,0,1-.259-.063c-2.029-1.058-3.568-3.056-4.844-6.287a33.563,33.563,0,0,1-2.184-15.413.554.554,0,0,1,.611-.506.56.56,0,0,1,.506.611,32.437,32.437,0,0,0,2.111,14.9c1.17,2.966,2.543,4.779,4.319,5.705a.561.561,0,0,1-.26,1.058Z" transform="translate(-1339.244 -6166.503)"/>
          </g>
          <g id="Grupo_1809" data-name="Grupo 1809" transform="translate(19.279 40.518)">
            <path id="Caminho_1017" data-name="Caminho 1017" d="M1340.638,6090.576a.56.56,0,0,1-.561-.558,31.752,31.752,0,0,1,1.047-9.66,12.667,12.667,0,0,1,6.008-7.7.561.561,0,0,1,.506,1,11.554,11.554,0,0,0-5.443,7.029,30.829,30.829,0,0,0-1,9.321.561.561,0,0,1-.558.563Z" transform="translate(-1340.075 -6072.6)"/>
          </g>
        </g>
        <g id="Grupo_1811" data-name="Grupo 1811" transform="translate(352.725 242.986)">
          <path id="Caminho_1018" data-name="Caminho 1018" d="M1325.594,5850.721q-16.412,34.356-34.617,67.816c-2.9,5.331-5.155,9.9-9.371,14.269-.449-10.039-.9-20.077-1.7-30.074q16.259-28.607,33.354-56.727c1.972-3.243,3.972-6.507,6.246-9.539,1.951-2.6,6.616-1.368,6.329,1.872-.573,6.47.122,8.971-.241,13.065" transform="translate(-1278.76 -5833.936)" fill="#071f56"/>
          <path id="Caminho_1019" data-name="Caminho 1019" d="M1278.383,5933.285l-.116-2.6c-.441-9.877-.9-20.065-1.7-30.034l-.028-.345.171-.3c10.791-18.987,22.019-38.082,33.371-56.755,1.743-2.866,3.911-6.434,6.307-9.63a4.865,4.865,0,0,1,5.635-1.52,3.992,3.992,0,0,1,2.71,4.163,59.874,59.874,0,0,0-.176,7.944,40.45,40.45,0,0,1-.065,5.122l-.237-.022c-10.864,22.729-22.474,45.47-34.512,67.593q-.445.819-.873,1.614c-2.568,4.76-4.786,8.87-8.677,12.9Zm.451-32.475c.713,8.979,1.15,18.113,1.551,27.018a61.59,61.59,0,0,0,6.511-10.382c.288-.533.579-1.073.877-1.621,12.054-22.154,23.68-44.927,34.554-67.687.068-1.326.031-2.521-.011-3.861a61.818,61.818,0,0,1,.183-8.214,1.814,1.814,0,0,0-1.277-1.869,2.626,2.626,0,0,0-3.036.77c-2.33,3.109-4.467,6.625-6.185,9.45C1300.72,5862.969,1289.563,5881.942,1278.834,5900.811Z" transform="translate(-1276.542 -5831.76)"/>
        </g>
        <g id="Grupo_1814" data-name="Grupo 1814" transform="translate(236.033 198.172)">
          <g id="Grupo_1812" data-name="Grupo 1812" transform="translate(0.561 0.56)">
            <path id="Caminho_1020" data-name="Caminho 1020" d="M936.119,5767.029c-.4,9.923-.482,19.86-.35,29.445,11.26,5.82,23.553,9.285,35.612,13.19a467.762,467.762,0,0,1,83.346,36.2,239.334,239.334,0,0,0-1.657-30.085c13.021-23.993,27.669-46.21,42.233-68.522-17.332-7.816-35.484-16.97-50.764-24.26a363.3,363.3,0,0,0-52.31-19.716c-4.164-1.213-8.844-2.306-12.668-.259-2.382,1.275-4.013,3.572-5.556,5.789-11.832,17-23.125,34-34.956,51-2.108,3.029-3.088,2.8-3.088,7.778" transform="translate(-935.711 -5701.881)" fill="#3564da"/>
          </g>
          <g id="Grupo_1813" data-name="Grupo 1813">
            <path id="Caminho_1021" data-name="Caminho 1021" d="M1054.2,5845.732l-.828-.46a464.152,464.152,0,0,0-83.247-36.159q-2.908-.941-5.83-1.861c-10.017-3.175-20.376-6.458-29.866-11.364l-.3-.155,0-.336c-.138-9.994-.028-19.712.328-28.894h-.138c0-4.058.655-4.869,1.961-6.485.359-.445.766-.949,1.228-1.613,5.916-8.5,11.794-17.142,17.48-25.5s11.561-17,17.477-25.5c1.5-2.155,3.2-4.6,5.752-5.963,4.018-2.149,8.863-1.017,13.09.215a364.939,364.939,0,0,1,52.391,19.746c5.071,2.419,10.386,5.009,16.014,7.75,11.387,5.547,23.162,11.284,34.742,16.506l.6.269-2.55,3.907c-13.568,20.775-27.6,42.257-39.932,64.968a241.61,241.61,0,0,1,1.64,29.979ZM935.24,5795.045c9.325,4.777,19.524,8.011,29.392,11.138q2.922.927,5.836,1.863a465.166,465.166,0,0,1,82.616,35.786,239.644,239.644,0,0,0-1.657-29.068l-.021-.178.085-.157c12.379-22.81,26.453-44.361,40.064-65.2l1.834-2.809c-11.4-5.157-22.975-10.8-34.175-16.25-5.626-2.741-10.939-5.33-16-7.746a363.687,363.687,0,0,0-52.225-19.683c-4.014-1.169-8.6-2.253-12.247-.3-2.313,1.237-3.932,3.563-5.36,5.615-5.912,8.5-11.788,17.134-17.47,25.487s-11.567,17.007-17.486,25.511c-.485.7-.905,1.218-1.276,1.676-1.148,1.421-1.658,2.053-1.707,5.237l.156.007C935.226,5775.2,935.107,5784.979,935.24,5795.045Z" transform="translate(-934.065 -5700.237)"/>
          </g>
        </g>
        <g id="Grupo_1816" data-name="Grupo 1816" transform="translate(242.397 268.44)">
          <g id="Grupo_1815" data-name="Grupo 1815">
            <path id="Caminho_1022" data-name="Caminho 1022" d="M1059.016,5952.623a917.791,917.791,0,0,0-106.272-45.1l.372-1.059a918.856,918.856,0,0,1,106.4,45.156Z" transform="translate(-952.744 -5906.464)"/>
          </g>
        </g>
        <g id="Grupo_1817" data-name="Grupo 1817" transform="translate(387.102 221.275)">
          <path id="Caminho_1023" data-name="Caminho 1023" d="M1396.315,5826.983c3.259-7.288-.525-15.767-5.194-22.244s-10.485-12.675-11.834-20.544c-.82-4.783.638-10.464,4.98-12.633a13.7,13.7,0,0,1,5.46-1.155,22.474,22.474,0,0,1,9.182,1.109c6.7,2.559,10.534,9.454,13.812,15.835,0-6.8,5.613-12.4,11.72-15.4a18.667,18.667,0,0,1,9.1-2.25,9.61,9.61,0,0,1,7.9,4.478c1.458,2.6,1.257,5.783,1.014,8.758.954-3.454,4.207-5.967,7.714-6.705a17,17,0,0,1,10.449,1.575c4.566,2.095,8.891,6.529,7.986,11.47,6.152-2.311,13.476.28,17.727,5.292s5.7,11.975,5.036,18.513c-1.055,10.381-6.865,19.584-12.519,28.354l-15.251,23.658c-3.034,4.706-6.98,9.946-12.578,10.025a15.4,15.4,0,0,1-5.475-1.218c-18.679-6.894-33.915-20.842-46.876-35.956a15.855,15.855,0,0,1-3.538-5.6c-.628-2.134-.206-4.735,1.578-6.063" transform="translate(-1378.513 -5769.124)" fill="#fefff0"/>
          <path id="Caminho_1024" data-name="Caminho 1024" d="M1449.827,5874.6a16.262,16.262,0,0,1-5.55-1.253c-16.106-5.945-31.075-17.421-47.108-36.117a16.131,16.131,0,0,1-3.65-5.8c-.592-2.011-.355-4.816,1.49-6.436,2.778-7.259-1.37-15.388-5.419-21-.89-1.235-1.841-2.484-2.761-3.693-3.961-5.206-8.057-10.588-9.171-17.085-.805-4.7.5-10.843,5.282-13.23a14.373,14.373,0,0,1,5.682-1.214,22.712,22.712,0,0,1,9.411,1.146c6.15,2.348,9.85,8.021,13.2,14.361.99-6.4,6.6-11.314,11.88-13.905a19,19,0,0,1,9.379-2.307,10.111,10.111,0,0,1,8.362,4.763,12.056,12.056,0,0,1,1.256,6.192,11.141,11.141,0,0,1,6.866-4.414,17.474,17.474,0,0,1,10.8,1.614c4.4,2.018,8.725,6.3,8.416,11.166,5.89-1.754,13.1.573,17.491,5.743,4.023,4.744,5.906,11.645,5.165,18.934-1.091,10.74-7.208,20.229-12.6,28.6L1463,5864.314c-3.412,5.293-7.354,10.2-13.041,10.282Zm-54.29-48.563a5.361,5.361,0,0,0-.942,5.075,15.235,15.235,0,0,0,3.426,5.388c15.9,18.545,30.725,29.919,46.644,35.795a14.755,14.755,0,0,0,5.273,1.183c5.16-.073,8.872-4.737,12.114-9.768l15.251-23.658c5.329-8.266,11.369-17.634,12.432-28.106.71-6.987-1.078-13.582-4.905-18.094-4.307-5.077-11.5-7.235-17.1-5.128l-.927.348.178-.975c.852-4.654-3.377-8.891-7.668-10.859a16.647,16.647,0,0,0-10.1-1.537,9.519,9.519,0,0,0-7.288,6.306l-1.1-.195c.215-2.626.481-5.893-.944-8.438a8.987,8.987,0,0,0-7.444-4.191,18.025,18.025,0,0,0-8.824,2.193c-5.514,2.707-11.407,8.041-11.406,14.9v2.32l-1.06-2.063c-3.505-6.823-7.176-13.147-13.514-15.566a21.56,21.56,0,0,0-8.953-1.074,13.15,13.15,0,0,0-5.238,1.1c-4.266,2.131-5.415,7.732-4.677,12.036,1.067,6.227,5.079,11.5,8.958,16.6.924,1.214,1.88,2.47,2.778,3.716,4.259,5.909,8.607,14.523,5.459,22.31l.012.015-.025.019c-.062.153-.127.3-.195.457Z" transform="translate(-1377.436 -5768.039)"/>
        </g>
        <g id="Grupo_1818" data-name="Grupo 1818" transform="translate(461.894 241.688)">
          <path id="Caminho_1025" data-name="Caminho 1025" d="M1602.979,5871.821a5.378,5.378,0,0,1-3.377-1.119c-1.42-1.107-2.278-2.971-2.551-5.541-.556-5.247,1.125-10.417,2.844-14.782a104.48,104.48,0,0,1,12.182-22.428l.913.651a103.388,103.388,0,0,0-12.051,22.188c-1.668,4.239-3.3,9.247-2.771,14.253.239,2.255.954,3.861,2.125,4.772,2.428,1.892,6.218.412,8.712-1.763a22.712,22.712,0,0,0,6.707-10.345l1.073.328a23.849,23.849,0,0,1-7.042,10.863A10.943,10.943,0,0,1,1602.979,5871.821Z" transform="translate(-1596.942 -5827.951)"/>
        </g>
        <g id="Grupo_1819" data-name="Grupo 1819" transform="translate(440.877 232.413)">
          <path id="Caminho_1026" data-name="Caminho 1026" d="M1544.086,5845.12a7.872,7.872,0,0,1-2-.256c-3.912-1.024-6.17-4.972-6.673-8.429-.53-3.646.4-7.333,1.407-10.8a202.777,202.777,0,0,1,9.008-24.907l1.028.45a201.742,201.742,0,0,0-8.958,24.768c-.968,3.347-1.871,6.9-1.374,10.326.449,3.091,2.43,6.61,5.846,7.5,3.847,1.006,7.68-1.6,10.97-4.12l.683.891C1550.873,5842.962,1547.521,5845.12,1544.086,5845.12Z" transform="translate(-1535.258 -5800.73)"/>
        </g>
        <g id="Grupo_1820" data-name="Grupo 1820" transform="translate(419.984 239.001)">
          <path id="Caminho_1027" data-name="Caminho 1027" d="M1483.61,5852.584a12.389,12.389,0,0,1-3.994-.7,6.6,6.6,0,0,1-3.058-1.9,8.14,8.14,0,0,1-1.479-4.092,96.712,96.712,0,0,1-.512-25.82l1.115.128a95.6,95.6,0,0,0,.506,25.52,7.121,7.121,0,0,0,1.232,3.544,5.551,5.551,0,0,0,2.562,1.563,9.976,9.976,0,0,0,6.108.281,6.392,6.392,0,0,0,4.253-3.949l1.068.345a7.53,7.53,0,0,1-4.99,4.677A9.543,9.543,0,0,1,1483.61,5852.584Z" transform="translate(-1473.94 -5820.064)"/>
        </g>
        <g id="Grupo_1821" data-name="Grupo 1821" transform="translate(421.113 250.965)">
          <path id="Caminho_1028" data-name="Caminho 1028" d="M1477.814,5857.82a.561.561,0,0,1-.265-1.056,13.972,13.972,0,0,1,11.99-.449.561.561,0,0,1-.454,1.027,12.823,12.823,0,0,0-11.008.412A.559.559,0,0,1,1477.814,5857.82Z" transform="translate(-1477.253 -5855.177)"/>
        </g>
        <g id="Grupo_1822" data-name="Grupo 1822" transform="translate(423.621 238.584)">
          <path id="Caminho_1029" data-name="Caminho 1029" d="M1497.688,5823.544a.561.561,0,0,1-.406-.173,11.482,11.482,0,0,0-11.916-2.775.561.561,0,0,1-.385-1.054,12.637,12.637,0,0,1,13.111,3.053.561.561,0,0,1-.405.949Z" transform="translate(-1484.614 -5818.839)"/>
        </g>
        <g id="Grupo_1823" data-name="Grupo 1823" transform="translate(446.058 249.98)">
          <path id="Caminho_1030" data-name="Caminho 1030" d="M1562.52,5857.426a.561.561,0,0,1-.455-.232,9.493,9.493,0,0,0-10.837-3.2.561.561,0,0,1-.405-1.046,10.647,10.647,0,0,1,12.151,3.592.561.561,0,0,1-.454.89Z" transform="translate(-1550.464 -5852.287)"/>
        </g>
        <g id="Grupo_1824" data-name="Grupo 1824" transform="translate(449.144 238.472)">
          <path id="Caminho_1031" data-name="Caminho 1031" d="M1570.137,5823.3a.559.559,0,0,1-.474-.261,7.678,7.678,0,0,0-9.351-2.8.561.561,0,0,1-.461-1.023,8.836,8.836,0,0,1,10.759,3.226.56.56,0,0,1-.473.861Z" transform="translate(-1559.521 -5818.512)"/>
        </g>
        <g id="Grupo_1825" data-name="Grupo 1825" transform="translate(469.272 253.961)">
          <path id="Caminho_1032" data-name="Caminho 1032" d="M1629.356,5871.467a.562.562,0,0,1-.526-.367,9.543,9.543,0,0,0-9.613-5.959.561.561,0,1,1-.12-1.115,10.576,10.576,0,0,1,10.785,6.686.561.561,0,0,1-.331.721A.569.569,0,0,1,1629.356,5871.467Z" transform="translate(-1618.595 -5863.971)"/>
        </g>
        <g id="Grupo_1828" data-name="Grupo 1828" transform="translate(124.884 419.746)">
          <g id="Grupo_1826" data-name="Grupo 1826" transform="translate(0.561 0.57)">
            <path id="Caminho_1033" data-name="Caminho 1033" d="M669.136,6358.508c-8.148-7.085-20.57-8.008-30.488-3.741s-17.416,13.051-21.872,22.887-6.139,20.7-6.886,31.474a112.584,112.584,0,0,0,.5,23.662c1.72,12.075,6.219,23.583,11.4,34.625,6.805,14.513,15.343,28.988,28.78,37.725s32.889,10,44.6-.941c11.547-10.786,11.969-28.718,10.731-44.47-2.929-37.276-10.872-74.481-36.879-101.345" transform="translate(-609.504 -6352.2)" fill="#071f56"/>
          </g>
          <g id="Grupo_1827" data-name="Grupo 1827">
            <path id="Caminho_1034" data-name="Caminho 1034" d="M672.759,6511.471a44.412,44.412,0,0,1-23.586-6.964c-14.261-9.271-22.98-25.154-28.983-37.956-4.34-9.256-9.563-21.573-11.445-34.786a111.812,111.812,0,0,1-.5-23.779c.576-8.294,1.921-20.6,6.935-31.667,4.949-10.922,12.819-19.15,22.161-23.17,10.629-4.575,23.062-3.064,30.985,3.751l.011-.01c28.017,28.94,34.51,69.548,37.036,101.692,1.184,15.067,1.014,33.787-10.907,44.923C688.447,6509.126,680.644,6511.47,672.759,6511.471Zm-22.679-159.825a31.2,31.2,0,0,0-12.3,2.535c-9.085,3.909-16.75,11.936-21.583,22.6-4.939,10.9-6.268,23.073-6.837,31.281a110.765,110.765,0,0,0,.493,23.543c1.861,13.065,7.044,25.283,11.35,34.467,5.94,12.667,14.556,28.375,28.579,37.492,12.282,7.987,31.846,10.392,43.914-.88,11.572-10.808,11.719-29.2,10.554-44.016-2.507-31.9-8.931-72.168-36.57-100.841h0A26.8,26.8,0,0,0,650.081,6351.646Z" transform="translate(-607.857 -6350.527)"/>
          </g>
        </g>
        <g id="Grupo_1831" data-name="Grupo 1831" transform="translate(0 322.987)">
          <g id="Grupo_1829" data-name="Grupo 1829" transform="translate(0.561 0.571)">
            <path id="Caminho_1035" data-name="Caminho 1035" d="M302.619,6075.018c-8.149-7.624-20.57-8.617-30.489-4.024s-17.416,14.046-21.872,24.63-6.138,22.28-6.886,33.873a130.309,130.309,0,0,0,.5,25.465c1.72,13,6.219,25.38,11.4,37.266,6.805,15.618,15.343,31.2,28.781,40.6s32.889,10.763,44.6-1.013c11.547-11.607,11.968-30.907,10.731-47.859-2.929-40.116-10.872-80.157-36.879-109.069" transform="translate(-242.987 -6068.229)" fill="#071f56"/>
          </g>
          <g id="Grupo_1830" data-name="Grupo 1830">
            <path id="Caminho_1036" data-name="Caminho 1036" d="M306.244,6239.679a42.2,42.2,0,0,1-23.6-7.5c-14.256-9.975-22.972-27.063-28.974-40.836-4.338-9.956-9.558-23.206-11.439-37.415a129.35,129.35,0,0,1-.5-25.575c.576-8.921,1.921-22.157,6.929-34.054,4.945-11.746,12.813-20.6,22.154-24.922,10.64-4.928,23.083-3.3,31.012,4.036l.012-.011c28.007,31.135,34.5,74.823,37.022,109.4,1.183,16.2,1.014,36.326-10.892,48.3C321.941,6237.155,314.134,6239.679,306.244,6239.679Zm-22.683-172.006a29.276,29.276,0,0,0-12.281,2.723c-9.087,4.208-16.754,12.852-21.591,24.34-4.943,11.741-6.274,24.851-6.844,33.691a128.271,128.271,0,0,0,.494,25.355c1.862,14.07,7.047,27.225,11.356,37.114,5.942,13.638,14.561,30.55,28.588,40.365,12.273,8.587,31.825,11.172,43.883-.949,11.587-11.648,11.734-31.462,10.569-47.422-2.508-34.341-8.935-77.7-36.585-108.567h0A25.639,25.639,0,0,0,283.561,6067.673Z" transform="translate(-241.339 -6066.552)"/>
          </g>
        </g>
        <g id="Grupo_1834" data-name="Grupo 1834" transform="translate(143.465 355.01)">
          <g id="Grupo_1832" data-name="Grupo 1832" transform="translate(0.561 0.56)">
            <path id="Caminho_1037" data-name="Caminho 1037" d="M689.066,6220.512a231.248,231.248,0,0,1-13.15-58.332,112.48,112.48,0,0,1-10.941,30.674,5.782,5.782,0,0,0-.933,2.848,5.293,5.293,0,0,0,.644,2.04,45.972,45.972,0,0,0,24.568,22.647" transform="translate(-664.04 -6162.18)" fill="#071f56"/>
          </g>
          <g id="Grupo_1833" data-name="Grupo 1833">
            <path id="Caminho_1038" data-name="Caminho 1038" d="M687.98,6219.989a.561.561,0,0,1-.524-.362A46.507,46.507,0,0,1,663.1,6196.9a5.8,5.8,0,0,1-.7-2.261,6.265,6.265,0,0,1,1-3.133,111.653,111.653,0,0,0,10.886-30.521.561.561,0,0,1,1.109.059,230.489,230.489,0,0,0,12.947,57.724l.034.013a.561.561,0,0,1,.006,1.044.546.546,0,0,1-.2.129A.558.558,0,0,1,687.98,6219.989ZM674.626,6164.7a112.769,112.769,0,0,1-10.241,27.336,5.367,5.367,0,0,0-.869,2.563,4.81,4.81,0,0,0,.589,1.819,45.406,45.406,0,0,0,22.831,21.785A231.61,231.61,0,0,1,674.626,6164.7Z" transform="translate(-662.393 -6160.536)"/>
          </g>
        </g>
        <g id="Grupo_1835" data-name="Grupo 1835" transform="translate(79.283 297.676)">
          <path id="Caminho_1039" data-name="Caminho 1039" d="M542.307,6032.836a.562.562,0,0,1-.465-.247c-9.006-13.307-18.252-22.939-28.269-29.446-12.311-8-26.485-11.307-38.887-9.07a.561.561,0,0,1-.2-1.1c12.681-2.284,27.15,1.082,39.7,9.234,10.145,6.591,19.5,16.325,28.587,29.758a.561.561,0,0,1-.464.876Z" transform="translate(-474.026 -5992.269)"/>
        </g>
        <g id="Grupo_1836" data-name="Grupo 1836" transform="translate(89.456 280.441)">
          <path id="Caminho_1040" data-name="Caminho 1040" d="M562.027,5978.449a.562.562,0,0,1-.5-.3c-10.845-20.636-33.791-34.839-57.1-35.342a.561.561,0,0,1,.024-1.122,68.643,68.643,0,0,1,58.068,35.941.561.561,0,0,1-.5.822Z" transform="translate(-503.883 -5941.686)"/>
        </g>
        <g id="Grupo_1837" data-name="Grupo 1837" transform="translate(175.566 315.005)">
          <path id="Caminho_1041" data-name="Caminho 1041" d="M756.732,6131.768c-.983-19.122,3.745-38.028,13.312-53.236,10.149-16.134,25.951-28.213,43.354-33.139a53.313,53.313,0,0,1,19.729-2.052,58.334,58.334,0,0,1,19.026,5.678c25.787,12.115,47.45,36.712,66.227,75.2l-1.009.492c-18.66-38.246-40.149-62.673-65.7-74.674a57.24,57.24,0,0,0-18.66-5.577,52.2,52.2,0,0,0-19.312,2.015c-17.14,4.852-32.707,16.755-42.71,32.657-9.445,15.015-14.112,33.689-13.141,52.581Z" transform="translate(-756.604 -6043.126)"/>
        </g>
        <g id="Grupo_1839" data-name="Grupo 1839" transform="translate(270.974 404.974)">
          <g id="Grupo_1838" data-name="Grupo 1838">
            <path id="Caminho_1042" data-name="Caminho 1042" d="M1037.658,6370.048l-1.044-.412a228.642,228.642,0,0,0,14.947-62.463l1.117.1A229.775,229.775,0,0,1,1037.658,6370.048Z" transform="translate(-1036.614 -6307.173)"/>
          </g>
        </g>
        <g id="Grupo_1840" data-name="Grupo 1840" transform="translate(181.629 396.57)">
          <path id="Caminho_1043" data-name="Caminho 1043" d="M858.279,6312.2a.562.562,0,0,1-.454-.23c-8.524-11.7-21.776-20.565-37.315-24.964-13.641-3.86-28.935-4.41-45.457-1.631a.561.561,0,1,1-.186-1.106c16.688-2.807,32.147-2.249,45.949,1.657,15.779,4.468,29.245,13.481,37.917,25.383a.561.561,0,0,1-.453.892Z" transform="translate(-774.398 -6282.51)"/>
        </g>
        <g id="Grupo_1841" data-name="Grupo 1841" transform="translate(185.813 384.44)">
          <path id="Caminho_1044" data-name="Caminho 1044" d="M869.477,6269.435a.56.56,0,0,1-.405-.173c-9.352-9.777-22.917-16.735-38.2-19.593-12.847-2.4-27.088-2.166-43.539.728a.561.561,0,0,1-.195-1.105c16.586-2.915,30.958-3.152,43.939-.726,15.509,2.9,29.289,9.975,38.8,19.921a.561.561,0,0,1-.406.949Z" transform="translate(-786.678 -6246.909)"/>
        </g>
        <g id="Grupo_1842" data-name="Grupo 1842" transform="translate(193.06 423.601)">
          <path id="Caminho_1045" data-name="Caminho 1045" d="M836.573,6377.669a.562.562,0,0,1-.421-.188,44.53,44.53,0,0,0-27.711-14.519.561.561,0,0,1,.133-1.114,45.668,45.668,0,0,1,28.419,14.889.56.56,0,0,1-.42.933Z" transform="translate(-807.947 -6361.843)"/>
        </g>
        <g id="Grupo_1843" data-name="Grupo 1843" transform="translate(112.832 403.02)">
          <path id="Caminho_1046" data-name="Caminho 1046" d="M573.047,6316.09a.551.551,0,0,1-.137-.018.561.561,0,0,1-.408-.681,82.731,82.731,0,0,0,2.211-13.435.561.561,0,1,1,1.118.09,83.738,83.738,0,0,1-2.241,13.618A.561.561,0,0,1,573.047,6316.09Z" transform="translate(-572.486 -6301.441)"/>
        </g>
        <g id="Grupo_1844" data-name="Grupo 1844" transform="translate(201.277 315.357)">
          <path id="Caminho_1047" data-name="Caminho 1047" d="M832.577,6065.26c1.8,10.4,8.588,19.52,17.205,25.612a45.441,45.441,0,0,0,24.166,8.531,36.66,36.66,0,0,0,24.248-7.673c4.66-3.739,8.218-8.668,11.379-13.738,3.257-5.225,6.217-10.859,6.808-16.986a3.968,3.968,0,0,0-.275-2.3,4.323,4.323,0,0,0-1.683-1.471c-9.007-5.434-18.311-10.979-28.706-12.587-16.685-2.581-33.172,5.39-47.177,14.819-2.476,1.666-5,3.472-6.479,6.063" transform="translate(-832.063 -6044.16)" fill="#071f56"/>
        </g>
        <g id="Grupo_1845" data-name="Grupo 1845" transform="translate(92.124 229.87)">
          <path id="Caminho_1048" data-name="Caminho 1048" d="M565.135,5794.313a102.067,102.067,0,0,1,17.934,13.315,8.8,8.8,0,0,1,2.817,3.865c.57,2.083-.383,4.257-1.418,6.153a58.692,58.692,0,0,1-11.783,15.039,35.612,35.612,0,0,1-9.6,6.579,46.762,46.762,0,0,1-9.461,2.707c-5.618,1.156-11.341,2.158-17.062,1.749a35.37,35.37,0,0,1-23.469-11.456,4.877,4.877,0,0,1-1.33-2.208,4.693,4.693,0,0,1,.48-2.663c1.627-3.9,4.326-7.24,7.057-10.462,5.917-6.981,12.284-13.79,20.189-18.4s17.622-6.812,26.349-4.059" transform="translate(-511.71 -5793.265)" fill="#071f56"/>
        </g>
        <g id="Grupo_1846" data-name="Grupo 1846" transform="translate(270.611 234.958)">
          <path id="Caminho_1049" data-name="Caminho 1049" d="M1109.646,5820.163c-3.573-3.656-8.656-5.387-13.637-6.537a84.5,84.5,0,0,0-35.928-.433c-5.189,1.068-10.407,2.693-14.577,5.96s-7.141,8.447-6.605,13.717c.459,4.521,3.423,8.516,7.156,11.108s8.18,3.949,12.62,4.92a87.668,87.668,0,0,0,28.72,1.444c8.86-1.022,17.911-3.6,24.5-9.61a13.691,13.691,0,0,0,4.56-7.128c1.092-5.483-2.748-9.906-6.974-13.565" transform="translate(-1037.716 -5810.356)" fill="#071f56"/>
          <path id="Caminho_1050" data-name="Caminho 1050" d="M1075.185,5849.885a88.411,88.411,0,0,1-18.917-2.049c-3.863-.845-8.833-2.188-13.021-5.094-4.392-3.049-7.174-7.392-7.633-11.917-.534-5.26,2.16-10.9,7.03-14.714,4.725-3.7,10.521-5.246,15.042-6.176a85.9,85.9,0,0,1,36.407.438c4.508,1.041,10.2,2.761,14.187,6.846l-.01.009c4.011,3.508,8.338,8.293,7.115,14.437-.534,2.681-2.137,5.211-4.9,7.737-5.9,5.39-14.121,8.627-25.125,9.9A88.766,88.766,0,0,1,1075.185,5849.885Zm-.313-39.444a83.1,83.1,0,0,0-16.733,1.693c-6.359,1.308-10.711,3.08-14.111,5.744-4.27,3.345-6.638,8.22-6.181,12.721.387,3.814,2.884,7.665,6.68,10.3,3.863,2.682,8.56,3.944,12.22,4.745a86.143,86.143,0,0,0,28.352,1.426c10.519-1.213,18.327-4.263,23.869-9.323,2.4-2.192,3.779-4.325,4.216-6.519,1.021-5.124-3-9.37-6.608-12.5l.02-.022c-3.583-3.611-8.829-5.182-13.008-6.147A83.281,83.281,0,0,0,1074.872,5810.441Z" transform="translate(-1035.548 -5808.197)"/>
        </g>
        <g id="Grupo_1849" data-name="Grupo 1849" transform="translate(278.827 211.568)">
          <g id="Grupo_1847" data-name="Grupo 1847" transform="translate(0.231 1.98)">
            <path id="Caminho_1051" data-name="Caminho 1051" d="M1060.972,5748.985a4.467,4.467,0,0,0,4.628-.187,13.145,13.145,0,0,0,3.432-3.435,12.823,12.823,0,0,0-.016,4.912,4.365,4.365,0,0,0,3.25,3.353,7.28,7.28,0,0,0-5.67.89,10.352,10.352,0,0,0-3.827,4.39,15.328,15.328,0,0,0,.613-5.671,5.775,5.775,0,0,0-3.04-4.579l1.223.5" transform="translate(-1060.341 -5745.364)" fill="#fed15c"/>
          </g>
          <g id="Grupo_1848" data-name="Grupo 1848">
            <path id="Caminho_1052" data-name="Caminho 1052" d="M1060.487,5760.152l1.289-5.212a14.9,14.9,0,0,0,.6-5.461,5.251,5.251,0,0,0-2.715-4.142l.442-1.031,1.222.5-.049.119a4.207,4.207,0,0,0,3.588-.437,12.649,12.649,0,0,0,3.275-3.3l1.272-1.636-.273,2.055a12.323,12.323,0,0,0-.029,4.7,4.036,4.036,0,0,0,2.351,2.832q.256.051.508.123l-.239,1.094a3.638,3.638,0,0,1-.541-.126,6.861,6.861,0,0,0-4.751.942,9.735,9.735,0,0,0-3.614,4.153Zm1.879-13.875a7.258,7.258,0,0,1,1.124,3.053,11.174,11.174,0,0,1-.033,2.952,9.833,9.833,0,0,1,2.4-2.074,8.253,8.253,0,0,1,3.5-1.18,5.829,5.829,0,0,1-1.329-2.443,9.792,9.792,0,0,1-.214-3.207,9.975,9.975,0,0,1-2.373,2.07A5.671,5.671,0,0,1,1062.366,5746.277Z" transform="translate(-1059.663 -5739.552)"/>
          </g>
        </g>
        <g id="Grupo_1852" data-name="Grupo 1852" transform="translate(344.931 276.933)">
          <g id="Grupo_1850" data-name="Grupo 1850" transform="translate(0.231 1.98)">
            <path id="Caminho_1053" data-name="Caminho 1053" d="M1254.976,5940.824a4.465,4.465,0,0,0,4.628-.187,13.152,13.152,0,0,0,3.431-3.434,12.821,12.821,0,0,0-.016,4.912,4.363,4.363,0,0,0,3.25,3.352,7.284,7.284,0,0,0-5.67.891,10.355,10.355,0,0,0-3.828,4.389,15.328,15.328,0,0,0,.613-5.671,5.775,5.775,0,0,0-3.04-4.578l1.223.495" transform="translate(-1254.345 -5937.203)" fill="#fed15c"/>
          </g>
          <g id="Grupo_1851" data-name="Grupo 1851">
            <path id="Caminho_1054" data-name="Caminho 1054" d="M1254.492,5951.989l1.288-5.209a14.9,14.9,0,0,0,.6-5.462,5.255,5.255,0,0,0-2.715-4.142l.442-1.031,1.222.5-.048.12a4.207,4.207,0,0,0,3.588-.437,12.658,12.658,0,0,0,3.275-3.3l1.272-1.636-.273,2.054a12.321,12.321,0,0,0-.029,4.7,4.037,4.037,0,0,0,2.351,2.832c.172.034.34.075.508.123l-.239,1.094a3.817,3.817,0,0,1-.541-.126,6.879,6.879,0,0,0-4.752.941,9.742,9.742,0,0,0-3.614,4.154Zm1.878-13.873a7.258,7.258,0,0,1,1.124,3.053,11.16,11.16,0,0,1-.033,2.952,9.873,9.873,0,0,1,2.4-2.075,8.269,8.269,0,0,1,3.5-1.179,5.829,5.829,0,0,1-1.33-2.444,9.81,9.81,0,0,1-.214-3.207,10,10,0,0,1-2.372,2.071A5.626,5.626,0,0,1,1256.371,5938.116Z" transform="translate(-1253.668 -5931.391)"/>
          </g>
        </g>
        <g id="Grupo_1859" data-name="Grupo 1859" transform="translate(324.049 48.472)">
          <g id="Grupo_1853" data-name="Grupo 1853" transform="translate(10.791)">
            <path id="Caminho_1055" data-name="Caminho 1055" d="M1291.214,5266.245s-42-13.182-57.72,15.534a68.3,68.3,0,0,0-5.033,9.341s25.3-6.593,54.267,6.353c11.074,5.469,31.911,16.474,34.88,22.895l2.969,6.421s10.736-20.955.373-35.4C1310.739,5277.319,1303.731,5269.138,1291.214,5266.245Z" transform="translate(-1226.958 -5262.428)" fill="#3564da"/>
            <path id="Caminho_1056" data-name="Caminho 1056" d="M1317.629,5327.221l-3.714-8.033c-2.951-6.383-25.094-17.849-34.477-22.482-28.3-12.647-53.416-6.356-53.667-6.292l-1.72.447.709-1.629a68.291,68.291,0,0,1,5.111-9.482c15.641-28.579,57.235-16.316,58.659-15.883,13.114,3.042,20.478,12.06,30.212,25.466,10.552,14.715.144,35.433-.3,36.308Zm-75.557-40.15a93.526,93.526,0,0,1,38.1,8.07c11.889,5.87,32.244,16.685,35.311,23.321l2.179,4.712c2.211-5.189,7.944-21.3-.323-32.829-9.794-13.49-16.651-21.893-29.229-24.8l-.063-.018c-.415-.13-41.507-12.631-56.7,15.124a62.7,62.7,0,0,0-4.285,7.721A81.872,81.872,0,0,1,1242.073,5287.071Z" transform="translate(-1224.051 -5260.886)"/>
          </g>
          <g id="Grupo_1854" data-name="Grupo 1854" transform="translate(0 20.955)">
            <path id="Caminho_1057" data-name="Caminho 1057" d="M1209.9,5326.555s-9.638-.677-11.226,6.642-.069,11.185-2.1,15.106-2.886,5.151,1.692,7.146c4.356.3,30.013-7.1,60.847,8.9,7.422,3.556,27.824,16.294,32.926,20.761,2.071,1.864,2.223,2.251,4.281-6.145,1.139-3.348,8.631-10.978,8.631-10.978s3.459-4.26-.028-8.022S1257.362,5316.165,1209.9,5326.555Z" transform="translate(-1194.06 -5324.004)" fill="#3564da"/>
            <path id="Caminho_1058" data-name="Caminho 1058" d="M1291.945,5385.465c-.7,0-1.3-.542-2.024-1.2l-.144-.129c-5.139-4.5-25.573-17.2-32.721-20.625-25.337-13.149-47.056-10.376-56.329-9.192a27.048,27.048,0,0,1-4.2.374l-.15-.009-.137-.06c-2.237-.975-3.308-1.822-3.7-2.923-.5-1.407.242-2.832,1.362-4.987l.222-.426c1.007-1.946,1.064-3.955,1.136-6.5a42.658,42.658,0,0,1,.886-8.394c1.366-6.295,8.373-7.543,12.007-7.329,19.792-4.3,42.082-.32,64.472,11.5,17.206,9.085,29.2,19.98,31.249,22.19,3.162,3.412,1.425,7.481.065,9.156-2.1,2.144-7.6,8.118-8.483,10.711-1.458,5.966-1.923,7.414-3.088,7.771A1.4,1.4,0,0,1,1291.945,5385.465Zm-76.426-33.958a90.731,90.731,0,0,1,42.309,10.458c7.2,3.449,27.875,16.308,33.1,20.879l.155.139a9.733,9.733,0,0,0,.8.678c.512-.787,1.349-4.2,1.916-6.518,1.211-3.567,8.542-11.06,8.854-11.376.066-.089,2.879-3.674-.045-6.829-2.008-2.167-13.8-12.864-30.788-21.836-15.389-8.127-38.882-16.688-63.415-11.318l-.121.026-.124-.008c-.359-.026-8.913-.531-10.321,5.962a40.623,40.623,0,0,0-.848,8.076c-.075,2.655-.139,4.948-1.329,7.245l-.222.429c-.879,1.691-1.514,2.913-1.266,3.612.2.558,1.029,1.147,2.613,1.851a33.089,33.089,0,0,0,3.726-.37A112.852,112.852,0,0,1,1215.519,5351.507Z" transform="translate(-1192.382 -5322.387)"/>
          </g>
          <g id="Grupo_1855" data-name="Grupo 1855" transform="translate(15.804 22.128)" opacity="0.51">
            <path id="Caminho_1059" data-name="Caminho 1059" d="M1239.015,5354.488c-2.147-10.606,10.286-27.928,10.817-28.66l.7.507c-.128.176-12.742,17.746-10.67,27.981Z" transform="translate(-1238.766 -5325.828)" fill="#fff"/>
          </g>
          <g id="Grupo_1856" data-name="Grupo 1856" transform="translate(38.802 24.628)" opacity="0.51">
            <path id="Caminho_1060" data-name="Caminho 1060" d="M1307.1,5361.579l-.834-.229c1.1-3.991,11.517-27.2,11.96-28.183l.788.355C1318.9,5333.761,1308.179,5357.652,1307.1,5361.579Z" transform="translate(-1306.262 -5333.166)" fill="#fff"/>
          </g>
          <g id="Grupo_1857" data-name="Grupo 1857" transform="translate(68.044 34.193)" opacity="0.51">
            <path id="Caminho_1061" data-name="Caminho 1061" d="M1392.787,5389.735l-.7-.5c3.226-4.531,9.572-27.764,9.637-28l.834.227C1402.292,5362.426,1396.1,5385.08,1392.787,5389.735Z" transform="translate(-1392.083 -5361.237)" fill="#fff"/>
          </g>
          <g id="Grupo_1858" data-name="Grupo 1858" transform="translate(88.039 47.465)" opacity="0.51">
            <path id="Caminho_1062" data-name="Caminho 1062" d="M1451.373,5427.053l-.608-.615c3.257-3.218,9.745-26.017,9.81-26.246l.832.235C1461.138,5401.374,1454.79,5423.677,1451.373,5427.053Z" transform="translate(-1450.765 -5400.191)" fill="#fff"/>
          </g>
        </g>
        <g id="Grupo_1860" data-name="Grupo 1860" transform="translate(311.897 104.901)">
          <path id="Caminho_1063" data-name="Caminho 1063" d="M1164.581,5436.817a2.952,2.952,0,0,1-.655-.091,14.738,14.738,0,0,1-7.081-3.895.432.432,0,1,1,.611-.611,13.876,13.876,0,0,0,6.661,3.663,1.64,1.64,0,0,0,.591.06,1.487,1.487,0,0,0,.608-.321,6.424,6.424,0,0,0,2.436-4.145,4.322,4.322,0,0,0-.437-2.8,2.541,2.541,0,0,0-2.221-1.309c-.647.038-1.367.554-1.359,1.189.01.859,1.162,1.377,2.126,1.661a.432.432,0,1,1-.243.829c-1.81-.532-2.734-1.366-2.748-2.48a2.238,2.238,0,0,1,2.175-2.062,3.365,3.365,0,0,1,3.015,1.731,5.188,5.188,0,0,1,.549,3.367,7.293,7.293,0,0,1-2.766,4.706,2.255,2.255,0,0,1-.995.489A1.658,1.658,0,0,1,1164.581,5436.817Z" transform="translate(-1156.718 -5426.498)"/>
        </g>
        <g id="Grupo_1861" data-name="Grupo 1861" transform="translate(415.239 141.836)">
          <path id="Caminho_1064" data-name="Caminho 1064" d="M1466.511,5543.987a3.847,3.847,0,0,1-.392-.023,7.305,7.305,0,0,1-4.816-2.571,5.189,5.189,0,0,1-1.289-3.158,3.376,3.376,0,0,1,1.668-3.051,2.237,2.237,0,0,1,2.931.625c.57.957.218,2.15-1.048,3.549a.433.433,0,1,1-.642-.58c.675-.745,1.387-1.788.947-2.526a1.394,1.394,0,0,0-1.779-.3,2.539,2.539,0,0,0-1.212,2.275,4.325,4.325,0,0,0,1.089,2.62,6.425,6.425,0,0,0,4.24,2.264,1.522,1.522,0,0,0,.689-.044,1.647,1.647,0,0,0,.472-.359,13.858,13.858,0,0,0,3.769-6.6.433.433,0,0,1,.841.2,14.743,14.743,0,0,1-4.008,7.019,2.384,2.384,0,0,1-.748.54A1.879,1.879,0,0,1,1466.511,5543.987Z" transform="translate(-1460.014 -5534.898)"/>
        </g>
        <g id="Grupo_1862" data-name="Grupo 1862" transform="translate(246.559 148.432)">
          <path id="Caminho_1065" data-name="Caminho 1065" d="M1006.206,5556.58a32.745,32.745,0,0,1,5.431,35.088,18.222,18.222,0,0,1-3.493,5.271c-4.468,4.47-11.79,4.975-17.73,2.818s-10.792-6.5-15.35-10.88a35.212,35.212,0,0,1-6.465-7.589,12.78,12.78,0,0,1-1.622-9.608c.933-3.347,3.6-5.924,6.415-7.963a41.8,41.8,0,0,1,33.438-6.791" transform="translate(-966.052 -5555.345)" fill="#071f56"/>
          <path id="Caminho_1066" data-name="Caminho 1066" d="M996.283,5600.441a21.259,21.259,0,0,1-7.153-1.245c-6.067-2.2-11.007-6.644-15.547-11a35.709,35.709,0,0,1-6.563-7.715,13.187,13.187,0,0,1-1.675-10.038c.815-2.922,2.983-5.627,6.627-8.267a42.356,42.356,0,0,1,33.466-6.979l.09-.082.117.127.221.05-.036.156a33.288,33.288,0,0,1,5.225,35.371,18.691,18.691,0,0,1-3.605,5.431A15.535,15.535,0,0,1,996.283,5600.441Zm.391-45.064a41.234,41.234,0,0,0-24.044,7.705c-3.43,2.485-5.46,4.992-6.2,7.66a12.245,12.245,0,0,0,1.568,9.178,34.783,34.783,0,0,0,6.367,7.464c4.453,4.276,9.291,8.629,15.153,10.757,5.28,1.916,12.628,1.828,17.142-2.687a17.611,17.611,0,0,0,3.381-5.111,32.145,32.145,0,0,0-4.987-34.085A39.973,39.973,0,0,0,996.673,5555.377Z" transform="translate(-964.96 -5554.256)"/>
        </g>
      </g>
    </g>
  </g>
</svg>
