<svg id="character" xmlns="http://www.w3.org/2000/svg" xmlns:xlink="http://www.w3.org/1999/xlink" width="704.502" height="606.424" viewBox="0 0 704.502 606.424">
  <defs>
    <clipPath id="clip-path">
      <path id="Caminho_922" data-name="Caminho 922" d="M3018.565,5536.4c8.679,1.353,16.145,7.286,21.086,14.547s7.664,15.787,9.864,24.291c.92-2.4,4.077-3.258,6.53-2.5s4.346,2.674,6.126,4.525c6.469,6.724,13.315,14.577,12.986,23.9,5.72-9.625,16.1-15.7,26.841-18.859s22.033-3.786,33.166-4.98a328.915,328.915,0,0,0,55.24-10.828c2.033-.581,4.195-1.269,5.506-2.927a9.244,9.244,0,0,0,1.539-5.347c.351-6.8-1.024-13.562-2.41-20.229-5.381-25.9-11.632-52.958-29.089-72.831a78.515,78.515,0,0,0-130.251,18.862c-6.2,13.412-8.5,28.285-9.743,43.009-.2,2.334-.4,4.769-1.617,6.771s-3.791,3.4-5.948,2.482" transform="translate(-3018.393 -5438.506)" fill="none"/>
    </clipPath>
  </defs>
  <path id="Caminho_881" data-name="Caminho 881" d="M2837.21,5800.887c-15.974,2.214-31.72,3.178-45.017,3.829-30.073,1.473-62.056,2.349-93.4-4.375-2.39-.512-4.9-1.11-7.655-1.822a35.446,35.446,0,0,1-16.154-4.9,205.967,205.967,0,0,1-88.274-60.379,546.835,546.835,0,0,1-89.57-24.87,506.153,506.153,0,0,1-129.991-71.126l-1.019-.773a10.773,10.773,0,0,1,2.541-18.584q-3.407-2.088-6.842-4.1l-1.845-1.078a10.774,10.774,0,0,1,3.951-19.973,10.945,10.945,0,0,1,1.3-.1l2.137-.038c3.241-.056,6.5-.223,9.75-.5-20.2-15.87-39.727-32.754-58.264-50.388l-1.218-1.16a10.772,10.772,0,0,1,8.247-18.546l1.675.128a453.052,453.052,0,0,1,54.61,7.537l-1.74-1.479a10.771,10.771,0,0,1,7.779-18.951l1.83.137a236.8,236.8,0,0,1,51.452,9.7c-6.744-10.448-12.6-22.083-15.89-34.819l-.441-1.709a10.773,10.773,0,0,1,17.079-11.171l1.39,1.091c27.273,21.4,55.334,42.579,83.609,63.12a39.156,39.156,0,0,1,6.294-12.954,38.1,38.1,0,0,1,10.336-9.374c-10.678-33.264-15.174-66.555-18.841-97.976-2.586-22.163-5.1-47.953-2.238-73.562,3.171-28.326,12.83-53.008,27.932-71.378,24.255-29.5,61.453-42.8,94.414-52.942,20.479-6.3,42.573-12.571,65.371-15.729l1.192-.163a249.341,249.341,0,0,1,60.739-.649c15.669,1.756,28.018,4.742,38.861,9.4a101.38,101.38,0,0,1,20.471,11.871,10.809,10.809,0,0,1,2.935,2.257,130.421,130.421,0,0,1,23.6,24.913c10.637,14.5,19.722,31.947,27.772,53.352,24.489,65.112,32.177,134.864,38.484,206.565.062.7.121,1.374.178,2.042a115.668,115.668,0,0,1,20.086,15.875,90.853,90.853,0,0,1,14.377,19.266,63.658,63.658,0,0,1,20.119-12.852,32.715,32.715,0,0,1,7.643-2.143,22.987,22.987,0,0,1,4.989-.156c7.492.609,14.367,5.081,19.361,12.593,13.442,20.218,5.788,45.644.029,59a157.122,157.122,0,0,1-34.1,49.655,198.708,198.708,0,0,1-6.445,40.4c-8.132,30-23.538,55.226-44.551,72.938-21.989,18.534-50.287,29.668-89.042,35.039Z" transform="translate(-2314.291 -5199.329)" fill="#fefff0"/>
  <g id="Grupo_1657" data-name="Grupo 1657" transform="translate(638.909 342.637)">
    <path id="Caminho_882" data-name="Caminho 882" d="M3858.626,6054.667a52.932,52.932,0,0,1,27.813-25.918,16.929,16.929,0,0,1,7.512-1.53c4.536.368,8.289,3.764,10.809,7.553,9.285,13.966,5.7,32.8-.944,48.2a144.859,144.859,0,0,1-33.547,47.893,4.933,4.933,0,0,1-1.521,1.1c-1.554.606-3.345-.528-4.069-2.031a10.5,10.5,0,0,1-.613-4.913,184.052,184.052,0,0,0-4.789-47.7c-1.958-8.33-4.415-17.484-.48-25.083" transform="translate(-3856.115 -6026.585)" fill="#fd64e0"/>
    <path id="Caminho_883" data-name="Caminho 883" d="M3867.443,6131.859a4.269,4.269,0,0,1-4.131-2.509,10.85,10.85,0,0,1-.674-5.158,183.284,183.284,0,0,0-4.772-47.575l-.284-1.2c-1.871-7.9-3.992-16.86-.145-24.291l.843.437a53.61,53.61,0,0,1,27.11-24.211,17.517,17.517,0,0,1,7.781-1.57c5.574.453,9.446,5.092,11.258,7.818,10.628,15.985,4,37.417-.892,48.769a146.166,146.166,0,0,1-33.687,48.093,5.485,5.485,0,0,1-1.713,1.221A3.013,3.013,0,0,1,3867.443,6131.859Zm-9.841-78.131c-2.367,6.578-.586,14.105,1.144,21.409l.285,1.206a184.471,184.471,0,0,1,4.8,47.852,10.041,10.041,0,0,0,.555,4.635c.593,1.229,2.064,2.217,3.312,1.732a4.494,4.494,0,0,0,1.328-.976,144.957,144.957,0,0,0,33.407-47.7c4.8-11.13,11.31-32.118,1-47.633-1.692-2.545-5.288-6.877-10.359-7.288a16.44,16.44,0,0,0-7.242,1.49,52.338,52.338,0,0,0-27.495,25.622Z" transform="translate(-3855.286 -6025.741)"/>
  </g>
  <g id="Grupo_1658" data-name="Grupo 1658" transform="translate(10.773 280.539)">
    <path id="Caminho_884" data-name="Caminho 884" d="M2567.581,5964.259q-57.769-40.841-113.456-84.526c6.381,24.729,23.549,45.024,40.212,64.378a225.174,225.174,0,0,0-87.63-25.083l38.049,32.346a441.99,441.99,0,0,0-100.55-19.591,802.767,802.767,0,0,0,78.062,65.346,156.573,156.573,0,0,1-37.187,5.15q15.092,8.818,29.36,18.955l-22.893,5.266c77.211,58.724,172.083,92.917,268.73,101.246a463.923,463.923,0,0,0-14.292-68.261c-2.914-10.067-6.259-20.221-12.385-28.726-5.7-7.907-13.5-13.987-20.911-20.315a311.479,311.479,0,0,1-45.471-48.068" transform="translate(-2342.576 -5878.171)" fill="#30cf7f"/>
    <path id="Caminho_885" data-name="Caminho 885" d="M2658.667,6126.2l-.742-.064a538.7,538.7,0,0,1-141.811-31.759,495.42,495.42,0,0,1-127.23-69.605l-1.017-.773,22.835-5.253c-9.117-6.43-18.607-12.534-28.226-18.154l-1.845-1.078,2.136-.037a156.019,156.019,0,0,0,35.831-4.815,806.155,806.155,0,0,1-77.107-64.649l-1.217-1.158,1.676.127a442.668,442.668,0,0,1,97.862,18.729l-37.193-31.62,1.831.137a226.957,226.957,0,0,1,85.124,23.735c-15.321-17.824-32.059-37.982-38.329-62.285l-.442-1.711,1.391,1.09c36.656,28.757,74.526,56.98,112.569,83.9-.108-.14-.214-.281-.322-.422l.952-.725a311.219,311.219,0,0,0,45.384,47.977q1.536,1.311,3.087,2.613c6.376,5.375,12.97,10.933,17.921,17.807,6.338,8.8,9.762,19.536,12.474,28.909a465.757,465.757,0,0,1,14.312,68.349Zm-268.04-101.61c74.241,56.133,168.86,91.724,266.657,100.289a464.547,464.547,0,0,0-14.176-67.433c-2.684-9.277-6.07-19.9-12.3-28.542-4.864-6.754-11.4-12.263-17.722-17.592q-1.55-1.307-3.092-2.618a312.412,312.412,0,0,1-44.565-46.863l-.5.71c-37.861-26.767-75.556-54.833-112.064-83.435,6.833,24.325,24.229,44.532,39.619,62.407l2.049,2.38-2.781-1.459a225.689,225.689,0,0,0-85.556-24.871l38.913,33.082-2.843-.907a441.567,441.567,0,0,0-98.73-19.434,804.829,804.829,0,0,0,76.78,64.136l1.01.742-1.211.319a157.16,157.16,0,0,1-35.228,5.119c9.411,5.568,18.687,11.591,27.594,17.919l1.087.772Z" transform="translate(-2340.275 -5875.966)"/>
  </g>
  <g id="Grupo_1659" data-name="Grupo 1659" transform="translate(96.044 342.577)">
    <path id="Caminho_886" data-name="Caminho 886" d="M2711.457,6090.505q-41.788-29.544-82.07-61.144c4.615,17.888,17.034,32.569,29.088,46.569a162.885,162.885,0,0,0-63.389-18.144l27.523,23.4a319.727,319.727,0,0,0-72.734-14.172,580.847,580.847,0,0,0,56.468,47.27,113.235,113.235,0,0,1-26.9,3.725q10.917,6.379,21.238,13.711l-16.56,3.81c55.852,42.479,124.479,67.214,194.391,73.238a335.569,335.569,0,0,0-10.339-49.378c-2.107-7.282-4.528-14.627-8.958-20.779-4.12-5.719-9.766-10.118-15.127-14.695a225.4,225.4,0,0,1-32.892-34.772" transform="translate(-2548.243 -6027.8)" fill="#fed15c"/>
    <path id="Caminho_887" data-name="Caminho 887" d="M2776.9,6207.222l-.742-.063a389.867,389.867,0,0,1-102.625-22.984,358.522,358.522,0,0,1-92.077-50.374l-1.017-.774,16.5-3.795c-6.5-4.57-13.254-8.909-20.1-12.911l-1.845-1.078,2.137-.037a112.692,112.692,0,0,0,25.541-3.392,583.258,583.258,0,0,1-55.511-46.571l-1.218-1.158,1.676.128a320.363,320.363,0,0,1,70.055,13.314L2591,6054.849l1.83.137a164.371,164.371,0,0,1,60.9,16.815c-10.946-12.754-22.75-27.163-27.222-44.494l-.442-1.711,1.391,1.091c26.423,20.728,53.715,41.072,81.137,60.482l.778-.593a224.929,224.929,0,0,0,32.8,34.679q1.112.948,2.235,1.891c4.619,3.895,9.4,7.921,12.989,12.909,4.6,6.388,7.083,14.17,9.047,20.963a336.961,336.961,0,0,1,10.358,49.466Zm-193.7-73.6c53.585,40.425,121.8,66.066,192.318,72.281a335.938,335.938,0,0,0-10.222-48.551c-1.938-6.7-4.381-14.363-8.869-20.6-3.507-4.868-8.225-8.846-12.79-12.693q-1.123-.947-2.239-1.9a226.052,226.052,0,0,1-32.229-33.884l-.359.507c-27.251-19.266-54.382-39.461-80.669-60.045,5.027,17.343,17.469,31.794,28.486,44.592l2.049,2.38-2.78-1.459a163.123,163.123,0,0,0-61.31-17.929l28.384,24.13-2.843-.907a319.237,319.237,0,0,0-70.913-14.012,582,582,0,0,0,55.183,46.057l1.01.742-1.211.32a113.9,113.9,0,0,1-24.953,3.689c6.646,3.95,13.192,8.209,19.485,12.68l1.087.772Z" transform="translate(-2545.941 -6025.596)"/>
  </g>
  <g id="Grupo_1660" data-name="Grupo 1660" transform="translate(221.476 281.59)">
    <path id="Caminho_888" data-name="Caminho 888" d="M3144.061,5879.654a358.386,358.386,0,0,1,80.208,34.552c9.3,5.438,18.443,11.365,25.983,19.061,19.2,19.595,25.816,48.2,28.334,75.521,2.445,26.522,1.76,53.6-5.208,79.308s-20.54,50.052-40.905,67.218c-34.365,28.965-82.4,34.007-127.287,36.206-30.236,1.48-60.856,2.214-90.454-4.136-53.687-11.518-101.682-47.28-128.073-95.43-10.578-19.3-17.759-40.27-23.84-61.42-7.289-25.352-13.107-51.419-12.9-77.8.069-8.778,1-18.084,6.262-25.11,6.2-8.271,16.961-11.534,27.111-13.484,19.186-3.685,38.8-4.45,58.318-5.2l216.853-8.383a27.37,27.37,0,0,1-14.315-21.067" transform="translate(-2849.317 -5879.079)" fill="#3564da"/>
    <path id="Caminho_889" data-name="Caminho 889" d="M3148.437,6187.8c-14.844,2.057-29.77,3.04-44.066,3.74-29.361,1.438-60.542,2.3-90.609-4.148-53.934-11.57-101.96-47.356-128.473-95.727-11.551-21.073-18.835-43.958-23.891-61.542-6.135-21.333-13.147-49.476-12.921-77.968.067-8.468.877-18.117,6.382-25.463,6.542-8.733,18.12-11.917,27.477-13.713,19.274-3.7,39.168-4.471,58.408-5.214l214.776-8.3a28.238,28.238,0,0,1-12.81-20.488l.553-.057.121-.415a358.855,358.855,0,0,1,80.342,34.61c8.492,4.965,18.236,11.124,26.108,19.158,16.2,16.531,25.253,40.644,28.5,75.885,2.788,30.248,1.079,56.259-5.227,79.52-7.556,27.879-21.766,51.227-41.1,67.519C3208.555,6174.966,3178.671,6183.609,3148.437,6187.8Zm-254.948-275.441q-5.49.76-10.927,1.794c-9.145,1.756-20.448,4.851-26.745,13.255-5.3,7.069-6.078,16.481-6.143,24.756-.225,28.337,6.762,56.371,12.875,77.628,5.038,17.523,12.3,40.328,23.789,61.3,26.348,48.07,74.075,83.634,127.674,95.132,29.926,6.421,61.018,5.557,90.3,4.123,43.224-2.117,92.24-6.824,126.93-36.066,19.142-16.135,33.22-39.275,40.712-66.917,6.268-23.122,7.966-48.995,5.19-79.1-3.222-34.951-12.172-58.833-28.166-75.157-7.773-7.934-17.433-14.038-25.857-18.963a357.71,357.71,0,0,0-79.083-34.2c1.22,8.135,3.469,15.561,10.761,19.36l1.093.937-215.1,8.721C2925.22,5909.56,2909.218,5910.178,2893.489,5912.357Z" transform="translate(-2848.472 -5878.5)"/>
  </g>
  <g id="Grupo_1661" data-name="Grupo 1661" transform="translate(197.489 412.849)">
    <path id="Caminho_890" data-name="Caminho 890" d="M2886.261,6231.591a140.477,140.477,0,0,0-82.484-34.96c-2.692-.2-5.59-.268-7.863,1.189-3.684,2.362-4.1,7.53-3.764,11.894a81.244,81.244,0,0,0,89.505,74.6,18.852,18.852,0,0,0,7.124-1.83c3.9-2.128,6.068-6.458,7.309-10.723a42.542,42.542,0,0,0-10.095-40.658" transform="translate(-2791.46 -6195.928)" fill="#fd64e0"/>
    <path id="Caminho_891" data-name="Caminho 891" d="M2882.39,6283.884c-.507.07-1.013.128-1.515.182a81.842,81.842,0,0,1-90.165-75.148c-.477-6.233.882-10.42,4.038-12.444,2.437-1.562,5.526-1.48,8.23-1.282a140.639,140.639,0,0,1,82.468,34.782l-.01-.013a42.785,42.785,0,0,1,10.385,41.125c-1.591,5.471-4.148,9.2-7.6,11.081A16.965,16.965,0,0,1,2882.39,6283.884Zm-83.878-87.482a7.631,7.631,0,0,0-3.117,1.08c-2.757,1.768-3.931,5.584-3.491,11.345a80.646,80.646,0,0,0,88.847,74.049,17.988,17.988,0,0,0,6.9-1.76c3.159-1.724,5.521-5.211,7.021-10.365a41.655,41.655,0,0,0-9.674-39.59l.023.035a139.417,139.417,0,0,0-82.13-34.81A21.083,21.083,0,0,0,2798.512,6196.4Z" transform="translate(-2790.618 -6195.086)"/>
  </g>
  <g id="Grupo_1662" data-name="Grupo 1662" transform="translate(566.096 398.469)">
    <path id="Caminho_892" data-name="Caminho 892" d="M3765.2,6162.749c-17.54,12.873-35.093,25.755-51.811,39.68-7.816,6.509-15.526,13.333-21.345,21.675-16.883,24.205-13.872,60.273,6.788,81.346,5.687,5.8,13.415,10.737,21.439,9.475,9.465-1.489,15.429-10.7,20.168-19.028A243.9,243.9,0,0,0,3752,6273.86c15.14-34.332,13.675-73.38,11.936-110.862" transform="translate(-3680.517 -6161.776)" fill="#fd64e0"/>
    <path id="Caminho_893" data-name="Caminho 893" d="M3719.207,6314.188c-9.3,1.289-17.542-5.5-21.654-9.692-10.089-10.291-16.355-24.449-17.642-39.867s2.546-30.419,10.79-42.24c6.029-8.644,14.235-15.781,21.454-21.794,16.255-13.538,33.559-26.282,50.354-38.609,0-.11-.01-.222-.016-.333l.5-.023c.334-.245.079-.98.412-1.225l.273,1.639c.117.9.167.777-.156,1.015,1.64,35.364,3.55,74.816-11.819,109.67a245.521,245.521,0,0,1-11.6,22.091c-4.864,8.547-10.868,17.793-20.595,19.323Q3719.36,6314.167,3719.207,6314.188Zm43.369-150.766c-16.579,12.169-33.634,24.75-49.654,38.093-7.158,5.962-15.293,13.037-21.237,21.559-16.849,24.157-13.9,59.554,6.725,80.584,3.952,4.031,11.854,10.561,20.634,9.345.095-.014.188-.027.283-.042,9.2-1.447,15.015-10.429,19.741-18.733a244.618,244.618,0,0,0,11.541-21.982C3765.749,6237.909,3764.2,6198.456,3762.575,6163.421Z" transform="translate(-3679.667 -6160.404)"/>
  </g>
  <g id="Grupo_1663" data-name="Grupo 1663" transform="translate(333.663 437.866)">
    <path id="Caminho_894" data-name="Caminho 894" d="M3148.943,6400.188c-18.61-18.784-24.313-46.812-27.7-74.3-2.8-22.739-4.835-48.812,6.642-70.461l1.057.561c-11.313,21.341-9.293,47.2-6.511,69.754,3.365,27.279,9.009,55.077,27.366,73.606Z" transform="translate(-3119.058 -6255.425)"/>
  </g>
  <g id="Grupo_1664" data-name="Grupo 1664" transform="translate(333.954 466.489)">
    <path id="Caminho_895" data-name="Caminho 895" d="M3122.315,6326.056a415,415,0,0,0,104.8,5.723c15.863-1.15,31.933-3.2,47.563-.259s31.169,12,37.049,26.775c4.212,10.587,2.944,22.626-.361,33.531-4.8,15.845-14.1,30.7-27.8,40-10.1,6.856-22.078,10.414-34.04,12.867-23.058,4.728-46.779,6.661-70.146,3.826-11.353-1.377-21.51.328-29.722-7.631-5.619-5.445-13.081-17.186-15.944-24.468-11.109-28.26-13.915-57.57-12.755-89.464" transform="translate(-3120.318 -6325.396)" fill="#fd64e0"/>
    <path id="Caminho_896" data-name="Caminho 896" d="M3235.084,6446.75c-18.7,2.591-37.411,3.392-56.227,1.11-3.073-.374-6.517-.28-9.4-.352-7.652-.19-14.636-1.176-20.772-7.123-5.9-5.72-13.36-17.747-16.085-24.679-10.511-26.74-13.828-55.993-12.588-90.112l1.014-.156c-1.235,33.95,2.239,63.249,12.687,89.831,2.972,7.56,10.5,19.122,15.8,24.257,5.8,5.621,12.235,6.594,19.969,6.786,2.916.072,6.388-.021,9.519.359,23.4,2.838,46.756,1.236,69.842-3.5,10.006-2.052,22.892-5.358,33.824-12.776,12.615-8.561,22.4-22.652,27.564-39.678,3.891-12.838,4.018-23.987.378-33.137-6.188-15.553-22.966-23.838-36.6-26.407-13.182-2.484-26.908-1.371-40.181-.3-2.412.195-4.823.391-7.228.565a422.334,422.334,0,0,1-105.829-5.8l.216-1.178a421.084,421.084,0,0,0,105.527,5.787c2.4-.173,4.808-.369,7.218-.563,13.352-1.082,27.159-2.2,40.5.313,13.951,2.628,31.127,11.138,37.494,27.142,3.743,9.407,3.627,20.821-.344,33.926-5.24,17.288-15.2,31.606-28.038,40.321-11.107,7.538-24.142,10.884-34.256,12.958Q3242.112,6445.776,3235.084,6446.75Z" transform="translate(-3119.76 -6324.463)"/>
  </g>
  <g id="Grupo_1665" data-name="Grupo 1665" transform="translate(270.894 87.289)">
    <path id="Caminho_897" data-name="Caminho 897" d="M2979.154,5523.33a77.208,77.208,0,0,1-4.229-26.1,13.18,13.18,0,0,1,.737-4.9c1.975-4.775,8.075-5.957,13.217-6.467a61.287,61.287,0,0,1,8.031-32.625c5.378-9.375,13.2-17.2,21.994-23.482,25.932-18.542,61.053-23.481,91.093-12.811s54.176,36.658,62.6,67.4c4.018,14.664,4.621,30.032,4.686,45.237.066,15.337-.67,31.611-9.191,44.363-10.727,16.055-30.892,22.452-49.635,27.091-14.691,3.637-29.607,6.885-44.739,7.11s-30.631-2.749-43.464-10.772c-4.421-2.765-8.718-6.19-13.881-6.916-6.08-.854-12.167,2.238-18.27,1.573-5.526-.6-10.249-4.187-14.261-8.033-5.433-5.208-10.231-11.282-12.806-18.354s-2.726-15.251.761-21.92c1.407-2.69,3.357-5.076,4.687-7.806a19.683,19.683,0,0,0,1.339-13.459" transform="translate(-2968.527 -5410.756)" fill="#fefff0"/>
    <path id="Caminho_898" data-name="Caminho 898" d="M3089.4,5606.521a135.342,135.342,0,0,1-16.532,1.332c-16.879.251-32.021-3.505-43.79-10.864-.823-.514-1.643-1.052-2.463-1.59-3.5-2.295-7.111-4.668-11.184-5.24-3.014-.424-5.994.147-9.149.753a30.815,30.815,0,0,1-9.1.822c-6.061-.66-10.991-4.727-14.61-8.2-6.4-6.13-10.634-12.209-12.955-18.582-2.849-7.824-2.559-15.989.794-22.4.672-1.285,1.469-2.508,2.241-3.692a38.651,38.651,0,0,0,2.439-4.1,19.163,19.163,0,0,0,1.3-13.046l.022-.042c-2.67-8.125-3.043-16.782-2.941-25.343a13.655,13.655,0,0,1,.783-5.126c2.019-4.885,7.985-6.219,13.153-6.775a62.324,62.324,0,0,1,8.129-32.386c5.049-8.8,12.506-16.766,22.165-23.671a100.007,100.007,0,0,1,154.619,54.922c3.8,13.882,4.634,28.187,4.708,45.393.064,14.8-.6,31.685-9.292,44.7-10.53,15.761-30.249,22.455-49.989,27.34A275.357,275.357,0,0,1,3089.4,5606.521Zm-79.585-17.439a20.857,20.857,0,0,1,5.781-.109c4.34.609,8.069,3.057,11.675,5.424.813.535,1.625,1.067,2.441,1.577,11.573,7.236,26.489,10.928,43.137,10.681,15.657-.233,31.233-3.783,44.6-7.092,18.171-4.5,38.462-10.652,49.281-26.843,8.508-12.732,9.153-29.4,9.09-44.027-.074-17.111-.9-31.326-4.665-45.083a98.811,98.811,0,0,0-152.769-54.263c-9.518,6.8-16.86,14.641-21.823,23.292a61.088,61.088,0,0,0-7.952,32.306l.022.563-.56.055c-4.955.491-10.875,1.626-12.723,6.1a12.662,12.662,0,0,0-.692,4.683c-.1,8.833.083,16.745,2.973,25.1l.176,1.162a20.411,20.411,0,0,1-1.65,12.686,39.579,39.579,0,0,1-2.511,4.228c-.756,1.16-1.538,2.359-2.183,3.592-3.2,6.116-3.465,13.93-.731,21.438,2.258,6.2,6.4,12.126,12.659,18.127,3.482,3.338,8.21,7.248,13.912,7.87a29.976,29.976,0,0,0,8.748-.808C3007.294,5589.5,3008.549,5589.257,3009.814,5589.082Z" transform="translate(-2967.665 -5409.862)"/>
  </g>
  <g id="Grupo_1666" data-name="Grupo 1666" transform="translate(291.459 97.98)">
    <path id="Caminho_899" data-name="Caminho 899" d="M3018.393,5536.216c2.157.914,4.731-.479,5.948-2.483s1.419-4.437,1.617-6.771c1.247-14.724,3.541-29.6,9.743-43.008a79.973,79.973,0,0,1,60.011-44.749c25.742-3.728,54.191,5.419,70.24,25.886,17.924,22.859,19.341,51.9,25.066,79.58,0,0,4.694,19.882-5.894,22.421-18.269,4.384-31.281,8.156-49.96,10.161-11.133,1.195-22.424,1.82-33.166,4.98s-21.121,9.234-26.841,18.86c.329-9.325-6.518-17.178-12.986-23.9-1.78-1.851-3.673-3.765-6.126-4.525s-5.61.1-6.53,2.5c-2.2-8.5-4.923-17.029-9.864-24.29s-12.407-13.195-21.086-14.547" transform="translate(-3017.926 -5437.253)" fill="#071f56"/>
    <path id="Caminho_900" data-name="Caminho 900" d="M3073.136,5604.123l.166-4.677c.311-8.793-6.081-16.2-12.654-23.029-1.588-1.651-3.387-3.521-5.617-4.211-1.851-.573-4.382.019-5.059,1.783l-1.34,3.49-.936-3.619c-2.1-8.1-4.723-16.61-9.7-23.917-5.051-7.423-12.064-12.435-19.365-13.876a4.82,4.82,0,0,1-.707-.128l-.209-.034,0-.025a4.757,4.757,0,0,1-.458-.168l.767-1.811.056-.362.091.014.019-.045a2.288,2.288,0,0,0,.25.089c.178.031.355.063.533.1a4.354,4.354,0,0,0,3.674-2.188c1.068-1.758,1.261-4.035,1.446-6.237,1.135-13.4,3.191-29.025,9.851-43.424,11.021-23.835,34.936-41.668,60.925-45.432.146-.022.3-.042.442-.062,25.866-3.584,53.635,6.726,70.869,26.343,17.1,19.461,17.986,44.645,23.935,73.277,1.312,6.312,2.8,13.465,2.433,20.535a10.342,10.342,0,0,1-1.8,6.028c-1.5,1.895-3.748,2.659-6.117,3.336-18.276,5.224-31.5,8.979-50.016,10.965-2.055.221-4.116.422-6.177.624-8.911.87-18.125,1.77-26.778,4.315-11.927,3.509-21.213,10.017-26.15,18.323Zm-20.628-34.453a7.547,7.547,0,0,1,3.231.248c2.82.873,4.935,3.072,6.635,4.838,5.778,6.006,11.871,12.982,13.106,21.122,5.546-7.387,14.468-13.145,25.521-16.4,8.871-2.61,18.2-3.521,27.221-4.4,2.054-.2,4.107-.4,6.155-.622,18.376-1.973,31.469-5.7,49.614-10.887,1.977-.566,3.84-1.183,4.9-2.52a8.268,8.268,0,0,0,1.283-4.667c.348-6.76-1.1-13.754-2.386-19.924-5.879-28.292-6.68-53.161-23.391-72.184s-43.653-29.028-68.74-25.552l-.429.061c-25.208,3.651-48.405,20.948-59.1,44.067-6.5,14.062-8.52,29.429-9.636,42.606-.2,2.377-.428,5.055-1.788,7.292a7.27,7.27,0,0,1-1.833,2.009c6.512,2.311,12.572,7.168,17.109,13.837,4.688,6.888,7.42,14.991,9.414,22.326A6.573,6.573,0,0,1,3052.507,5569.67Z" transform="translate(-3017.266 -5435.649)"/>
  </g>
  <g id="Grupo_1667" data-name="Grupo 1667" transform="translate(456.451 249.49)">
    <path id="Caminho_901" data-name="Caminho 901" d="M3482.35,5908.135a25,25,0,0,1-9.207-12.285,7.415,7.415,0,0,0-1.882-3.564,7.91,7.91,0,0,0-3.758-1.193,14.041,14.041,0,0,1-9.624-6.216,10.071,10.071,0,0,1,.344-11.107c-14.83,1.648-29.716-10.871-30.633-25.764-6.9-.52-10.628-8.56-10.911-15.472-.54-13.153,7.719-27.167,22.149-29.964,8.158,2.8,16.416,5.652,23.61,10.412s13.329,11.715,15.261,20.121c.7,3.062.879,6.347,2.519,9.026,1.35,2.2,3.543,3.735,5.3,5.634a17.72,17.72,0,0,1,4.321,15.066,5.892,5.892,0,0,0-.148,2.8c.5,1.621,2.377,2.274,3.964,2.871a25,25,0,0,1,15.3,17.565c.789,3.486.858,7.257,2.739,10.295,1.413,2.282,3.718,3.909,5.095,6.213s1.3,5.939-1.157,7.008a6.369,6.369,0,0,1-3.052.256l-29.963-2.368" transform="translate(-3416.057 -5801.951)" fill="#fefff0"/>
    <path id="Caminho_902" data-name="Caminho 902" d="M3513.882,5909.566a10.14,10.14,0,0,1-2.194-.007l-29.963-2.368.021-.268-.583.83a25.586,25.586,0,0,1-9.429-12.582l-.131-.387a6.146,6.146,0,0,0-1.564-2.908,6.011,6.011,0,0,0-2.9-.969c-.2-.032-.391-.064-.583-.1a14.68,14.68,0,0,1-10.033-6.5,10.828,10.828,0,0,1-.328-10.714,29.475,29.475,0,0,1-30.007-25.92c-6.8-.871-10.646-8.61-10.949-15.992-.517-12.6,7.24-27.592,22.633-30.576l.156-.031.151.052c8.084,2.777,16.444,5.649,23.746,10.479,8.217,5.434,13.727,12.709,15.515,20.487.19.827.343,1.677.492,2.5a13.352,13.352,0,0,0,5.213,9.965c.659.613,1.341,1.247,1.967,1.923a18.351,18.351,0,0,1,4.469,15.584l-.063.322a4.615,4.615,0,0,0-.1,2.189c.395,1.284,2.012,1.891,3.44,2.425l.162.062a25.757,25.757,0,0,1,15.676,17.993c.228,1.007.4,2.044.562,3.047.42,2.565.817,4.989,2.1,7.064a18.863,18.863,0,0,0,2.436,2.948,19.377,19.377,0,0,1,2.664,3.273,6.89,6.89,0,0,1,.717,5.4,3.874,3.874,0,0,1-2.149,2.469A4.393,4.393,0,0,1,3513.882,5909.566ZM3481.819,5906l29.963,2.368a5.947,5.947,0,0,0,2.767-.208,2.671,2.671,0,0,0,1.486-1.737,5.727,5.727,0,0,0-.6-4.416,18.163,18.163,0,0,0-2.507-3.064,20.106,20.106,0,0,1-2.582-3.14c-1.41-2.276-1.845-4.933-2.265-7.5-.162-.987-.329-2.006-.549-2.977a24.535,24.535,0,0,0-14.93-17.137l-.162-.061c-1.6-.6-3.6-1.348-4.164-3.195a5.639,5.639,0,0,1,.072-2.772l.061-.312a17.136,17.136,0,0,0-4.173-14.549c-.594-.643-1.258-1.261-1.9-1.858a14.476,14.476,0,0,1-5.577-10.629c-.146-.808-.3-1.645-.48-2.443-1.719-7.477-7.049-14.493-15.008-19.757-7.13-4.716-15.356-7.556-23.322-10.292-14.633,2.928-22,17.268-21.509,29.322.282,6.866,4.008,14.42,10.359,14.9l.52.04.032.521a28.162,28.162,0,0,0,29.969,25.206l1.412-.157-.874,1.121a9.408,9.408,0,0,0-.3,10.429,13.475,13.475,0,0,0,9.216,5.937c.188.033.377.064.567.1a6.973,6.973,0,0,1,3.465,1.224,7.113,7.113,0,0,1,1.942,3.455l.127.379a24.378,24.378,0,0,0,8.9,11.926Z" transform="translate(-3415.214 -5801.078)"/>
  </g>
  <g id="Grupo_1668" data-name="Grupo 1668" transform="translate(333.03 251.658)">
    <path id="Caminho_903" data-name="Caminho 903" d="M3256.057,5811.1c-39.513,19.426-85.563,17.606-129.519,20.146-2.313.134-4.9.414-6.376,2.2-1.391,1.686-1.289,4.112-1.061,6.286,3.719,35.473,21.582,68.491,45.829,94.648,4.935,5.324,10.914,10.743,18.173,10.834,5.927.073,11.2-3.444,16.364-6.355,21.8-12.286,47.5-15.291,72.477-16.8,13.7-.828,27.739-1.35,40.432-6.56.213-14.547-11.674-25.96-21.886-36.323a272.609,272.609,0,0,1-19.2-21.674c-10.43-13.118-20.011-28.366-19.761-45.123" transform="translate(-3118.371 -5809.115)" fill="#fefff0"/>
    <path id="Caminho_904" data-name="Caminho 904" d="M3184.657,5942.856a16.026,16.026,0,0,1-2.4.153c-7.474-.092-13.6-5.625-18.6-11.025-26.194-28.259-42.525-62-45.985-94.993-.256-2.435-.288-4.935,1.194-6.729,1.619-1.96,4.358-2.276,6.8-2.417,7.531-.436,15.258-.748,22.73-1.05,34.551-1.4,70.221-2.843,101.693-16.766,0-.154,1.337-.993,1.339-1.147l.82-.507c1.3-.586-.156,1.874,5.581-2.068l-2.345,2.526q-2.084,1.025-4.194,1.972c.236,16.954,10.572,32.127,19.632,43.52a273.055,273.055,0,0,0,19.159,21.627l1.238,1.254c9.856,9.977,21.028,21.284,20.82,35.5l-.005.395-.366.15c-11.971,4.915-25.195,5.694-37.982,6.446l-2.642.157c-24.751,1.5-50.631,4.557-72.219,16.726-.621.35-1.244.709-1.87,1.069C3193.123,5939.913,3189.078,5942.243,3184.657,5942.856ZM3123.8,5829.215a6.093,6.093,0,0,0-4.013,1.81c-1.261,1.526-1.14,3.815-.928,5.842,3.433,32.741,19.653,66.233,45.672,94.3,4.833,5.213,10.72,10.555,17.742,10.642,5.046.064,9.692-2.613,14.184-5.2.628-.362,1.255-.723,1.879-1.075,21.8-12.287,47.843-15.372,72.735-16.877l2.643-.157c12.557-.739,25.54-1.5,37.229-6.209-.014-13.53-10.88-24.529-20.478-34.244l-1.238-1.254a273.916,273.916,0,0,1-19.243-21.723c-9.09-11.43-19.447-26.633-19.882-43.739-31.561,13.824-67.163,15.264-101.658,16.66-7.467.3-15.188.614-22.709,1.049C3125.1,5829.078,3124.441,5829.126,3123.8,5829.215Z" transform="translate(-3117.531 -5806.307)"/>
  </g>
  <g id="Grupo_1671" data-name="Grupo 1671" transform="translate(447.576 345.662)">
    <g id="Grupo_1669" data-name="Grupo 1669" transform="translate(0.59 0.598)">
      <path id="Caminho_905" data-name="Caminho 905" d="M3400.377,6072.112c-3.544-5.74-7.154-12.973-3.83-18.843,1.486-2.623,4.109-4.371,6.668-5.965,11.474-7.149,24.321-13.392,37.826-12.783a20.8,20.8,0,0,1,7.386,1.485c4.019,1.749,6.985,5.263,9.433,8.9a66.348,66.348,0,0,1,7.06,13.7,4.33,4.33,0,0,1,.393,2.368c-.341,1.608-2.217,2.292-3.814,2.685a316.879,316.879,0,0,1-61.507,8.851" transform="translate(-3395.232 -6034.48)" fill="#071f56"/>
    </g>
    <g id="Grupo_1670" data-name="Grupo 1670">
      <path id="Caminho_906" data-name="Caminho 906" d="M3428.561,6069.57c-9.751,1.351-19.563,2.25-29.376,2.688l-.034-.749-.117.072c-3.608-5.843-7.3-13.335-3.841-19.452,1.533-2.707,4.125-4.468,6.872-6.179,10.169-6.336,23.7-13.525,38.17-12.872a21.045,21.045,0,0,1,7.6,1.534c4.457,1.938,7.521,5.889,9.692,9.113a66.878,66.878,0,0,1,7.122,13.821,4.827,4.827,0,0,1,.418,2.7c-.419,1.981-2.63,2.742-4.256,3.143A317.618,317.618,0,0,1,3428.561,6069.57Zm-28.627,1.456a316.874,316.874,0,0,0,60.588-8.8c2.087-.514,3.158-1.222,3.371-2.229a3.817,3.817,0,0,0-.368-2.033,65.7,65.7,0,0,0-7-13.573c-2.08-3.09-5-6.869-9.176-8.684a19.922,19.922,0,0,0-7.174-1.437c-14.145-.638-27.461,6.448-37.484,12.692-2.611,1.626-5.069,3.291-6.463,5.753-3.155,5.571.384,12.669,3.818,18.233Z" transform="translate(-3393.808 -6033.038)"/>
    </g>
  </g>
  <g id="Grupo_1672" data-name="Grupo 1672" transform="translate(369.293 295.204)">
    <path id="Caminho_907" data-name="Caminho 907" d="M3209.183,5946.132a95.031,95.031,0,0,1-2.708-19.655l56.618-12.745c3.08-.693,6.3-1.386,9.357-.594s5.846,3.575,5.846,6.759c4.286,16.533,6.119,31.825,7.954,47.363-8.742,1.482-16.61,2.841-24.531,5.954s-17.745,4.635-24.281-.814c-2.8-2.33-4.565-5.625-6.608-8.635a50.681,50.681,0,0,0-21.017-17.656" transform="translate(-3205.861 -5912.185)" fill="#3564da"/>
    <path id="Caminho_908" data-name="Caminho 908" d="M3251.588,5975.491c-5.2.72-10.936.242-15.4-3.48a28.779,28.779,0,0,1-5.422-6.783c-.429-.664-.858-1.326-1.3-1.977a53.219,53.219,0,0,0-21.638-17.883l.937-.674a52.173,52.173,0,0,1,21.692,17.885c.446.657.879,1.328,1.312,2a27.922,27.922,0,0,0,5.183,6.513c7.11,5.928,17.888,2.994,23.68.718,1.685-.662,3.4-1.4,5.059-2.117a50.509,50.509,0,0,1,19.768-3.982c-3.278-21.385-4.683-32-8.628-46.607,0-3.045-2.747-5.545-5.4-6.232-2.983-.772-6.22-.044-9.075.6l-56.135,12.637a94.635,94.635,0,0,0,2.674,19.037l-1.162.286a95.73,95.73,0,0,1-2.725-19.78l-.016-.494,57.1-12.854c2.987-.672,6.375-1.435,9.638-.589,3.051.79,6.294,3.63,6.294,7.339a304.266,304.266,0,0,0,7.664,45.976l.193.778-.892.218c-6.724,1.659-12.743,2.148-18.825,4.77-1.668.72-3.392,1.463-5.1,2.132A42.5,42.5,0,0,1,3251.588,5975.491Z" transform="translate(-3204.994 -5911.337)"/>
  </g>
  <g id="Grupo_1673" data-name="Grupo 1673" transform="translate(373.746 311.794)">
    <path id="Caminho_909" data-name="Caminho 909" d="M3221.963,5955.7a43.964,43.964,0,0,0-6.227-3.242l.466-1.1a45.116,45.116,0,0,1,6.4,3.33Z" transform="translate(-3215.736 -5951.351)"/>
  </g>
  <g id="Grupo_1674" data-name="Grupo 1674" transform="translate(501.478 271.322)">
    <path id="Caminho_910" data-name="Caminho 910" d="M3524.5,5865.584a.6.6,0,0,1-.509-1.013l10.505-10.658a.6.6,0,0,1,.853.841l-10.5,10.657A.593.593,0,0,1,3524.5,5865.584Z" transform="translate(-3523.814 -5853.736)"/>
  </g>
  <g id="Grupo_1675" data-name="Grupo 1675" transform="translate(516.836 307.952)">
    <path id="Caminho_911" data-name="Caminho 911" d="M3562.888,5951.921a2.4,2.4,0,0,1-.365.025,2.056,2.056,0,0,1-1.493-.618.6.6,0,1,1,.851-.84.853.853,0,0,0,.645.261,3.838,3.838,0,0,0,2.321-1.278,57.861,57.861,0,0,0,6.039-7.137.6.6,0,1,1,.974.7,59.088,59.088,0,0,1-6.164,7.285A5.6,5.6,0,0,1,3562.888,5951.921Z" transform="translate(-3560.857 -5942.084)"/>
  </g>
  <g id="Grupo_1676" data-name="Grupo 1676" transform="translate(381.319 302.346)">
    <path id="Caminho_912" data-name="Caminho 912" d="M3269.545,5986.189a31.939,31.939,0,0,1-7.852.17l.081-.743-.084.071c-1.248-1.487-3.111-2.206-5.084-2.967a15.085,15.085,0,0,1-5.057-2.734,13.825,13.825,0,0,1-3.7-5.8c-.333-.955-1.2-1.785-1.61-2.692a13.23,13.23,0,0,0-4.8-6.088c-.162-.109-.326-.216-.49-.322-.785-.51-1.387-1.965-1.976-2.767a7.885,7.885,0,0,1-1.169-3.158l-3.8-18.142.542-.149c22.645-6.239,40.236-10,57.033-12.2a3.412,3.412,0,0,1,4.507,3.4c2.764,14.518,5.075,29.31,6.87,43.966l.071.584-.583.082c-5.6.784-11.12,2.806-16.461,4.759S3275.156,5985.412,3269.545,5986.189Zm-7.29-.977c7.951.736,15.416-2,23.313-4.885,5.217-1.909,10.606-3.88,16.124-4.735-1.781-14.441-4.064-29.008-6.786-43.309a3.333,3.333,0,0,0-1.051-2.268,3.288,3.288,0,0,0-2.126-.17c-16.6,2.179-34,5.887-56.328,12.021l3.57,17.041a6.891,6.891,0,0,0,.961,2.694c.461.626.795,2.027,1.522,2.5.17.11.34.221.507.333a16.664,16.664,0,0,1,5.842,6.909c.436.958.79,1.972,1.132,2.952a10.932,10.932,0,0,0,3.43,4.813,14,14,0,0,0,4.671,2.493c2.028.781,4.124,1.59,5.569,3.313Z" transform="translate(-3234 -5928.563)"/>
  </g>
  <g id="Grupo_1699" data-name="Grupo 1699" transform="translate(291.926 99.165)">
    <g id="Grupo_1698" data-name="Grupo 1698" clip-path="url(#clip-path)">
      <g id="Grupo_1697" data-name="Grupo 1697" transform="translate(29.524 46.164)">
        <g id="Grupo_1679" data-name="Grupo 1679" transform="translate(101.413 26.09)">
          <g id="Grupo_1677" data-name="Grupo 1677" transform="translate(0.93 0.93)">
            <circle id="Elipse_35" data-name="Elipse 35" cx="12.589" cy="12.589" r="12.589" fill="#e87064"/>
          </g>
          <g id="Grupo_1678" data-name="Grupo 1678">
            <path id="Caminho_913" data-name="Caminho 913" d="M3339.867,5637.3a13.518,13.518,0,1,1,21.189-13.227h0a13.511,13.511,0,0,1-21.189,13.227Zm19.356-12.921a11.66,11.66,0,1,0-2.012,8.695,11.674,11.674,0,0,0,2.012-8.695Z" transform="translate(-3334.202 -5612.775)"/>
          </g>
        </g>
        <g id="Grupo_1682" data-name="Grupo 1682" transform="translate(0 46.201)">
          <g id="Grupo_1680" data-name="Grupo 1680" transform="translate(0.932 0.93)">
            <circle id="Elipse_36" data-name="Elipse 36" cx="12.589" cy="12.589" r="12.589" fill="#e87064"/>
          </g>
          <g id="Grupo_1681" data-name="Grupo 1681">
            <path id="Caminho_914" data-name="Caminho 914" d="M3095.27,5685.8a13.519,13.519,0,1,1,21.189-13.227h0a13.511,13.511,0,0,1-21.189,13.227Zm19.356-12.921a11.661,11.661,0,1,0-2.011,8.694,11.673,11.673,0,0,0,2.011-8.694Z" transform="translate(-3089.603 -5661.282)"/>
          </g>
        </g>
        <g id="Grupo_1685" data-name="Grupo 1685" transform="translate(16.633)">
          <g id="Grupo_1683" data-name="Grupo 1683" transform="translate(0.578 0.916)">
            <path id="Caminho_915" data-name="Caminho 915" d="M3177.793,5552.277c15.957-.868,33.43,1.22,39.211,18.409,2.741,7.5,3.206,15.969,6.263,23.413,2.59,6.84,7.19,12.911,8.615,20.169,2.2,12.31-6.671,23.739-15.532,32.235-7.661,7.186-18.483,10.957-28.962,12.13-22.7,1.993-47.8-6.188-51.446-30.012-1.043-5.5-1.634-11.126-2.54-16.659-1.575-10.043-3.491-20.351-1.3-30.4,4.328-21.486,26.817-26.355,45.386-29.5" transform="translate(-3131.115 -5552.058)" fill="#e87064"/>
          </g>
          <g id="Grupo_1684" data-name="Grupo 1684">
            <path id="Caminho_916" data-name="Caminho 916" d="M3170.235,5657.837a72.959,72.959,0,0,0,16.769.43c11.957-1.339,22.432-5.734,29.516-12.379,12.483-11.968,17.653-22.786,15.811-33.076-.9-4.584-3.024-8.708-5.079-12.7a75.014,75.014,0,0,1-3.581-7.639,70.744,70.744,0,0,1-3.365-12.287,81.169,81.169,0,0,0-2.893-11.115c-6.275-18.659-25.912-19.793-40.134-19.018l.1,1.855c13.618-.74,32.4.3,38.281,17.778a79.8,79.8,0,0,1,2.828,10.883,72.059,72.059,0,0,0,3.455,12.586,76.419,76.419,0,0,0,3.658,7.809c2,3.872,4.06,7.877,4.905,12.187,1.721,9.615-3.271,19.887-15.263,31.385-6.786,6.366-16.883,10.586-28.422,11.878-22.558,1.979-46.912-6.291-50.424-29.229-.616-3.249-1.079-6.575-1.528-9.793-.314-2.257-.639-4.591-1.013-6.875l-.326-2.06c-1.469-9.244-2.989-18.8-.982-28,4.084-20.276,24.289-25.336,44.634-28.782l-.31-1.832c-15.509,2.627-41.467,7.024-46.142,30.233-2.078,9.523-.531,19.257.965,28.67l.327,2.062c.371,2.27.7,4.592,1.007,6.838.452,3.239.918,6.589,1.537,9.85C3137.374,5645.853,3152.722,5655.289,3170.235,5657.837Z" transform="translate(-3129.721 -5549.849)"/>
          </g>
        </g>
        <g id="Grupo_1686" data-name="Grupo 1686" transform="translate(67.026 21.6)">
          <rect id="Retângulo_51" data-name="Retângulo 51" width="27.933" height="44.981" rx="13.966" transform="translate(34.955 44.368) rotate(170.527)" fill="#fefff0" stroke="#000" stroke-miterlimit="10" stroke-width="1"/>
        </g>
        <g id="Grupo_1687" data-name="Grupo 1687" transform="translate(35.184 26.515)">
          <rect id="Retângulo_52" data-name="Retângulo 52" width="31.015" height="46.227" rx="15.507" transform="matrix(-0.986, 0.165, -0.165, -0.986, 38.199, 45.596)" fill="#fefff0" stroke="#000" stroke-miterlimit="10" stroke-width="1"/>
        </g>
        <g id="Grupo_1690" data-name="Grupo 1690" transform="translate(85.271 45.268)">
          <g id="Grupo_1688" data-name="Grupo 1688" transform="translate(0.237 0.238)">
            <rect id="Retângulo_53" data-name="Retângulo 53" width="9.18" height="14.425" rx="4.59" transform="matrix(-0.986, 0.165, -0.165, -0.986, 11.429, 14.229)"/>
          </g>
          <g id="Grupo_1689" data-name="Grupo 1689">
            <path id="Caminho_917" data-name="Caminho 917" d="M3296.209,5670.635l-.864-5.174a5.519,5.519,0,1,1,10.887-1.816l.864,5.174a5.527,5.527,0,0,1-4.536,6.352h0a5.516,5.516,0,0,1-6.352-4.535Zm6.047,2.7a3.666,3.666,0,0,0,3.008-4.214l-.864-5.174a3.661,3.661,0,0,0-7.221,1.205l.863,5.174a3.664,3.664,0,0,0,4.214,3.009Z" transform="translate(-3295.27 -5659.032)"/>
          </g>
        </g>
        <g id="Grupo_1693" data-name="Grupo 1693" transform="translate(57.256 50.464)">
          <g id="Grupo_1691" data-name="Grupo 1691" transform="translate(0.237 0.238)">
            <rect id="Retângulo_54" data-name="Retângulo 54" width="9.18" height="14.425" rx="4.59" transform="translate(11.429 14.229) rotate(170.527)"/>
          </g>
          <g id="Grupo_1692" data-name="Grupo 1692">
            <path id="Caminho_918" data-name="Caminho 918" d="M3228.639,5683.168l-.863-5.174a5.519,5.519,0,1,1,10.887-1.816l.864,5.174a5.526,5.526,0,0,1-4.535,6.352h0a5.518,5.518,0,0,1-6.352-4.535Zm6.047,2.7a3.665,3.665,0,0,0,3.008-4.213l-.864-5.174a3.661,3.661,0,0,0-7.222,1.205l.863,5.174a3.664,3.664,0,0,0,4.214,3.009Z" transform="translate(-3227.7 -5671.565)"/>
          </g>
        </g>
        <g id="Grupo_1696" data-name="Grupo 1696" transform="translate(68.805 56.707)">
          <g id="Grupo_1694" data-name="Grupo 1694" transform="translate(0.886 0.929)">
            <path id="Caminho_919" data-name="Caminho 919" d="M3257.693,5698.309c6.162-19.513,23.147-4.785,9.926,8.192" transform="translate(-3257.693 -5688.861)" fill="#e87064"/>
          </g>
          <g id="Grupo_1695" data-name="Grupo 1695">
            <path id="Caminho_920" data-name="Caminho 920" d="M3267.019,5705.854c5.6-5.5,5.933-11.229,4.376-14.757a7,7,0,0,0-6.633-4.466c-1.842.1-6.426,1.286-9.206,10.088l1.772.559c1.712-5.419,4.459-8.624,7.536-8.792a5.1,5.1,0,0,1,4.831,3.361c1.306,2.961.948,7.847-3.977,12.682Z" transform="translate(-3255.556 -5686.621)"/>
          </g>
        </g>
      </g>
      <path id="Caminho_921" data-name="Caminho 921" d="M3244.073,5739.706c-17.444.819-25.947,1.164-36.558,1.681-3,25.678,40.656,22.32,36.686-1.72" transform="translate(-3129.017 -5614.802)" fill="#fefff0" stroke="#000" stroke-miterlimit="10" stroke-width="0.5"/>
    </g>
  </g>
  <g id="Grupo_1700" data-name="Grupo 1700" transform="translate(287.574 253.148)">
    <path id="Caminho_923" data-name="Caminho 923" d="M3017.578,5811.278c-4.65,2.3-7.489,7.895-8.168,13.646s.507,11.651,2.124,17.25a107.054,107.054,0,0,0,14.208,30.4c-2.748,1.212-4.353,4.556-4.687,7.906s.384,6.749,1.1,10.063c1.758,8.135,3.587,16.393,7.317,23.691s9.691,13.635,16.9,15.374c.545,14.616,11.377,27.065,23.5,32.5s25.389,5.308,38.258,5.105l18.668-.292c1.107-.017,2.355-.105,3.051-1.057a5.208,5.208,0,0,0,.572-3.1,44.839,44.839,0,0,1,6.572-24.015,14.937,14.937,0,0,0,2.41-4.889c.615-3.073-.878-6.259-2.613-8.821a34.328,34.328,0,0,0-9.4-9.39c-2.344-1.552-4.933-2.833-6.677-5.2a27.4,27.4,0,0,1-2.556-5.017c-5.4-11.882-16.782-20.109-28.4-20.52-.7-10.765-7.684-20.9-16.782-24.352-1.492-.565-3.287-1.245-3.7-2.962a5.136,5.136,0,0,1,.408-2.905c1.211-3.37,2.7-6.771,2.59-10.457-.216-7-5.911-12.153-11.053-16.224-5.764-4.562-12.182-9.341-19.047-8.694-3.339.314-6.488,1.922-9.844,2-6.32.144-11.817-5.013-16.633-9.864" transform="translate(-3008.668 -5810.707)" fill="#fefff0"/>
    <path id="Caminho_924" data-name="Caminho 924" d="M3127.262,5966.655a9.839,9.839,0,0,1-1.2.078l-18.667.292c-12.215.192-26.06.409-38.471-5.15-11.336-5.077-23.03-17.09-23.842-32.575-6.555-1.756-12.677-7.405-16.852-15.575-3.846-7.528-5.722-16.206-7.376-23.861-.686-3.172-1.463-6.768-1.114-10.283.29-2.912,1.6-6.45,4.38-8.071a107.222,107.222,0,0,1-13.877-29.969c-1.393-4.824-2.9-11.176-2.146-17.529.649-5.5,3.075-10.222,6.511-12.877l-.033-.032.711-.917.278.279a11.083,11.083,0,0,1,1.009-.565l.467,1.143q-.294.146-.582.313c4.615,4.545,9.572,8.657,15.075,8.532a21.2,21.2,0,0,0,5.216-1,26.653,26.653,0,0,1,4.594-.991c6.84-.645,13.087,3.8,19.416,8.808,5.739,4.544,11.081,9.715,11.3,16.729.1,3.32-1.03,6.378-2.125,9.335-.169.459-.339.917-.5,1.374a4.576,4.576,0,0,0-.389,2.508c.336,1.382,1.927,1.985,3.331,2.517,9.083,3.443,16.213,13.618,17.131,24.343,11.623.634,22.979,8.953,28.381,20.848.16.352.315.708.471,1.064a19.6,19.6,0,0,0,2.014,3.834,17.284,17.284,0,0,0,5.034,4.1c.5.313,1,.626,1.492.95a35.116,35.116,0,0,1,9.566,9.557c2.35,3.472,3.264,6.616,2.717,9.347a13.377,13.377,0,0,1-2.133,4.536l-.36.567a44.2,44.2,0,0,0-6.474,23.658,5.717,5.717,0,0,1-.695,3.491A3.151,3.151,0,0,1,3127.262,5966.655ZM3015.47,5812c-3.312,2.429-5.664,6.933-6.289,12.221-.721,6.1.743,12.276,2.1,16.972A105.8,105.8,0,0,0,3025.4,5871.4l.447.656-.662.292c-2.3,1.015-4.009,3.927-4.356,7.418-.328,3.295.424,6.775,1.088,9.845,1.637,7.572,3.492,16.154,7.256,23.521,4.1,8.029,10.127,13.52,16.529,15.063l.433.1.019.5c.565,15.145,12.029,26.946,23.14,31.923,12.205,5.467,25.934,5.251,38.046,5.062l18.668-.292c1.042-.017,2.1-.1,2.652-.842a4.67,4.67,0,0,0,.452-2.669,45.573,45.573,0,0,1,6.668-24.411l.365-.576a12.41,12.41,0,0,0,1.96-4.1c.471-2.351-.373-5.142-2.508-8.3a33.9,33.9,0,0,0-9.231-9.224c-.482-.319-.975-.626-1.468-.934a18.143,18.143,0,0,1-5.362-4.411,20.89,20.89,0,0,1-2.162-4.091c-.153-.351-.305-.7-.463-1.046-5.295-11.66-16.512-19.764-27.911-20.167l-.512-.018-.037-.58c-.676-10.439-7.57-20.441-16.392-23.786-1.6-.6-3.578-1.355-4.076-3.405a5.765,5.765,0,0,1,.428-3.3c.166-.461.336-.923.508-1.386,1.051-2.837,2.137-5.77,2.043-8.819-.2-6.452-5.312-11.367-10.808-15.717-6.151-4.87-12.209-9.19-18.68-8.581a25.753,25.753,0,0,0-4.427.96,22.365,22.365,0,0,1-5.451,1.04C3025.587,5821.267,3020.334,5816.822,3015.47,5812Z" transform="translate(-3007.895 -5809.9)"/>
  </g>
  <g id="Grupo_1701" data-name="Grupo 1701" transform="translate(304.077 306.48)">
    <path id="Caminho_925" data-name="Caminho 925" d="M3053.8,5945.987a23.913,23.913,0,0,1-5.564.124.6.6,0,0,1,.115-1.192,23.506,23.506,0,0,0,18.138-6.223.6.6,0,1,1,.822.87A24.743,24.743,0,0,1,3053.8,5945.987Z" transform="translate(-3047.699 -5938.534)"/>
  </g>
  <g id="Grupo_1702" data-name="Grupo 1702" transform="translate(323.426 362.591)">
    <path id="Caminho_926" data-name="Caminho 926" d="M3098.768,6080.789a24.655,24.655,0,0,1-3.812.23.6.6,0,1,1,.022-1.2,24.216,24.216,0,0,0,16.067-5.81.6.6,0,1,1,.781.906A25.468,25.468,0,0,1,3098.768,6080.789Z" transform="translate(-3094.368 -6073.867)"/>
  </g>
  <g id="Grupo_1703" data-name="Grupo 1703" transform="translate(401.319 328.689)">
    <path id="Caminho_927" data-name="Caminho 927" d="M3316.542,6068.613a284.844,284.844,0,0,1-24.39-33.814c-4.61-7.493-9-15.732-8.414-24.48s8.148-17.659,17.1-16.711c6.822.722,11.733,6.522,15.389,12.148a143.528,143.528,0,0,1,15.511,32.721c1.6,4.779,3,9.721,2.84,14.757s-2.1,10.241-6.144,13.415-10.4,3.727-14.319.464" transform="translate(-3283.086 -5992.942)" fill="#fd64e0"/>
    <path id="Caminho_928" data-name="Caminho 928" d="M3321.62,6068.941a11.258,11.258,0,0,1-8.738-2.21l.586-.7a286.5,286.5,0,0,1-22.673-31.755c-4.433-7.207-9.111-15.664-8.5-24.834a20.292,20.292,0,0,1,7-13.7,14.383,14.383,0,0,1,10.756-3.566c7.468.791,12.61,7.465,15.828,12.417a144.388,144.388,0,0,1,15.576,32.858c1.589,4.745,3.037,9.842,2.871,14.966-.187,5.783-2.51,10.837-6.373,13.867A13.262,13.262,0,0,1,3321.62,6068.941Zm-5.639-1.762a11.76,11.76,0,0,0,11.235-1.844c3.584-2.81,5.74-7.534,5.915-12.962.151-4.66-1.014-9.187-2.809-14.547a143.229,143.229,0,0,0-15.445-32.586c-3.085-4.747-7.992-11.142-14.951-11.879a13.145,13.145,0,0,0-9.859,3.292,19.056,19.056,0,0,0-6.577,12.864c-.587,8.819,3.99,17.078,8.326,24.127A285.1,285.1,0,0,0,3315.981,6067.18Z" transform="translate(-3282.24 -5992.1)"/>
  </g>
  <g id="Grupo_1704" data-name="Grupo 1704" transform="translate(497.832 312.779)">
    <path id="Caminho_929" data-name="Caminho 929" d="M3539.148,6016.491a231.826,231.826,0,0,1-17.244-28.573c-3.2-6.286-6.187-13.157-5.268-20.15s7.3-13.712,14.237-12.433c5.288.975,8.813,5.917,11.369,10.648a118.063,118.063,0,0,1,10.369,27.181c1,3.931,1.827,7.981,1.433,12.018s-2.181,8.1-5.511,10.42-8.316,2.392-11.2-.457" transform="translate(-3515.868 -5954.576)" fill="#fd64e0"/>
    <path id="Caminho_930" data-name="Caminho 930" d="M3543.594,6016.966a8.963,8.963,0,0,1-7.53-2.243l.505-.514a233.191,233.191,0,0,1-16.045-26.867c-3.084-6.06-6.295-13.141-5.327-20.5a16.409,16.409,0,0,1,6.4-10.792,10.942,10.942,0,0,1,8.542-2.153c5.844,1.078,9.526,6.767,11.787,10.953a118.828,118.828,0,0,1,10.423,27.318c.991,3.911,1.852,8.1,1.449,12.223-.456,4.668-2.558,8.623-5.764,10.854A10.268,10.268,0,0,1,3543.594,6016.966Zm-4.946-1.871a8.829,8.829,0,0,0,8.7-.834c2.918-2.028,4.833-5.668,5.257-9.986.363-3.722-.3-7.414-1.418-11.812a117.664,117.664,0,0,0-10.315-27.043c-2.145-3.97-5.612-9.36-10.951-10.346a9.874,9.874,0,0,0-7.622,1.945,15.174,15.174,0,0,0-5.914,9.979c-.923,7.021,2.2,13.9,5.208,19.8A231.74,231.74,0,0,0,3538.648,6015.095Z" transform="translate(-3515.022 -5953.727)"/>
  </g>
  <g id="Grupo_1707" data-name="Grupo 1707" transform="translate(407.418 355.726)">
    <g id="Grupo_1705" data-name="Grupo 1705" transform="translate(0.598 0.597)">
      <path id="Caminho_931" data-name="Caminho 931" d="M3451.887,6072.953c.435-4.3-2.238-8.487-5.868-10.834s-8.058-3.121-12.376-3.312a104.235,104.235,0,0,0-14.131.645q-41.5,3.812-82.9,8.635c-8.669,1.01-17.824,2.25-24.663,7.673-9.432,7.479-11.783,20.6-13.474,32.516-.137.959-.207,2.1.54,2.72a2.881,2.881,0,0,0,2.112.37,577.079,577.079,0,0,0,136.471-28.479c6.172-2.093,12.554-4.739,14.547-10.944" transform="translate(-3298.393 -6058.751)" fill="#071f56"/>
    </g>
    <g id="Grupo_1706" data-name="Grupo 1706">
      <path id="Caminho_932" data-name="Caminho 932" d="M3330.772,6107.722q-15.17,2.1-30.433,3.4a3.453,3.453,0,0,1-2.545-.5c-.958-.792-.917-2.1-.751-3.265,1.783-12.566,4.309-25.459,13.694-32.9,6.684-5.3,15.262-6.667,24.965-7.8,27.469-3.2,55.364-6.106,82.91-8.636a105.824,105.824,0,0,1,14.213-.646c5.422.241,9.45,1.324,12.674,3.408a13.283,13.283,0,0,1,6.054,8.787,5.776,5.776,0,0,1-.031,1.991h0c-.053.283-.223,1.049-.314,1.322-1.323,3.958-8.357,6.782-14.713,8.937C3402,6093.51,3366.851,6102.723,3330.772,6107.722Zm.663-39.332c-7.709,1.068-14.53,2.692-19.954,6.994-9.04,7.167-11.5,19.8-13.253,32.13-.12.843-.174,1.76.329,2.175a2.444,2.444,0,0,0,1.68.235,576.5,576.5,0,0,0,136.329-28.45c5.955-2.02,11.479-4.6,13.862-9.441l.02.015c.383-3.792-1.813-7.825-5.6-10.271-3.038-1.964-6.875-2.987-12.076-3.218a103.207,103.207,0,0,0-14.05.643c-27.537,2.53-55.422,5.434-82.881,8.634C3334.344,6068.012,3332.874,6068.191,3331.435,6068.39Z" transform="translate(-3296.95 -6057.31)"/>
    </g>
  </g>
  <g id="Grupo_1708" data-name="Grupo 1708" transform="translate(218.002 10.773)">
    <path id="Caminho_933" data-name="Caminho 933" d="M3053.332,5621.145c-27.72,3.841-56.188,5.648-84.082.872-41.879-7.17-76.59-29.878-92.874-60.756l-.071.035c-21.146-43.762-27.569-87.427-32.774-132.035-2.518-21.572-4.973-46.636-2.232-71.115,2.938-26.249,11.772-48.979,25.548-65.736,22.356-27.2,57.8-39.8,89.262-49.486,20.418-6.284,42.394-12.514,64.82-15.51a238.531,238.531,0,0,1,58.113-.621c14.587,1.635,25.966,4.364,35.809,8.591,15.994,6.867,30.317,18.815,42.57,35.515,10.048,13.692,18.675,30.3,26.375,50.771,24.01,63.84,31.6,132.791,37.835,203.717.912,10.365,1.945,22.113-2.238,32.677-6.231,15.745-22.617,24.829-34.4,30.292-32.658,15.144-68.168,22.139-101.741,28.006C3073.423,5618.077,3063.424,5619.745,3053.332,5621.145ZM2877.4,5560.627c16.1,30.588,50.51,53.1,92.058,60.211,37.86,6.481,76.875.758,113.592-5.658,33.5-5.854,68.918-12.83,101.444-27.912,11.6-5.377,27.718-14.3,33.792-29.646,4.077-10.3,4.561-26.029-3.6-32.263-135.948-103.78-18.659-131.151-42.147-199.806-16.234-47.455-36.122-26.9-68.059-43.709-11.863-6.244,16.546-33.717-5.932-39.337-18.751-4.687-25.485-4.436-44.644-1.873-22.309,2.99-44.372,6.9-64.937,12.488-57.444,15.609-92.429,10.521-97.406,35.59-4.178,21.05-46.15,43.549-49.063,69.566-2.727,24.355,24.075,9.457,26.585,30.962,5.188,44.466-12.766,127.866,8.256,171.422Z" transform="translate(-2840.095 -5225.313)" fill="#071f56"/>
  </g>
  <g id="Grupo_1715" data-name="Grupo 1715" transform="translate(324.465 113.495)">
    <g id="Grupo_1709" data-name="Grupo 1709" transform="translate(5.371)">
      <path id="Caminho_934" data-name="Caminho 934" d="M3152.065,5477.331s-41.3,10.5-39.65,42.154a66.192,66.192,0,0,0,.6,10.255s17.493-18.3,47.938-22.367c11.9-1.127,34.667-2.659,40.379,1.121l5.711,3.779s-1.812-22.723-17.7-29.356C3173.784,5476.524,3163.849,5473.348,3152.065,5477.331Z" transform="translate(-3111.314 -5474.535)" fill="#3564da"/>
      <path id="Caminho_935" data-name="Caminho 935" d="M3110.8,5530.567l-.306-2.143a66.564,66.564,0,0,1-.614-10.452c-1.654-31.584,38.839-42.7,40.4-43.117,12.415-4.183,23.1-.491,37.985,5.621,16.3,6.807,18.274,29.294,18.35,30.248l.172,2.156-7.515-4.973c-3.9-2.582-18.743-2.937-39.7-.951-29.656,3.961-47.1,21.865-47.276,22.046Zm50.277-55.412a31.248,31.248,0,0,0-10.157,1.709l-.077.023c-.406.1-40.447,10.665-38.858,41.078a59.213,59.213,0,0,0,.349,8.1,89.931,89.931,0,0,1,47-21.206c12.817-1.215,35.141-2.658,41.1,1.287l3.781,2.5c-.939-5.786-4.54-21.127-16.758-26.229C3176.987,5478.126,3168.99,5475.155,3161.073,5475.155Z" transform="translate(-3109.826 -5473.07)"/>
    </g>
    <g id="Grupo_1710" data-name="Grupo 1710" transform="translate(0 24.6)">
      <path id="Caminho_936" data-name="Caminho 936" d="M3105.708,5558.423s-8.284,4.344-5.87,11.181,5.632,9.25,5.954,13.513.242,5.711,5.028,5.026c3.74-1.971,21.112-21.117,54.654-23.614,7.923-.846,31.209-.728,37.685.357,2.654.482,2.976.724.4-7.239-.765-3.338,1.527-13.433,1.527-13.433s.683-5.269-4.1-6.6S3139.527,5525.722,3105.708,5558.423Z" transform="translate(-3098.35 -5533.891)" fill="#3564da"/>
      <path id="Caminho_937" data-name="Caminho 937" d="M3107.434,5587.87a4,4,0,0,1-2.642-.744c-1.2-.966-1.317-2.552-1.495-4.954l-.034-.463c-.156-2.067-1.072-3.649-2.341-5.84a41.469,41.469,0,0,1-3.556-7.4c-2.118-6,3.078-10.681,6.239-12.393,14.156-13.629,34.579-21.7,59.079-23.354,18.823-1.269,34.284,1.614,37.1,2.394,4.482,1.243,5.143,5.611,4.866,7.746-.64,2.841-2.128,10.518-1.545,13.063,1.858,5.733,2.212,7.193,1.361,8.164-.674.77-1.656.59-2.795.381l-.183-.033c-6.507-1.091-29.764-1.16-37.384-.347-27.5,2.048-43.944,15.35-50.966,21.03a26.25,26.25,0,0,1-3.308,2.47l-.161.085-.181.025A14.737,14.737,0,0,1,3107.434,5587.87Zm64.6-53.276c-20.185,0-47.487,4.159-67.074,23.1l-.242.174c-.306.162-7.446,4.012-5.367,9.9a39.184,39.184,0,0,0,3.392,7.047c1.3,2.248,2.427,4.19,2.619,6.737l.035.467c.132,1.786.227,3.075.713,3.467.39.313,1.335.364,2.886.156a34.678,34.678,0,0,0,2.818-2.159c7.175-5.8,23.979-19.4,52.1-21.49,7.688-.822,31.3-.744,37.936.368l.2.037c.242.044.518.1.737.124a48.726,48.726,0,0,0-1.712-6.037c-.82-3.56,1.261-12.932,1.5-13.989,0-.077.473-4.287-3.355-5.347A136.681,136.681,0,0,0,3172.037,5534.594Z" transform="translate(-3096.873 -5532.402)"/>
    </g>
    <g id="Grupo_1711" data-name="Grupo 1711" transform="translate(15.254 42.355)" opacity="0.51">
      <path id="Caminho_938" data-name="Caminho 938" d="M3138.967,5603.77c-7.2-7.689-5.013-27.695-4.917-28.542l1.048.12c-.024.2-2.231,20.369,4.639,27.7Z" transform="translate(-3133.664 -5575.227)" fill="#fff"/>
    </g>
    <g id="Grupo_1712" data-name="Grupo 1712" transform="translate(36.596 32.162)" opacity="0.51">
      <path id="Caminho_939" data-name="Caminho 939" d="M3189.585,5577.692c-1.125-3.852-4.311-25.961-4.446-26.9l1.043-.15c.033.229,3.311,22.974,4.414,26.755Z" transform="translate(-3185.139 -5550.642)" fill="#fff"/>
    </g>
    <g id="Grupo_1713" data-name="Grupo 1713" transform="translate(63.638 26.211)" opacity="0.51">
      <path id="Caminho_940" data-name="Caminho 940" d="M3257.6,5564.026l-1.051-.069c.351-5.353-6.119-27.147-6.185-27.367l1.01-.3C3251.64,5537.193,3257.961,5558.485,3257.6,5564.026Z" transform="translate(-3250.361 -5536.29)" fill="#fff"/>
    </g>
    <g id="Grupo_1714" data-name="Grupo 1714" transform="translate(87.004 26.899)" opacity="0.51">
      <path id="Caminho_941" data-name="Caminho 941" d="M3313.009,5565.042l-1.024-.25c.832-3.424-3.081-18.868-5.266-26.556l1.013-.288C3307.992,5538.866,3314.113,5560.494,3313.009,5565.042Z" transform="translate(-3306.718 -5537.948)" fill="#fff"/>
    </g>
  </g>
  <g id="Grupo_1716" data-name="Grupo 1716" transform="translate(328.721 199.578)">
    <path id="Caminho_942" data-name="Caminho 942" d="M3111.431,5691.094a14.245,14.245,0,0,1-3.911-.543.527.527,0,0,1-.361-.651.52.52,0,0,1,.651-.361,13.315,13.315,0,0,0,7.3-.017,1.5,1.5,0,0,0,.491-.208,1.347,1.347,0,0,0,.334-.516,6.124,6.124,0,0,0,.119-4.572,4.1,4.1,0,0,0-1.637-2.114,2.358,2.358,0,0,0-2.382-.069,1.24,1.24,0,0,0-.559,1.5c.379.665,1.546.563,2.462.359a.527.527,0,1,1,.229,1.028c-1.833.409-3.046.116-3.606-.867a2.274,2.274,0,0,1,.913-2.91,3.379,3.379,0,0,1,3.479.053,5.12,5.12,0,0,1,2.087,2.65,7.179,7.179,0,0,1-.14,5.365,2.287,2.287,0,0,1-.647.922,2.423,2.423,0,0,1-.849.392A14.255,14.255,0,0,1,3111.431,5691.094Z" transform="translate(-3107.139 -5680.695)"/>
  </g>
  <g id="Grupo_1717" data-name="Grupo 1717" transform="translate(431.901 182.069)">
    <path id="Caminho_943" data-name="Caminho 943" d="M3361.7,5648.777a7.121,7.121,0,0,1-2.585-.482,5.12,5.12,0,0,1-2.626-2.119,3.377,3.377,0,0,1-.014-3.479,2.277,2.277,0,0,1,2.922-.878c.977.57,1.255,1.788.824,3.616a.527.527,0,1,1-1.025-.241c.214-.911.332-2.079-.33-2.465a1.244,1.244,0,0,0-1.506.541,2.35,2.35,0,0,0,.042,2.383,4.089,4.089,0,0,0,2.1,1.662,6.114,6.114,0,0,0,4.572-.067,1.347,1.347,0,0,0,.52-.329,1.471,1.471,0,0,0,.213-.488,13.324,13.324,0,0,0,.1-7.3.527.527,0,0,1,1.017-.278,14.382,14.382,0,0,1-.109,7.884,2.415,2.415,0,0,1-.4.844,2.3,2.3,0,0,1-.93.637A7.144,7.144,0,0,1,3361.7,5648.777Z" transform="translate(-3356 -5638.465)"/>
  </g>
  <g id="Grupo_1718" data-name="Grupo 1718" transform="translate(274.08 204.251)">
    <path id="Caminho_944" data-name="Caminho 944" d="M2977.068,5711.623a15.221,15.221,0,0,1,18.016-17.925,19.97,19.97,0,0,1,8.813,4.638c10.811,9.333,13.067,26.027,8.149,39.435a24.216,24.216,0,0,1-4.894,8.487c-2.96,3.112-7.039,4.935-11.176,6.086a11.4,11.4,0,0,1-6.2.389,10.072,10.072,0,0,1-4.767-3.574c-4.189-5.182-5.8-11.958-6.778-18.547a130.738,130.738,0,0,1-1.422-19.762" transform="translate(-2976.186 -5692.802)" fill="#fefff0"/>
    <path id="Caminho_945" data-name="Caminho 945" d="M2992.634,5752.665a9.207,9.207,0,0,1-3.86-.194,10.486,10.486,0,0,1-5.064-3.773c-4.429-5.478-5.976-12.6-6.9-18.835a131.671,131.671,0,0,1-1.428-19.853h.115a15.816,15.816,0,0,1,18.876-17.735,20.373,20.373,0,0,1,9.083,4.771c10.3,8.889,13.718,25.376,8.319,40.094a24.347,24.347,0,0,1-5.022,8.694c-2.667,2.8-6.413,4.849-11.449,6.249A20.473,20.473,0,0,1,2992.634,5752.665Zm-16.061-41.949a130.4,130.4,0,0,0,1.415,18.971c.905,6.08,2.4,13,6.652,18.258a9.358,9.358,0,0,0,4.469,3.377,10.948,10.948,0,0,0,5.868-.392c4.823-1.341,8.389-3.278,10.9-5.921a23.213,23.213,0,0,0,4.766-8.281c5.231-14.26,1.951-30.2-7.978-38.776a19.2,19.2,0,0,0-8.544-4.5,14.622,14.622,0,0,0-17.307,17.219Z" transform="translate(-2975.349 -5691.965)"/>
  </g>
  <g id="Grupo_1719" data-name="Grupo 1719" transform="translate(266.92 208.832)">
    <path id="Caminho_946" data-name="Caminho 946" d="M2964.73,5708.313c5.881-5.339,15.6-4.925,22-.227s9.7,12.787,10.11,20.72c.33,6.331-1.088,12.928-4.961,17.946s-10.443,8.156-16.671,6.972c-6.28-1.195-11.2-6.486-13.5-12.45s-2.39-12.539-2.025-18.921c.327-5.722,1.506-12.264,6.452-15.159" transform="translate(-2958.927 -5703.846)" fill="#071f56"/>
    <path id="Caminho_947" data-name="Caminho 947" d="M2979.189,5753.581a15.25,15.25,0,0,1-4.935-.1c-5.986-1.139-11.33-6.052-13.946-12.821-2.426-6.279-2.4-13.215-2.064-19.172.3-5.187,1.318-12.448,6.731-15.631,5.909-4.063,14.867-3.78,21.266.917,6.023,4.42,9.894,12.333,10.354,21.17.369,7.1-1.436,13.616-5.085,18.343A19.207,19.207,0,0,1,2979.189,5753.581Zm-14.96-45.719c-3.747,3.263-4.537,9.269-4.789,13.693-.334,5.83-.359,12.606,1.985,18.672,2.467,6.387,7.469,11.015,13.053,12.077,5.672,1.079,12.136-1.633,16.084-6.749,3.474-4.5,5.192-10.733,4.837-17.55-.442-8.481-4.131-16.058-9.867-20.268-6.524-4.789-15.858-4.706-21.247.187Z" transform="translate(-2958.08 -5703.014)"/>
  </g>
</svg>
