<svg xmlns="http://www.w3.org/2000/svg" width="449.043" height="448.666" viewBox="0 0 449.043 448.666">
  <g id="earth" transform="translate(-2488.263 -3053.674)">
    <g id="Elipse_41" data-name="Elipse 41" transform="translate(2488.263 3053.674)" fill="#3564da" stroke="#000" stroke-width="2">
      <circle cx="224.333" cy="224.333" r="224.333" stroke="none"/>
      <circle cx="224.333" cy="224.333" r="223.333" fill="none"/>
    </g>
    <path id="Caminho_1110" data-name="Caminho 1110" d="M11.963,52.036C3.731,60.578-1.091,71.968.211,82.924c1.042,8.771,13.872,3.607,18.87,3.668,3.853-.057,13.738-5.072,19.345-5.8,19.018,4.755,15.115-9.814,23.9-15.166C69.4,60.85,72.929,59.956,75.747,55.135c3.836-6.56,25.329,26.673,37.122,26.916,6.229.755,7.3-3.59,8.685-7.193-.439-8.283-6.178-20.193-3.012-21.99,2.794-1.585,10.368-2.047,13.774-6.431,1.9-2.45-.476-6.924,4.113-9.447,8.495,1.078,12.287,5.279,17.62-.446,2.43-2.608,3.277-7.2,6.966-8.893,7.062-3.234,17.1-2.774,16.182-7.1-.893-4.213-17.519-13.773-23.844-17-11.36-5.8-25.039-3.452-37.393-.28C97.6,7.984,84.309,10.873,72.09,15.375,54.1,22,39.236,30.908,20.244,44.347" transform="translate(2903.484 3084.918) rotate(79)" fill="#30cf7f"/>
    <path id="Caminho_1112" data-name="Caminho 1112" d="M2452.747,3462.421c.2-4.691-6.271-19.131-4.47-24.051.426-1.165-4.642-13.16-9.165-20.565-3.094-5.065-8.941-4.247-22.576-16.541-10.283-16.988-13.412-20.341-4.918-36.211,3.459-6.135,13.635-22.129,35.541-45.152,5.812-5.365,43.608-34.64,56.552-38.446,7.545-2.219,19.894-12.294,67.505-20.788,3.345.938,2.51,17.991-6.929,25.482-5.006,3.973-11.657-.6-23.47,1.117-10.729,3.8-12.482,5.488-15.423,12.294-3.116,7.212,5.675,16.592,8.494,17.435,17.21,5.149,36.624,7.6,49.847,10.729,10.491,2.484,9.835-3.353,18.33-3.353,10.5,4.438,18.642,6.964,24.587,12.741,4.819,4.682-1.946,20.941-10.952,29.953-6.151,6.154-5.812,5.588-14.529,8.718-10.73,4.47-26.471,1.007-44.929,5.588-16.281,4.04-23.573,16.649-23.47,19.894.223,7.028-19.4-.735-19.67,3.129-.278,3.969,2.011-13.412-13.859-16.541-11.176-1.788-27.377,4.619-34.646,14.976-8.812,12.554,2.932,32.347,3.8,32.635,1.773,1.909-4.015,17.148-1.341,27.941,1.674,6.754,11.7,10.8,13.412,11.4,8.408,2.919,24.328-2.833,33.641-6.43,5.031-1.943,10.659-3.3,15.77-1.574,4.557,1.537,7.969,5.264,11.922,8,5.449,3.778,12.326,5.983,16.038,11.477,1.75,2.59,8.039,16.839,14.275,22.279,7.326,6.391,14.49,4.083,12.741,7.376-1.5,2.828,2.862,11.235,11.4,14.119,9.631,3.255,13.412-2.719,20.788,3.316,1.341,8.047-7.153,31.294-20.788,36.882-7.842,6.881,7.153,25.706-5.364,37.329-7.824,4.471-10.059,6.482-21.011,11.177-3.577,3.576-3.262,4.2-8.941,9.165-6.482,16.764-23.023,9.611-20.117,32.635,11.4,13.635,17.841,14.465,20.117,19.67,3.427,7.834-2.471,12.978-7.376,12.741-7.754-.375-29.46-13.1-33.305-20.565-4.25-8.25-11.572-1.376-14.753-11.847-3.324-10.943-15.2-13.858-28.835-31.517-15.647-30.847-16.541-22.129-25.929-49.623-8.941-20.341-4.736-25.756-6.035-25.929-.961-.128,4.694-13.412,4.471-25.258-1.118-19-17.206-20.54-13.412-27.271,2.984-5.294,12.964-10.356,28.835-12.518" transform="translate(109.862 -204.648)" fill="#30cf7f"/>
    <path id="Caminho_1115" data-name="Caminho 1115" d="M3429.531,3881.581c-5.567.806-40.556,16.367-42.343,11.666,31.517-21.459,30.153-39.105,39.564-47.276,4.415-3.833-1.689-11.318,2.779-15.088,7.381-6.225-8.832-19.88-5.126-29.841,1.606-4.317,16.1-18.6,13.411-27.829-3-10.293-23.726-15.586-30.511-19.782-3.893-2.407-8.838,5.1-13.076,7.041-6.144,2.811-13.268-3.425-9.723-7.041,2.532-2.584-10.343-29.9,9.723-33.194,4.085-.67,11.207-8.344,13.076-15.759,1.985-7.873-1.183-15.421,6.37-13.076,8.29,2.574,14.417-3.018,32.188,0,5.076,4.593,3.688-9.053,11.4-8.717,7.377-2.012,7.87,1.041,9.388,2.683,6.131,6.629,10.322,9.77,10.73,9.388,7.729-7.247,54.317-8.382,53.981,1.676a278.475,278.475,0,0,1-3.688,36.547c-2.033,11.059-6.239,20.393-4.942,24.849,0,0-12.12,42.321-29.941,65.042C3467.695,3857.769,3438.559,3880.276,3429.531,3881.581Z" transform="translate(-594.569 -417.669)" fill="#30cf7f"/>
    <path id="Caminho_1347" data-name="Caminho 1347" d="M3454.832,3364.873c3.576-9.611-2.012-18.329,4.917-19.67s13.858.671,14.306,6.035-2.906,6.259-1.118,9.612,3.577,2.012,4.247,4.023-1.565,6.259,3.129,9.165,3.576,8.27-7.376,11.847-17.882.223-19.447-4.918S3451.255,3374.484,3454.832,3364.873Z" transform="translate(-640.755 -193.514)" fill="#30cf7f"/>
    <path id="Caminho_1348" data-name="Caminho 1348" d="M2801.5,3568.113c2.906.671,5.364-5.812,10.952-10.952s8.047,0,10.953-1.118,7.6-7.376,1.788-8.717-22.129-3.353-25.258-1.788-10.282,4.023-8.494,8.047,4.471,6.482,4.471,9.165S2798.592,3567.443,2801.5,3568.113Z" transform="translate(-201.336 -326.568)" fill="#30cf7f"/>
    <g id="Elipse_48" data-name="Elipse 48" transform="translate(2488.263 3053.674)" fill="none" stroke="#000" stroke-width="3">
      <circle cx="224.333" cy="224.333" r="224.333" stroke="none"/>
      <circle cx="224.333" cy="224.333" r="222.833" fill="none"/>
    </g>
  </g>
</svg>
