<svg xmlns="http://www.w3.org/2000/svg" xmlns:xlink="http://www.w3.org/1999/xlink" width="1442.506" height="871.765" viewBox="0 0 1442.506 871.765">
  <defs>
    <filter id="Elipse_49" x="1119.569" y="386.815" width="133.01" height="132.737" filterUnits="userSpaceOnUse">
      <feOffset dx="8" dy="10" input="SourceAlpha"/>
      <feGaussianBlur result="blur"/>
      <feFlood/>
      <feComposite operator="in" in2="blur"/>
      <feComposite in="SourceGraphic"/>
    </filter>
    <filter id="Elipse_50" x="1262.763" y="295.899" width="127.979" height="130.737" filterUnits="userSpaceOnUse">
      <feOffset dx="6" dy="8" input="SourceAlpha"/>
      <feGaussianBlur result="blur-2"/>
      <feFlood/>
      <feComposite operator="in" in2="blur-2"/>
      <feComposite in="SourceGraphic"/>
    </filter>
    <clipPath id="clip-path">
      <path id="Caminho_1147" data-name="Caminho 1147" d="M611.477,3320.431a12.687,12.687,0,0,1,4.259-12.114,13.749,13.749,0,0,1,12.709-2.434,15.011,15.011,0,0,1,9.378,9.049,24.616,24.616,0,0,1,1.163,4.983c.423,2.889.611,5.947-.485,8.753l-14.078.7a15.464,15.464,0,0,0-3.794.506,5.205,5.205,0,0,0-3.031,2.207,4.394,4.394,0,0,0-3.964-5.022c.626-1.1.029-2.463-.565-3.579l-1.734-3.253" transform="translate(-611.221 -3305.27)" fill="none"/>
    </clipPath>
    <clipPath id="clip-path-2">
      <rect width="478" height="113" fill="none"/>
    </clipPath>
  </defs>
  <g id="gb" transform="translate(-10930.492 -7553.729)">
    <path id="Caminho_1351" data-name="Caminho 1351" d="M12398,7596s233.352,39.4,256.08,51.52,37.882,63.641,36.367,72.733-203.047,0-203.047,0Z" transform="translate(-354.757 -9.271)" fill="#f6282c" stroke="#000" stroke-width="8"/>
    <path id="Caminho_1350" data-name="Caminho 1350" d="M10977.988,7728.676s-3.031-66.672,46.973-77.279,207.594-39.4,207.594-39.4l30.3,25.759-106.068,77.279Z" transform="translate(-10.588 -13.149)" fill="#f6282c" stroke="#000" stroke-linejoin="round" stroke-width="8"/>
    <path id="Caminho_1349" data-name="Caminho 1349" d="M10973.462,7691.282c24.244-10.607,160.619-30.305,207.592-56.065s80.31-78.794,143.951-77.279,618.23,3.031,651.566,0,93.946,30.306,131.828,66.672c213.653,68.188,219.715,54.55,225.775,66.672s42.428,116.676,33.336,489.433c-18.184,165.164-216.684,148.5-250.02,160.618s-130.313,50-157.588,59.1-540.952,42.428-634.9,0-127.283-57.58-209.107-71.218-184.863-10.606-180.317-172.741-4.546-384.878,0-407.607S10949.218,7701.889,10973.462,7691.282Z" fill="#fefff0" stroke="#000" stroke-width="8"/>
    <path id="Caminho_1358" data-name="Caminho 1358" d="M10973.088,7688.5c24.014-10.386,159.086-29.674,205.611-54.9s79.543-77.153,142.577-75.669,612.332,2.967,645.35,0,93.051,29.674,130.571,65.284c211.614,66.767,217.618,53.414,223.621,65.283s42.023,114.247,33.018,479.241c-18.01,161.726-214.616,145.4-247.634,157.274s-129.07,48.963-156.085,57.865-535.79,41.544-628.841,0-126.068-56.382-207.111-69.735-183.1-10.386-178.6-169.143-4.5-376.865,0-399.121S10949.075,7698.888,10973.088,7688.5Z" transform="translate(13.688 17.985)" fill="#fed15c"/>
    <path id="Caminho_1359" data-name="Caminho 1359" d="M10973.462,7691.282c24.244-10.607,160.619-30.305,207.592-56.065s80.31-78.794,143.951-77.279,618.23,3.031,651.566,0,93.946,30.306,131.828,66.672c213.653,68.188,219.715,54.55,225.775,66.672s42.428,116.676,33.336,489.433c-18.184,165.164-216.684,148.5-250.02,160.618s-130.313,50-157.588,59.1-540.952,42.428-634.9,0-127.283-57.58-209.107-71.218-184.863-10.606-180.317-172.741-4.546-384.878,0-407.607S10949.218,7701.889,10973.462,7691.282Z" fill="none" stroke="#000" stroke-width="8"/>
    <path id="Caminho_1352" data-name="Caminho 1352" d="M11419.254,7691.6c-13.637,27.275-56.064,503.07-43.943,536.406s131.83,103.038,354.574,103.038,404.576-18.183,406.092-118.19-36.365-487.918-36.365-487.918,24.244-54.549-183.348-53.034S11432.893,7664.329,11419.254,7691.6Z" transform="translate(-106.371 -27.596)" stroke="#000" stroke-width="8"/>
    <rect id="Retângulo_101" data-name="Retângulo 101" width="575.803" height="428.822" transform="translate(11363.644 7697.343)" fill="#071f56"/>
    <g id="Grupo_2066" data-name="Grupo 2066" transform="translate(11462.875 8164.9)">
      <g id="Grupo_1977" data-name="Grupo 1977" transform="translate(144.107 85.585)">
        <path id="Caminho_1252" data-name="Caminho 1252" d="M5221.2,656.639h1.8a2.386,2.386,0,0,0,2.438,2.351,2.317,2.317,0,0,0,2.279-2.351c0-1.5-.9-2.03-2.438-2.831-1.59-.855-3.6-1.923-3.6-4.754a3.849,3.849,0,0,1,3.816-3.846,3.808,3.808,0,0,1,2.7,1.175,3.558,3.558,0,0,1,1.06,2.671H5227.4a1.947,1.947,0,0,0-.583-1.389,1.717,1.717,0,0,0-1.325-.588,1.888,1.888,0,0,0-1.908,1.977c0,1.656.9,2.244,2.544,3.045,1.537.855,3.446,1.87,3.446,4.541a4.188,4.188,0,1,1-8.375,0Z" transform="translate(-5221.201 -645.207)" fill="#fefff0" stroke="#fefff0" stroke-miterlimit="10" stroke-width="2"/>
        <path id="Caminho_1253" data-name="Caminho 1253" d="M5287.379,648.866h-4.612v12.928h-1.908V648.866h-4.611V647h11.131Z" transform="translate(-5263.102 -646.569)" fill="#fefff0" stroke="#fefff0" stroke-miterlimit="10" stroke-width="2"/>
        <path id="Caminho_1254" data-name="Caminho 1254" d="M5348.387,657.253V647h1.908v10.257a2.916,2.916,0,1,0,5.832,0V647h1.908v10.257a4.824,4.824,0,1,1-9.647,0Z" transform="translate(-5318.014 -646.569)" fill="#fefff0" stroke="#fefff0" stroke-miterlimit="10" stroke-width="2"/>
        <path id="Caminho_1255" data-name="Caminho 1255" d="M5433.634,654.475a7.314,7.314,0,0,1-7.474,7.319h-4.082V647h4.082A7.351,7.351,0,0,1,5433.634,654.475Zm-1.908,0a5.488,5.488,0,0,0-5.566-5.609h-2.173v11.058h2.173A5.452,5.452,0,0,0,5431.726,654.475Z" transform="translate(-5374.106 -646.569)" fill="#fefff0" stroke="#fefff0" stroke-miterlimit="10" stroke-width="2"/>
        <path id="Caminho_1256" data-name="Caminho 1256" d="M5499.321,647h1.908v14.8h-1.908Z" transform="translate(-5432.903 -646.569)" fill="#fefff0" stroke="#fefff0" stroke-miterlimit="10" stroke-width="2"/>
        <path id="Caminho_1257" data-name="Caminho 1257" d="M5530.616,653.176a7.687,7.687,0,1,1,7.686,7.746A7.756,7.756,0,0,1,5530.616,653.176Zm13.464,0a5.8,5.8,0,1,0-11.609,0,5.805,5.805,0,1,0,11.609,0Z" transform="translate(-5456.724 -645.377)" fill="#fefff0" stroke="#fefff0" stroke-miterlimit="10" stroke-width="2"/>
      </g>
      <g id="Grupo_1978" data-name="Grupo 1978" transform="translate(0 0)">
        <path id="Caminho_1258" data-name="Caminho 1258" d="M4737.279,347.175l-2.85-55.817-9.891-.093-10.108,22.981-1.555.062-10.183-23.3-7.676.032v-.063l-76.79.955-.46.006.481,65.941,28.392,1.469,5-33.2-20.586-1.372.132,9.49,8.421.237v14.163h-10.838l-1.047-44.9,65.93-.814-1.368,62.335,11.884-2.8.593-32.5,6.917,26.017a2.289,2.289,0,0,0,2.164,1.545h0a2.289,2.289,0,0,0,2.14-1.476l7.53-25.7,2.286,26.515.035.4,44.423,2.411,6.1-9.365Z" transform="translate(-4617.767 -289.985)" fill="#fefff0"/>
        <path id="Caminho_1259" data-name="Caminho 1259" d="M5142.53,332.048v-8.764c1.558.039-1.582.163,3.573.24,12.59.189,12.9-.067,13.119-.253.24-.2.57-.475.433-5.825-.065-2.541-.211-5.05-.212-5.075l-.024-.411-17.538-1.483.718-8.439,25.6-.321-4.053-11.115-32,.979.964,50.448.008.43,35.29,1.84,6.321-9.247Z" transform="translate(-5009.31 -289.702)" fill="#fefff0"/>
        <path id="Caminho_1260" data-name="Caminho 1260" d="M4783.35,385.315l-15.02-2.9-13.644,52.461,11.791-.376,5.661-19.526,6.122-.1,4.626,20.125,12.354-.749Zm-7.831,25.46a24.352,24.352,0,0,0-1.605-5.28,5,5,0,0,0-.671-1.321c-.915-1.176-6.328-2.554-7.817-2.588l-.036.008c1.49.009,6.566-.612,7.517-1.761a5,5,0,0,0,.709-1.3,26.093,26.093,0,0,0,1.736-5.441h.015a24.824,24.824,0,0,0,1.634,5.332,4.99,4.99,0,0,0,.709,1.3c.95,1.148,5.881,1.983,7.372,1.973l.014-.008c-1.49.035-6.656,1.457-7.571,2.633a5.012,5.012,0,0,0-.671,1.321,22.419,22.419,0,0,0-1.283,5.131" transform="translate(-4721.988 -359.586)" fill="#fefff0"/>
        <path id="Caminho_1261" data-name="Caminho 1261" d="M6062.692,336.342l-6.321,9.247-.259-.013-35.031-1.827-.009-.43-.963-50.448,32-.979,4.053,11.115-25.6.321-.719,8.44,19.084,1.482.024.411c0,.025.146,2.534.212,5.075.137,5.35-.192,5.624-.433,5.825-.224.186-.529.441-13.119.253a48.475,48.475,0,0,1-5.119-.24v8.764Z" transform="translate(-5685.213 -290.682)" fill="#fefff0"/>
        <path id="Caminho_1262" data-name="Caminho 1262" d="M5317.875,286.828l55.75,2.027-11.754,11.394V300.2l-32.531.446-.6,10.958H5344.4l-3.349,12.558-12.352.772-1.45,38.092-8.14-2.466-.006-.267-1.683-73.436" transform="translate(-5150.334 -286.828)" fill="#fefff0"/>
        <path id="Caminho_1263" data-name="Caminho 1263" d="M5459.623,407.594l-12.938,3.806.361-40.954,12.337-5.087Z" transform="translate(-5248.729 -346.604)" fill="#fefff0"/>
        <path id="Caminho_1264" data-name="Caminho 1264" d="M5554.925,383.364l.123,14.136-7.333,7.7-13.8-.24-10.458-2.918-4.58-32.548,9.728-15.943,12.182-10.3,11.18,2.552,12,9.973-11.051,10.3-9.455-7.117-11.89,11.079.185,15.668,8.012,6.585,6.816-9.82Z" transform="translate(-5303.683 -329.775)" fill="#fefff0"/>
        <path id="Caminho_1265" data-name="Caminho 1265" d="M5714.471,311.612l-16.314,1.818-12.373,54.612,12.118-.345,5.274-26.124,6.309-.1,5.292,26.672,10.132-1.107Zm-12.977,18.811,9.538,3.435-8.994.153,1.792-9.809,5.321-.075Z" transform="translate(-5430.729 -305.693)" fill="#fefff0"/>
        <path id="Caminho_1266" data-name="Caminho 1266" d="M5862.23,361.766l.418.005,1.548-37.483,19.687,28.78.033.04,43.172,3.627,6.111-9.376-39.182-3.243-18.248-24.124,9.689-5.469,5.7-8.722-.068-.21c-.123-.38-3.058-9.37-7.063-14.276-4.093-5.012-29.023-4.419-30.083-4.391l-.46.012,1.01,71.052m19.523-47.758-9.9.153,1.972-9.809,5.856-.075Z" transform="translate(-5558.382 -286.874)" fill="#fefff0"/>
      </g>
    </g>
    <g id="btn-cruz" transform="translate(10988.614 7817.05)">
      <path id="Caminho_1353" data-name="Caminho 1353" d="M11089.34,7963.642V7900h75.763v63.642l72.733,6.061V8048.5H11165.1v66.672h-75.763l-9.092-66.672h-65.157l-9.091-84.855h83.34Z" transform="translate(-11006 -7900)" fill="#071f56" stroke="#000" stroke-linecap="round" stroke-linejoin="round" stroke-width="8"/>
      <ellipse id="Elipse_51" data-name="Elipse 51" cx="14.016" cy="14.395" rx="14.016" ry="14.395" transform="translate(103.796 94.704)"/>
      <path id="Caminho_1354" data-name="Caminho 1354" d="M11143,7960.486h27.274L11155.122,7937Z" transform="translate(-11039.204 -7908.967)"/>
      <path id="Caminho_1355" data-name="Caminho 1355" d="M0,23.486H27.274L12.122,0Z" transform="matrix(-1, -0.017, 0.017, -1, 130.864, 202.525)"/>
      <path id="Caminho_1356" data-name="Caminho 1356" d="M0,23.486H27.274L12.122,0Z" transform="translate(27.135 121.424) rotate(-91)"/>
      <path id="Caminho_1357" data-name="Caminho 1357" d="M0,23.486H27.274L12.122,0Z" transform="translate(208.478 95.417) rotate(88)"/>
    </g>
    <g id="btn-g" transform="translate(12050.062 7940.544)">
      <g transform="matrix(1, 0, 0, 1, -1119.57, -386.82)" filter="url(#Elipse_49)">
        <g id="Elipse_49-2" data-name="Elipse 49" transform="translate(1119.57 386.82)" fill="#ff8de8" stroke="#000" stroke-width="8">
          <ellipse cx="62.505" cy="61.368" rx="62.505" ry="61.368" stroke="none"/>
          <ellipse cx="62.505" cy="61.368" rx="58.505" ry="57.368" fill="none"/>
        </g>
      </g>
      <text id="G" transform="translate(32.578 95.609)" font-size="60" font-family="PressStart2P-Regular, 'Press Start \32 P'"><tspan x="0" y="0">G</tspan></text>
    </g>
    <g id="btn-f" transform="translate(12193.255 7849.628)">
      <g transform="matrix(1, 0, 0, 1, -1262.76, -295.9)" filter="url(#Elipse_50)">
        <g id="Elipse_50-2" data-name="Elipse 50" transform="translate(1262.76 295.9)" fill="#30cf7f" stroke="#000" stroke-width="8">
          <ellipse cx="60.99" cy="61.368" rx="60.99" ry="61.368" stroke="none"/>
          <ellipse cx="60.99" cy="61.368" rx="56.99" ry="57.368" fill="none"/>
        </g>
      </g>
      <text id="F" transform="translate(31.063 100.155)" font-size="60" font-family="PressStart2P-Regular, 'Press Start \32 P'"><tspan x="0" y="0">F</tspan></text>
    </g>
    <g id="Grupo_2067" data-name="Grupo 2067" transform="translate(12049.749 7664.432)">
      <path id="Caminho_498" data-name="Caminho 498" d="M9523.47,8475.028c-1.324-7.836-3.151-12.226-5.976-19.655a18.666,18.666,0,0,0-2.5-4.916c-3.407-4.378-23.554-9.5-29.1-9.636l-.134.03c5.547.035,24.444-2.278,27.979-6.553a18.665,18.665,0,0,0,2.643-4.841,97.133,97.133,0,0,0,6.462-20.253h.058a92.621,92.621,0,0,0,6.082,19.848,18.628,18.628,0,0,0,2.643,4.84c3.535,4.275,21.895,7.381,27.439,7.346l.053-.029c-5.546.129-24.774,5.425-28.181,9.8a18.672,18.672,0,0,0-2.5,4.917c-2.824,7.429-3.449,11.265-4.773,19.1" transform="translate(-9485.763 -8409.205)" fill="#fefff0"/>
    </g>
    <g id="Grupo_2068" data-name="Grupo 2068" transform="translate(12219.838 7730.255)">
      <path id="Caminho_498-2" data-name="Caminho 498" d="M9512.6,8456.053c-.942-5.577-2.243-8.7-4.254-13.988a13.3,13.3,0,0,0-1.777-3.5c-2.426-3.115-16.765-6.765-20.711-6.856l-.095.021c3.947.025,17.4-1.622,19.913-4.663a13.25,13.25,0,0,0,1.881-3.446,69.094,69.094,0,0,0,4.6-14.414h.041a65.909,65.909,0,0,0,4.33,14.126,13.249,13.249,0,0,0,1.88,3.444c2.517,3.043,15.582,5.253,19.529,5.229l.037-.021c-3.946.091-17.633,3.861-20.057,6.977a13.28,13.28,0,0,0-1.778,3.5c-2.011,5.287-2.455,8.017-3.4,13.594" transform="translate(-9485.764 -8409.205)" fill="#fefff0"/>
    </g>
    <g id="Grupo_2069" data-name="Grupo 2069" transform="translate(12097.001 7798.235)">
      <path id="Caminho_498-3" data-name="Caminho 498" d="M9512.6,8456.053c-.942-5.577-2.243-8.7-4.254-13.988a13.3,13.3,0,0,0-1.777-3.5c-2.426-3.115-16.765-6.765-20.711-6.856l-.095.021c3.947.025,17.4-1.622,19.913-4.663a13.25,13.25,0,0,0,1.881-3.446,69.094,69.094,0,0,0,4.6-14.414h.041a65.909,65.909,0,0,0,4.33,14.126,13.249,13.249,0,0,0,1.88,3.444c2.517,3.043,15.582,5.253,19.529,5.229l.037-.021c-3.946.091-17.633,3.861-20.057,6.977a13.28,13.28,0,0,0-1.778,3.5c-2.011,5.287-2.455,8.017-3.4,13.594" transform="translate(-9485.764 -8409.205)" fill="#fefff0"/>
    </g>
    <g id="Grupo_2070" data-name="Grupo 2070" transform="translate(11183.403 7690.308)">
      <path id="Caminho_498-4" data-name="Caminho 498" d="M9521.163,8456.053c-1.244-5.577-2.96-8.7-5.611-13.988a12.474,12.474,0,0,0-2.345-3.5c-3.2-3.115-22.113-6.765-27.318-6.856l-.125.021c5.206.025,22.948-1.622,26.267-4.663a12.753,12.753,0,0,0,2.48-3.446,57.934,57.934,0,0,0,6.066-14.414h.054a54.9,54.9,0,0,0,5.711,14.126,12.747,12.747,0,0,0,2.479,3.444c3.32,3.043,20.555,5.253,25.762,5.229l.049-.021c-5.206.091-23.259,3.861-26.456,6.977a12.484,12.484,0,0,0-2.347,3.5c-2.651,5.287-3.237,8.017-4.481,13.594" transform="translate(-9485.764 -8409.205)" fill="#fefff0"/>
    </g>
    <g id="Grupo_2071" data-name="Grupo 2071" transform="translate(11220.451 7751.387)">
      <path id="Caminho_498-5" data-name="Caminho 498" d="M9512.6,8456.053c-.942-5.577-2.243-8.7-4.254-13.988a13.3,13.3,0,0,0-1.777-3.5c-2.426-3.115-16.765-6.765-20.711-6.856l-.095.021c3.947.025,17.4-1.622,19.913-4.663a13.25,13.25,0,0,0,1.881-3.446,69.094,69.094,0,0,0,4.6-14.414h.041a65.909,65.909,0,0,0,4.33,14.126,13.249,13.249,0,0,0,1.88,3.444c2.517,3.043,15.582,5.253,19.529,5.229l.037-.021c-3.946.091-17.633,3.861-20.057,6.977a13.28,13.28,0,0,0-1.778,3.5c-2.011,5.287-2.455,8.017-3.4,13.594" transform="translate(-9485.764 -8409.205)" fill="#fefff0"/>
    </g>
    <g id="Grupo_2072" data-name="Grupo 2072" transform="translate(10987.023 8063.533)">
      <path id="Caminho_498-6" data-name="Caminho 498" d="M9512.6,8456.053c-.942-5.577-2.243-8.7-4.254-13.988a13.3,13.3,0,0,0-1.777-3.5c-2.426-3.115-16.765-6.765-20.711-6.856l-.095.021c3.947.025,17.4-1.622,19.913-4.663a13.25,13.25,0,0,0,1.881-3.446,69.094,69.094,0,0,0,4.6-14.414h.041a65.909,65.909,0,0,0,4.33,14.126,13.249,13.249,0,0,0,1.88,3.444c2.517,3.043,15.582,5.253,19.529,5.229l.037-.021c-3.946.091-17.633,3.861-20.057,6.977a13.28,13.28,0,0,0-1.778,3.5c-2.011,5.287-2.455,8.017-3.4,13.594" transform="translate(-9485.764 -8409.205)" fill="#fefff0"/>
    </g>
    <g id="SPUT" transform="translate(11078.535 4550.771)">
      <g id="Grupo_1954" data-name="Grupo 1954" transform="translate(334.08 3160.667)">
        <g id="Grupo_1944" data-name="Grupo 1944">
          <g id="Grupo_1943" data-name="Grupo 1943">
            <g id="Grupo_1897" data-name="Grupo 1897" transform="translate(39.118 4.419)">
              <rect id="Retângulo_59" data-name="Retângulo 59" width="0.354" height="8.235" transform="matrix(1, -0.007, 0.007, 1, 0, 0.003)" fill="#fefff0"/>
            </g>
            <g id="Grupo_1898" data-name="Grupo 1898" transform="translate(37.28 0.926)">
              <path id="Caminho_1116" data-name="Caminho 1116" d="M1376,3188.914a2.061,2.061,0,0,1,2.11,1.367,2.424,2.424,0,0,1-.675,2.42,2.029,2.029,0,0,1-.881.538,1.775,1.775,0,0,1-1.444-.276,2.133,2.133,0,0,1-.813-1.188,2.431,2.431,0,0,1,.861-2.532,1.471,1.471,0,0,1,.9-.324" transform="translate(-1374.128 -3188.813)" fill="#fd64e0"/>
              <path id="Caminho_1117" data-name="Caminho 1117" d="M1373.792,3191a1.9,1.9,0,0,1-1.082-.346,2.215,2.215,0,0,1-.848-1.237,2.533,2.533,0,0,1,.892-2.626,1.552,1.552,0,0,1,.888-.34v-.008a2.139,2.139,0,0,1,2.2,1.428,2.5,2.5,0,0,1-.7,2.511,2.1,2.1,0,0,1-.92.561A1.677,1.677,0,0,1,1373.792,3191Zm-.079-4.385v.011a1.388,1.388,0,0,0-.852.306,2.353,2.353,0,0,0-.829,2.438,2.036,2.036,0,0,0,.779,1.138,1.694,1.694,0,0,0,1.371.263,1.925,1.925,0,0,0,.842-.516,2.321,2.321,0,0,0,.654-2.33A1.987,1.987,0,0,0,1373.713,3186.617Z" transform="translate(-1371.779 -3186.434)"/>
            </g>
            <g id="Grupo_1899" data-name="Grupo 1899" transform="translate(7.737 4.419)">
              <rect id="Retângulo_60" data-name="Retângulo 60" width="0.354" height="8.235" transform="matrix(1, -0.007, 0.007, 1, 0, 0.003)" fill="#fefff0"/>
            </g>
            <g id="Grupo_1900" data-name="Grupo 1900" transform="translate(3.624 31.844)">
              <path id="Caminho_1118" data-name="Caminho 1118" d="M473.888,4061.276l-26.789.333a4.354,4.354,0,0,1-4.3-1.817c-2.028-2.239-4.1-4.542-5.218-7.347a1.106,1.106,0,0,1-.066-.937,1.068,1.068,0,0,1,.481-.383c2.157-1.081,4.66-1.162,7.072-1.222l13.205-.325c3.359-.083,6.815-.151,9.964,1.022a8.543,8.543,0,0,1,4.122,2.969,12.157,12.157,0,0,1,1.49,3.583c.414,1.419.764,3.109-.181,4.246" transform="translate(-437.347 -4049.448)" fill="#fefff0"/>
              <path id="Caminho_1119" data-name="Caminho 1119" d="M444.288,4059.311a5.1,5.1,0,0,1-2.2-.375,5.921,5.921,0,0,1-1.737-1.475c-1.919-2.119-4.093-4.52-5.235-7.374a1.176,1.176,0,0,1-.061-1.014,1.149,1.149,0,0,1,.518-.419c2.215-1.111,4.815-1.175,7.109-1.231l13.205-.326c3.182-.078,6.788-.167,10,1.028a8.61,8.61,0,0,1,4.164,3,12.394,12.394,0,0,1,1.5,3.609c.412,1.413.719,2.993-.05,4.13v.107h-.079q-.034.045-.07.089l-.1-.086-26.535.331C444.572,4059.309,444.431,4059.311,444.288,4059.311Zm14.09-12.076c-.848,0-1.683.021-2.49.04l-13.205.326c-2.275.056-4.854.119-7.034,1.212a1,1,0,0,0-.444.348,1.032,1.032,0,0,0,.072.86c1.13,2.824,3.2,5.11,5.2,7.321a4.273,4.273,0,0,0,4.23,1.788l26.621-.331c.755-1.08.452-2.628.048-4.013a12.252,12.252,0,0,0-1.478-3.558,8.437,8.437,0,0,0-4.08-2.936A21.363,21.363,0,0,0,458.378,4047.235Z" transform="translate(-434.957 -4047.057)"/>
            </g>
            <g id="Grupo_1901" data-name="Grupo 1901" transform="translate(34.782 32.981)">
              <path id="Caminho_1120" data-name="Caminho 1120" d="M1304.845,4082.649a2.952,2.952,0,0,1,3.147-1.4,5.447,5.447,0,0,1,3.038,1.987,14.762,14.762,0,0,1,2.806,6.047,3.991,3.991,0,0,1,.162,1.308,1.448,1.448,0,0,1-.6,1.112,1.921,1.921,0,0,1-.891.217,26.355,26.355,0,0,1-4.459-.06,24.44,24.44,0,0,0-2.424-6.333c-.515-.93-1.111-2.009-.736-3.009" transform="translate(-1304.677 -4081.11)" fill="#fd64e0"/>
              <path id="Caminho_1121" data-name="Caminho 1121" d="M1308.214,4089.68c-.868,0-1.736-.042-2.6-.127l-.063-.006-.015-.062a24.306,24.306,0,0,0-2.416-6.31c-.53-.958-1.131-2.043-.741-3.083l.025.009a3.069,3.069,0,0,1,3.181-1.334,5.5,5.5,0,0,1,3.09,2.017,14.69,14.69,0,0,1,2.824,6.083,4.09,4.09,0,0,1,.164,1.338,1.526,1.526,0,0,1-.645,1.179,2,2,0,0,1-.932.23Q1309.156,4089.68,1308.214,4089.68Zm-2.516-.3a26.356,26.356,0,0,0,4.381.054,1.854,1.854,0,0,0,.851-.2,1.351,1.351,0,0,0,.561-1.044,3.944,3.944,0,0,0-.159-1.279,14.521,14.521,0,0,0-2.787-6.011,5.327,5.327,0,0,0-2.987-1.957,2.877,2.877,0,0,0-3.052,1.352h0a3.962,3.962,0,0,0,.776,2.8A24.474,24.474,0,0,1,1305.7,4089.383Z" transform="translate(-1302.259 -4078.714)"/>
            </g>
            <g id="Grupo_1902" data-name="Grupo 1902" transform="translate(2.688 1.914)">
              <path id="Caminho_1122" data-name="Caminho 1122" d="M411.076,3242.851a16.02,16.02,0,0,0,2.269,3.4,6.029,6.029,0,0,0,3.506,1.966c.53.07,1.071.047,1.6.128a2.1,2.1,0,0,1,1.391.718,19.894,19.894,0,0,0,10.905,3.31,32.833,32.833,0,0,0,11.346-1.985,12.252,12.252,0,0,0,4.049-2.066,11.008,11.008,0,0,0,3.245-5.306,24.062,24.062,0,0,0,.746-6.221,25.527,25.527,0,0,0-.407-5.851,17.026,17.026,0,0,0-4.971-8.635,22.327,22.327,0,0,0-8.692-5,18.254,18.254,0,0,0-12.441.1c-3.906,1.636-7.047,5.415-7.165,9.648a2.981,2.981,0,0,0-2.885,1.9c-.426,1.165-.073,2.472-.245,3.687a24.558,24.558,0,0,1-1.3,7.357,22.124,22.124,0,0,0-.893,2.851" transform="translate(-410.998 -3216.186)" fill="#fefff0"/>
              <path id="Caminho_1123" data-name="Caminho 1123" d="M429.228,3250.225c-.192,0-.384,0-.575-.007a19.847,19.847,0,0,1-10.954-3.325l-.012-.008-.009-.011a2.041,2.041,0,0,0-1.334-.684,8.033,8.033,0,0,0-.837-.07c-.25-.013-.508-.025-.761-.059a6.12,6.12,0,0,1-3.559-1.994,16.2,16.2,0,0,1-2.282-3.419l.091-.049-.046-.009a15.382,15.382,0,0,1,.662-2.195c.079-.223.159-.445.235-.667a24.4,24.4,0,0,0,1.3-7.331v-.011a8.718,8.718,0,0,0,.037-1.482,5.874,5.874,0,0,1,.213-2.222,3.1,3.1,0,0,1,2.824-1.96h.059a10.1,10.1,0,0,1,2.177-5.76,12.579,12.579,0,0,1,5.039-3.878,18.327,18.327,0,0,1,12.5-.1,22.493,22.493,0,0,1,8.726,5.019,17.181,17.181,0,0,1,5,8.68,25.653,25.653,0,0,1,.409,5.872,24.249,24.249,0,0,1-.75,6.244,11.014,11.014,0,0,1-3.272,5.348,12.388,12.388,0,0,1-4.078,2.083A33.083,33.083,0,0,1,429.228,3250.225Zm-11.416-3.47a19.676,19.676,0,0,0,10.845,3.287,32.357,32.357,0,0,0,11.315-1.98,12.238,12.238,0,0,0,4.021-2.049,10.837,10.837,0,0,0,3.217-5.264,24.08,24.08,0,0,0,.743-6.2,25.49,25.49,0,0,0-.4-5.831,17,17,0,0,0-4.945-8.589,22.307,22.307,0,0,0-8.658-4.978,18.148,18.148,0,0,0-12.38.1c-4.142,1.735-7,5.58-7.111,9.569l0,.091-.091,0a2.906,2.906,0,0,0-2.8,1.839,5.742,5.742,0,0,0-.2,2.156,8.9,8.9,0,0,1-.038,1.508,24.567,24.567,0,0,1-1.308,7.378c-.076.224-.156.448-.236.67a15.268,15.268,0,0,0-.655,2.169l-.035-.007a15.861,15.861,0,0,0,2.227,3.33,5.947,5.947,0,0,0,3.453,1.939c.246.032.5.045.746.057a8.229,8.229,0,0,1,.855.071A2.227,2.227,0,0,1,417.811,3246.754Z" transform="translate(-408.906 -3213.94)"/>
            </g>
            <g id="Grupo_1903" data-name="Grupo 1903" transform="translate(1.73 18.575)">
              <path id="Caminho_1124" data-name="Caminho 1124" d="M385.385,3681.9a3.175,3.175,0,0,1,3.12-1.724,4.2,4.2,0,0,1,3.09,1.974,6.811,6.811,0,0,1-.124,6.95,4.157,4.157,0,0,1-2.879,1.821,4.264,4.264,0,0,1-1.276-.066,2.76,2.76,0,0,1-1.623-.84,3.213,3.213,0,0,1-.573-1.289,12.194,12.194,0,0,1,.272-6.846" transform="translate(-384.663 -3680.078)" fill="#fefff0"/>
              <path id="Caminho_1125" data-name="Caminho 1125" d="M385.757,3688.657a4.646,4.646,0,0,1-.886-.089,2.805,2.805,0,0,1-1.674-.869,3.289,3.289,0,0,1-.591-1.324,12.229,12.229,0,0,1,.27-6.885h0v0l0-.009h0a3.276,3.276,0,0,1,3.2-1.766,4.259,4.259,0,0,1,3.158,2.015,6.423,6.423,0,0,1,.9,3.686,6.336,6.336,0,0,1-1.027,3.363,4.25,4.25,0,0,1-2.942,1.858A3.8,3.8,0,0,1,385.757,3688.657Zm-2.715-9.106a12.048,12.048,0,0,0-.265,6.779,3.133,3.133,0,0,0,.555,1.255,2.634,2.634,0,0,0,1.572.809,4.157,4.157,0,0,0,1.249.065,4.07,4.07,0,0,0,2.816-1.783,6.161,6.161,0,0,0,1-3.269,6.248,6.248,0,0,0-.874-3.583,4.139,4.139,0,0,0-3.023-1.934A3.093,3.093,0,0,0,383.042,3679.551Z" transform="translate(-382.234 -3677.702)"/>
            </g>
            <g id="Grupo_1904" data-name="Grupo 1904" transform="translate(9.87 5.111)">
              <path id="Caminho_1126" data-name="Caminho 1126" d="M611.477,3320.431a12.687,12.687,0,0,1,4.259-12.114,13.749,13.749,0,0,1,12.709-2.434,15.011,15.011,0,0,1,9.378,9.049,24.616,24.616,0,0,1,1.163,4.983c.423,2.889.611,5.947-.485,8.753l-14.078.7a15.464,15.464,0,0,0-3.794.506,5.205,5.205,0,0,0-3.031,2.207,4.394,4.394,0,0,0-3.964-5.022c.626-1.1.029-2.463-.565-3.579l-1.734-3.253" transform="translate(-611.135 -3305.186)" fill="#071f56"/>
              <path id="Caminho_1127" data-name="Caminho 1127" d="M615.134,3330.274l.068-.457a4.306,4.306,0,0,0-3.884-4.921l-.138-.012.069-.12c.59-1.034.045-2.346-.566-3.493l-1.734-3.253.086-.046A12.829,12.829,0,0,1,613.371,3306a13.893,13.893,0,0,1,12.793-2.45,15.165,15.165,0,0,1,9.434,9.1,24.741,24.741,0,0,1,1.167,5c.4,2.713.65,5.88-.491,8.8l-.021.053-.057,0-14.078.7a15.433,15.433,0,0,0-3.772.5,5.093,5.093,0,0,0-2.98,2.167Zm-3.669-5.541a4.481,4.481,0,0,1,3.95,4.739,5.456,5.456,0,0,1,2.879-1.934,15.549,15.549,0,0,1,3.816-.51l14.02-.7c1.1-2.865.851-5.981.46-8.655a24.573,24.573,0,0,0-1.158-4.966,14.985,14.985,0,0,0-9.321-8.995,13.712,13.712,0,0,0-12.626,2.417,12.628,12.628,0,0,0-4.23,12.028l-.026.006,1.61,3.021C611.451,3322.335,612,3323.646,611.466,3324.733Z" transform="translate(-608.827 -3302.935)"/>
            </g>
            <g id="Grupo_1905" data-name="Grupo 1905" transform="translate(8.539 19.43)">
              <path id="Caminho_1128" data-name="Caminho 1128" d="M573.338,3702.439a1.739,1.739,0,0,0-.37-.314,2.876,2.876,0,0,0-.493-.3,2.067,2.067,0,0,0-.706-.148l.011-.177a2.242,2.242,0,0,1,.766.163,3.021,3.021,0,0,1,.524.317,1.877,1.877,0,0,1,.406.348Z" transform="translate(-571.769 -3701.499)"/>
            </g>
            <g id="Grupo_1906" data-name="Grupo 1906" transform="translate(39.338 5.812)">
              <path id="Caminho_1129" data-name="Caminho 1129" d="M1429.077,3322.44" transform="translate(-1429.077 -3322.44)" fill="none" stroke="#fefff0" stroke-miterlimit="10" stroke-width="4"/>
            </g>
            <g id="Grupo_1907" data-name="Grupo 1907" transform="translate(39.742 12.159)">
              <path id="Caminho_1130" data-name="Caminho 1130" d="M1440.328,3499.114" transform="translate(-1440.328 -3499.114)" fill="none" stroke="#fefff0" stroke-miterlimit="10" stroke-width="4"/>
            </g>
            <g id="Grupo_1908" data-name="Grupo 1908" transform="translate(0 19.19)">
              <path id="Caminho_1131" data-name="Caminho 1131" d="M338.37,3697.422a3.651,3.651,0,0,1,4.525,1.193,5.279,5.279,0,0,1,.465,4.869,3.834,3.834,0,0,1-1.4,1.929,3.27,3.27,0,0,1-3.819-.448,5.259,5.259,0,0,1-1.588-3.679,5.02,5.02,0,0,1,.295-2.255,3.009,3.009,0,0,1,1.557-1.623" transform="translate(-336.455 -3696.973)" fill="#fd64e0"/>
              <path id="Caminho_1132" data-name="Caminho 1132" d="M338.071,3703.774a3.606,3.606,0,0,1-2.359-.9,5.293,5.293,0,0,1-1.617-3.741,4.983,4.983,0,0,1,.3-2.294,3.114,3.114,0,0,1,1.557-1.65v0a3.761,3.761,0,0,1,4.64,1.218,5.362,5.362,0,0,1,.476,4.952,3.873,3.873,0,0,1-1.43,1.973A2.86,2.86,0,0,1,338.071,3703.774Zm-2-8.444,0,.006a2.92,2.92,0,0,0-1.509,1.576,4.819,4.819,0,0,0-.288,2.215,5.116,5.116,0,0,0,1.558,3.617,3.181,3.181,0,0,0,3.712.441,3.7,3.7,0,0,0,1.361-1.886,5.184,5.184,0,0,0-.453-4.786A3.583,3.583,0,0,0,336.067,3695.331Z" transform="translate(-334.08 -3694.819)"/>
            </g>
            <g id="Grupo_1909" data-name="Grupo 1909" transform="translate(1.115 31.678)">
              <path id="Caminho_1133" data-name="Caminho 1133" d="M371.031,4045.2a5.84,5.84,0,0,1,4.908.679,8.9,8.9,0,0,1,3.248,3.869,12.166,12.166,0,0,1,1.01,6.745.93.93,0,0,1-.195.53.966.966,0,0,1-.657.214,65.111,65.111,0,0,1-10.04-.108,1.727,1.727,0,0,1-1.21-.441,1.629,1.629,0,0,1-.3-.817,13.309,13.309,0,0,1,2.249-9.685,2.546,2.546,0,0,1,1.178-1.041" transform="translate(-367.544 -4044.837)" fill="#fd64e0"/>
              <path id="Caminho_1134" data-name="Caminho 1134" d="M372.6,4055.079c-1.914,0-3.828-.083-5.727-.251a1.808,1.808,0,0,1-1.269-.471,1.721,1.721,0,0,1-.32-.861,13.349,13.349,0,0,1,2.264-9.75,2.894,2.894,0,0,1,1.036-1l-.007-.019a5.907,5.907,0,0,1,4.984.688,8.958,8.958,0,0,1,3.281,3.907,12.317,12.317,0,0,1,1.017,6.794,1,1,0,0,1-.218.579,1.034,1.034,0,0,1-.715.241C375.495,4055.031,374.05,4055.079,372.6,4055.079Zm-3.776-12.245,0,.005a2.461,2.461,0,0,0-1.134,1.009,13.172,13.172,0,0,0-2.234,9.62,1.551,1.551,0,0,0,.28.774,1.643,1.643,0,0,0,1.15.41,65.179,65.179,0,0,0,10.026.108.9.9,0,0,0,.6-.187.861.861,0,0,0,.171-.481,12.139,12.139,0,0,0-1-6.7,8.781,8.781,0,0,0-3.214-3.831A5.775,5.775,0,0,0,368.828,4042.834Z" transform="translate(-365.123 -4042.448)"/>
            </g>
            <g id="Grupo_1941" data-name="Grupo 1941" transform="translate(9.956 5.195)">
              <g id="Grupo_1940" data-name="Grupo 1940" clip-path="url(#clip-path)">
                <g id="Grupo_1939" data-name="Grupo 1939" transform="translate(2.142 7.224)">
                  <g id="Grupo_1912" data-name="Grupo 1912" transform="translate(19.159 5.747)">
                    <g id="Grupo_1910" data-name="Grupo 1910" transform="translate(0.173 0.173)">
                      <circle id="Elipse_42" data-name="Elipse 42" cx="2.344" cy="2.344" r="2.344" fill="#e87064"/>
                    </g>
                    <g id="Grupo_1911" data-name="Grupo 1911">
                      <path id="Caminho_1135" data-name="Caminho 1135" d="M1205.008,3670.751a2.517,2.517,0,1,1,4.166-2.069h0a2.516,2.516,0,0,1-4.166,2.069Zm3.821-2.045a2.171,2.171,0,1,0-.53,1.575,2.174,2.174,0,0,0,.53-1.575Z" transform="translate(-1204.145 -3666.336)"/>
                    </g>
                  </g>
                  <g id="Grupo_1915" data-name="Grupo 1915" transform="translate(0 7.644)">
                    <g id="Grupo_1913" data-name="Grupo 1913" transform="translate(0.173 0.173)">
                      <circle id="Elipse_43" data-name="Elipse 43" cx="2.344" cy="2.344" r="2.344" fill="#e87064"/>
                    </g>
                    <g id="Grupo_1914" data-name="Grupo 1914">
                      <path id="Caminho_1136" data-name="Caminho 1136" d="M671.716,3723.54a2.517,2.517,0,1,1,4.166-2.069h0a2.516,2.516,0,0,1-4.166,2.069Zm3.821-2.045a2.172,2.172,0,1,0-.53,1.575,2.174,2.174,0,0,0,.53-1.575Z" transform="translate(-670.853 -3719.125)"/>
                    </g>
                  </g>
                  <g id="Grupo_1918" data-name="Grupo 1918" transform="translate(3.387)">
                    <g id="Grupo_1916" data-name="Grupo 1916" transform="translate(0.173 0.173)">
                      <path id="Caminho_1137" data-name="Caminho 1137" d="M779.361,3511.206c2.973.127,6.174.83,6.935,4.12.373,1.44.306,3.018.738,4.452a24.166,24.166,0,0,1,1.233,3.894c.186,2.321-1.665,4.28-3.461,5.694a9.458,9.458,0,0,1-5.587,1.726c-4.244-.041-8.747-2.01-8.993-6.491-.094-1.038-.1-2.092-.17-3.134a15.391,15.391,0,0,1,.308-5.658c1.19-3.9,5.446-4.4,8.945-4.648" transform="translate(-769.946 -3511.16)" fill="#e87064"/>
                    </g>
                    <g id="Grupo_1917" data-name="Grupo 1917">
                      <path id="Caminho_1138" data-name="Caminho 1138" d="M771.478,3526.253a13.582,13.582,0,0,0,3.1.383,9.592,9.592,0,0,0,5.694-1.761c2.53-1.993,3.683-3.9,3.528-5.845a9,9,0,0,0-.712-2.445,14,14,0,0,1-.526-1.48,13.186,13.186,0,0,1-.4-2.339,15.1,15.1,0,0,0-.335-2.112c-.826-3.572-4.445-4.136-7.1-4.25l-.015.345c2.537.109,6,.64,6.774,3.986a14.859,14.859,0,0,1,.328,2.068,13.429,13.429,0,0,0,.413,2.4,14.221,14.221,0,0,0,.537,1.513,8.752,8.752,0,0,1,.689,2.347c.145,1.813-.965,3.627-3.4,5.541a9.241,9.241,0,0,1-5.482,1.689c-4.217-.041-8.581-2.013-8.818-6.328-.056-.614-.081-1.239-.106-1.843-.018-.424-.036-.863-.064-1.293l-.023-.388a14.148,14.148,0,0,1,.323-5.206c1.123-3.684,4.959-4.258,8.792-4.529l-.025-.345c-2.922.207-7.812.553-9.1,4.77a14.408,14.408,0,0,0-.339,5.331l.023.388c.028.427.046.864.063,1.285.025.609.051,1.238.107,1.854C765.6,3523.438,768.278,3525.465,771.478,3526.253Z" transform="translate(-765.133 -3506.358)"/>
                    </g>
                  </g>
                  <g id="Grupo_1921" data-name="Grupo 1921" transform="translate(13.039 4.559)">
                    <g id="Grupo_1920" data-name="Grupo 1920" transform="translate(0 0)">
                      <g id="Grupo_1919" data-name="Grupo 1919" transform="translate(0 0)">
                        <rect id="Retângulo_61" data-name="Retângulo 61" width="5.202" height="8.376" rx="2.601" transform="matrix(-0.998, 0.068, -0.068, -0.998, 5.76, 8.357)" fill="#fefff0"/>
                        <path id="Caminho_1139" data-name="Caminho 1139" d="M1038.423,3643.55a2.715,2.715,0,0,1-2.7-2.526l-.217-3.167a2.711,2.711,0,1,1,5.41-.37l.216,3.167a2.711,2.711,0,0,1-2.52,2.89C1038.547,3643.548,1038.485,3643.55,1038.423,3643.55Zm.172-.227.008.11-.008-.11a2.49,2.49,0,0,0,2.315-2.654l-.216-3.167a2.49,2.49,0,0,0-4.969.339l.216,3.167A2.493,2.493,0,0,0,1038.595,3643.324Z" transform="translate(-1035.437 -3634.9)"/>
                      </g>
                    </g>
                  </g>
                  <g id="Grupo_1924" data-name="Grupo 1924" transform="translate(7.03 4.882)">
                    <g id="Grupo_1923" data-name="Grupo 1923" transform="translate(0 0)">
                      <g id="Grupo_1922" data-name="Grupo 1922" transform="translate(0 0)">
                        <rect id="Retângulo_62" data-name="Retângulo 62" width="5.775" height="8.608" rx="2.888" transform="matrix(-0.998, 0.068, -0.068, -0.998, 6.349, 8.588)" fill="#fefff0"/>
                        <path id="Caminho_1140" data-name="Caminho 1140" d="M871.945,3653.282a3,3,0,0,1-2.987-2.794l-.193-2.826a3,3,0,1,1,5.982-.409l.193,2.826a3,3,0,0,1-2.787,3.2Q872.049,3653.282,871.945,3653.282Zm-.184-8.6q-.1,0-.193.007a2.778,2.778,0,0,0-2.582,2.96l.193,2.826a2.777,2.777,0,1,0,5.542-.379l-.193-2.826a2.778,2.778,0,0,0-2.767-2.588Z" transform="translate(-868.679 -3644.38)"/>
                      </g>
                    </g>
                  </g>
                  <g id="Grupo_1927" data-name="Grupo 1927" transform="translate(15.701 7.379)">
                    <g id="Grupo_1925" data-name="Grupo 1925" transform="translate(0.117 0.117)">
                      <rect id="Retângulo_63" data-name="Retângulo 63" width="1.709" height="2.686" rx="0.855" transform="translate(1.889 2.68) rotate(176.091)"/>
                    </g>
                    <g id="Grupo_1926" data-name="Grupo 1926">
                      <path id="Caminho_1141" data-name="Caminho 1141" d="M1107.98,3713.831l-.067-.975a1.028,1.028,0,0,1,2.051-.14l.067.975a1.029,1.029,0,0,1-.955,1.1h0a1.016,1.016,0,0,1-.315-.027A1.03,1.03,0,0,1,1107.98,3713.831Zm1.072.61a.683.683,0,0,0,.634-.727l-.067-.974a.682.682,0,0,0-1.36.093l.067.975a.682.682,0,0,0,.727.634Z" transform="translate(-1107.911 -3711.758)"/>
                    </g>
                  </g>
                  <g id="Grupo_1930" data-name="Grupo 1930" transform="translate(10.208 7.805)">
                    <g id="Grupo_1928" data-name="Grupo 1928" transform="translate(0.117 0.117)">
                      <rect id="Retângulo_64" data-name="Retângulo 64" width="1.709" height="2.686" rx="0.855" transform="matrix(-0.998, 0.068, -0.068, -0.998, 1.889, 2.68)"/>
                    </g>
                    <g id="Grupo_1929" data-name="Grupo 1929">
                      <path id="Caminho_1142" data-name="Caminho 1142" d="M955.071,3725.694l-.067-.975a1.028,1.028,0,1,1,2.051-.14l.067.975a1.029,1.029,0,0,1-.955,1.095h0a1.026,1.026,0,0,1-1.1-.955Zm1.072.61a.682.682,0,0,0,.634-.726l-.067-.975a.682.682,0,0,0-1.36.093l.067.975a.682.682,0,0,0,.727.634Z" transform="translate(-955.002 -3723.622)"/>
                    </g>
                  </g>
                  <g id="Grupo_1933" data-name="Grupo 1933" transform="translate(12.636 10.768)">
                    <g id="Grupo_1931" data-name="Grupo 1931" transform="translate(0.159 0.173)">
                      <path id="Caminho_1143" data-name="Caminho 1143" d="M1027.012,3812.493c1.494-3.505,4.376-.469,1.692,1.7" transform="translate(-1027.012 -3810.894)" fill="#e87064"/>
                    </g>
                    <g id="Grupo_1932" data-name="Grupo 1932">
                      <path id="Caminho_1144" data-name="Caminho 1144" d="M1024.542,3809.686a2.484,2.484,0,0,0,1.077-2.657,1.3,1.3,0,0,0-1.149-.947c-.343-.015-1.214.122-1.888,1.7l.318.135c.415-.973.982-1.518,1.555-1.494a.951.951,0,0,1,.835.71,2.153,2.153,0,0,1-.966,2.279Z" transform="translate(-1022.582 -3806.081)"/>
                    </g>
                  </g>
                  <g id="Grupo_1938" data-name="Grupo 1938" transform="translate(7.387 14.377)">
                    <g id="Grupo_1935" data-name="Grupo 1935" transform="translate(1.15 0.156)">
                      <g id="Grupo_1934" data-name="Grupo 1934">
                        <path id="Caminho_1145" data-name="Caminho 1145" d="M911.205,3912.64c1.546.381,2.991-.132,4.872-1.161a.173.173,0,1,0-.166-.3c-2.807,1.537-4.5,1.866-7.141-.243a.173.173,0,0,0-.216.27A6.994,6.994,0,0,0,911.205,3912.64Z" transform="translate(-908.489 -3910.894)"/>
                      </g>
                    </g>
                    <g id="Grupo_1937" data-name="Grupo 1937">
                      <g id="Grupo_1936" data-name="Grupo 1936">
                        <path id="Caminho_1146" data-name="Caminho 1146" d="M876.607,3907.66a.174.174,0,0,0,.15-.033,3.514,3.514,0,0,1,2.688-.7.173.173,0,1,0,.032-.344,3.837,3.837,0,0,0-2.938.775.172.172,0,0,0-.026.243A.171.171,0,0,0,876.607,3907.66Z" transform="translate(-876.475 -3906.556)"/>
                      </g>
                    </g>
                  </g>
                </g>
              </g>
            </g>
            <g id="Grupo_1942" data-name="Grupo 1942" transform="translate(6.008)">
              <path id="Caminho_1148" data-name="Caminho 1148" d="M505.548,3163.146a2.061,2.061,0,0,1,2.11,1.367,2.424,2.424,0,0,1-.675,2.421,2.03,2.03,0,0,1-.881.538,1.774,1.774,0,0,1-1.444-.276,2.133,2.133,0,0,1-.813-1.188,2.43,2.43,0,0,1,.861-2.532,1.47,1.47,0,0,1,.9-.324" transform="translate(-503.676 -3163.045)" fill="#fd64e0"/>
              <path id="Caminho_1149" data-name="Caminho 1149" d="M503.339,3165.235a1.9,1.9,0,0,1-1.082-.345,2.215,2.215,0,0,1-.848-1.237,2.533,2.533,0,0,1,.892-2.626,1.553,1.553,0,0,1,.888-.34v-.008a2.139,2.139,0,0,1,2.2,1.427,2.5,2.5,0,0,1-.7,2.511,2.1,2.1,0,0,1-.92.561A1.677,1.677,0,0,1,503.339,3165.235Zm-.078-4.385v.011a1.39,1.39,0,0,0-.852.306,2.353,2.353,0,0,0-.829,2.438,2.037,2.037,0,0,0,.779,1.138,1.693,1.693,0,0,0,1.371.263,1.918,1.918,0,0,0,.842-.516,2.32,2.32,0,0,0,.654-2.329A1.989,1.989,0,0,0,503.26,3160.85Z" transform="translate(-501.326 -3160.667)"/>
            </g>
          </g>
        </g>
        <g id="Grupo_1951" data-name="Grupo 1951" transform="translate(12.778 5.579)">
          <g id="Grupo_1945" data-name="Grupo 1945" transform="translate(1.224)">
            <path id="Caminho_1150" data-name="Caminho 1150" d="M735.53,3319.128s-8.23,1.214-8.541,7.394a12.919,12.919,0,0,0-.087,2,16.868,16.868,0,0,1,9.756-3.386c2.334.019,6.785.176,7.819,1.024l1.034.848s.1-4.448-2.851-6.054C739.763,3319.4,737.9,3318.59,735.53,3319.128Z" transform="translate(-726.784 -3318.855)" fill="#3564da"/>
            <path id="Caminho_1151" data-name="Caminho 1151" d="M723.845,3325.872l-.009-.227a13.13,13.13,0,0,1,.088-2.024c.128-2.558,1.666-4.669,4.446-6.1a15.258,15.258,0,0,1,4.184-1.39c2.464-.559,4.451.366,7.2,1.84,2.978,1.619,2.91,6.109,2.909,6.154l-.005.227-1.209-.992c-1.041-.854-5.767-.983-7.75-1a16.909,16.909,0,0,0-9.683,3.36Zm10.17-9.685a6.349,6.349,0,0,0-1.416.164l-.008,0a15.013,15.013,0,0,0-4.125,1.372c-2.741,1.408-4.2,3.4-4.322,5.919a12.191,12.191,0,0,0-.092,1.774,17.357,17.357,0,0,1,9.647-3.273c2.5.02,6.837.183,7.892,1.049l.85.7c-.031-.929-.315-4.375-2.79-5.721C737.433,3316.98,735.8,3316.187,734.015,3316.187Z" transform="translate(-723.829 -3315.97)"/>
          </g>
          <g id="Grupo_1946" data-name="Grupo 1946" transform="translate(0 5.042)">
            <path id="Caminho_1152" data-name="Caminho 1152" d="M694.241,3462.716s-1.7.678-1.363,2.054.909,1.908.886,2.743-.067,1.114.876,1.077a18.418,18.418,0,0,1,11.085-3.495,47.575,47.575,0,0,1,7.311.822c.506.147.564.2.223-1.4a10.171,10.171,0,0,1,.565-2.578,1.176,1.176,0,0,0-.665-1.363C712.255,3460.225,701.462,3457.04,694.241,3462.716Z" transform="translate(-692.724 -3459.26)" fill="#3564da"/>
            <path id="Caminho_1153" data-name="Caminho 1153" d="M691.528,3465.752a.912.912,0,0,1-.673-.18c-.184-.183-.176-.477-.163-.922l0-.091a2.746,2.746,0,0,0-.346-1.222,7.915,7.915,0,0,1-.537-1.492c-.333-1.378,1.239-2.1,1.414-2.176,3.795-2.976,8.559-3.462,11.888-3.344a26.274,26.274,0,0,1,7.126,1.2,1.294,1.294,0,0,1,.732,1.491,10.232,10.232,0,0,0-.563,2.54c.235,1.1.279,1.394.131,1.531-.107.1-.254.056-.458,0l-.035-.01a47.9,47.9,0,0,0-7.28-.818,17.247,17.247,0,0,0-10.369,3.082,5.2,5.2,0,0,1-.675.405l-.018.007h-.019C691.63,3465.751,691.578,3465.752,691.528,3465.752Zm10.7-9.222a17.555,17.555,0,0,0-10.876,3.322l-.027.016c-.066.026-1.6.66-1.3,1.926a7.724,7.724,0,0,0,.524,1.453,2.9,2.9,0,0,1,.366,1.319l0,.092c-.011.387-.018.643.1.758.093.092.292.127.646.115a5.921,5.921,0,0,0,.62-.378,17.451,17.451,0,0,1,10.492-3.117,48.01,48.01,0,0,1,7.337.826l.037.01a.8.8,0,0,0,.25.052,5.2,5.2,0,0,0-.2-1.331,9.953,9.953,0,0,1,.568-2.636,1.056,1.056,0,0,0-.6-1.225,26.025,26.025,0,0,0-7.053-1.184C702.823,3456.536,702.529,3456.53,702.226,3456.53Z" transform="translate(-689.765 -3456.309)"/>
          </g>
          <g id="Grupo_1947" data-name="Grupo 1947" transform="translate(3.007 7.357)" opacity="0.51">
            <path id="Caminho_1154" data-name="Caminho 1154" d="M774.139,3526.357c-1.232-1.62-.412-5.44-.376-5.6l.108.023c-.009.039-.845,3.932.356,5.512Z" transform="translate(-773.462 -3520.755)" fill="#fff"/>
          </g>
          <g id="Grupo_1948" data-name="Grupo 1948" transform="translate(7.578 5.809)" opacity="0.51">
            <path id="Caminho_1155" data-name="Caminho 1155" d="M901.027,3482.962c-.141-.767-.318-5.121-.326-5.306l.11,0c0,.045.185,4.531.324,5.29Z" transform="translate(-900.701 -3477.652)" fill="#fff"/>
          </g>
          <g id="Grupo_1949" data-name="Grupo 1949" transform="translate(12.944 5.199)" opacity="0.51">
            <path id="Caminho_1156" data-name="Caminho 1156" d="M1050.843,3466.183l-.109-.019a32.775,32.775,0,0,0-.655-5.455l.109-.021A31.844,31.844,0,0,1,1050.843,3466.183Z" transform="translate(-1050.079 -3460.689)" fill="#fff"/>
          </g>
          <g id="Grupo_1950" data-name="Grupo 1950" transform="translate(17.469 5.798)" opacity="0.51">
            <path id="Caminho_1157" data-name="Caminho 1157" d="M1176.6,3482.716l-.1-.037c.292-.822-.483-5.242-.49-5.286l.109-.019C1176.15,3477.556,1176.9,3481.867,1176.6,3482.716Z" transform="translate(-1176.009 -3477.373)" fill="#fff"/>
          </g>
        </g>
        <g id="Grupo_1952" data-name="Grupo 1952" transform="translate(13.09 21.511)">
          <path id="Caminho_1158" data-name="Caminho 1158" d="M699.436,3761.465a2.806,2.806,0,0,1-.922-.155.11.11,0,0,1,.073-.208,2.589,2.589,0,0,0,1.419.078.286.286,0,0,0,.1-.033.265.265,0,0,0,.069-.095,1.186,1.186,0,0,0,.074-.884.787.787,0,0,0-.293-.426.449.449,0,0,0-.455-.04.234.234,0,0,0-.122.276c.064.13.29.122.468.093a.11.11,0,1,1,.036.218c-.366.06-.6-.012-.7-.213a.452.452,0,0,1,.213-.567.666.666,0,0,1,.685.05,1.007,1.007,0,0,1,.38.544,1.409,1.409,0,0,1-.088,1.05.456.456,0,0,1-.139.175.48.48,0,0,1-.172.068A2.785,2.785,0,0,1,699.436,3761.465Z" transform="translate(-698.441 -3759.436)"/>
        </g>
        <g id="Grupo_1953" data-name="Grupo 1953" transform="translate(33.286 19.539)">
          <path id="Caminho_1159" data-name="Caminho 1159" d="M1261.754,3706.519a1.4,1.4,0,0,1-.583-.126,1.007,1.007,0,0,1-.492-.446.667.667,0,0,1,.037-.686.452.452,0,0,1,.589-.14c.187.124.229.367.124.723a.111.111,0,0,1-.212-.063c.051-.173.087-.4-.034-.476a.235.235,0,0,0-.289.087.451.451,0,0,0-.018.457.788.788,0,0,0,.386.344,1.186,1.186,0,0,0,.886.038.267.267,0,0,0,.1-.056.3.3,0,0,0,.045-.091,2.6,2.6,0,0,0,.1-1.417.11.11,0,0,1,.216-.046,2.817,2.817,0,0,1-.11,1.54.475.475,0,0,1-.089.163.448.448,0,0,1-.191.115A1.386,1.386,0,0,1,1261.754,3706.519Z" transform="translate(-1260.603 -3704.532)"/>
        </g>
      </g>
    </g>
    <text id="x3" transform="translate(11491.615 7754.746)" fill="#fff" font-size="24" font-family="PressStart2P-Regular, 'Press Start \32 P'" letter-spacing="0.001em"><tspan x="-24.012" y="0">x3</tspan></text>
    <text id="_0pts" data-name="0pts" transform="translate(11842.615 7748.746)" fill="#fff" font-size="24" font-family="PressStart2P-Regular, 'Press Start \32 P'" letter-spacing="0.001em"><tspan x="-48.036" y="0">0pts</tspan></text>
    <g id="Grupo_2075" data-name="Grupo 2075">
      <rect id="Retângulo_111" data-name="Retângulo 111" width="182" height="28" rx="2" transform="translate(11560.615 8082.746)" fill="#fd64e0"/>
      <g id="Retângulo_112" data-name="Retângulo 112" transform="translate(11576.615 8082.746)" fill="#fefff0" stroke="#fd64e0" stroke-width="4">
        <rect width="151" height="28" stroke="none"/>
        <rect x="2" y="2" width="147" height="24" fill="none"/>
      </g>
    </g>
    <g id="Repetição_de_grade_1" data-name="Repetição de grade 1" transform="translate(11412.615 7776.746)" clip-path="url(#clip-path-2)">
      <g transform="translate(-11382.615 -7764.746)">
        <rect id="Retângulo_113" data-name="Retângulo 113" width="77" height="21" transform="translate(11382.615 7764.746)" fill="#fed15c"/>
      </g>
      <g transform="translate(-11302.615 -7764.746)">
        <rect id="Retângulo_113-2" data-name="Retângulo 113" width="77" height="21" transform="translate(11382.615 7764.746)" fill="#fed15c"/>
      </g>
      <g transform="translate(-11222.615 -7764.746)">
        <rect id="Retângulo_113-3" data-name="Retângulo 113" width="77" height="21" transform="translate(11382.615 7764.746)" fill="#fed15c"/>
      </g>
      <g transform="translate(-11142.615 -7764.746)">
        <rect id="Retângulo_113-4" data-name="Retângulo 113" width="77" height="21" transform="translate(11382.615 7764.746)" fill="#fed15c"/>
      </g>
      <g transform="translate(-11062.615 -7764.746)">
        <rect id="Retângulo_113-5" data-name="Retângulo 113" width="77" height="21" transform="translate(11382.615 7764.746)" fill="#fed15c"/>
      </g>
      <g transform="translate(-10982.615 -7764.746)">
        <rect id="Retângulo_113-6" data-name="Retângulo 113" width="77" height="21" transform="translate(11382.615 7764.746)" fill="#fed15c"/>
      </g>
      <g transform="translate(-11382.615 -7741.746)">
        <rect id="Retângulo_113-7" data-name="Retângulo 113" width="77" height="21" transform="translate(11382.615 7764.746)" fill="#fed15c"/>
      </g>
      <g transform="translate(-11302.615 -7741.746)">
        <rect id="Retângulo_113-8" data-name="Retângulo 113" width="77" height="21" transform="translate(11382.615 7764.746)" fill="#fed15c"/>
      </g>
      <g transform="translate(-11222.615 -7741.746)">
        <rect id="Retângulo_113-9" data-name="Retângulo 113" width="77" height="21" transform="translate(11382.615 7764.746)" fill="#fed15c"/>
      </g>
      <g transform="translate(-11142.615 -7741.746)">
        <rect id="Retângulo_113-10" data-name="Retângulo 113" width="77" height="21" transform="translate(11382.615 7764.746)" fill="#fed15c"/>
      </g>
      <g transform="translate(-11062.615 -7741.746)">
        <rect id="Retângulo_113-11" data-name="Retângulo 113" width="77" height="21" transform="translate(11382.615 7764.746)" fill="#fed15c"/>
      </g>
      <g transform="translate(-10982.615 -7741.746)">
        <rect id="Retângulo_113-12" data-name="Retângulo 113" width="77" height="21" transform="translate(11382.615 7764.746)" fill="#fed15c"/>
      </g>
      <g transform="translate(-11382.615 -7718.746)">
        <rect id="Retângulo_113-13" data-name="Retângulo 113" width="77" height="21" transform="translate(11382.615 7764.746)" fill="#fed15c"/>
      </g>
      <g transform="translate(-11302.615 -7718.746)">
        <rect id="Retângulo_113-14" data-name="Retângulo 113" width="77" height="21" transform="translate(11382.615 7764.746)" fill="#fed15c"/>
      </g>
      <g transform="translate(-11222.615 -7718.746)">
        <rect id="Retângulo_113-15" data-name="Retângulo 113" width="77" height="21" transform="translate(11382.615 7764.746)" fill="#fed15c"/>
      </g>
      <g transform="translate(-11142.615 -7718.746)">
        <rect id="Retângulo_113-16" data-name="Retângulo 113" width="77" height="21" transform="translate(11382.615 7764.746)" fill="#fed15c"/>
      </g>
      <g transform="translate(-11062.615 -7718.746)">
        <rect id="Retângulo_113-17" data-name="Retângulo 113" width="77" height="21" transform="translate(11382.615 7764.746)" fill="#fed15c"/>
      </g>
      <g transform="translate(-10982.615 -7718.746)">
        <rect id="Retângulo_113-18" data-name="Retângulo 113" width="77" height="21" transform="translate(11382.615 7764.746)" fill="#fed15c"/>
      </g>
      <g transform="translate(-11382.615 -7695.746)">
        <rect id="Retângulo_113-19" data-name="Retângulo 113" width="77" height="21" transform="translate(11382.615 7764.746)" fill="#fed15c"/>
      </g>
      <g transform="translate(-11302.615 -7695.746)">
        <rect id="Retângulo_113-20" data-name="Retângulo 113" width="77" height="21" transform="translate(11382.615 7764.746)" fill="#fed15c"/>
      </g>
      <g transform="translate(-11222.615 -7695.746)">
        <rect id="Retângulo_113-21" data-name="Retângulo 113" width="77" height="21" transform="translate(11382.615 7764.746)" fill="#fed15c"/>
      </g>
      <g transform="translate(-11142.615 -7695.746)">
        <rect id="Retângulo_113-22" data-name="Retângulo 113" width="77" height="21" transform="translate(11382.615 7764.746)" fill="#fed15c"/>
      </g>
      <g transform="translate(-11062.615 -7695.746)">
        <rect id="Retângulo_113-23" data-name="Retângulo 113" width="77" height="21" transform="translate(11382.615 7764.746)" fill="#fed15c"/>
      </g>
      <g transform="translate(-10982.615 -7695.746)">
        <rect id="Retângulo_113-24" data-name="Retângulo 113" width="77" height="21" transform="translate(11382.615 7764.746)" fill="#fed15c"/>
      </g>
      <g transform="translate(-11382.615 -7672.746)">
        <rect id="Retângulo_113-25" data-name="Retângulo 113" width="77" height="21" transform="translate(11382.615 7764.746)" fill="#fed15c"/>
      </g>
      <g transform="translate(-11302.615 -7672.746)">
        <rect id="Retângulo_113-26" data-name="Retângulo 113" width="77" height="21" transform="translate(11382.615 7764.746)" fill="#fed15c"/>
      </g>
      <g transform="translate(-11222.615 -7672.746)">
        <rect id="Retângulo_113-27" data-name="Retângulo 113" width="77" height="21" transform="translate(11382.615 7764.746)" fill="#fed15c"/>
      </g>
      <g transform="translate(-11142.615 -7672.746)">
        <rect id="Retângulo_113-28" data-name="Retângulo 113" width="77" height="21" transform="translate(11382.615 7764.746)" fill="#fed15c"/>
      </g>
      <g transform="translate(-11062.615 -7672.746)">
        <rect id="Retângulo_113-29" data-name="Retângulo 113" width="77" height="21" transform="translate(11382.615 7764.746)" fill="#fed15c"/>
      </g>
      <g transform="translate(-10982.615 -7672.746)">
        <rect id="Retângulo_113-30" data-name="Retângulo 113" width="77" height="21" transform="translate(11382.615 7764.746)" fill="#fed15c"/>
      </g>
    </g>
    <g id="Elipse_52" data-name="Elipse 52" transform="translate(11642.615 8011.746)" fill="#fd64e0" stroke="#fefff0" stroke-width="2">
      <circle cx="9.5" cy="9.5" r="9.5" stroke="none"/>
      <circle cx="9.5" cy="9.5" r="8.5" fill="none"/>
    </g>
    <path id="Polígono_1" data-name="Polígono 1" d="M6,0l6,10H0Z" transform="translate(11564.615 8102.746) rotate(-90)" fill="#fefff0"/>
    <path id="Polígono_2" data-name="Polígono 2" d="M6,0l6,10H0Z" transform="translate(11738.615 8090.746) rotate(90)" fill="#fefff0"/>
  </g>
</svg>
