<svg id="logoPlaymoveSvg" xmlns="http://www.w3.org/2000/svg" xmlns:xlink="http://www.w3.org/1999/xlink" width="416.327" height="82.8" viewBox="0 0 416.327 82.8">
  <defs>
    <clipPath id="clip-path">
      <rect id="Retângulo_110" data-name="Retângulo 110" width="416.327" height="82.8" fill="#fff"/>
    </clipPath>
  </defs>
  <g id="Grupo_2074" data-name="Grupo 2074" clip-path="url(#clip-path)">
    <path id="Caminho_1368" data-name="Caminho 1368" d="M238.878,38.372a7.894,7.894,0,0,0,2.993,6.651,11.918,11.918,0,0,0,6.983,2.494h2.494a9.226,9.226,0,0,0,3.658-1c.831-.5,1.663-.831,2.494-1.33l1-.5c1.663-.5,2.993-.166,3.824,1.33,1.164,2,1,3.325-.665,4.822a12.41,12.41,0,0,1-5.487,2.826,25.112,25.112,0,0,1-8.646.831,21.71,21.71,0,0,1-7.981-2A15.324,15.324,0,0,1,230.4,42.2a17.459,17.459,0,0,1-.5-3.99V30.724a16.1,16.1,0,0,1,1.33-6.817,16.566,16.566,0,0,1,8.646-8.479,22.973,22.973,0,0,1,4.489-1.33A17.353,17.353,0,0,1,256.5,16.425a14.515,14.515,0,0,1,6.983,9.477,13.526,13.526,0,0,1,0,6.318,5.62,5.62,0,0,1-1,2,4.2,4.2,0,0,1-2.826,1c-2,.166-4.157.333-6.152.5a42.127,42.127,0,0,0-6.318,1.164c-2,.5-3.99,1.164-5.986,1.829A2.92,2.92,0,0,1,238.878,38.372Zm0-9.477v2.826c0,.665.333.831,1,.831a2.109,2.109,0,0,0,1-.166,5.957,5.957,0,0,0,1.829-.665,33.426,33.426,0,0,1,8.978-2c.665,0,1.5-.166,2.161-.166a2.269,2.269,0,0,0,1.829-2.66,7.4,7.4,0,0,0-4.157-5.653,9.417,9.417,0,0,0-7.648-.166,7.133,7.133,0,0,0-4.655,5.487,6.059,6.059,0,0,0-.333,2.328Z" transform="translate(152.342 9.18)" fill="#fff"/>
    <path id="Caminho_1369" data-name="Caminho 1369" d="M224.053,42.507c0-.166,3.159-8.313,4.655-12.3,1.663-4.655,3.492-9.311,5.154-13.966.665-1.829,1.829-2.66,4.157-2.161a8.511,8.511,0,0,1,3.492,1.663,2.534,2.534,0,0,1,.831,2.827c-.166.333-.333.831-.5,1.164-2.66,6.318-5.154,12.47-7.814,18.788-1.663,4.157-3.492,8.313-5.154,12.47a5.907,5.907,0,0,1-.665,1.5,2.36,2.36,0,0,1-1.33,1.5,6.718,6.718,0,0,1-5.653,0,2.934,2.934,0,0,1-1.33-1.5l-9.477-22.945c-1.5-3.492-2.993-6.983-4.323-10.475-.166-.166-.166-.5-.333-.665a2.062,2.062,0,0,1,.665-2.494,7.388,7.388,0,0,1,5.819-2,2.4,2.4,0,0,1,1.829,1.5c2,5.154,3.99,10.308,5.819,15.463.665,1.829,1.5,3.824,2.161,5.653a27.1,27.1,0,0,1,1.5,5.653c.166.333.333.831.5.333Z" transform="translate(136.242 9.201)" fill="#fff"/>
    <path id="Caminho_1370" data-name="Caminho 1370" d="M182.866,34.033V29.876a15.622,15.622,0,0,1,5.986-11.971,17.92,17.92,0,0,1,8.479-3.824,17.434,17.434,0,0,1,19.287,11.8,14.344,14.344,0,0,1,.665,4.655V38.19a14.979,14.979,0,0,1-3.824,9.976,16.979,16.979,0,0,1-9.477,5.986c-10.308,2.66-19.287-4.988-20.949-12.969a20.372,20.372,0,0,1-.333-3.159,33.393,33.393,0,0,0,.166-3.99ZM208.8,35.2v-.665a31.949,31.949,0,0,0,0-3.99,8.964,8.964,0,0,0-5.32-8.147,7.321,7.321,0,0,0-8.313,1.164,8.764,8.764,0,0,0-3.325,7.316v6.817a8.987,8.987,0,0,0,2.161,6.152c2,2.328,4.655,3.658,7.814,2.993a9.014,9.014,0,0,0,6.983-7.981,13.462,13.462,0,0,1,0-3.658Z" transform="translate(121.066 9.196)" fill="#fff"/>
    <path id="Caminho_1371" data-name="Caminho 1371" d="M152.213,21.787c.166-.333.166-.5.333-.831,1.164-3.824,3.99-5.819,7.814-6.817a12.615,12.615,0,0,1,4.988-.166,7.8,7.8,0,0,1,3.658,1.5,12.563,12.563,0,0,1,3.824,3.99,6.3,6.3,0,0,1,1,2.161c0,.333.166.831.166,1.33v.5c0,.166,0,.333.166.166,0-.166,0-.166.166-.333a11.027,11.027,0,0,1,1.5-3.159,13.113,13.113,0,0,1,2-2.494,9.686,9.686,0,0,1,2.494-1.829,8.469,8.469,0,0,1,2.827-1.164c.665-.166,1.5-.333,2.161-.5,5.154-.831,9.477,1.164,12.8,5.154a14.271,14.271,0,0,1,3.325,8.147,34.754,34.754,0,0,1,.166,4.157V51.382a2.046,2.046,0,0,1-.831,1.663c-1.33,1.164-4.988,1.829-6.817,0a2.37,2.37,0,0,1-1-2V31.6a21.2,21.2,0,0,0-.166-3.325,7.985,7.985,0,0,0-6.318-6.318,6.4,6.4,0,0,0-5.653,1.33,8.582,8.582,0,0,0-3.492,6.651V50.883c0,1.663-.5,2.328-2.161,2.826a6.58,6.58,0,0,1-5.32-.333,2.16,2.16,0,0,1-1.33-2V30.6a9.755,9.755,0,0,0-.665-3.824,7.2,7.2,0,0,0-5.32-4.655,7.863,7.863,0,0,0-9.477,6.817,13.438,13.438,0,0,0-.166,2.66V50.883a2.226,2.226,0,0,1-1.33,2.328,5.631,5.631,0,0,1-5.819.333A2.987,2.987,0,0,1,143.9,50.55V17.963c0-1.663.5-2.826,2.66-3.325a5.126,5.126,0,0,1,3.159,0,2.743,2.743,0,0,1,2.328,2.993v2.993a3.248,3.248,0,0,0,.166,1.164Z" transform="translate(95.355 9.139)" fill="#fff"/>
    <path id="Caminho_1372" data-name="Caminho 1372" d="M122.407,72.768a4.427,4.427,0,0,1-2-.5,2.646,2.646,0,0,1-1.5-1.5c0-.166-.166-.333-.166-.5a6.912,6.912,0,0,1,.333-3.658,1.8,1.8,0,0,1,1.829-1.33,10.816,10.816,0,0,0,8.646-4.822,19.357,19.357,0,0,0,3.492-8.313,1.876,1.876,0,0,0-.166-1.33c-4.323-9.976-8.812-20.118-13.135-30.094-.333-.5-.5-1.164-.831-1.663a2.259,2.259,0,0,1,.333-2.66,6.168,6.168,0,0,1,3.99-2.328,3.714,3.714,0,0,1,2.328,0,2.36,2.36,0,0,1,1.5,1.33l8.978,23.443c.5,1.164,1.33,3.492,1.5,3.658s.665-1.829,1-2.66c2-5.819,3.824-11.639,5.819-17.458.831-2.328,1.5-4.489,2.161-6.817a2.153,2.153,0,0,1,2.161-1.663,4.132,4.132,0,0,1,1.33.166,10.2,10.2,0,0,1,3.824,1.829,2.8,2.8,0,0,1,.831,3.492c-1.663,4.489-3.492,8.812-5.154,13.3-2,5.154-3.99,10.308-5.819,15.463-1.33,3.658-2.826,7.316-4.157,10.973a34.86,34.86,0,0,1-3.658,6.983,17.756,17.756,0,0,1-6.817,5.819c-.831.333-1.829.5-2.826.831a8.236,8.236,0,0,1-2.826.333c-.166-.333-.5-.333-1-.333Z" transform="translate(78.607 9.201)" fill="#fff"/>
    <path id="Caminho_1373" data-name="Caminho 1373" d="M120.2,48.151a1.3,1.3,0,0,1-.665.665,17.123,17.123,0,0,1-5.487,4.157,13.057,13.057,0,0,1-12.137.166,8.5,8.5,0,0,1-4.822-5.819,16.5,16.5,0,0,1-.166-6.983,8.631,8.631,0,0,1,4.323-5.819,18.979,18.979,0,0,1,5.819-2.161,40.742,40.742,0,0,1,6.318-.665c2-.166,3.824.166,5.653-1,.333-.166.5-.665.665-.831a2.465,2.465,0,0,0,.166-1.164,10.092,10.092,0,0,0-.831-2.993,9.734,9.734,0,0,0-2.494-3.325,5.81,5.81,0,0,0-3.658-1.33,14.608,14.608,0,0,0-6.983,1c-.665.333-1.164.665-1.829,1a3.521,3.521,0,0,1-1.164.5,2.312,2.312,0,0,1-2.494-.665,4.491,4.491,0,0,1-1.164-3.492,3,3,0,0,1,1.5-2.66,10.389,10.389,0,0,1,3.658-1.663,23.449,23.449,0,0,1,6.817-1.164,24.619,24.619,0,0,1,7.814,1,13.13,13.13,0,0,1,7.482,6.152,17.885,17.885,0,0,1,2.328,8.812V50.478a2.51,2.51,0,0,1-1.829,2.66,5.552,5.552,0,0,1-4.323.166,2.864,2.864,0,0,1-2.161-2.993V48.151a.23.23,0,0,0-.333,0Zm-.333-12.969-.5.5c-.166.166-.5.333-.665.5a4.855,4.855,0,0,1-1.5.333c-1.33,0-2.826.166-4.157.166a12.3,12.3,0,0,0-4.822,1.33,4.165,4.165,0,0,0-2.161,2.826,7.1,7.1,0,0,0,.166,4.157,3.883,3.883,0,0,0,1.663,2,7.119,7.119,0,0,0,5.819.5,10.442,10.442,0,0,0,5.653-4.988,5.465,5.465,0,0,0,.665-2.826V37.343c0-.665.166-2.494-.166-2.161Z" transform="translate(64.024 9.211)" fill="#fff"/>
    <path id="Caminho_1374" data-name="Caminho 1374" d="M95.812,31.384V59.649a3,3,0,0,1-1.5,2.66,5.567,5.567,0,0,1-5.986,0A2.7,2.7,0,0,1,87,59.649V3.451A2.854,2.854,0,0,1,89.494.292a7.042,7.042,0,0,1,4.157.166,5.833,5.833,0,0,1,1.33.831,2.046,2.046,0,0,1,.831,1.663V31.384Z" transform="translate(57.65 0.04)" fill="#fff"/>
    <path id="Caminho_1375" data-name="Caminho 1375" d="M64.692,72.694c-.333,0-.5-.166-1-.166a3.45,3.45,0,0,1-1.663-1,2.753,2.753,0,0,1-.831-2V17.993c0-2,.665-2.826,2.66-3.325a5.667,5.667,0,0,1,3.325,0,2.811,2.811,0,0,1,2.328,3.159v2.161c0,.166,0,.166.166,0s.333-.5.5-.665C72.34,16.5,75,14.5,78.658,14.169c5.986-.831,10.641,1.33,14.132,6.318a16.708,16.708,0,0,1,3.159,10.142v7.482A17.3,17.3,0,0,1,87.47,53.075a11.494,11.494,0,0,1-6.983,1.663,12.968,12.968,0,0,1-7.981-3.492,7.17,7.17,0,0,1-2.161-3.159c-.166-.333-.333-1-.333-.831V69.037A2.91,2.91,0,0,1,67.684,72.2c-.5.166-.665.166-1.33.333a5.656,5.656,0,0,1-1.663.166Zm5.154-38.573v4.655A6.136,6.136,0,0,0,71.01,42.6,12.572,12.572,0,0,0,74.5,45.759a6.06,6.06,0,0,0,4.489,1,7.532,7.532,0,0,0,3.658-1.33,9.634,9.634,0,0,0,4.323-7.648c.166-2.494,0-4.822,0-7.316a8.711,8.711,0,0,0-2.328-5.986,8.549,8.549,0,0,0-11.472-1.33,8.294,8.294,0,0,0-3.325,6.318c0,1.829,0,2.993,0,4.655Z" transform="translate(40.554 9.274)" fill="#fff"/>
    <path id="Caminho_1376" data-name="Caminho 1376" d="M28.032,27.7a5.891,5.891,0,0,1-5.819,5.819,3.661,3.661,0,0,1-1.33-.166L17.89,36.345a9.494,9.494,0,0,1,1.5,5.32,9.78,9.78,0,1,1-4.323-7.981h0l2.494-2.328a5.219,5.219,0,0,1-1.164-3.492v-1L9.245,22.711a5.116,5.116,0,0,1-3.159,1,5.154,5.154,0,1,1,5.154-5.154v.665l7.149,4.157a6.055,6.055,0,0,1,3.824-1.5A5.891,5.891,0,0,1,28.032,27.7Z" transform="translate(0.066 8.879)" fill="#fff"/>
    <path id="Caminho_1377" data-name="Caminho 1377" d="M55.946,11.572a8.941,8.941,0,0,1-8.978,8.978,9.071,9.071,0,0,1-5.487-1.829l-4.323,3.325a7.071,7.071,0,0,1,.333,1.829,5.819,5.819,0,0,1-11.639,0,5.816,5.816,0,0,1,8.812-4.988l4.323-3.325a8.538,8.538,0,0,1-1-4.157,2.465,2.465,0,0,1,.166-1.164L33.5,8.912a5.58,5.58,0,0,1-4.822,2.66,6.269,6.269,0,0,1-3.492-1.164L21.7,13.069a7.729,7.729,0,0,1,.831,3.492,8.232,8.232,0,0,1-8.313,8.313,8.313,8.313,0,0,1,0-16.626,7.8,7.8,0,0,1,5.154,1.829l3.658-2.826a3.132,3.132,0,0,1-.333-1.33A5.783,5.783,0,0,1,28.512.1a5.61,5.61,0,0,1,5.653,4.988l5.154,1.663a9.026,9.026,0,0,1,16.626,4.822Z" transform="translate(3.91 0.066)" fill="#fff"/>
    <path id="Caminho_1378" data-name="Caminho 1378" d="M58.93,16.548A7.628,7.628,0,0,1,51.282,24.2a8.114,8.114,0,0,1-6.318-3.159l-3.492,1.33v.166a5.891,5.891,0,0,1-5.819,5.819,5.82,5.82,0,0,1,.166-11.639,5.907,5.907,0,0,1,4.323,2l3.492-1.33v-.831a7.648,7.648,0,0,1,15.3,0Z" transform="translate(19.879 5.898)" fill="#fff"/>
    <path id="Caminho_1379" data-name="Caminho 1379" d="M53.075,52.049A7.628,7.628,0,0,1,45.426,59.7a7.4,7.4,0,0,1-7.149-4.988l-4.323-.166a9.6,9.6,0,1,1-9.311-11.8,9.783,9.783,0,0,1,9.477,7.981h3.824a7.122,7.122,0,0,1,2.494-4.489l-2.328-3.658c-.333,0-.665.166-1,.166a5.783,5.783,0,0,1-5.819-5.819A5.682,5.682,0,0,1,37.113,31.1a5.783,5.783,0,0,1,5.819,5.819,5.478,5.478,0,0,1-1.33,3.658l2.161,3.99a5.656,5.656,0,0,1,1.663-.166A7.736,7.736,0,0,1,53.075,52.049Z" transform="translate(9.94 20.608)" fill="#fff"/>
    <path id="Caminho_1380" data-name="Caminho 1380" d="M54.079,39.853,53.414,47a5.867,5.867,0,0,1,3.325,5.154,5.783,5.783,0,0,1-5.819,5.819A5.682,5.682,0,0,1,45.1,52.157a4.6,4.6,0,0,1,.166-1.5L41.61,47.667a4.6,4.6,0,0,1-2.161.5,4.489,4.489,0,1,1,4.489-4.489,1.246,1.246,0,0,1-.166.831l3.492,2.826a3.792,3.792,0,0,1,2-1l.665-7.149a9.475,9.475,0,0,1-6.817-8.978l-3.159-.5a4.416,4.416,0,0,1-3.658,1.829,4.489,4.489,0,1,1,4.323-5.653l3.159.5A9.51,9.51,0,0,1,52.749,20.4a9.65,9.65,0,0,1,9.643,9.643,9.363,9.363,0,0,1-8.313,9.81Z" transform="translate(21.072 13.518)" fill="#fff"/>
    <path id="Caminho_1381" data-name="Caminho 1381" d="M50.977,28.543a9.65,9.65,0,0,1-9.643,9.643,9.014,9.014,0,0,1-4.157-1L5.42,69.112h0a3.5,3.5,0,0,1-2.161.831,3.178,3.178,0,0,1-2.328-5.32l.333-.333L32.854,32.7a8.538,8.538,0,0,1-1-4.157A9.65,9.65,0,0,1,41.5,18.9,9.841,9.841,0,0,1,50.977,28.543Z" transform="translate(0.066 12.524)" fill="#fff"/>
  </g>
</svg>
