<svg xmlns="http://www.w3.org/2000/svg" width="197.858" height="200.321" viewBox="0 0 197.858 200.321">
  <g id="rocket" transform="translate(-865.594 -1374.55)">
    <path id="SOMBRA" d="M95.5,156.825c-1.757-27.541,13.789-42.78,13.789-42.78l28.992,28.991S124.293,156.9,98.832,156.9C97.739,156.9,96.63,156.878,95.5,156.825Zm68.123-23.341c-12.8,5.08-25.413,8.766-25.413,8.766s-19.953-19.619-28.8-28.467c4.334-13.333,3-8.666,8.328-26.009l.084-.091L100.064,69.93l17.661-17.661,32.614,1.091c11.8-12.014,23.8-23.666,33.568-31.909,30.5-25.75,71.75-25.5,71.75-25.5s-1,40.251-22.75,68.5c-7.559,9.817-20.711,23.161-34.338,36.314l.474,32.821-17.66,17.661Z" transform="translate(784.594 1403.55)" stroke="#000" stroke-linecap="round" stroke-width="8"/>
    <path id="Caminho_1390" data-name="Caminho 1390" d="M0,0,58.593-54.8,115,0V24.976H0Z" transform="translate(902.319 1455.819) rotate(45)" fill="#00bcf2"/>
    <path id="Caminho_1387" data-name="Caminho 1387" d="M.747,68.456C4.8,28.746,34.646.271,34.646.271S61.887,29.919,65.865,65.349c2.634,23.455-.448,70.219-1.626,97.214C58.5,175.334,51.788,187.1,51.788,187.1s-27.981-.253-40.492-.471c-6.145-12.6-3.862-8.318-12.078-24.495C-1.421,135.829-1.862,94.029.747,68.456Z" transform="matrix(0.719, 0.695, -0.695, 0.719, 1015.516, 1375.238)" fill="#fff"/>
    <path id="Caminho_1389" data-name="Caminho 1389" d="M64.875,36.083c-6.771,13.142-5.52,12.4-12.577,25-12.623-.044-28.491-.562-41-.632C5.613,48.132,3.38,44.38-1.235,35.282,12.731,35.349,53.384,36.059,64.875,36.083Z" transform="matrix(0.719, 0.695, -0.695, 0.719, 927.648, 1466.228)" fill="#4a5459"/>
    <path id="Caminho_1388" data-name="Caminho 1388" d="M34.824.215S49.141,12.594,59.843,41.694c-28.027-.808-40.521-.79-52.179-.769C13.1,20.734,34.824.215,34.824.215Z" transform="matrix(0.719, 0.695, -0.695, 0.719, 1015.516, 1375.238)" fill="#e81224"/>
    <g id="Elipse_60" data-name="Elipse 60" transform="translate(965 1439)" fill="#ccc" stroke="#a6a6a6" stroke-width="6">
      <circle cx="17.5" cy="17.5" r="17.5" stroke="none"/>
      <circle cx="17.5" cy="17.5" r="14.5" fill="none"/>
    </g>
    <rect id="Retângulo_116" data-name="Retângulo 116" width="6" height="47" rx="3" transform="translate(957.496 1477.762) rotate(45)" fill="#00bcf2"/>
    <path id="Caminho_1391" data-name="Caminho 1391" d="M20.5,0C41.217,18.232,41,40,41,40H0S.087,18.586,20.5,0Z" transform="translate(894.586 1574.87) rotate(-135)" fill="#f7630c"/>
    <path id="Caminho_1392" data-name="Caminho 1392" d="M11.881,0C23.887,10.566,23.762,23.182,23.762,23.182H0S.05,10.771,11.881,0Z" transform="translate(899.586 1556.298) rotate(-135)" fill="#ffc83d"/>
  </g>
</svg>
