<svg xmlns="http://www.w3.org/2000/svg" width="880" height="324.649" viewBox="0 0 880 324.649">
  <g id="speech-bubble-mobile" transform="translate(0 -96.274)">
    <path id="SOMBRA" d="M5,0H867c2.761,0,5,1.478,5,3.3V253.633c0,1.823-2.239,3.3-5,3.3H612l-133.54,55.716,81.975-55.716H5c-2.761,0-5-1.478-5-3.3V3.3C0,1.478,2.239,0,5,0Z" transform="translate(8 108.274)"/>
    <g id="COR" transform="translate(0 96.274)" fill="#fefff0">
      <path d="M 488.046875 320.7086486816406 L 554.5867919921875 256.8543395996094 L 556.3967895507812 255.1173553466797 L 553.8881225585938 255.1327972412109 L 4.993777751922607 258.5183410644531 C 3.875276803970337 258.5173950195312 2.79322361946106 258.21875 2.025111198425293 257.6986999511719 C 1.642333388328552 257.439453125 1 256.891357421875 1 256.1327819824219 L 1 3.385574102401733 C 1 2.627018451690674 1.642333388328552 2.078907251358032 2.025111198425293 1.819685101509094 C 2.794444561004639 1.2987961769104 3.878666639328003 1.00001847743988 5 1.00001847743988 L 865 1.00001847743988 C 866.121337890625 1.00001847743988 867.20556640625 1.2987961769104 867.9749145507812 1.819685101509094 C 868.357666015625 2.078907251358032 869 2.627018451690674 869 3.385574102401733 L 869 256.1327819824219 C 869 256.891357421875 868.357666015625 257.439453125 867.9749145507812 257.6986999511719 C 867.20556640625 258.2195739746094 866.121337890625 258.5183410644531 865 258.5183410644531 L 610.7479858398438 258.5183410644531 L 610.5086669921875 258.5183410644531 L 610.2952270507812 258.6266784667969 L 488.046875 320.7086486816406 Z" stroke="none"/>
      <path d="M 5 2.000030517578125 C 3.1683349609375 2.000030517578125 2 2.9097900390625 2 3.38555908203125 L 2 256.1328125 C 2 256.6077575683594 3.16436767578125 257.5152282714844 4.9876708984375 257.5183410644531 L 558.8992309570312 254.1018981933594 L 493.5964660644531 316.7688903808594 L 610.2692260742188 257.5183410644531 L 865 257.5183410644531 C 866.8316650390625 257.5183410644531 868 256.6085815429688 868 256.1328125 L 868 3.38555908203125 C 868 2.9097900390625 866.8316650390625 2.000030517578125 865 2.000030517578125 L 5 2.000030517578125 M 5 3.0517578125e-05 L 865 3.0517578125e-05 C 867.761474609375 3.0517578125e-05 870 1.51568603515625 870 3.38555908203125 L 870 256.1328125 C 870 258.0025634765625 867.761474609375 259.5183410644531 865 259.5183410644531 L 610.7479858398438 259.5183410644531 L 482.4965515136719 324.6488952636719 L 553.8943481445312 256.1328125 L 5 259.5183410644531 C 2.238525390625 259.5183410644531 0 258.0025634765625 0 256.1328125 L 0 3.38555908203125 C 0 1.51568603515625 2.238525390625 3.0517578125e-05 5 3.0517578125e-05 Z" stroke="none" fill="#000"/>
    </g>
  </g>
</svg>
