<svg xmlns="http://www.w3.org/2000/svg" width="989.896" height="416.333" viewBox="0 0 989.896 416.333">
  <g id="speech-bubble" transform="translate(109.896 -96.274)">
    <path id="SOMBRA" d="M5,0H867c2.761,0,5,1.808,5,4.039V310.445c0,2.231-2.239,4.039-5,4.039H205.687L-111.229,403l230.17-88.515H5c-2.761,0-5-1.808-5-4.039V4.039C0,1.808,2.239,0,5,0Z" transform="translate(8 108.274)"/>
    <g id="COR" transform="translate(0 96.274)" fill="#fefff0">
      <path d="M -91.20547485351562 409.2819213867188 L 120.1536331176758 317.2156372070312 L 119.7542572021484 315.2988891601562 L 5.000004768371582 315.2988891601562 C 2.794379949569702 315.2988891601562 1.000004887580872 313.8965148925781 1.000004887580872 312.1726379394531 L 1.000004887580872 4.126256942749023 C 1.000004887580872 2.402381896972656 2.794379949569702 1.000006794929504 5.000004768371582 1.000006794929504 L 865 1.000006794929504 C 867.2056274414062 1.000006794929504 869 2.402381896972656 869 4.126256942749023 L 869 312.1726379394531 C 869 313.8965148925781 867.2056274414062 315.2988891601562 865 315.2988891601562 L 201.6916351318359 315.2988891601562 L 201.5350036621094 315.2988891601562 L 201.3860015869141 315.3467712402344 L -91.20547485351562 409.2819213867188 Z" stroke="none"/>
      <path d="M 5 2 C 3.3739013671875 2 2 2.9737548828125 2 4.126251220703125 L 2 312.1726379394531 C 2 313.3251342773438 3.3739013671875 314.2988891601562 5 314.2988891601562 L 119.7542724609375 314.2988891601562 L 120.552978515625 318.1325073242188 L -72.51324462890625 402.2305908203125 L 201.3784790039062 314.2988891601562 L 865 314.2988891601562 C 866.6260986328125 314.2988891601562 868 313.3251342773438 868 312.1726379394531 L 868 4.126251220703125 C 868 2.9737548828125 866.6260986328125 2 865 2 L 5 2 M 5 0 L 865 0 C 867.7613525390625 0 870 1.847381591796875 870 4.126251220703125 L 870 312.1726379394531 C 870 314.4513854980469 867.7613525390625 316.2988891601562 865 316.2988891601562 L 201.691650390625 316.2988891601562 L -109.896240234375 416.332763671875 L 119.7542724609375 316.2988891601562 L 5 316.2988891601562 C 2.2386474609375 316.2988891601562 0 314.4513854980469 0 312.1726379394531 L 0 4.126251220703125 C 0 1.847381591796875 2.2386474609375 0 5 0 Z" stroke="none" fill="#000"/>
    </g>
  </g>
</svg>
