<svg xmlns="http://www.w3.org/2000/svg" width="1485.079" height="1757.858" viewBox="0 0 1485.079 1757.858"><g transform="translate(-4790.558 -5042.333)"><path d="M4806.959,5630.914a58.014,58.014,0,0,0,.478,6.553c2.091,16.081,12.494,20.538,16.868,21.707a21.559,21.559,0,0,0,5.568.727c10.787,0,18.672-7.617,22.325-12.017a29.124,29.124,0,0,0,14.695,4.219c.322,0,.643-.006.966-.018.159-.006.317-.014.475-.025a24.417,24.417,0,0,0,7.776-1.779,21.979,21.979,0,0,0,12.358-12.908c2.876-7.865,1.327-16.3-1.93-23.545a22.434,22.434,0,0,0,4.7-21.5c-3.421-10.944-14.888-18.014-29.214-18.014q-.78,0-1.566.027c-7.883-12.8-17.137-15.562-23.644-15.562a22.114,22.114,0,0,0-3.377.26c-6.3.981-17.413,5.543-21.737,24.993-17.058,6.222-22.786,19.016-20.751,29.435C4792.346,5620.617,4797.718,5627.813,4806.959,5630.914Zm12.552-32.05c.294-.087.595-.178.9-.27a23.749,23.749,0,0,1,5.974-1.262,77.406,77.406,0,0,1,1.317-9.069c2.051-9.9,5.632-12.471,8.277-12.883,3.642-.565,7.611,2.614,11.178,8.954.706,1.129,1.365,2.466,2,3.758.491,1,.955,1.937,1.422,2.748,1,1.536,3,1.124,4.925.726.255-.052.505-.1.749-.15,10.265-1.954,17.826,1.44,19.205,5.85,1.139,3.642-1.769,7.413-7.78,10.091a11.616,11.616,0,0,1-1.446.645c-1,.392-2.238.884-2.248,1.481.029.443.329.876.949,1.6,5.417,5.217,10.06,14.988,8,20.606a5.5,5.5,0,0,1-3.152,3.311,7.994,7.994,0,0,1-2.542.558c-4.337.161-8.19-2.671-11.388-5.462a22.181,22.181,0,0,1-2.612-2.565c-1.841-1.989-4.363-4.714-5.945-4.292-.7.2-1.227,1.072-1.608,1.811-.489,1.1-.93,2.235-1.355,3.332a28.519,28.519,0,0,1-4.283,8.21c-3.047,3.992-7.784,7.594-11.477,6.606-2.559-.685-4.156-3.332-4.745-7.868a37.413,37.413,0,0,1,.95-14.962,11.524,11.524,0,0,0,.192-2.8,9.017,9.017,0,0,1,.1-1.912.843.843,0,0,0,.045-.456h0a1.214,1.214,0,0,0-.613-.013c-.5.064-1.022.15-1.565.239a28.821,28.821,0,0,1-3.412.417c-7.624.766-11.7-2.232-12.352-5.544C4806.51,5606.9,4809.344,5601.854,4819.511,5598.864Z" fill="#fefff0"/><path d="M5641.589,5772.958c-.962-12.285-11.856-22.02-26.833-24.819-5.891-17.779-17.086-21.228-23.371-21.676-.507-.035-1.03-.055-1.561-.055-7.441,0-17.915,3.533-25.754,20.263-19.8,2.285-27.288,14.373-27.612,24.425-.24,7.5,3.607,15.913,12.244,21.026a59.74,59.74,0,0,0-1.119,7.113c-1.574,16.375,7.663,23.118,11.71,25.259a22.167,22.167,0,0,0,10.478,2.543c8.722,0,16.062-4.591,20.109-7.781a29.53,29.53,0,0,0,14.956,8.09c.153.029.307.056.46.08a25.794,25.794,0,0,0,4.1.334,23.845,23.845,0,0,0,3.989-.333,22.2,22.2,0,0,0,15.062-9.921c4.712-7.262,5.02-16.159,3.335-24.214A22.714,22.714,0,0,0,5641.589,5772.958Zm-26.695,9.7a12.123,12.123,0,0,1-1.612.318c-1.1.166-2.469.376-2.618.978a3.222,3.222,0,0,0,.589,1.844c4.272,6.534,6.709,17.5,3.327,22.707a5.7,5.7,0,0,1-3.956,2.621,8.3,8.3,0,0,1-2.7-.024c-4.427-.841-7.67-4.6-10.26-8.166a22.841,22.841,0,0,1-2.049-3.2c-1.4-2.44-3.324-5.781-5.023-5.721-.756.042-1.489.8-2.047,1.461-.749,1-1.458,2.046-2.143,3.057a29.548,29.548,0,0,1-6.236,7.317c-4.008,3.335-9.636,5.882-13.144,4.027-2.432-1.286-3.434-4.334-2.98-9.061a38.873,38.873,0,0,1,4.427-14.922,11.933,11.933,0,0,0,.844-2.792,9.518,9.518,0,0,1,.541-1.913c.169-.324.153-.44.152-.45h0a1.231,1.231,0,0,0-.617-.155c-.515-.05-1.068-.085-1.639-.121a29.463,29.463,0,0,1-3.549-.369c-7.893-.99-11.329-4.969-11.216-8.471.115-3.6,4.15-8.046,15.132-8.717.318-.019.643-.042.975-.065a24.713,24.713,0,0,1,6.337.107,80.645,80.645,0,0,1,3.433-8.873c4.37-9.547,8.589-11.316,11.361-11.12,3.816.271,7.1,4.408,9.237,11.65.454,1.306.811,2.812,1.156,4.268.266,1.121.518,2.18.8,3.11.66,1.786,2.773,1.831,4.816,1.875.27,0,.535.011.793.021,10.841.4,17.706,5.587,18.081,10.369C5625.414,5778.2,5621.6,5781.341,5614.894,5782.659Z" fill="#fefff0"/><path d="M5094.845,5763.419q-4.305-14.805-8.45-29.048c-19.214,28.735-43.276,54.351-66.758,79.339-15.22,16.2-30.959,32.944-45.148,50.295-6.553,8.014-15.259,19.848-15.2,30.055.018,3.1,1.218,5.882,2.488,8.828,1.308,3.034,2.716,6.319,2.713,10.125a119.225,119.225,0,0,0,5.589-11.628l.767-1.854,1.154,1.642a259.477,259.477,0,0,0,98.424,83.906l.646.314c8.085,3.935,17.18,8.362,21.333,16.489,5.185-6.77,9.6-14.278,13.875-21.554,5.759-9.8,11.715-19.931,19.62-28.4a57.6,57.6,0,0,1,21.386-14.305,202.024,202.024,0,0,1-6.786-19.077C5125.717,5869.6,5110.022,5815.62,5094.845,5763.419Zm18.969,177.228c-9.152,9.805-15.864,21.227-21.789,31.308-.867,1.475-1.74,2.96-2.622,4.442-3.847-2.343-7.7-4.217-11.095-5.87l-.639-.311a242.9,242.9,0,0,1-92.139-78.55l-1.154-1.642a16.529,16.529,0,0,0-4.988-4.65,97.249,97.249,0,0,1,7.9-10.9c13.832-16.914,29.369-33.449,44.4-49.439,16.252-17.3,32.881-34.989,48.159-53.987,14.9,51.263,30.281,104.115,44.831,152.283q.981,3.25,2.043,6.426A73.2,73.2,0,0,0,5113.814,5940.647Z" fill="#fefff0"/><path d="M6124.808,5275.937a87.01,87.01,0,0,1,8.329-12.671,30.514,30.514,0,0,1-10.46-12.336,24.858,24.858,0,0,1-2.2-9.915c-8.064-3.918-17.957-6.08-28.9-6.08a98.726,98.726,0,0,0-31.073,5.269c-.735.239-1.486.5-2.212.746l-.1.034c-.23-.3-.844-1.11-.844-1.11-2.425-3.206-4.93-6.517-7.722-9.583-13.635-16.355-27.55-24.647-41.369-24.647q-1.529,0-3.039.14a174.192,174.192,0,0,0-24.581-18.765c-21.953-13.795-45.424-21.086-67.878-21.086a103.631,103.631,0,0,0-15.474,1.156,99.189,99.189,0,0,0-35.391,7.2,98.2,98.2,0,0,0-11.906,5.8c-89.416,27.935-186.653,85.809-237.037,141.18-16.55,18.187-37.129,42.97-49.46,73.428-1.889,4.667-3.549,9.372-5.031,14.086-9.982-34.8-34.772-60.654-64.646-68.248a277.269,277.269,0,0,0-9.534-32.04,16.442,16.442,0,0,0-.671-2.327c-28.8-77.816-31.627-85.881-59.035-173.944a50.952,50.952,0,1,0-33.2,12.007c7.836,25.176,13.667,43.822,18.716,59.547q-6.463-4.992-13.264-9.381a16.566,16.566,0,0,0-3.256-3.082,246.14,246.14,0,0,0-34.65-20.761,16.539,16.539,0,0,0-11.189-14.867c-28.254-9.619-41.741-11.116-62.155-13.382l-2.191-.244a16.522,16.522,0,0,0-5.878-1.368c-2.237-.1-4.512-.154-6.764-.154a155.029,155.029,0,0,0-23.873,1.875c-3.287.068-6.617.243-9.923.523a281.9,281.9,0,0,0-36.527,2.577c-63.133,8.644-125.223,37.936-179.558,84.711-21.532,18.535-37.018,35.759-48.737,54.2-11.172,17.584-20.229,38.561-27.688,64.13q-.423,1.446-.834,2.9-.335-1.1-.672-2.193c-6-19.553-12.153-39.642-17.957-58.669a50.919,50.919,0,1,0-34.182,8.83c5.765,18.905,11.912,38.956,17.891,58.461l.7,2.287c7.029,22.928,14.288,46.6,20.906,68.352-2.76,42.709,2.3,85.09,14.69,122.77a270.681,270.681,0,0,0,58.873,100.281,1205.847,1205.847,0,0,0-146.26,136.553c-24.065,26.551-50.448,58.238-58.928,98.365-5.034,23.82-1.657,48.851,8.766,68.942a28.617,28.617,0,0,0-6.244,10.855,30.016,30.016,0,0,0-1.246,9.917c-5.334,23.46,6.72,48.82,34.25,71.792,79.346,66.207,183.169,93.761,282.71,116.311,13.5,3.058,29.185,6.321,44.548,6.32q4.433,0,8.626-.355l-54.145,121.2c-26.62,27.2-50.483,59.665-70.954,96.547-31.44,56.645-52.09,118.6-58.7,175.716-28.988,11.153-55.434,31-75.337,56.735-22.308,28.84-35.385,63.763-36.822,98.338-.477,11.485.1,28.334,10.586,41.99,8.248,10.747,20.172,16.205,30.749,20.126,34.975,12.966,72.887,19.268,115.9,19.267h0c11.3,0,23.115-.45,35.12-1.338,51.76-3.822,104.034-15.387,148.975-25.928,13.977-3.28,31.374-7.361,46.041-18.021,32.249-23.44,36.944-64.373,38.813-100.9,3.025-59.153,6.152-120.32-3.588-180.829-2.638-16.391-9.191-31.633-15.533-46.384-8.874-20.639-16.537-38.463-12.292-54.742,1.524-5.839,2.847-11.833,3.94-17.839,23.625-62.739,46.777-124.333,69.818-186.726,11.369,1.73,23,3.313,34.13,4.789l.128.018a16.5,16.5,0,0,0,3.858.065l.146-.015a260.369,260.369,0,0,0,64.569-14.8c14.979,21.326,33.733,52.864,53.418,85.968,14.356,24.146,29.183,49.079,43.421,71.572a247.207,247.207,0,0,0,5.357,26.337c4.369,16.748-3.48,35-12.569,56.143-6.463,15.031-13.147,30.574-15.834,47.272-9.94,61.751-6.747,124.19-3.659,184.572,1.9,37.213,6.681,78.91,39.479,102.749,14.918,10.843,32.644,15,46.886,18.341,45.872,10.76,99.234,22.566,152.055,26.466,12.262.907,24.32,1.366,35.838,1.366,43.88,0,82.55-6.429,118.22-19.651,10.75-3.986,22.867-9.529,31.232-20.427,10.635-13.856,11.218-30.97,10.733-42.637-1.464-35.229-14.792-70.818-37.527-100.208-20.331-26.283-47.354-46.54-76.972-57.889-6.712-58.336-27.8-121.639-59.917-179.513-23.929-43.113-53.359-81.441-85.2-110.979-41.565-64.76-81.807-124.945-119.7-179.025l2.338-9.311a16.527,16.527,0,0,0-2.307-13.24q.911-1.767,1.784-3.532.351-.711.635-1.454l.075-.2q.283-.743.494-1.513c13.771-50.287-8.584-97.1-28.308-138.4-4.394-9.2-8.928-18.7-12.911-27.946-1.661-13.529-6.843-29.208-15.792-47.807-10.314-21.433-21.7-43.939-33.759-67.767l-.094-.186c-7.672-15.161-15.54-30.711-23.3-46.338,18.874-8.485,37.26-17.4,55.169-26.081,24.435-11.848,49.6-24.049,75.323-34.793a169.879,169.879,0,0,0,31.408,25.537c27.207,17.135,60.381,26.572,93.41,26.572a171.089,171.089,0,0,0,44.043-5.695c24.053-6.414,45.527-17.589,65.46-28.486,21.869-11.954,50.355-28.21,76.75-47.978,35.281-26.423,66.306-58.676,92.617-86.832,22.1-23.648,43.253-47.184,59.153-75.073,11.759-20.627,24.717-51.469,23.827-86.167.317.165.634.325.949.478,11.391,6.307,26.415,13.421,42.424,13.422h.006a53.06,53.06,0,0,0,6.077-.346q.21-.024.42-.054a42.561,42.561,0,0,0,12.472-3.634c9.248-4.458,15.172-12.291,16.7-22.162,2.107-14.242-5.69-29.866-16.668-43.185a27.3,27.3,0,0,1-10.123-4.844C6125.143,5307.935,6113.542,5296.5,6124.808,5275.937Zm14.644,80.66c-.672,4.346-3.234,7.62-7.521,9.687a26,26,0,0,1-7.606,2.158c-13.56,1.564-27.42-4.89-39.041-11.358a76.639,76.639,0,0,1-9.533-5.989c-5.959-4.126-13.78-9.56-18.73-9.708q.663,5.035,1.054,10.01l.079-.917,1.281,10.427c4.327,35.21-8.957,67.5-20.863,88.384-15.014,26.333-35.467,49.071-56.869,71.972-25.829,27.64-56.248,59.273-90.449,84.888-25.551,19.136-53.379,35.011-74.769,46.7-19.051,10.415-39.515,21.079-61.79,27.019a154.654,154.654,0,0,1-39.783,5.137,159.832,159.832,0,0,1-84.6-24.029,155.678,155.678,0,0,1-35.751-31.229c-29.735,11.852-58.661,25.856-87,39.6-23.006,11.154-46.475,22.522-70.431,32.772,10.1,20.634,20.624,41.438,31.024,61.99,12.053,23.819,23.438,46.317,33.706,67.656,8.65,17.977,13.431,32.688,14.514,44.855,4.331,10.246,9.318,20.7,14.169,30.854,19.383,40.586,39.427,82.555,27.281,126.9l-.076.2q-3.363,6.795-7.089,13.244l6.394,6.835-4.179,16.647c38.937,55.355,81.285,118.576,124.808,186.431,31.048,28.446,59.777,65.526,83.511,108.287,33.016,59.487,53.947,124.681,58.98,183.668,63.007,19.236,110.637,80.766,113.373,146.6.379,9.1.03,22.3-7.329,31.885-5.792,7.545-14.893,11.665-23.865,14.991-33.628,12.465-70.671,18.619-112.472,18.62q-16.785,0-34.62-1.321c-51.626-3.812-104.237-15.458-149.5-26.074-13.463-3.158-28.722-6.738-40.94-15.619-26.9-19.555-30.98-56.823-32.688-90.219-3.044-59.526-6.192-121.077,3.47-181.1,2.361-14.672,8.634-29.26,14.7-43.368,9.863-22.94,19.179-44.608,13.378-66.846a229.756,229.756,0,0,1-5.474-28c-14.669-23.027-29.991-48.793-45.092-74.189-23.28-39.15-45.36-76.279-61.9-97.654a239.48,239.48,0,0,1-71.961,18.49l-.128.012-.129-.017c-17.113-2.271-32.788-4.457-47.146-6.872-24.938,67.695-50.208,134.908-75.015,200.79-1.047,5.967-2.351,12.017-3.93,18.069-5.678,21.772,3.444,42.987,13.1,65.448,5.941,13.818,12.085,28.106,14.4,42.479,9.461,58.781,6.38,119.063,3.4,177.358-1.673,32.712-5.665,69.214-32.022,88.371-11.971,8.7-26.916,12.207-40.1,15.3-44.325,10.4-95.85,21.8-146.41,25.535q-17.476,1.291-33.9,1.293c-40.944,0-77.218-6.026-110.155-18.236-8.789-3.258-17.7-7.293-23.38-14.69-7.212-9.393-7.553-22.327-7.183-31.238,2.68-64.483,49.323-124.745,111.03-143.589,4.93-57.767,25.428-121.607,57.762-179.863,20.306-36.586,44.346-68.925,70.372-95.091l71.15-159.267a56.571,56.571,0,0,1-11.445,6.917c-8.889,3.975-18.3,5.491-28.061,5.491-13.119,0-26.876-2.735-40.894-5.911-97.577-22.1-199.247-49.029-275.77-112.88-13.578-11.329-35.224-33.838-28.156-57.586a16.094,16.094,0,0,1,.358-6.559c1.412-4.574,5.46-7.352,9.839-10.026a8.184,8.184,0,0,1,2.69-1.2,4.892,4.892,0,0,1,.521-.07c-15.285-18.422-20.264-45.96-15.2-69.948,7.627-36.092,32.391-65.733,55-90.681a1189.043,1189.043,0,0,1,159.013-146.136c-30.295-27.783-54.4-65.066-68.169-106.964-12.186-37.071-16.748-77.955-13.694-119.506-6.913-22.732-14.562-47.685-21.977-71.87-7.463-24.343-15.167-49.473-22.111-72.307a34.586,34.586,0,1,1,2.146-.523c6.934,22.8,14.623,47.884,22.073,72.184,6.838,22.306,13.88,45.277,20.358,66.549a356.559,356.559,0,0,1,12.826-67.47c7.016-24.049,15.445-43.64,25.772-59.894,10.823-17.035,25.3-33.094,45.568-50.539,51.913-44.69,111.05-72.652,171.015-80.861a264.545,264.545,0,0,1,35.034-2.428q5.3-.472,10.626-.541a136.952,136.952,0,0,1,28.431-1.717l-2.87.409c26.033,3.062,37.821,3.27,68.519,13.72a184.87,184.87,0,0,0-23,.922c2.621.859,5.232,1.746,7.817,2.689l1.672.569-.175,0a235.113,235.113,0,0,1,55.207,29.228l-.542.755c29.644,17.841,54.405,44.969,72.243,78.977-20.629-56.067-25.641-71.765-52.67-158.671a34.281,34.281,0,1,1,2.066-.783c31.088,99.958,33.048,105.725,63.084,186.886l-.166.061a261.842,261.842,0,0,1,12.035,42.98c30.231,2.336,55.394,28.065,63.72,62.662a77.125,77.125,0,0,1,6.294,30.834c0,21.33-8.343,40.3-21.217,52.221-13.046,18.2-32.093,29.71-53.287,29.71a58.13,58.13,0,0,1-10.529-.968,174.557,174.557,0,0,1-6.611,18.824c-6.588,15.627-16.423,31.163-29.234,46.175q-7.5,8.795-16.006,17c39.779-21.542,76.643-45.491,102.217-74.247,12.439-13.985,24.18-28.99,35.535-43.5q4.466-5.709,8.958-11.4c1.6-11.072,3.613-21.835,5.643-32.081,3.193-16.122,6.856-33.206,13.362-49.276,11.348-28.032,30.738-51.336,46.362-68.5,49.38-54.268,145.354-110.525,231.526-137.08a81.669,81.669,0,0,1,11.4-5.7,82.8,82.8,0,0,1,30.6-6.006c23.379-3.848,48.75,2.086,73.143,17.413a161.127,161.127,0,0,1,28.66,23.147,16.548,16.548,0,0,1,3.016-1.277c9.571-2.976,21.388,3.471,33.648,18.279,2.424,2.624,4.822,5.808,7.156,8.892,1.81,2.38,3.529,4.63,5.2,6.547,3.527,3.591,8.914,1.764,14.107-.008.683-.235,1.355-.466,2.013-.679,27.4-9.121,50.454-3.121,57.274,8.07,5.728,9.275.008,20.368-15.624,29.576a30.794,30.794,0,0,1-3.806,2.2c-2.669,1.376-6,3.092-5.665,4.67.351,1.155,1.5,2.2,3.764,3.912C6120.971,5316.383,6141.76,5340.994,6139.452,5356.6Zm-657.6,190.032q-3.609,3.066-7.492,6.135,1.169-2.873,2.265-5.87Q5479.25,5546.854,5481.853,5546.629Z" fill="#fefff0"/><path d="M6237.438,5230.159c-.092-1.226-.215-2.487-.4-3.76-2.7-25.393-15.6-32.7-23.1-34.793a26.2,26.2,0,0,0-7.045-.957c-10.98,0-21.5,6.316-32.165,19.306-1.092,1.265-2.262,2.687-3.47,4.212-.356-.053-2.512-.364-2.512-.364a78.539,78.539,0,0,0-11.466-.894c-16.955,0-29.99,6.9-34.883,18.465a23.931,23.931,0,0,0-1.928,9.641c7.166,3.481,12.891,8.345,16.562,14.37a29.97,29.97,0,0,1,3.677,23.387c-2.026,8.187-7.376,15.866-15.658,22.584a126.64,126.64,0,0,1,14.08,14.475,39.381,39.381,0,0,0,9.862,1.19,67.4,67.4,0,0,0,21.477-3.886,60.743,60.743,0,0,0,12.891-6.086c.217.435.447.867.689,1.292,4,7.924,10.815,18.755,24,24,.121.048.244.1.367.141a37.074,37.074,0,0,0,9.3,2.182c1.032.1,2.07.15,3.087.15a28.416,28.416,0,0,0,16.928-5.43l.13-.1c10.528-7.87,14.187-22.169,12.841-36.255,16.908-2.8,24-13.35,24.853-23.385C6276.869,5253.07,6261.308,5237.121,6237.438,5230.159Zm21.64,38.183c-.528,6.225-8.387,9.494-20.968,8.768a26.07,26.07,0,0,1-3.021-.171c-2.041-.194-4.58-.429-5.062.425-.294.659-.108,1.511.406,3.035,5.481,11.673,6.017,29.3-2.467,35.642a12.272,12.272,0,0,1-8.658,2.161,20.491,20.491,0,0,1-5.146-1.23c-8.024-3.189-12.4-10.154-15.57-16.529a31.18,31.18,0,0,1-2.29-5.59c-1.433-4.187-3.368-9.912-6.439-10.5-1.371-.241-3.04.587-4.351,1.336-1.821,1.173-3.6,2.427-5.325,3.636-4.6,3.187-8.989,6.182-15.02,8.155-9.1,3.192-20.76,4.56-25.964.488-3.562-2.8-3.487-7.554.138-14.141a68.278,68.278,0,0,1,16.005-19.877,18.886,18.886,0,0,0,2.9-3.755,15.448,15.448,0,0,1,1.9-2.594c.45-.413.484-.588.486-.6h0c-.006,0-.142-.2-.956-.45-.838-.26-1.747-.51-2.684-.768a53.8,53.8,0,0,1-5.724-1.8c-12.474-4.2-15.8-11.118-13.649-16.136,2.175-5.172,10.922-10.316,28.705-7.678q.779.116,1.593.231a43.093,43.093,0,0,1,10.175,2.3c3.088-4.422,6.5-8.871,9.288-12.083,10.577-12.952,17.819-14.275,22.121-13.076,5.963,1.669,9.927,9.1,11.126,20.921a65.992,65.992,0,0,1,.529,6.926c.075,1.806.145,3.512.314,5.031.517,2.963,4.093,3.811,7.562,4.636.459.108.91.215,1.347.327C6248.971,5250.083,6259.674,5260.788,6259.078,5268.342Z" fill="#fefff0"/><path d="M4887.459,5991.219c-1.956,1.2-4.4,1.2-6.689,1.01-5.718-.474-11.708-2.119-15.526-6.4a14.641,14.641,0,0,1-3.615-8.277,3.383,3.383,0,0,0-.548-1.94,3.227,3.227,0,0,0-1.78-.819c-7.714-1.854-14.1-7.117-20.031-12.384-1.655-1.471-3.652-3.06-5.827-2.641a7.21,7.21,0,0,0-2.325,1.064c-3.865,2.359-8.024,5.082-9.359,9.41a15.908,15.908,0,0,0-.246,6.7,86.275,86.275,0,0,0,2.135,10.348c1.009,3.95,2.1,7.883,3.455,11.729a36.776,36.776,0,0,0,5.155,10.273,16.993,16.993,0,0,0,9.3,6.445c3.836.905,7.9.053,11.541-1.442,9.087-3.726,16.157-11.215,25.015-15.458,4.067-1.948,8.853-3.524,10.9-7.545l-1.248.02" fill="#071f56"/><path d="M4844.862,6017.211a15.41,15.41,0,0,1-3.553-.4,18.077,18.077,0,0,1-9.926-6.847,38.337,38.337,0,0,1-5.319-10.577c-1.493-4.237-2.647-8.544-3.484-11.823a86.326,86.326,0,0,1-2.161-10.479,16.988,16.988,0,0,1,.287-7.169c1.411-4.574,5.459-7.352,9.838-10.025a8.16,8.16,0,0,1,2.691-1.205c2.881-.551,5.407,1.692,6.767,2.9,5.812,5.159,12.109,10.347,19.557,12.137a4.129,4.129,0,0,1,2.358,1.172,4.056,4.056,0,0,1,.8,2.41l.012.142a13.521,13.521,0,0,0,3.34,7.649c3.072,3.446,8.051,5.478,14.8,6.038,2.019.168,4.309.2,6.021-.851l.742,1.211c.048-.073.094-.146.138-.221l-.017-1.06,3.076-.049-.828,1.63c-1.892,3.727-5.73,5.461-9.442,7.137-.662.3-1.319.6-1.96.9a78.082,78.082,0,0,0-11.413,7.222c-4.266,3.057-8.677,6.219-13.658,8.262A22.975,22.975,0,0,1,4844.862,6017.211Zm-10.709-56.41a2.561,2.561,0,0,0-.5.048,6.4,6.4,0,0,0-1.96.922c-4,2.443-7.7,4.955-8.879,8.794a15.037,15.037,0,0,0-.207,6.237,84.364,84.364,0,0,0,2.109,10.215c.827,3.234,1.963,7.48,3.428,11.635a36.273,36.273,0,0,0,4.99,9.97,15.881,15.881,0,0,0,8.681,6.042c3.149.743,6.809.277,10.871-1.389,4.741-1.945,9.047-5.03,13.21-8.014a79.618,79.618,0,0,1,11.746-7.418c.654-.313,1.327-.617,2-.924,2.491-1.124,5.044-2.278,6.828-4.033a14.479,14.479,0,0,1-5.794.441c-7.328-.608-12.8-2.885-16.257-6.767a15.725,15.725,0,0,1-3.889-8.905l-.014-.148a1.318,1.318,0,0,0-1.429-1.633c-7.989-1.919-14.531-7.3-20.552-12.643C4837.2,5962.041,4835.664,5960.8,4834.153,5960.8Z"/><g opacity="0.11"><path d="M4849.21,6033.213" fill="#071f56"/></g><path d="M4830.574,5596.936a78.616,78.616,0,0,1,1.374-9.8c3.306-15.953,11.557-16.044,18.457-3.779,1.249,2,2.335,4.615,3.427,6.511,1.372,2.1,4.073,1.247,6.241.836,16.874-3.211,26.447,8.1,11.079,14.93-1.267.742-3.963,1.235-3.988,2.6a3.483,3.483,0,0,0,1.078,1.964c7.612,7.337,12.937,22.913,2.687,23.587-4.113.152-7.886-2.614-11-5.331-2.254-1.638-6.279-7.71-9.051-6.972a3.776,3.776,0,0,0-1.949,2.086c-1.8,4.043-2.737,7.961-5.577,11.448-4.9,6.425-13.678,11.244-15.268-.99a37,37,0,0,1,.933-14.741c.4-1.468.076-3.81.3-4.743.229-.875-.066-1.27-1.163-1.128-1.49.191-3.281.587-4.928.651-14.2,1.426-17.476-10.737.157-15.923,2.409-.709,5.3-1.718,7.724-1.477" fill="#fed15c"/><path d="M4873.506,5633.763a8,8,0,0,1-2.542.558c-4.337.162-8.19-2.67-11.388-5.462a22.029,22.029,0,0,1-2.612-2.565c-1.841-1.989-4.363-4.714-5.945-4.292-.7.2-1.227,1.073-1.608,1.812-.489,1.1-.93,2.234-1.356,3.331a28.454,28.454,0,0,1-4.283,8.21c-3.046,3.993-7.783,7.594-11.476,6.606-2.559-.685-4.156-3.332-4.745-7.868a37.422,37.422,0,0,1,.95-14.962,11.485,11.485,0,0,0,.192-2.8,9.172,9.172,0,0,1,.1-1.913.841.841,0,0,0,.046-.456h0a1.177,1.177,0,0,0-.613-.013c-.5.063-1.022.149-1.566.238a28.4,28.4,0,0,1-3.411.417c-7.624.766-11.705-2.231-12.352-5.544-.666-3.406,2.168-8.447,12.335-11.437.294-.086.6-.177.9-.27a23.818,23.818,0,0,1,5.974-1.262,77.778,77.778,0,0,1,1.316-9.069c2.052-9.9,5.633-12.471,8.278-12.883,3.642-.565,7.611,2.615,11.178,8.954.706,1.129,1.365,2.466,2,3.759.491,1,.955,1.936,1.422,2.748,1,1.535,3,1.123,4.925.726.254-.053.5-.1.749-.151,10.265-1.954,17.826,1.44,19.205,5.85,1.139,3.642-1.769,7.413-7.78,10.091a11.609,11.609,0,0,1-1.446.645c-1,.392-2.238.884-2.248,1.482.029.442.329.875.949,1.6,5.416,5.216,10.06,14.987,8.005,20.6A5.5,5.5,0,0,1,4873.506,5633.763Zm-23.025-12.714a2.381,2.381,0,0,1,.251-.088c2.22-.591,4.773,2.167,7.025,4.6a21.679,21.679,0,0,0,2.491,2.455c3.077,2.682,6.716,5.374,10.661,5.227,2.43-.16,4.027-1.224,4.735-3.161,1.858-5.079-2.574-14.482-7.777-19.5a4.029,4.029,0,0,1-1.241-2.32c.022-1.361,1.567-1.973,2.929-2.509a10.491,10.491,0,0,0,1.325-.588l.053-.027c5.478-2.435,8.176-5.723,7.215-8.794-1.238-3.959-8.3-6.954-17.974-5.112-.238.045-.483.1-.732.147-2.068.427-4.642.958-6.063-1.22-.5-.866-.971-1.822-1.47-2.834-.625-1.269-1.271-2.581-1.962-3.685-3.294-5.855-6.965-8.922-10.083-8.438-3.262.508-5.884,4.782-7.387,12.041a77.937,77.937,0,0,0-1.365,9.733l-.037,0-.022.224c-2.018-.2-4.458.536-6.61,1.185q-.465.141-.909.273c-8.867,2.61-12.205,7-11.581,10.194.536,2.74,4.275,5.371,11.217,4.674a27.852,27.852,0,0,0,3.313-.406c.557-.09,1.1-.178,1.6-.243a1.8,1.8,0,0,1,1.566.376,1.561,1.561,0,0,1,.188,1.424,9.276,9.276,0,0,0-.066,1.643,12.123,12.123,0,0,1-.233,3.1,36.342,36.342,0,0,0-.917,14.529c.52,4,1.887,6.411,3.953,6.964,3.19.853,7.6-2.631,10.35-6.232a27.659,27.659,0,0,0,4.124-7.932c.431-1.109.876-2.255,1.389-3.407A4.623,4.623,0,0,1,4850.481,5621.049Z"/><path d="M5037.346,5649.583a1185.658,1185.658,0,0,0-162.967,149.142c-23.9,26.372-47.381,55.346-54.74,90.169s6.749,76.671,42.19,87.1c-.761,10.3,11.388,17.684,21.6,16.141s17.1-7.441,25.331-14.544c16.317-14.084,33.623-26.9,45.947-43.388,5.384-7.205,7.033-8.529,10.447-15.028,5.871-11.177-3.191-17.441-3.244-26.347-.064-10.6,8.735-22.552,15.446-30.759,44.081-53.906,100.536-99.276,130.545-162.112,1.506-3.152,2.97-6.492,2.8-9.981-.276-5.682-4.734-10.2-9.152-13.786a117.8,117.8,0,0,0-65.63-25.848" fill="#fefff0"/><path d="M4880.676,5993.437a22.524,22.524,0,0,1-14.942-5.758,14.677,14.677,0,0,1-5.041-10.879c-35.712-11.083-49.484-53.345-42.133-88.134,7.628-36.092,32.391-65.733,55-90.681A1188.973,1188.973,0,0,1,5036.681,5648.7l.47.622a119.068,119.068,0,0,1,65.09,26.006c4.289,3.479,9.253,8.281,9.559,14.587.181,3.7-1.337,7.223-2.906,10.51-20.407,42.73-53.519,77.965-85.539,112.039-15.22,16.2-30.959,32.944-45.148,50.3-6.553,8.014-15.259,19.848-15.2,30.056.018,3.1,1.218,5.881,2.488,8.827,2.135,4.952,4.555,10.566.63,18.038a58.057,58.057,0,0,1-6.874,10.39c-1.02,1.309-2.205,2.83-3.667,4.785-9.8,13.115-22.975,24.13-35.716,34.782-3.42,2.858-6.956,5.815-10.393,8.781-8.206,7.083-15.293,13.2-25.886,14.8A19.471,19.471,0,0,1,4880.676,5993.437Zm155.968-341.94A1186.917,1186.917,0,0,0,4875.2,5799.465c-22.419,24.735-46.964,54.1-54.479,89.657-7.2,34.073,6.325,75.486,41.423,85.812l.853.251-.065.887a12.359,12.359,0,0,0,4.3,9.989,20.045,20.045,0,0,0,16.032,4.981c9.963-1.5,16.827-7.429,24.775-14.288,3.45-2.978,6.993-5.94,10.419-8.8,13.226-11.058,25.718-21.5,35.365-34.41,1.471-1.971,2.666-3.5,3.693-4.821a55.643,55.643,0,0,0,6.66-10.06c3.436-6.541,1.427-11.2-.7-16.141-1.3-3.018-2.647-6.14-2.669-9.686-.065-10.919,8.927-23.186,15.695-31.464,14.237-17.41,30-34.186,45.248-50.409,31.906-33.952,64.9-69.059,85.157-111.48,1.508-3.159,2.849-6.259,2.693-9.452-.265-5.434-4.812-9.793-8.746-12.983A116.849,116.849,0,0,0,5036.644,5651.5Z"/><g opacity="0.11"><path d="M5111.8,5695.563s-35.271,61.724-55.845,78.869c-79.36,88.667-95.036,101.894-94.546,115.121a37.685,37.685,0,0,0,3.429,12.246s4.409,11.757,2.939,15.187-11.267,15.675-11.267,15.675l-12.247,12.247-27.922,25.964,130.306-307.151S5089.755,5690.664,5111.8,5695.563Z" fill="#071f56"/></g><path d="M5675,5353.115c-36.885,41.069-73.8,82.17-108.11,125.412-15.492,19.522-30.461,39.49-47.024,58.113-38.593,43.394-104.571,76.626-156.761,102.1,5.57,25.6,26.87,54.392,26.157,80.575,92.725-30.076,175.177-88.083,269.666-112.046,1.225-42.869-3.989-85.656-4.786-128.536s3.117-86.91,20.828-125.974v.407" fill="#fefff0"/><path d="M5388.117,5720.842l.042-1.56c.417-15.279-6.908-31.737-13.992-47.653-4.842-10.88-9.85-22.132-12.14-32.657l-.183-.845.777-.38c58.872-28.732,119.443-60.263,156.42-101.84,12.439-13.985,24.18-28.99,35.535-43.5q5.708-7.3,11.45-14.565c34.2-43.094,71.526-84.681,107.654-124.906.094-.212.189-.422.285-.634l2.106-4.645v5.507h-.2l.107.049c-.084.185-.167.367-.25.553l.1.086-.269.3c-14.813,33.146-21.269,72.767-20.307,124.559.324,17.429,1.4,35.145,2.434,52.278,1.514,24.994,3.08,50.84,2.352,76.31l-.025.832-.806.2c-51.659,13.1-100.6,36.828-147.922,59.774-39.173,18.992-79.678,38.631-121.674,52.253Zm-23.747-81.5c2.312,10.043,6.93,20.419,11.811,31.387,6.948,15.612,14.125,31.737,14.2,47.055,41.333-13.555,81.282-32.924,119.933-51.664,47.18-22.874,95.956-46.524,147.534-59.721.667-25.1-.877-50.608-2.371-75.282-1.039-17.155-2.113-34.9-2.438-52.37-.911-49.055,4.8-87.294,17.94-119.51-34.745,38.7-70.439,78.651-103.226,119.971q-5.752,7.25-11.441,14.552c-11.376,14.538-23.139,29.571-35.624,43.608C5483.609,5579.065,5423.195,5610.619,5364.37,5639.346Z"/><g opacity="0.11"><path d="M5563.463,5483.937l-131.286,194.48s-27.433-45.558-36.251-49.477l15.186-14.207,4.9-3.429s73.481-41.639,90.137-59.764C5524.273,5533.414,5563.463,5483.937,5563.463,5483.937Z" fill="#071f56"/></g><path d="M5476.755,5925.8c-99.127,44.153-279.705,162.6-331.481-8.817-23.25-76.974-48.987-167.211-70.542-240.365-23.2-78.75,272.37-206.4,318.745-80.339,27.01,73.422,76.42,162.638,111.1,234.722,28.608,59.456,13.46,79.162-28.317,95.289" fill="#fefff0"/><path d="M5253.222,6008.046c-16.2,0-31.59-2.64-45.715-8.789-29.44-12.815-50.733-40.388-63.288-81.953-14.784-48.949-30.479-102.926-45.656-155.127q-13.145-45.208-24.888-85.245c-12.273-41.652,61.237-94.269,136.384-119.132,40.956-13.55,80.729-18.58,111.992-14.169,36.732,5.185,61.788,23.26,72.46,52.27,19,51.636,48.666,110.267,77.359,166.969,12.052,23.818,23.437,46.316,33.705,67.656,14.192,29.5,18.028,50.239,12.072,65.283-5.14,12.983-17.4,22.407-40.984,31.512l-.09-.23c-12.849,5.745-27.1,12.741-42.177,20.142C5377.85,5974.992,5310.519,6008.046,5253.222,6008.046Zm45.313-463.77c-26.389,0-56.727,5.342-87.784,15.617-38.666,12.793-75.492,32.263-101.036,53.419-27.207,22.534-39.256,44.906-33.926,63q11.775,39.963,24.891,85.253c15.175,52.195,30.868,106.167,45.648,155.1,12.36,40.917,33.239,68.024,62.058,80.569,63.16,27.491,152.915-16.576,225.038-51.982,15.341-7.531,29.831-14.644,42.882-20.458l.115.255c22.594-8.794,34.325-17.8,39.176-30.053,5.714-14.432,1.9-34.615-12.009-63.517-10.257-21.319-21.638-43.808-33.686-67.616-28.721-56.757-58.42-115.446-77.46-167.2-10.522-28.6-34.308-45.711-70.7-50.848A166.664,166.664,0,0,0,5298.535,5544.276Z"/><g opacity="0.11"><path d="M5077.345,5630.9c0,.007,1.961,1.3,1.959,1.307-.258,1.373-6.511-2.553-5.878-1.307,28.356,55.877,12.41,45.069,56.419,117.99,31.394,52.018,113.332,42.088,160.66,3.989,16.693-13.437,32.764-28.672,48.3-43.083a242.032,242.032,0,0,0,65.037-100.95c4.076-12.233,9.684-27.691,18.15-48.694a257.445,257.445,0,0,1-92.187,97.812C5218.424,5726.621,5158.205,5729.195,5077.345,5630.9Z" fill="#071f56"/></g><path d="M5885.049,5188.369c-85.991,21.137-197.865,80.368-255.333,143.522-18.569,20.406-35.8,42.6-46.155,68.176-6.371,15.735-10,32.425-13.3,49.077-6.945,35.058-12.533,71.254-5.918,106.376a156.239,156.239,0,0,0,193.791,122.046c21.69-5.784,41.848-16.154,61.545-26.921,25.761-14.082,51.138-29.019,74.636-46.618,33.089-24.782,62.081-54.554,90.306-84.758,20.867-22.331,41.578-45.214,56.715-71.766s24.456-57.369,20.728-87.7c-1.926,22.123-17.7,40.866-35.936,53.54-47.249,32.841-120.088,36.529-161.423-3.5-39.156-37.92-48.368-102.294-31.971-157.449,7.185-24.167,17.636-46.375,52.319-64.021" fill="#3564da"/><path d="M5718.63,5683.768a159.836,159.836,0,0,1-84.6-24.029c-36.362-22.9-62.821-61.785-70.774-104.015-6.853-36.383-.538-74.2,5.921-106.794,3.193-16.121,6.856-33.206,13.362-49.276,11.348-28.032,30.738-51.335,46.362-68.5C5683,5271.7,5793,5209.86,5884.786,5187.3l9.281-2.281-8.519,4.334c-35.8,18.215-45.2,41.285-51.761,63.354-17.351,58.359-4.619,121.188,31.68,156.342,20.69,20.036,48.735,28.591,77.12,28.593,30,0,60.388-9.553,82.908-25.205,12.274-8.531,33.2-26.727,35.467-52.732l.911-10.465,1.281,10.427c4.327,35.21-8.958,67.5-20.864,88.384-15.013,26.333-35.467,49.071-56.869,71.973-25.828,27.639-56.248,59.272-90.449,84.887-25.551,19.136-53.379,35.011-74.769,46.7-19.051,10.414-39.515,21.078-61.79,27.018A154.639,154.639,0,0,1,5718.63,5683.768Zm158.181-492.142c-89.609,24.075-194.1,83.666-246.28,141.006-15.5,17.035-34.731,40.14-45.949,67.849-6.434,15.892-10.07,32.86-13.244,48.878-6.416,32.39-12.7,69.961-5.917,105.957,7.844,41.638,33.931,79.978,69.784,102.558s81.7,29.546,122.64,18.627c22.038-5.876,42.368-16.473,61.3-26.823,21.324-11.657,49.065-27.481,74.5-46.533,34.058-25.507,64.4-57.058,90.161-84.628,21.308-22.8,41.669-45.434,56.563-71.559,10.749-18.854,22.637-47.114,21.31-78.308-5.581,22.222-23.754,37.827-34.932,45.6-23.53,16.356-53.986,25.75-83.556,25.773h-.114c-31.473,0-59.576-10.434-79.148-29.388-18.831-18.236-31.672-43.427-37.135-72.851-5.107-27.513-3.376-57.949,4.874-85.7C5837.872,5231.228,5846.556,5209.5,5876.811,5191.626Z"/><g opacity="0.11"><path d="M6062.06,5359.8c-1.926,22.123-17.7,40.866-35.936,53.54-2.856,1.985,3.377-35.313.347-33.544-14.544,23.117-33.091,43.564-51.775,63.558-28.225,30.2-57.217,59.977-90.3,84.758-23.5,17.6-48.876,32.537-74.637,46.619-19.7,10.767-39.855,21.137-61.545,26.92-41.394,11.037-96.079,12.888-132.33-9.942-17.589-11.077-41.013-18.228-52.906-35.271,11.8,32.531,42.335,83.91,71.644,102.368a158.294,158.294,0,0,0,123.513,18.76c21.689-5.784,41.848-16.154,61.544-26.921,25.761-14.082,51.139-29.019,74.637-46.618,33.089-24.782,62.081-54.554,90.305-84.758,20.868-22.331,41.579-45.214,56.715-71.766S6065.788,5390.134,6062.06,5359.8Z" fill="#071f56"/></g><g opacity="0.15"><path d="M5586.5,5460.322c10.353-25.574,27.587-47.77,46.155-68.177,44.948-49.4,123.178-96.389,196.275-124.635q1.588-7.645,3.8-15.12c7.185-24.167,17.636-46.375,52.319-64.021-85.991,21.137-197.865,80.368-255.333,143.522-18.569,20.406-35.8,42.6-46.155,68.176-6.371,15.735-10,32.425-13.3,49.077-6.945,35.058-12.533,71.254-5.918,106.376.305,1.619.646,3.23,1,4.837,1.511-17.085,4.524-34.152,7.854-50.958C5576.5,5492.747,5580.13,5476.057,5586.5,5460.322Z" fill="#a6c4ff"/></g><path d="M5387,5204.392c-52.183-37.482-118-51.205-180.469-42.652s-121.505,38.474-170.446,80.6c-17.043,14.672-33.085,30.98-45.357,50.3-11.547,18.173-19.534,38.667-25.644,59.611-18.166,62.271-19.864,130.742.368,192.29s63.342,115.338,119.59,141.4c70.581,32.7,153.135,19.621,224.84-10.192,45.452-18.9,89.327-44.884,122.109-83.3,11.7-13.715,21.934-28.993,29.056-45.888,7.974-18.918,11.9-39.429,15.761-59.746,4.15-21.817,8.309-43.7,9.884-65.9,6-84.527-31-174.323-100.511-215.931" fill="#fefff0"/><path d="M5176.5,5706.27c-30.568,0-61.886-5.415-91.925-19.332-54.276-25.146-99.2-78.249-120.174-142.053-19.36-58.894-19.495-127.416-.379-192.943,7.016-24.048,15.445-43.64,25.772-59.893,10.823-17.036,25.3-33.095,45.568-50.54,51.913-44.69,111.05-72.651,171.015-80.861,64.911-8.887,130.977,6.731,181.262,42.849l-.542.754c33.38,20.09,60.576,51.947,78.659,92.152a263.46,263.46,0,0,1,22.032,124.59c-1.583,22.286-5.811,44.521-9.9,66.023-3.821,20.086-7.773,40.856-15.828,59.968-6.588,15.627-16.423,31.163-29.234,46.176-29.064,34.063-69.142,61.41-122.524,83.6C5273.493,5692.069,5225.99,5706.268,5176.5,5706.27Zm65.745-545.86a262.245,262.245,0,0,0-35.569,2.422c-59.543,8.152-118.286,35.936-169.876,80.348-20.1,17.3-34.442,33.2-45.146,50.05-10.213,16.076-18.559,35.483-25.516,59.33-18.993,65.1-18.866,133.161.357,191.636,20.786,63.234,65.274,115.848,119,140.742,77.948,36.113,164.811,14.381,223.955-10.21,53.052-22.057,92.859-49.207,121.693-83,12.664-14.841,22.38-30.183,28.879-45.6,7.965-18.9,11.895-39.55,15.694-59.524,4.078-21.44,8.295-43.609,9.869-65.767,6.315-88.968-33.862-175.333-99.979-214.907l.492-.822C5345.5,5176.023,5294.523,5160.41,5242.25,5160.41Z"/><path d="M5199.86,5554.6c-7.339,0-14.646-1.7-21.348-3.258l.5-2.147c9.612,2.236,20.5,4.769,30.621,1.948,6.8-1.9,12.822-6.142,18.312-10.448,4.834-3.789,9.561-7.832,14.048-12.017l1.5,1.613c-4.533,4.227-9.307,8.311-14.19,12.14-5.672,4.446-11.907,8.835-19.081,10.835A38.405,38.405,0,0,1,5199.86,5554.6Z"/><path d="M4996.212,5451.378c0-66.226,16.516-124.609,70.061-170.617,14.888-12.792,31.62-23.311,49.008-32.418,62.552-32.764,140.7-46.535,203.1-13.487,24.879,13.175,45.743,32.975,63.453,54.859,32.434,40.079,55.535,89.571,55.684,141.129.009,3.134-.134,6.483-1.957,9.032-1.884,2.633-5.127,3.828-7.958,5.4-15.314,8.5-19.209,29-17.254,46.4s8.02,34.632,5.928,52.023c-3.516,29.223-28.772,50.73-54.033,65.836a352.561,352.561,0,0,1-225.67,46.451c-27.448-3.672-55.174-10.95-77.575-27.231-26.293-19.11-42.991-49.158-51.918-80.411s-8.6-64.514-10.364-96.969" fill="#071f56"/><path d="M5321.268,5470.885a62.873,62.873,0,0,1,42.092-26.616c7.579-1.152,15.7-.795,22.372,2.978,5.635,3.186,9.78,8.572,12.518,14.438,7.222,15.472,4.773,34.892-5.759,48.331s-28.561,20.446-45.465,18.038c-3.393-.483-6.843-1.365-9.565-3.449-3.125-2.394-4.94-6.093-6.439-9.734a106.306,106.306,0,0,1-7.863-45.317" fill="#e87064"/><path d="M5353.768,5529.081a48.352,48.352,0,0,1-6.819-.481c-2.731-.389-6.719-1.18-9.822-3.557-3.225-2.47-5.085-6.248-6.614-9.962a107.16,107.16,0,0,1-7.924-45.133q-.439.616-.865,1.245l-.913-.617a63.637,63.637,0,0,1,42.467-26.852c9.07-1.38,16.717-.355,22.725,3.043,6.616,3.741,10.583,10.051,12.747,14.685,7.256,15.547,4.915,35.2-5.825,48.9A50.221,50.221,0,0,1,5353.768,5529.081Zm-30.886-59.54.827.039a106.069,106.069,0,0,0,7.822,45.081c1.471,3.572,3.248,7.195,6.266,9.507,2.9,2.219,6.7,2.97,9.307,3.341,16.933,2.414,34.573-4.589,44.953-17.834,10.49-13.385,12.779-32.577,5.694-47.757-2.1-4.488-5.928-10.593-12.29-14.192-5.79-3.274-13.2-4.254-22.018-2.912A62.6,62.6,0,0,0,5322.882,5469.541Z"/><path d="M4951.536,5428.085c-7.124-23.44-15.094-49.436-22.8-74.576-7.674-25.029-15.609-50.91-22.7-74.252l2.109-.641c7.094,23.34,15.028,49.22,22.7,74.247,7.707,25.142,15.678,51.138,22.8,74.582Z"/><path d="M5469.759,5311.425c-30.251-81.741-32.038-87.038-63.728-188.94l2.105-.655c31.674,101.848,33.458,107.142,63.69,188.83Z"/><path d="M5579.425,5762.672a81.809,81.809,0,0,1,3.66-9.6c7.041-15.379,15.412-13.56,19.554.45.8,2.311,1.294,5.211,1.96,7.383.9,2.446,3.833,2.206,6.122,2.292,17.821.659,24.888,14.324,7.754,17.675-1.454.457-4.3.332-4.637,1.705a3.617,3.617,0,0,0,.635,2.238c6,9.188,7.786,26.185-2.743,24.492-4.2-.8-7.376-4.472-9.9-7.942-1.9-2.18-4.568-9.257-7.545-9.152a3.922,3.922,0,0,0-2.455,1.66c-2.757,3.675-4.613,7.422-8.295,10.294-6.451,5.365-16.447,8.21-15.222-4.539a38.422,38.422,0,0,1,4.358-14.7c.747-1.392.959-3.838,1.4-4.731.434-.833.228-1.3-.916-1.411-1.552-.151-3.456-.166-5.138-.482-14.7-1.846-15.2-14.914,3.847-16.078,2.6-.159,5.766-.51,8.16.294" fill="#fed15c"/><path d="M5614.342,5809.885a8.254,8.254,0,0,1-2.7-.024c-4.427-.841-7.67-4.6-10.26-8.165a22.8,22.8,0,0,1-2.049-3.2c-1.4-2.44-3.324-5.781-5.023-5.721-.755.042-1.489.8-2.047,1.461-.749,1-1.458,2.046-2.143,3.058a29.544,29.544,0,0,1-6.236,7.316c-4.008,3.335-9.636,5.882-13.144,4.027-2.431-1.285-3.434-4.334-2.98-9.061a38.876,38.876,0,0,1,4.427-14.922,11.872,11.872,0,0,0,.843-2.791,9.5,9.5,0,0,1,.542-1.913c.169-.325.154-.441.152-.451h0a1.243,1.243,0,0,0-.617-.155c-.515-.05-1.069-.085-1.639-.121a29.773,29.773,0,0,1-3.549-.368c-7.893-.991-11.329-4.969-11.216-8.471.115-3.6,4.15-8.047,15.132-8.718.318-.019.643-.041.975-.064a24.671,24.671,0,0,1,6.337.106,80.39,80.39,0,0,1,3.433-8.873c4.37-9.547,8.589-11.316,11.361-11.12,3.816.271,7.1,4.409,9.238,11.65.453,1.307.81,2.812,1.155,4.268.266,1.121.518,2.181.8,3.11.66,1.786,2.773,1.831,4.816,1.875.27.006.535.011.793.022,10.84.4,17.706,5.586,18.081,10.368.308,3.949-3.508,7.092-10.212,8.41a12.03,12.03,0,0,1-1.612.318c-1.1.166-2.469.376-2.618.978a3.23,3.23,0,0,0,.589,1.845c4.273,6.533,6.709,17.5,3.327,22.707A5.7,5.7,0,0,1,5614.342,5809.885Zm-20.356-18.2a2.306,2.306,0,0,1,.275-.03c2.382-.085,4.327,3.3,6.043,6.282a22.462,22.462,0,0,0,1.952,3.061c2.493,3.427,5.552,6.994,9.578,7.759,2.5.4,4.359-.3,5.525-2.1,3.056-4.71.749-15.252-3.355-21.532a4.193,4.193,0,0,1-.719-2.636c.338-1.372,2.043-1.634,3.546-1.86a11,11,0,0,0,1.476-.288l.06-.016c6.108-1.2,9.6-3.9,9.339-7.228-.336-4.293-6.789-8.959-17-9.337-.252-.009-.511-.015-.775-.02-2.192-.047-4.92-.1-5.853-2.639-.306-.993-.561-2.069-.831-3.209-.339-1.429-.69-2.906-1.133-4.183-1.977-6.688-4.981-10.643-8.25-10.875-3.418-.242-7.061,3.477-10.264,10.475a80.693,80.693,0,0,0-3.635,9.533l-.037-.011-.075.221c-2-.67-4.635-.49-6.964-.331-.334.023-.662.046-.982.065-9.579.588-13.973,4.257-14.081,7.635-.093,2.9,3.082,6.425,10.269,7.328a28.879,28.879,0,0,0,3.447.356c.584.037,1.15.073,1.676.125a1.864,1.864,0,0,1,1.5.743,1.621,1.621,0,0,1-.14,1.484,9.542,9.542,0,0,0-.447,1.648,12.676,12.676,0,0,1-.955,3.089,37.726,37.726,0,0,0-4.294,14.49c-.4,4.172.425,6.926,2.388,7.963,3.03,1.6,8.3-.9,11.917-3.909a28.692,28.692,0,0,0,6.011-7.072c.693-1.022,1.409-2.079,2.2-3.127A4.809,4.809,0,0,1,5593.986,5791.685Z"/><path d="M5182.051,5659.165a347.663,347.663,0,0,1-46.111-3.063c-33.723-4.512-58.532-13.228-78.076-27.432-30.45-22.131-45.264-56.264-52.331-81-7.308-25.589-8.457-52.8-9.568-79.121-.25-5.941-.509-12.084-.835-18.09l1.1-.06h-1.61c0-75.676,22.384-130.157,70.446-171.452,13.6-11.688,29.7-22.338,49.214-32.559,33.191-17.385,68.466-28.293,102.012-31.544,38.151-3.7,72.51,2.379,102.118,18.059,22.575,11.955,43.443,29.992,63.794,55.14,35.93,44.4,55.793,94.764,55.929,141.819.01,3.352-.149,6.86-2.163,9.677-1.632,2.282-4.094,3.539-6.476,4.755-.622.316-1.242.633-1.842.966-15.118,8.393-18.537,28.913-16.694,45.317.651,5.807,1.787,11.709,2.885,17.416,2.188,11.379,4.451,23.145,3.042,34.862-2.927,24.324-21.285,46.749-54.562,66.65A352.114,352.114,0,0,1,5182.051,5659.165Zm-184.72-208.827c.326,6.02.586,12.169.838,18.117,1.1,26.19,2.247,53.271,9.485,78.609,6.97,24.4,21.564,58.061,51.506,79.822,19.236,13.981,43.727,22.57,77.073,27.031a349.65,349.65,0,0,0,224.958-46.305c32.662-19.533,50.664-41.409,53.5-65.021,1.369-11.376-.861-22.97-3.017-34.182-1.106-5.749-2.249-11.694-2.911-17.586-1.922-17.111,1.75-38.572,17.815-47.492.622-.345,1.265-.673,1.909-1,2.246-1.146,4.366-2.229,5.686-4.074,1.633-2.282,1.761-5.4,1.751-8.388-.134-46.554-19.823-96.429-55.438-140.438-20.16-24.913-40.8-42.766-63.111-54.579-54.9-29.075-130.444-24.031-202.076,13.489-19.364,10.143-35.327,20.7-48.8,32.278-47.531,40.841-69.672,94.777-69.678,169.749Z"/><ellipse cx="70.052" cy="86.708" rx="70.052" ry="86.708" transform="translate(5409.153 5354.61)" fill="#fefff0"/><path d="M5479.2,5529.128c-39.234,0-71.153-39.392-71.153-87.81s31.919-87.81,71.153-87.81,71.154,39.392,71.154,87.81S5518.438,5529.128,5479.2,5529.128Zm0-173.415c-38.019,0-68.949,38.4-68.949,85.6s30.93,85.6,68.949,85.6,68.95-38.4,68.95-85.6S5517.223,5355.713,5479.2,5355.713Z"/><ellipse cx="51.846" cy="64.173" rx="51.846" ry="64.173" transform="translate(5448.913 5383.023)" fill="#071f56"/><path d="M5500.759,5512.472c-29.2,0-52.949-29.282-52.949-65.275s23.753-65.276,52.949-65.276,52.949,29.283,52.949,65.276S5529.956,5512.472,5500.759,5512.472Zm0-128.346c-27.981,0-50.744,28.293-50.744,63.071s22.763,63.071,50.744,63.071,50.745-28.294,50.745-63.071S5528.739,5384.126,5500.759,5384.126Z"/><g opacity="0.29"><ellipse cx="51.846" cy="64.173" rx="51.846" ry="64.173" transform="translate(5448.913 5383.023)" fill="#fff"/></g><path d="M5470.467,5447.2c0-30.867,17.609-56.636,41.069-62.776a42.49,42.49,0,0,0-10.777-1.4c-28.634,0-51.846,28.732-51.846,64.174s23.212,64.173,51.846,64.173a42.489,42.489,0,0,0,10.777-1.4C5488.076,5503.832,5470.467,5478.063,5470.467,5447.2Z" fill="#071f56"/><circle cx="33.311" cy="33.311" r="33.311" transform="translate(4866.373 5214.18)" fill="#fd64e0"/><path d="M4899.684,5281.9a34.413,34.413,0,1,1,34.414-34.413A34.453,34.453,0,0,1,4899.684,5281.9Zm0-66.623a32.209,32.209,0,1,0,32.21,32.21A32.246,32.246,0,0,0,4899.684,5215.282Z"/><circle cx="33.311" cy="33.311" r="33.311" transform="translate(5362.125 5058.727)" fill="#fd64e0"/><path d="M5395.436,5126.452a34.414,34.414,0,1,1,34.414-34.414A34.452,34.452,0,0,1,5395.436,5126.452Zm0-66.623a32.209,32.209,0,1,0,32.209,32.209A32.245,32.245,0,0,0,5395.436,5059.829Z"/><g opacity="0.15"><path d="M5325.548,5173.031c-1.8-.613-3.527-1.187-5.2-1.731q-6.565.81-12.806,2.177C5313.32,5173.052,5319.305,5172.908,5325.548,5173.031Z" fill="#a6c4ff"/></g><g opacity="0.15"><path d="M5346.122,5170.091c-30.7-10.45-42.486-10.657-68.518-13.72l2.868-.408a137.927,137.927,0,0,0-35.82,3.118,135.387,135.387,0,0,1,15.246-.179l-2.869.408c24.507,2.883,36.4,3.239,63.317,11.99A181.258,181.258,0,0,1,5346.122,5170.091Z" fill="#a6c4ff"/></g><path d="M5456.471,5937.753c72.289,89.153,169.742,232.249,259.343,375.05-29.869,20.851-69.638,45.013-100.914,63.684-45.81-42.058-123.2-198.115-163.014-245.89-25.281-30.338-49.7-64.306-53.625-103.6s20.631-83.954,59.863-88.468" fill="#fefff0"/><path d="M5614.759,6377.854l-.606-.555c-26.439-24.275-62.474-84.877-97.322-143.485-25.153-42.3-48.91-82.253-65.792-102.512-25.652-30.782-49.933-64.71-53.876-104.2-3.815-38.231,19.649-83.97,59.494-89.5l.67-.544c.112.137.224.276.334.413l.337-.04.062.531c67.459,83.341,161.681,219.652,258.687,374.254l.558.889-.861.6c-30.207,21.087-69.833,45.133-100.98,63.726Zm-158.034-438.035c-38.459,5.506-61.076,49.919-57.368,87.067,3.884,38.9,27.948,72.493,53.377,103,16.993,20.392,40.794,60.42,65.992,102.8,34.5,58.024,70.168,118.008,96.317,142.43,30.711-18.339,69.468-41.875,99.279-62.618C5617.74,6158.625,5523.977,6022.978,5456.725,5939.819Z"/><path d="M5253.77,6363.432c40.073-106.411,80.146-212.823,118.951-321-37.562-11.912-82.278-22.71-113.338,1.542-15.616,12.194-24.267,31.028-32.348,49.118L5115.372,6343.04A566.1,566.1,0,0,1,5248,6372.6l5.363-12.6" fill="#fefff0"/><path d="M5248.612,6373.98l-.975-.345a564.945,564.945,0,0,0-132.374-29.5l-1.521-.151,112.286-251.346c7.725-17.292,16.481-36.891,32.677-49.537,30.407-23.743,72.927-14.862,114.349-1.725l1.091.346-.387,1.077c-38.829,108.249-79.564,216.415-118.957,321.019l-1.606-.6ZM5117,6342.1a567.08,567.08,0,0,1,130.394,29.117l4.958-11.645,1.461.622c38.926-103.364,79.129-210.164,117.484-317.056-40.5-12.762-81.9-21.2-111.236,1.706-15.763,12.309-24.4,31.642-32.02,48.7Z"/><path d="M5188.954,6256.713c-99.138,60.189-172.925,203.208-182.529,318.789-61.6,18.458-108.294,78.541-110.965,142.8-.442,10.646.467,22.069,6.955,30.522,5.557,7.239,14.334,11.154,22.891,14.326,92.01,34.109,194.3,13.777,289.833-8.631,13.885-3.257,28.169-6.733,39.706-15.118,26-18.9,29.928-55.439,31.569-87.535,3.022-59.093,6.018-118.71-3.386-177.128-5.928-36.825-36.89-72.288-27.478-108.38,10.07-38.609,9.507-79.764-3.157-95.19s-44.367-20.335-63.439-14.451" fill="#3564da"/><path d="M5035.077,6782.416c-40.944,0-77.218-6.026-110.155-18.236-8.789-3.258-17.7-7.293-23.38-14.689-7.212-9.394-7.553-22.328-7.183-31.239,2.68-64.483,49.323-124.744,111.03-143.589,4.93-57.767,25.429-121.607,57.762-179.863,34.007-61.272,78.482-110.647,125.232-139.029l.246-.111c19.762-6.1,51.593-1.06,64.615,14.8,12.512,15.241,13.931,55.685,3.373,96.168-5.678,21.771,3.444,42.986,13.1,65.447,5.94,13.818,12.084,28.106,14.4,42.479,9.462,58.781,6.38,119.063,3.4,177.359-1.673,32.711-5.665,69.213-32.022,88.371-11.97,8.7-26.916,12.206-40.1,15.3-44.325,10.4-95.849,21.8-146.41,25.535Q5051.506,6782.414,5035.077,6782.416Zm154.332-524.69c-93.357,56.756-171.541,193.377-181.887,317.867l-.061.75-.72.215c-61.19,18.333-107.527,77.963-110.18,141.786-.356,8.568-.045,20.979,6.729,29.8,5.338,6.955,13.92,10.822,22.4,13.965,90.271,33.462,188.307,14.992,289.2-8.671,12.983-3.045,27.7-6.5,39.309-14.936,25.571-18.587,29.469-54.5,31.116-86.7,2.975-58.183,6.052-118.345-3.373-176.9-2.27-14.1-8.358-28.264-14.246-41.959-9.38-21.814-19.079-44.372-13.211-66.875,10.394-39.852,9.157-79.474-2.941-94.212C5239.283,6256.931,5208.127,6252.019,5189.409,6257.726Z"/><path d="M5145.13,6663.173c-47.761-24.345-90.976-43.859-136.266-36.012l-.377-2.172c49.7-8.616,100.529,17.3,137.645,36.221Z"/><g opacity="0.13"><path d="M4947.484,6748.82c-6.488-8.453-7.4-19.876-6.955-30.522,2.67-64.255,49.36-124.338,110.964-142.8,9.526-114.643,82.2-256.265,180.126-317.292-14.023-4.637-30.791-5.159-42.665-1.5-99.138,60.189-172.925,203.208-182.529,318.788-61.6,18.459-108.294,78.542-110.965,142.8-.442,10.646.467,22.069,6.955,30.522,5.557,7.239,14.334,11.154,22.891,14.326,42.6,15.791,87.394,19.909,132.705,17.559-29.857-1.694-59.237-7.03-87.637-17.559C4961.817,6759.974,4953.04,6756.059,4947.484,6748.82Z" fill="#a6c4ff"/></g><g opacity="0.13"><path d="M5008.675,6626.075l136.956,36.116c-22.584-11.512-46.248-23.2-70.516-30.481l-13.388-3.53C5044.251,6624.244,5026.51,6622.984,5008.675,6626.075Z" fill="#a6c4ff"/></g><g opacity="0.13"><path d="M5053.744,6626.075l7.983,2.1c4.481,1.009,8.944,2.2,13.388,3.53l115.584,30.481C5147.854,6640.351,5101.128,6617.862,5053.744,6626.075Z" fill="#a6c4ff"/></g><path d="M5636.467,6223.765c101.233,61.461,176.578,207.5,186.385,325.522,62.906,18.848,110.581,80.2,113.308,145.812.452,10.872-.477,22.536-7.1,31.167-5.674,7.392-14.636,11.39-23.374,14.629-93.954,34.829-198.4,14.068-295.954-8.814-14.179-3.326-28.765-6.874-40.545-15.437-26.546-19.294-30.56-56.61-32.236-89.384-3.085-60.341-6.145-121.217,3.458-180.869,6.053-37.6,37.669-73.814,28.058-110.668-10.282-39.426-9.708-81.449,3.224-97.2s45.3-20.764,64.778-14.757" fill="#3564da"/><path d="M5793.6,6760.549q-16.786,0-34.62-1.32c-51.626-3.813-104.237-15.458-149.5-26.075-13.464-3.158-28.723-6.738-40.941-15.619-26.905-19.555-30.98-56.822-32.688-90.219-3.044-59.525-6.192-121.077,3.47-181.1,2.362-14.672,8.634-29.26,14.7-43.368,9.863-22.94,19.179-44.608,13.379-66.846-10.779-41.332-9.333-82.622,3.44-98.179,13.293-16.192,45.784-21.331,65.954-15.11l.246.111c47.734,28.98,93.145,79.395,127.87,141.958,33.016,59.486,53.948,124.68,58.98,183.667,63.007,19.236,110.637,80.766,113.373,146.606.379,9.095.03,22.3-7.329,31.884-5.792,7.546-14.893,11.665-23.865,14.991C5872.439,6754.4,5835.4,6760.548,5793.6,6760.549ZM5618.32,6222.416c-17.25,0-36.646,5.681-45.78,16.806-12.357,15.053-13.623,55.521-3.009,96.222,5.991,22.971-3.911,46-13.487,68.274-6.013,13.984-12.23,28.444-14.549,42.848-9.625,59.793-6.483,121.227-3.444,180.638,1.681,32.888,5.663,69.564,31.782,88.548,11.859,8.62,26.888,12.145,40.148,15.256,103.025,24.164,203.136,43.028,295.32,8.854,8.663-3.212,17.43-7.163,22.883-14.267,6.922-9.018,7.238-21.7,6.875-30.449-2.709-65.18-50.032-126.079-112.523-144.8l-.72-.216-.062-.749c-10.563-127.126-90.407-266.641-185.741-324.6A61.711,61.711,0,0,0,5618.32,6222.416Z"/><path d="M5681.207,6638.789l-1-1.963c37.9-19.32,89.805-45.778,140.536-36.984l-.376,2.172C5774.118,6594,5729.981,6613.927,5681.207,6638.789Z"/><path d="M5636.467,6223.765c101.233,61.461,176.578,207.5,186.385,325.522,62.906,18.848,110.581,80.2,113.308,145.812.452,10.872-.477,22.536-7.1,31.167-5.674,7.392-14.636,11.39-23.374,14.629-93.954,34.829-198.4,14.068-295.954-8.814-14.179-3.326-28.765-6.874-40.545-15.437-26.546-19.294-30.56-56.61-32.236-89.384-3.085-60.341-6.145-121.217,3.458-180.869,6.053-37.6,37.669-73.814,28.058-110.668-10.282-39.426-9.708-81.449,3.224-97.2s45.3-20.764,64.778-14.757" fill="#3564da"/><path d="M5793.6,6760.549q-16.786,0-34.62-1.32c-51.626-3.813-104.237-15.458-149.5-26.075-13.464-3.158-28.723-6.738-40.941-15.619-26.905-19.555-30.98-56.822-32.688-90.219-3.044-59.525-6.192-121.077,3.47-181.1,2.362-14.672,8.634-29.26,14.7-43.368,9.863-22.94,19.179-44.608,13.379-66.846-10.779-41.332-9.333-82.622,3.44-98.179,13.293-16.192,45.784-21.331,65.954-15.11l.246.111c47.734,28.98,93.145,79.395,127.87,141.958,33.016,59.486,53.948,124.68,58.98,183.667,63.007,19.236,110.637,80.766,113.373,146.606.379,9.095.03,22.3-7.329,31.884-5.792,7.546-14.893,11.665-23.865,14.991C5872.439,6754.4,5835.4,6760.548,5793.6,6760.549ZM5618.32,6222.416c-17.25,0-36.646,5.681-45.78,16.806-12.357,15.053-13.623,55.521-3.009,96.222,5.991,22.971-3.911,46-13.487,68.274-6.013,13.984-12.23,28.444-14.549,42.848-9.625,59.793-6.483,121.227-3.444,180.638,1.681,32.888,5.663,69.564,31.782,88.548,11.859,8.62,26.888,12.145,40.148,15.256,103.025,24.164,203.136,43.028,295.32,8.854,8.663-3.212,17.43-7.163,22.883-14.267,6.922-9.018,7.238-21.7,6.875-30.449-2.709-65.18-50.032-126.079-112.523-144.8l-.72-.216-.062-.749c-10.563-127.126-90.407-266.641-185.741-324.6A61.711,61.711,0,0,0,5618.32,6222.416Z"/><path d="M5681.207,6638.789l-1-1.963c37.9-19.32,89.805-45.778,140.536-36.984l-.376,2.172C5774.118,6594,5729.981,6613.927,5681.207,6638.789Z"/><g opacity="0.13"><path d="M5936.16,6695.1c-2.727-65.612-50.4-126.964-113.308-145.812-9.807-118.022-85.152-264.061-186.385-325.522-11.212-3.459-26.7-3.257-40.288.537,100.8,61.765,175.744,207.3,185.523,324.985,62.906,18.848,110.582,80.2,113.309,145.812.451,10.872-.477,22.536-7.1,31.167-5.674,7.392-14.637,11.39-23.374,14.629-29.75,11.029-60.553,16.478-91.855,18.056,45.414,2.12,90.293-2.223,133-18.056,8.738-3.239,17.7-7.237,23.374-14.629C5935.683,6717.635,5936.612,6705.971,5936.16,6695.1Z" fill="#a6c4ff"/></g><g opacity="0.13"><path d="M5778.556,6600.8c.283.047.565.081.849.13l-43.541,11.482c-18.894,7.138-37.355,16.322-55.158,25.4l139.848-36.88A130.843,130.843,0,0,0,5778.556,6600.8Z" fill="#a6c4ff"/></g><g opacity="0.13"><path d="M5639.556,6637.808l96.308-25.4a209.162,209.162,0,0,1,42.692-11.612C5730.462,6592.825,5683.05,6615.636,5639.556,6637.808Z" fill="#a6c4ff"/></g><path d="M6017.286,5418.97c1.7-2.7,3.357-5.43,4.94-8.207,15.137-26.552,24.457-57.369,20.729-87.7-1.926,22.124-17.7,40.866-35.936,53.541-47.249,32.84-120.088,36.528-161.423-3.5a114.886,114.886,0,0,1-12.027-13.719c6.523,19.191,16.818,36.6,31.132,50.46C5903.538,5447.449,5970.183,5446.464,6017.286,5418.97Z" fill="#071f56"/><path d="M5943.154,5440.018c-1.771,0-3.535-.033-5.3-.1-29.286-1.088-55.538-11.49-73.918-29.29-13.956-13.514-24.523-30.638-31.409-50.9l-2.233-6.57,4.159,5.555a114.474,114.474,0,0,0,11.912,13.587c42.559,41.214,116.2,33.848,160.027,3.388,12.274-8.531,33.2-26.726,35.467-52.731l.911-10.464,1.281,10.426c4.327,35.211-8.958,67.5-20.865,88.384-1.458,2.556-3.081,5.255-4.965,8.248l-.144.229-.234.136A149.726,149.726,0,0,1,5943.154,5440.018Zm-106.2-74.6c6.732,17.152,16.306,31.806,28.517,43.632,40.63,39.345,108.069,34.059,151.03,9.107,1.8-2.875,3.368-5.474,4.771-7.937,10.75-18.854,22.641-47.109,21.312-78.308-5.581,22.222-23.755,37.827-34.932,45.6-23.531,16.355-53.987,25.749-83.558,25.773h-.113c-31.473,0-59.575-10.434-79.147-29.388A112.91,112.91,0,0,1,5836.95,5365.415Z"/><ellipse cx="111.324" cy="154.311" rx="111.324" ry="154.311" transform="translate(5781.867 5230.159) rotate(-22.049)" fill="#071f56"/><path d="M5969.719,5481.511c-50.357,0-104.461-42.52-130.946-107.912h0c-32.17-79.428-11.6-162.98,45.862-186.252,27.9-11.3,60.192-6.885,90.928,12.429,30.624,19.242,56.058,51,71.617,89.413,32.17,79.427,11.6,162.979-45.862,186.251A83.709,83.709,0,0,1,5969.719,5481.511Zm-128.9-108.74c31.714,78.3,103.342,123.443,159.675,100.626s76.358-105.08,44.646-183.381c-15.387-37.99-40.512-69.375-70.747-88.374-30.124-18.928-61.7-23.278-88.928-12.252C5829.132,5212.205,5809.1,5294.47,5840.816,5372.771Z"/><g opacity="0.29"><path d="M6046.159,5289.6c-27.513-67.928-84.709-110.958-136.43-107,47.962,3.511,98.019,44.819,123.2,107,31.993,78.991,11.732,161.736-45.254,184.816a82.168,82.168,0,0,1-24.68,5.766,83.885,83.885,0,0,0,37.907-5.766C6057.89,5451.338,6078.151,5368.593,6046.159,5289.6Z" fill="#fff"/></g><g opacity="0.29"><path d="M5839.795,5373.185c-31.993-78.991-11.732-161.736,45.254-184.816a82.161,82.161,0,0,1,24.68-5.766,83.881,83.881,0,0,0-37.907,5.766c-56.986,23.08-77.247,105.825-45.254,184.816,27.513,67.928,84.709,110.958,136.43,107C5915.035,5476.673,5864.979,5435.365,5839.795,5373.185Z" fill="#fff"/></g><ellipse cx="72.792" cy="113.012" rx="72.792" ry="113.012" transform="translate(5845.854 5243.157) rotate(-14.852)" fill="#fefff0"/><path d="M5961.885,5445.663c-35.994,0-73.692-38.548-88.129-92.987-16.128-60.82,2.792-118.8,42.176-129.243s84.548,30.541,100.677,91.362-2.791,118.8-42.176,129.243A48.861,48.861,0,0,1,5961.885,5445.663ZM5928.544,5224a46.88,46.88,0,0,0-12.048,1.561c-38.208,10.132-56.426,66.9-40.608,126.546s59.762,99.933,97.981,89.795,56.426-66.9,40.608-126.546C6000.3,5261.907,5963.529,5224,5928.544,5224Z"/><ellipse cx="43.584" cy="88.45" rx="43.584" ry="88.45" transform="matrix(0.967, -0.256, 0.256, 0.967, 5879.324, 5255.418)" fill="#071f56"/><path d="M5961.182,5417.063c-22.621,0-48.621-32.007-60.252-75.867-6.1-23-7.415-45.806-3.707-64.226,3.762-18.691,12.266-30.691,23.947-33.789,23.821-6.318,53.491,27.379,66.147,75.107s3.577,91.7-20.24,98.014A22.909,22.909,0,0,1,5961.182,5417.063ZM5927.2,5244.607a21.232,21.232,0,0,0-5.467.706c-10.825,2.87-18.762,14.268-22.351,32.092-3.641,18.1-2.336,40.549,3.678,63.226,12.346,46.556,40.809,79.541,63.452,73.54s31.018-48.764,18.673-95.318C5973.816,5275.978,5948.774,5244.607,5927.2,5244.607Z"/><path d="M5516.925,5870.611c20.678,51.462,59.215,105.042,43.55,162.236-35.171,71.048-99.346,112.763-177.621,120.706-125.747-16.692-177.79-28.907-180.238-167.478,99.775-41.275,223.371-46.153,314.309-114.811" fill="#071f56"/><path d="M5382.837,6154.663l-.128-.018c-63.756-8.463-107.727-15.7-136.886-38.255-29.853-23.094-43.1-62.061-44.309-130.3l-.013-.751.694-.286c37.058-15.331,78.23-25.863,118.047-36.049,68.32-17.477,138.967-35.55,196.019-78.623l.285.378,1.4-.564c4.774,11.882,10.639,24.16,16.311,36.036,19.383,40.586,39.427,82.554,27.281,126.9l-.076.2c-34.687,70.069-98.078,113.152-178.5,121.313Zm-179.1-167.856c2.6,136.7,53.737,148.986,179.139,165.636,79.536-8.11,142.239-50.722,176.569-119.989,11.87-43.521-7.977-85.079-27.171-125.269-5.4-11.3-10.968-22.962-15.624-34.332-57.236,42.828-127.7,60.856-195.856,78.291C5281.3,5961.246,5240.465,5971.692,5203.732,5986.807Z"/><path d="M5068.865,5533.31c3.446,17.164,3.4,34.82,5.43,52.209s6.446,35.16,17.407,48.81c13.748,17.119,40.547,23.331,62.716,24,48.5,1.47,40.17.49,79.85-3.429,29.524-2.916,63.447-13.684,93.566-27.923,14.611-6.907,16.2-25.705,19.965-41.423,1.949-8.14,3.623-16.392,3.951-24.755,1.294-33.058-18.345-63.951-19.031-97a196.543,196.543,0,0,0-235.017,21.974c-14.13,12.833-26.964,29.142-28.177,48.192" fill="#e87064"/><path d="M5184.873,5659.527c-7.093,0-16.408-.218-30.472-.643-13.463-.409-46.566-3.585-63.128-24.21-9.418-11.726-14.986-27.325-17.526-49.091-.758-6.492-1.234-13.122-1.694-19.535-.774-10.764-1.574-21.9-3.729-32.629l.7-.14c1.242-16.062,10.508-31.742,28.31-47.909a197.093,197.093,0,0,1,235.675-22.036l.256.158.006.3c.325,15.652,5.008,31.1,9.536,46.037,5,16.507,10.177,33.576,9.5,50.994-.343,8.74-2.2,17.472-3.966,24.862-.577,2.41-1.114,4.948-1.634,7.4-2.96,13.978-6.021,28.43-18.632,34.392-32.271,15.255-65.563,25.19-93.747,27.973-8.6.85-14.982,1.566-20.107,2.14C5202.578,5658.9,5196.951,5659.527,5184.873,5659.527Zm-115.316-125.556c2.054,10.563,2.838,21.456,3.595,32,.459,6.4.935,13.019,1.691,19.486,2.514,21.551,8.008,36.971,17.289,48.529,16.276,20.267,48.992,23.394,62.3,23.8,37.939,1.151,41.254.778,59.655-1.285,5.129-.575,11.512-1.291,20.123-2.141,28.06-2.772,61.225-12.67,93.384-27.873,12.117-5.728,15.121-19.91,18.025-33.624.521-2.46,1.06-5,1.64-7.429,1.757-7.338,3.6-16.005,3.936-24.649.674-17.233-4.472-34.211-9.449-50.632-4.521-14.913-9.194-30.332-9.577-46.032a195.99,195.99,0,0,0-234.1,22.069c-17.82,16.186-26.978,31.827-28,47.819Z"/><path d="M5088.981,5566.746a1.1,1.1,0,1,0-1.008,1.961,53.62,53.62,0,0,0,55.856-5.025,1.1,1.1,0,0,0-1.342-1.749,51.414,51.414,0,0,1-53.506,4.813"/><path d="M5111.6,5574.875a52.14,52.14,0,0,1-23.891-5.661,1.673,1.673,0,0,1,1.529-2.975h0a50.845,50.845,0,0,0,52.9-4.758,1.672,1.672,0,1,1,2.035,2.653,52.8,52.8,0,0,1-27.514,10.513Q5114.12,5574.875,5111.6,5574.875Zm-23.125-7.681a.533.533,0,0,0-.245,1.006,53.051,53.051,0,0,0,55.248-4.97.53.53,0,0,0,.1-.746.535.535,0,0,0-.746-.1,51.984,51.984,0,0,1-54.114,4.868h0A.525.525,0,0,0,5088.478,5567.194Z"/><path d="M5179.328,5552.566a1.1,1.1,0,1,0-.747,2.074,53.617,53.617,0,0,0,54.74-12.193,1.1,1.1,0,1,0-1.556-1.562,51.414,51.414,0,0,1-52.437,11.681"/><path d="M5195.762,5558.166a51.215,51.215,0,0,1-17.373-2.99,1.671,1.671,0,0,1-1.008-2.14,1.677,1.677,0,0,1,2.14-1.006h0a50.85,50.85,0,0,0,51.842-11.548,1.672,1.672,0,0,1,2.853,1.187,1.66,1.66,0,0,1-.493,1.182,52.811,52.811,0,0,1-25.928,13.976A55.321,55.321,0,0,1,5195.762,5558.166Zm-16.807-5.1a.533.533,0,0,0-.5.352.526.526,0,0,0,.018.407.534.534,0,0,0,.3.275,53.057,53.057,0,0,0,54.145-12.062.532.532,0,1,0-.753-.753,51.985,51.985,0,0,1-53.03,11.812A.552.552,0,0,0,5178.955,5553.071Z"/><path d="M5170.144,5574.339a1.1,1.1,0,0,0,.419-2.164c-7.31-1.416-15.8-2.417-21.368,2.523a12.4,12.4,0,0,0,3.849,20.883,21.852,21.852,0,0,0,7.894,1.037,89.771,89.771,0,0,0,26.31-4.135,1.1,1.1,0,0,0-.662-2.1,87.286,87.286,0,0,1-25.663,4.033,19.57,19.57,0,0,1-7.1-.9,10.2,10.2,0,0,1-3.165-17.171c4.7-4.17,12.146-3.429,19.487-2.008"/><path d="M5160.479,5597.189a21.61,21.61,0,0,1-7.637-1.075,12.971,12.971,0,0,1-4.026-21.843c5.6-4.966,13.815-4.213,21.855-2.655a1.672,1.672,0,0,1,.618,3.027,1.65,1.65,0,0,1-1.254.256c-7.2-1.394-14.479-2.132-19,1.874a9.628,9.628,0,0,0,2.987,16.212,19.011,19.011,0,0,0,6.9.858,86.669,86.669,0,0,0,25.494-4.006,1.672,1.672,0,1,1,1,3.19,90.12,90.12,0,0,1-26.478,4.161Zm.13-25.6c-4.2,0-8.051.893-11.036,3.54a11.832,11.832,0,0,0,3.672,19.924,20.906,20.906,0,0,0,7.689,1,88.973,88.973,0,0,0,26.142-4.108.533.533,0,1,0-.319-1.016,87.867,87.867,0,0,1-25.83,4.059,20.208,20.208,0,0,1-7.307-.931,10.768,10.768,0,0,1-3.341-18.131c4.891-4.335,12.489-3.591,19.973-2.141h0a.516.516,0,0,0,.4-.082.522.522,0,0,0,.225-.34.532.532,0,0,0-.42-.624A52.942,52.942,0,0,0,5160.609,5571.584Z"/><path d="M5167.3,5622.449a1.1,1.1,0,0,0-.553,2.134c12.5,3.239,25.971,1.261,37.864-3.769s22.611-9.9,32.1-18.654a1.1,1.1,0,0,0-1.494-1.621c-9.146,8.431-19.663,13.251-31.47,18.244-12.4,5.243-25.342,6.545-36.452,3.666"/><path d="M5179.454,5626.719a51.2,51.2,0,0,1-12.848-1.585,1.672,1.672,0,0,1,.838-3.237h0c10.994,2.849,23.806,1.555,36.088-3.638,11.756-4.972,22.224-9.769,31.3-18.139a1.7,1.7,0,0,1,1.2-.441,1.671,1.671,0,0,1,1.064,2.9c-9.476,8.735-20.22,13.664-32.27,18.759A65.607,65.607,0,0,1,5179.454,5626.719Zm-12.429-3.735a.532.532,0,0,0-.135,1.047c11.455,2.968,24.773,1.64,37.5-3.742,11.948-5.054,22.6-9.937,31.941-18.548a.532.532,0,0,0-.339-.923.467.467,0,0,0-.383.14c-9.215,8.5-19.778,13.336-31.634,18.35-12.511,5.291-25.59,6.6-36.816,3.692h0A.557.557,0,0,0,5167.025,5622.984Z"/><path d="M5229.877,5590.774a1.1,1.1,0,1,0-1.547,1.57c3.214,3.166,6.471,6.389,8.678,10.324s3.262,8.748,1.784,13.01a1.1,1.1,0,1,0,2.083.722c1.545-4.456.836-9.854-1.944-14.811-2.377-4.237-5.771-7.581-9.054-10.815"/><path d="M5239.835,5617.713a1.708,1.708,0,0,1-.55-.093,1.676,1.676,0,0,1-1.032-2.128c1.285-3.708.651-8.28-1.742-12.546-2.186-3.9-5.438-7.1-8.581-10.2a1.672,1.672,0,0,1,1.162-2.863h.012a1.655,1.655,0,0,1,1.172.481h0c3.312,3.262,6.736,6.634,9.152,10.943,2.861,5.1,3.584,10.667,1.985,15.276a1.677,1.677,0,0,1-1.578,1.126Zm-10.731-26.686h0a.532.532,0,0,0-.371.911c3.2,3.153,6.511,6.412,8.777,10.451,2.551,4.549,3.217,9.461,1.824,13.476a.532.532,0,0,0,.735.653.525.525,0,0,0,.27-.3c1.493-4.3.8-9.53-1.9-14.346-2.336-4.167-5.7-7.482-8.956-10.688h0A.523.523,0,0,0,5229.1,5591.027Z"/><path d="M5042.241,5464.068c-10.261-36.941-1-79.515,26.2-106.534,8.939-8.879,19.5-15.972,30.462-22.188,55.675-31.576,124.19-40.8,185.5-22.4,18.182,5.454,36.673,14.049,47.006,29.973,4.975,7.667,7.719,16.543,10.077,25.374,1.217,4.559,2.356,9.286,1.665,13.953-.789,5.333-3.888,10.032-7.287,14.217-7.445,9.165-16.659,16.763-26.417,23.411-32.335,22.028-70.424,33.79-108.142,44.187-46.1,12.707-94.633,23.886-141.341,13.621-4.294-.943-8.657-2.114-12.234-4.671s-6.252-6.787-5.825-11.162" fill="#3564da"/><path d="M5098.891,5482.827a181.866,181.866,0,0,1-39.163-4.07c-4.087-.9-8.771-2.088-12.638-4.852-3.96-2.831-6.314-7-6.33-11.094-10.051-38.281.424-79.752,26.909-106.058,7.936-7.883,17.69-14.99,30.7-22.365a248.309,248.309,0,0,1,91.044-30.075c32.394-4.033,65.352-1.413,95.312,7.575,23.286,6.986,38.86,16.939,47.614,30.429,5.265,8.113,8.034,17.514,10.216,25.689,1.3,4.853,2.4,9.606,1.692,14.4-.881,5.951-4.482,11.009-7.522,14.751-6.7,8.243-15.414,15.971-26.652,23.627-32.851,22.379-71.6,34.174-108.47,44.338C5168.363,5474.282,5133.6,5482.826,5098.891,5482.827Zm-55.853-18.98a12.555,12.555,0,0,0,5.334,8.265c3.528,2.521,7.956,3.641,11.83,4.492,46.948,10.318,95.306-1.065,140.811-13.608,36.693-10.114,75.243-21.846,107.814-44.035,11.06-7.534,19.624-15.121,26.183-23.195,2.862-3.523,6.25-8.263,7.052-13.683.647-4.378-.407-8.888-1.64-13.508-2.139-8.011-4.847-17.215-9.936-25.058-8.457-13.034-23.634-22.689-46.4-29.517-59.5-17.853-128.53-9.515-184.636,22.305-12.83,7.276-22.436,14.271-30.229,22.012-25.865,25.689-36.13,66.172-26.413,103.618l.193.019q-.027.291-.035.585c.11.411.222.824.336,1.234Z"/><g opacity="0.11"><path d="M5042.241,5464.068c-10.261-36.941-1-79.515,26.2-106.534,8.939-8.879,19.5-15.972,30.462-22.188,55.675-31.576,124.19-40.8,185.5-22.4,18.182,5.454,36.673,14.049,47.006,29.973,4.975,7.667,7.719,16.543,10.077,25.374,1.217,4.559,2.356,9.286,1.665,13.953-.789,5.333-3.888,10.032-7.287,14.217-7.445,9.165-16.659,16.763-26.417,23.411-32.335,22.028-70.424,33.79-108.142,44.187-46.1,12.707-94.633,23.886-141.341,13.621-4.294-.943-8.657-2.114-12.234-4.671s-6.252-6.787-5.825-11.162" fill="#071f56"/></g><path d="M5174.333,5329.639s.3,25.842-.074,40.581c-.1,3.875-.425,8.249-3.4,10.737-1.857,1.554-4.371,2.011-6.767,2.363a174.674,174.674,0,0,1-41.883,1.069c-2.357-.224-4.852-.554-6.686-2.049s-2.655-3.856-3.231-6.138c-3.149-12.471-1.157-25.594.85-38.3a10.841,10.841,0,0,1,1.657-4.988c1.879-2.472,5.387-2.851,8.488-3.02,17.068-.928,33.426-2.092,50.363-2.7.191.138.472.161.6.362a.694.694,0,0,1,.074.333q.05.992.085,1.985" fill="#071f56"/><path d="M5138.723,5386.274q-8.323,0-16.616-.787c-2.559-.244-5.228-.622-7.279-2.293-2.115-1.726-3.007-4.366-3.6-6.723-3.253-12.884-1.084-26.62.83-38.739a11.892,11.892,0,0,1,1.868-5.484c2.158-2.837,5.935-3.27,9.306-3.453,5.476-.3,10.878-.62,16.25-.94,11.121-.663,22.62-1.348,34.133-1.763l.377-.013.307.221a1.662,1.662,0,0,1,.89.677,1.722,1.722,0,0,1,.236.851c.033.674.062,1.34.086,2.006l-.07,0c.027,2.5.276,26.521-.076,40.411-.107,4.143-.495,8.795-3.793,11.555-2.052,1.717-4.739,2.229-7.314,2.608A175.862,175.862,0,0,1,5138.723,5386.274Zm34.516-57.962c-11.324.414-22.163,1.06-33.628,1.743-5.376.321-10.782.643-16.261.941-2.879.156-6.084.5-7.673,2.586a10.092,10.092,0,0,0-1.445,4.494c-1.881,11.909-4.013,25.409-.869,37.856.506,2.006,1.242,4.235,2.858,5.554,1.574,1.282,3.78,1.586,6.094,1.806a173.509,173.509,0,0,0,41.619-1.062c2.358-.347,4.608-.769,6.22-2.118,2.593-2.17,2.905-6.091,3-9.92.37-14.55.078-40.282.075-40.539l.064,0Q5173.27,5328.982,5173.239,5328.312Z"/><path d="M5174.333,5329.639s.3,25.842-.074,40.581c-.1,3.875-.425,8.249-3.4,10.737-1.857,1.554-4.371,2.011-6.767,2.363a174.674,174.674,0,0,1-41.883,1.069c-2.357-.224-4.852-.554-6.686-2.049s-2.655-3.856-3.231-6.138c-3.149-12.471-1.157-25.594.85-38.3a10.841,10.841,0,0,1,1.657-4.988c1.879-2.472,5.387-2.851,8.488-3.02,17.068-.928,33.426-2.092,50.363-2.7.191.138.472.161.6.362a.694.694,0,0,1,.074.333q.05.992.085,1.985" fill="#071f56"/><path d="M5138.723,5386.274q-8.323,0-16.616-.787c-2.559-.244-5.228-.622-7.279-2.293-2.115-1.726-3.007-4.366-3.6-6.723-3.253-12.884-1.084-26.62.83-38.739a11.892,11.892,0,0,1,1.868-5.484c2.158-2.837,5.935-3.27,9.306-3.453,5.476-.3,10.878-.62,16.25-.94,11.121-.663,22.62-1.348,34.133-1.763l.377-.013.307.221a1.662,1.662,0,0,1,.89.677,1.722,1.722,0,0,1,.236.851c.033.674.062,1.34.086,2.006l-.07,0c.027,2.5.276,26.521-.076,40.411-.107,4.143-.495,8.795-3.793,11.555-2.052,1.717-4.739,2.229-7.314,2.608A175.862,175.862,0,0,1,5138.723,5386.274Zm34.516-57.962c-11.324.414-22.163,1.06-33.628,1.743-5.376.321-10.782.643-16.261.941-2.879.156-6.084.5-7.673,2.586a10.092,10.092,0,0,0-1.445,4.494c-1.881,11.909-4.013,25.409-.869,37.856.506,2.006,1.242,4.235,2.858,5.554,1.574,1.282,3.78,1.586,6.094,1.806a173.509,173.509,0,0,0,41.619-1.062c2.358-.347,4.608-.769,6.22-2.118,2.593-2.17,2.905-6.091,3-9.92.37-14.55.078-40.282.075-40.539l.064,0Q5173.27,5328.982,5173.239,5328.312Z"/><g opacity="0.14"><path d="M5139.039,5382.34c-1.824-1.488-2.655-3.856-3.231-6.138-3.149-12.471-1.157-25.594.849-38.3a10.853,10.853,0,0,1,1.658-4.988c1.879-2.472,5.387-2.852,8.488-3.02,9.32-.507,18.429-1.081,27.536-1.6-.006-.135-.011-.271-.017-.406a.694.694,0,0,0-.074-.333c-.124-.2-.405-.224-.6-.362-16.937.609-33.295,1.773-50.363,2.7-3.1.168-6.609.548-8.488,3.02a10.841,10.841,0,0,0-1.657,4.988c-2.007,12.705-4,25.828-.85,38.3.576,2.282,1.407,4.65,3.231,6.138s4.329,1.825,6.686,2.049a174.736,174.736,0,0,0,28.19.374c-1.56-.106-3.119-.226-4.676-.374C5143.368,5384.165,5140.873,5383.835,5139.039,5382.34Z" fill="#fefff0"/></g><g opacity="0.11"><path d="M5224.225,6113.425l82.054,109.242,27.678-75.931s-81.809-10.532-104.666-47.38C5225.94,6114.4,5224.225,6113.425,5224.225,6113.425Z" fill="#071f56"/></g><g opacity="0.11"><path d="M5560.769,6053.415l-7.1-7.593s-13.226,21.8-20.329,29.638-26.454,32.821-45.8,41.639-30.862,16.656-30.862,16.656l61.969,87.442Z" fill="#071f56"/></g><path d="M5988.513,5282.813a182.319,182.319,0,0,1,1.257-25.205c4.708-41.552,26.626-45.326,49.936-16.815,4.294,4.647,8.455,10.97,12.358,15.445,4.828,4.921,12,1.677,17.854-.221,44.846-15.056,79.4,11.4,40.083,35.117-3.224,2.4-10.786,4.619-10.044,8.213.511,1.71,1.938,2.985,4.355,4.816,27.381,16.979,54.883,57.066,23.259,61.616-12.839,1.489-26.394-4.81-37.693-11.1-7.916-3.668-23.5-18.347-31.628-15.62-2.631.918-4.04,3.6-5.01,5.961-3.721,10.954-4.878,21.325-12.342,31.044-13.108,17.684-40.114,31.9-49.235,1.209-3.417-11.959-4.35-25.45-1.482-37.548.808-3.826-.872-9.65-.467-12.072.443-2.281-.564-3.189-3.85-2.5-4.472.932-9.816,2.463-14.815,3.116-43.235,7.693-54.323-21.243-3.109-39.937,6.845-2.606,14.981-6.152,22.036-6.4" fill="#fed15c"/><path d="M6135.649,5365.042a26,26,0,0,1-7.607,2.158c-13.559,1.564-27.419-4.89-39.04-11.358a76.58,76.58,0,0,1-9.533-5.989c-6.748-4.672-15.89-11.034-20.54-9.481-2.057.723-3.262,3.131-4.091,5.153-1,2.985-1.832,6.043-2.648,9-2.188,7.8-4.294,15.158-9.806,22.316-8.074,11.015-22.029,21.331-34.47,19.624-8.6-1.173-14.65-7.532-17.948-18.884-3.712-13.077-4.171-26.587-1.426-38.088.423-1.982.085-4.72-.213-7.135a19.227,19.227,0,0,1-.246-4.859c.173-.887.024-1.143.01-1.164h0a4.377,4.377,0,0,0-1.866.151c-1.486.309-3.064.684-4.694,1.07a103.3,103.3,0,0,1-10.289,2.063c-23.169,4.149-36.113-2.091-38.507-10.086-2.407-8.2,5.4-21.569,34.653-32.441.836-.318,1.69-.649,2.559-.987,5.384-2.1,11.347-4.443,16.981-5.257a180.445,180.445,0,0,1,1.331-23.327c3.031-25.758,12-33.721,18.981-35.874,9.571-2.976,21.388,3.471,33.648,18.279,2.424,2.625,4.822,5.808,7.156,8.892,1.81,2.38,3.528,4.63,5.2,6.548,3.526,3.591,8.914,1.763,14.107-.009.683-.235,1.355-.466,2.013-.679,27.4-9.121,50.454-3.12,57.274,8.07,5.728,9.275.008,20.368-15.624,29.576a30.961,30.961,0,0,1-3.806,2.2c-2.669,1.375-6,3.092-5.665,4.669.351,1.156,1.5,2.2,3.764,3.913,19.379,12.037,40.168,36.648,37.86,52.251C6142.5,5359.7,6139.936,5362.976,6135.649,5365.042Zm-78.827-26.985a7.312,7.312,0,0,1,.728-.3c6.5-2.185,15.732,4.248,23.974,9.957a75.165,75.165,0,0,0,9.092,5.733c11.163,6.207,24.234,12.339,36.532,10.9,7.51-1.076,11.767-4.341,12.613-9.7,2.135-14.088-17.7-37.762-36.317-49.336-2.511-1.893-4.38-3.448-5.046-5.695-.742-3.588,3.4-5.727,7.038-7.608a28.309,28.309,0,0,0,3.482-2.01l.137-.091c14.235-8.379,19.711-18.1,14.906-25.914-6.1-10.039-27.577-15.2-53.488-6.633-.644.209-1.3.433-1.973.661-5.587,1.9-12.569,4.246-17.566-.849-1.792-2.046-3.533-4.331-5.367-6.748-2.287-3.025-4.633-6.147-7-8.712-11.315-13.674-22.319-19.969-30.544-17.431-8.645,2.644-14.567,14.507-16.741,33.4a180.692,180.692,0,0,0-1.2,25.048l-.108.006,0,.573c-5.891.2-12.779,2.9-18.887,5.272-.88.34-1.744.674-2.588.992-25.54,9.481-34.873,21.417-32.587,29.121,2,6.618,13.82,12.042,34.85,8.243a100.546,100.546,0,0,0,9.963-2.016c1.663-.4,3.275-.781,4.787-1.1.818-.173,3.315-.7,4.851.474a3.439,3.439,0,0,1,.982,3.543,19.507,19.507,0,0,0,.283,4.174c.329,2.595.7,5.537.2,7.921-2.626,11.173-2.124,24.3,1.531,37.029,2.94,10.029,8.174,15.834,15.1,16.776,10.716,1.463,23.637-8.488,30.93-18.417,5.268-6.823,7.337-13.964,9.486-21.539.834-2.983,1.69-6.071,2.744-9.194C6052.611,5342.171,6054.062,5339.368,6056.822,5338.057Z"/><path d="M6181.841,5232.977a155.948,155.948,0,0,1,9.975-13.086c16.77-20.958,29.315-15.477,31.594,7.372.573,3.812.434,8.41.825,11.959.7,4.055,5.768,4.772,9.653,5.756,30.775,7.824,40.064,31.9,7.874,30-2.778.107-7.849-1.231-8.948.715-.441.973-.2,2.025.343,3.648,7.719,16.42,4.652,42.832-14.866,35.6-7.6-3.023-11.9-9.838-14.994-16.043-2.5-4.021-4.114-15.6-9.492-16.633-1.749-.313-3.638.591-5.168,1.468-6.732,4.3-11.973,9.028-20.137,11.714-14.672,5.124-34.424,5.136-24.5-12.58a67.183,67.183,0,0,1,15.748-19.591c2-1.751,3.637-5.24,4.839-6.383,1.157-1.06,1.047-1.819-.814-2.393-2.519-.779-5.688-1.482-8.317-2.54-23.023-7.76-16.344-26.747,14.379-22.214,4.259.64,9.526,1.192,13.052,3.2" fill="#fed15c"/><path d="M6223.025,5316.961a20.5,20.5,0,0,1-5.145-1.231c-8.025-3.189-12.4-10.154-15.57-16.529a31.137,31.137,0,0,1-2.291-5.589c-1.432-4.188-3.367-9.913-6.438-10.5-1.371-.241-3.04.587-4.351,1.337-1.821,1.172-3.6,2.426-5.325,3.636-4.6,3.186-8.989,6.181-15.02,8.154-9.1,3.193-20.761,4.56-25.964.489-3.562-2.806-3.487-7.554.137-14.142a68.266,68.266,0,0,1,16.007-19.877,18.915,18.915,0,0,0,2.9-3.755,15.406,15.406,0,0,1,1.905-2.594c.45-.413.484-.588.486-.6h0c-.006,0-.142-.2-.957-.45-.838-.259-1.746-.51-2.683-.767a54.173,54.173,0,0,1-5.724-1.805c-12.474-4.205-15.8-11.119-13.649-16.136,2.175-5.173,10.922-10.317,28.705-7.679.518.078,1.05.154,1.593.231a43.066,43.066,0,0,1,10.175,2.3c3.088-4.422,6.5-8.871,9.288-12.083,10.576-12.952,17.819-14.275,22.121-13.076,5.963,1.669,9.927,9.1,11.126,20.921a65.767,65.767,0,0,1,.528,6.926c.075,1.806.146,3.512.315,5.032.517,2.963,4.092,3.81,7.562,4.635.459.108.91.215,1.347.327,18.586,4.711,29.29,15.416,28.694,22.97-.528,6.226-8.387,9.494-20.969,8.768a26.177,26.177,0,0,1-3.02-.171c-2.041-.194-4.58-.428-5.062.425-.294.659-.108,1.512.406,3.035,5.481,11.673,6.017,29.3-2.467,35.642A12.274,12.274,0,0,1,6223.025,5316.961Zm-29.517-35.593a4.945,4.945,0,0,1,.5.064c4.3.827,6.27,6.627,8.037,11.754a30.659,30.659,0,0,0,2.194,5.349c3.069,6.134,7.2,12.74,14.488,15.638,4.584,1.7,8.44,1.469,11.406-.7,7.672-5.733,7.284-22.645,2.06-33.85-.566-1.681-.927-3-.345-4.282,1.1-1.945,4.249-1.656,7.029-1.4a23.638,23.638,0,0,0,2.756.159h.114c11.426.659,18.551-2.07,19.01-7.317.56-6.773-9.536-16.505-27.087-20.957-.428-.108-.87-.214-1.32-.321-3.732-.887-8.357-1.985-9.071-6.181-.178-1.622-.243-3.353-.313-5.186a65.307,65.307,0,0,0-.493-6.782c-1.07-10.9-4.632-17.956-9.749-19.389-5.316-1.483-12.393,2.965-20.192,12.443a153.911,153.911,0,0,0-9.9,13l-.055-.03-.22.3c-2.943-1.678-7.3-2.309-11.125-2.862-.549-.079-1.087-.155-1.611-.235-15.573-2.318-24.486,1.576-26.513,6.432-1.764,4.155,1.414,10.339,12.756,14.163a52.638,52.638,0,0,0,5.546,1.746c.956.263,1.883.519,2.737.783.463.142,1.879.578,2.134,1.627.241.989-.687,1.841-.993,2.12a15.376,15.376,0,0,0-1.6,2.243,20.045,20.045,0,0,1-3.24,4.149,65.83,65.83,0,0,0-15.5,19.315c-3.179,5.821-3.37,10.084-.493,12.35,4.491,3.516,15.449,2.052,23.632-.834,5.739-1.887,10-4.8,14.466-7.9,1.744-1.223,3.539-2.491,5.446-3.719A9.985,9.985,0,0,1,6193.508,5281.368Z"/><path d="M5062.633,5532.487c-3.466.94-7.195-1.027-9.4-3.867s-3.194-6.4-4.141-9.867q-5.619-20.556-11.237-41.114c-.728-2.662-1.437-5.593-.273-8.1,2.025-4.35,8.009-4.591,12.795-4.249,88.688,6.352,180.5-12.485,254.631-61.583,14.487-9.595,28.737-20.868,36.307-36.509,1.827-3.775,4.2-8.432,8.394-8.377,4.138.054,6.436,4.714,7.677,8.662a245.513,245.513,0,0,1,10.244,50.908c.576,6.209.864,12.737-1.742,18.4-2.6,5.649-7.725,9.675-12.834,13.217-19.418,13.463-41.162,23.167-63.029,32.119-50.994,20.874-103.6,38.139-157.653,48.84-23.268,4.606-47.635,7.947-70.461,1.5" fill="#3564da"/><path d="M5089.751,5537.146a103.515,103.515,0,0,1-27.515-3.441c-3.917.7-7.725-1.644-9.869-4.41-2.367-3.057-3.411-6.88-4.333-10.251L5036.8,5477.93c-.844-3.087-1.494-6.088-.208-8.851,2.373-5.1,9.049-5.227,13.872-4.883,93.824,6.716,184.013-15.088,253.945-61.4,13.439-8.9,28.216-20.147,35.923-36.07,1.737-3.589,4.356-9,9.31-9h.089c2.634.035,6.284,1.7,8.716,9.434a246.885,246.885,0,0,1,10.29,51.137c.56,6.025.926,12.957-1.839,18.964-2.673,5.814-7.928,10-13.208,13.663-19.637,13.616-42,23.538-63.238,32.232-56.186,23-107.82,39-157.856,48.9C5118.6,5534.824,5104.092,5537.146,5089.751,5537.146Zm-27.4-5.7c22.509,6.32,46.854,2.987,69.811-1.556,49.9-9.878,101.4-25.834,157.449-48.779,21.124-8.648,43.355-18.509,62.819-32,4.678-3.243,9.886-7.173,12.461-12.772,2.535-5.512,2.179-12.1,1.645-17.839a244.557,244.557,0,0,0-10.2-50.68c-1.123-3.575-3.188-7.845-6.64-7.89h-.059c-3.3,0-5.349,3.668-7.327,7.756-7.939,16.4-23,27.882-36.692,36.948-70.333,46.582-161.016,68.517-255.318,61.764-6.625-.472-10.348.673-11.717,3.614-.971,2.087-.4,4.662.337,7.339l11.238,41.114c.867,3.175,1.849,6.772,3.949,9.483,1.794,2.315,4.967,4.276,8.093,3.515l.013-.049.086.024.043-.012Z"/><g opacity="0.29"><path d="M5129.054,5627.778c-26.293-19.109-42.991-49.158-51.918-80.411s-8.6-64.513-10.364-96.969h-.508c0-66.226,16.516-124.608,70.061-170.616,14.888-12.793,31.62-23.311,49.008-32.419,30.977-16.225,65.779-27.788,100.6-31.318-48.371-5.274-99.869,8.356-143.708,31.318-17.388,9.108-34.12,19.626-49.008,32.419-53.545,46.008-70.061,104.39-70.061,170.616h.508c1.763,32.456,1.437,65.715,10.364,96.969s25.625,61.3,51.918,80.411c22.4,16.281,50.127,23.56,77.575,27.231a345.545,345.545,0,0,0,67.131,2.332q-12.045-.75-24.022-2.332C5179.181,5651.338,5151.455,5644.059,5129.054,5627.778Z" fill="#fff"/></g><path d="M5259.9,5158.9a139.318,139.318,0,0,0-145.275,128.729c-.553,7.353-.047,15.82,5.682,20.462,4.494,3.642,10.8,3.736,16.585,3.658l28.684-.387c2.253-.031,4.713-.136,6.416-1.612,1.761-1.527,2.178-4.049,2.536-6.352a160.993,160.993,0,0,1,54.979-97.595c29.215-24.54,57.9-33.521,96.043-32.774-30.7-10.451-42.487-10.658-68.519-13.721" fill="#3564da"/><path d="M5135.108,5312.866c-5.809,0-11.291-.508-15.5-3.916-6.5-5.271-6.589-14.738-6.087-21.4A140.423,140.423,0,0,1,5259.948,5157.8l-.034.736c2.484.285,4.839.546,7.1.8,19.407,2.155,32.228,3.578,58.888,12.654l6.711,2.284-7.087-.138c-38.76-.758-67.274,8.965-95.312,32.516a160.4,160.4,0,0,0-54.6,96.92c-.36,2.316-.807,5.2-2.9,7.015-1.932,1.675-4.473,1.846-7.125,1.882l-28.683.387Q5136,5312.865,5135.108,5312.866Zm118.615-153a138.209,138.209,0,0,0-138,127.851c-.738,9.8.939,16.007,5.277,19.523,4.064,3.294,9.833,3.5,15.876,3.411l28.683-.387c2.228-.03,4.341-.155,5.71-1.342,1.486-1.288,1.848-3.626,2.168-5.688a162.636,162.636,0,0,1,55.36-98.27c26.783-22.5,53.976-32.575,89.844-33.056-22.025-7.068-33.647-8.358-51.87-10.381-3.084-.342-6.346-.7-9.87-1.119l.059-.5C5255.882,5159.876,5254.8,5159.863,5253.723,5159.863Z"/><g opacity="0.15"><path d="M5140.88,5305.154c-5.73-4.643-6.236-13.109-5.683-20.462a138.994,138.994,0,0,1,109.455-125.611,139.233,139.233,0,0,0-130.029,128.55c-.553,7.353-.047,15.82,5.682,20.462,4.494,3.642,10.8,3.736,16.585,3.658l28.684-.387c2.253-.031,4.713-.136,6.416-1.612a5.279,5.279,0,0,0,.974-1.15l-15.5.21C5151.681,5308.89,5145.374,5308.8,5140.88,5305.154Z" fill="#a6c4ff"/></g><g opacity="0.65"><path d="M5082.366,5535.836a100.87,100.87,0,0,1-12.461-66.545l1.087.178a99.751,99.751,0,0,0,12.323,65.808Z" fill="#fff"/><path d="M5129.394,5531.917a100.866,100.866,0,0,1-12.462-66.546l1.088.179a99.754,99.754,0,0,0,12.323,65.807Z" fill="#fff"/><path d="M5184.3,5519.188a86.27,86.27,0,0,1-12.942-62.154l1.085.2a85.159,85.159,0,0,0,12.778,61.351Z" fill="#fff"/><path d="M5231.631,5498.884c-.65-5.628-2.816-10.988-4.911-16.172l-9.858-24.4c-1.254-3.1-2.676-6.622-5.179-9.123l.78-.78c2.66,2.661,4.126,6.289,5.421,9.489l9.859,24.4c2.121,5.252,4.316,10.683,4.983,16.458Z" fill="#fff"/><path d="M5269.407,5488.987l-1.1-.061c.433-7.739-2.8-15.162-5.934-22.341-.764-1.751-1.525-3.5-2.233-5.243-3.7-9.117-6.085-18.8-8.39-28.16l1.07-.264c2.3,9.325,4.669,18.966,8.34,28.01.706,1.737,1.464,3.475,2.223,5.216C5266.566,5473.442,5269.855,5480.987,5269.407,5488.987Z" fill="#fff"/><path d="M5302.52,5476.447c-1.62-6.113-2.723-12.438-3.791-18.554-.709-4.069-1.443-8.277-2.323-12.376-1.691-7.89-4.745-19.453-11.7-28.734l.883-.661c7.086,9.455,10.184,21.173,11.9,29.164.883,4.12,1.619,8.338,2.33,12.417,1.064,6.094,2.163,12.4,3.771,18.462Z" fill="#fff"/><path d="M5341.794,5458.181a129.277,129.277,0,0,0-12.338-48.565l-.815-1.688c-2.692-5.557-5.476-11.3-4.833-17.448l1.1.115c-.61,5.833,2.1,11.435,4.729,16.852l.817,1.694a130.371,130.371,0,0,1,12.444,48.983Z" fill="#fff"/></g><path d="M4821.48,5976.5c-6.569,21.37,10.564,42.385,27.73,56.708,76.884,64.152,177.649,90.528,275.307,112.652,22.6,5.121,47.1,9.95,68.262.487,18.742-8.382,31.485-27.09,36.512-47s3.189-40.946-.932-61.059a277,277,0,0,0-31.629-83.106c-3.062-5.284-6.387-10.569-11.118-14.431-16-13.062-41.093-4.422-55.187,10.678s-21.694,35.148-34.551,51.315c-3.621-9.055-13.445-13.653-22.212-17.925a261.276,261.276,0,0,1-98.843-84.263c-14.554,35.185-45.426,60.52-75.133,84.339-10.75,8.618-23.958,13.462-34.708,22.081-32.051,25.7-40.183-7.957-43.488-30.452Z" fill="#3564da"/><path d="M5165.167,6152.851c-13.119,0-26.876-2.736-40.894-5.911-97.577-22.1-199.247-49.03-275.77-112.881-13.633-11.375-35.411-34.022-28.077-57.878l.937-3.049,1.218,3.241c2.078,14.147,6.132,33.463,17.294,37.851,6.369,2.5,14.587-.22,24.413-8.1,5.447-4.366,11.576-7.81,17.5-11.142,5.851-3.287,11.9-6.687,17.2-10.939,28.124-22.55,60-48.108,74.8-83.9l.767-1.854,1.154,1.642a259.468,259.468,0,0,0,98.424,83.906l.646.314c8.085,3.936,17.18,8.362,21.333,16.489,5.185-6.77,9.6-14.278,13.875-21.554,5.759-9.8,11.715-19.93,19.62-28.4,14.536-15.576,40.343-24.125,56.691-10.78,4.967,4.055,8.343,9.5,11.374,14.731a277.012,277.012,0,0,1,31.755,83.438c5.031,24.558,5.324,44.115.922,61.55-5.55,21.972-19.431,39.816-37.132,47.733C5184.339,6151.334,5174.929,6152.85,5165.167,6152.851Zm-343.82-170.286c-2.247,20.533,16.475,39.711,28.568,49.8,76.148,63.537,177.53,90.377,274.845,112.423,24.071,5.452,47.349,9.6,67.569.556,17.09-7.643,30.509-24.937,35.894-46.26,4.318-17.1,4.019-36.347-.943-60.568a274.772,274.772,0,0,0-31.5-82.774c-2.928-5.054-6.18-10.309-10.861-14.13-15.356-12.536-39.823-4.273-53.684,10.576-7.74,8.292-13.632,18.318-19.332,28.013-4.617,7.857-9.393,15.981-15.163,23.235l-1.18,1.486-.706-1.763c-3.373-8.437-12.347-12.8-21.024-17.028l-.647-.314a261.716,261.716,0,0,1-98.117-83c-15.33,35.352-46.836,60.616-74.686,82.948-5.446,4.366-11.575,7.81-17.5,11.141-5.85,3.288-11.9,6.687-17.2,10.94-10.49,8.409-19.444,11.242-26.6,8.43C4828.408,6012.084,4823.786,5996.282,4821.347,5982.565Z"/><g opacity="0.11"><path d="M4974.819,5929.957a261.259,261.259,0,0,0,98.843,84.263c8.767,4.272,18.591,8.87,22.212,17.925,12.857-16.166,20.457-36.215,34.551-51.314s39.187-23.741,55.187-10.679c4.731,3.863,8.056,9.148,11.118,14.432a276.987,276.987,0,0,1,31.629,83.1c1.338,6.528,2.428,13.154,3.128,19.807,2.012-16.286.183-33.041-3.128-49.2a277,277,0,0,0-31.629-83.106c-3.062-5.284-6.387-10.569-11.118-14.431-16-13.063-41.093-4.422-55.187,10.678s-21.694,35.148-34.551,51.314c-3.621-9.054-13.445-13.652-22.212-17.924a261.276,261.276,0,0,1-98.843-84.263" fill="#071f56"/></g><path d="M5180.823,5773.135l27.048,100.73a14.549,14.549,0,0,0,18.21,10.168L5408.5,5833.4c7.776-2.32,17.808-16.027,15.379-23.769L5394.194,5715a14.549,14.549,0,0,0-17.669-9.692l-184.072,51.2C5184.7,5758.6,5201.1,5754.685,5180.823,5773.135Z" fill="#071f56"/><path d="M5221.9,5884.935a14.861,14.861,0,0,1-14.3-11l-27.094-100.9.13-.117c8.845-8.048,10.622-11.8,10.555-13.524a1.917,1.917,0,0,0-.89-1.546c-.222-.173-.431-.336-.379-.6.07-.346.436-.471,2.461-1.017l184.068-51.2a14.794,14.794,0,0,1,18.018,9.88l29.686,94.625c.919,2.93.163,6.922-2.132,11.24-3.249,6.114-8.9,11.535-13.437,12.888l-182.425,50.639A14.888,14.888,0,0,1,5221.9,5884.935Zm-40.753-111.707,27,100.563A14.263,14.263,0,0,0,5226,5883.76l182.425-50.639c4.4-1.312,9.907-6.615,13.09-12.607,2.223-4.183,2.965-8.019,2.093-10.8l-29.686-94.625a14.227,14.227,0,0,0-17.323-9.5l-184.069,51.2c-.683.184-1.572.424-1.937.576.017.015.036.029.054.043a2.473,2.473,0,0,1,1.109,1.974C5191.86,5762.051,5188.29,5766.71,5181.144,5773.228Z"/><path d="M5371.288,5730.392c5.8-6.834,11.54-13.7,17.539-20.369.735-.816-.471-2.029-1.209-1.209-6,6.666-11.735,13.535-17.539,20.369-.709.835.5,2.05,1.209,1.209Z"/><path d="M5405.119,5838.774c6.9-7.659,13.621-15.594,19.882-23.783.668-.874-.816-1.727-1.476-.863-6.172,8.072-12.815,15.888-19.615,23.437-.735.815.471,2.028,1.209,1.209Z"/><path d="M5173.452,5784.121c6.683-8.172,12.627-16.917,19.317-25.084.692-.844-.511-2.061-1.209-1.209-6.69,8.167-12.634,16.913-19.317,25.084-.691.845.512,2.062,1.209,1.209Z"/><path d="M5172.847,5783.517c6.051-7.377,12.687-17.011,19.318-25.084" fill="#231f20"/><path d="M5171.867,5793.875l26.074,97.1a14.023,14.023,0,0,0,17.553,9.8l181.3-54.09a14.023,14.023,0,0,0,9.372-17.636l-28.617-91.216a14.023,14.023,0,0,0-17.032-9.342l-178.757,48.2A14.023,14.023,0,0,0,5171.867,5793.875Z" fill="#3564da"/><path d="M5211.46,5901.657a14.335,14.335,0,0,1-13.794-10.607l-26.074-97.1a14.33,14.33,0,0,1,10.094-17.526l178.756-48.2a14.272,14.272,0,0,1,17.379,9.532l28.616,91.216a14.308,14.308,0,0,1-9.561,18l-181.3,54.089A14.378,14.378,0,0,1,5211.46,5901.657ZM5172.142,5793.8l26.074,97.1a13.738,13.738,0,0,0,17.2,9.6l181.3-54.09a13.737,13.737,0,0,0,9.181-17.278l-28.616-91.216a13.7,13.7,0,0,0-16.687-9.152l-178.756,48.2A13.757,13.757,0,0,0,5172.142,5793.8Z"/><path d="M5306.95,5770.782c-8.061-.2-15.71,3.436-22.6,7.615a133.308,133.308,0,0,0-41.084,39.038c-4.689,6.916-8.8,14.493-9.917,22.773s1.223,17.4,7.626,22.772c5.493,4.606,13.238,5.859,20.309,4.681s13.59-4.536,19.677-8.323a138.252,138.252,0,0,0,34.05-29.965c8.889-10.9,16.287-23.77,17.115-37.813.266-4.518-.226-9.276-2.688-13.074-4.8-7.4-14-8.173-22.806-7.658" fill="#071f56"/><path d="M5305.527,5842.344a139.477,139.477,0,0,1-23.636,18.5c-5.3,3.295-12.391,7.245-20.321,8.567-8.318,1.386-16.241-.462-21.737-5.071-6.391-5.357-9.549-14.693-8.243-24.364,1.267-9.383,6.12-17.5,10.206-23.53a135.528,135.528,0,0,1,41.632-39.559c6.241-3.782,14.56-8.095,23.566-7.87v.022c8.393-.448,18.548.2,23.924,8.489,2.347,3.617,3.319,8.242,2.971,14.14-.743,12.585-6.47,25.286-17.51,38.828A140.187,140.187,0,0,1,5305.527,5842.344Zm-43.75-44.237a131.045,131.045,0,0,0-17.051,20.322c-5.747,8.475-8.717,15.265-9.629,22.017-1.145,8.478,1.541,16.593,7.01,21.178,4.634,3.885,11.692,5.49,18.881,4.292,7.317-1.22,14.015-4.959,19.033-8.081a135.848,135.848,0,0,0,33.613-29.581c10.555-12.944,16.024-24.981,16.721-36.8.3-5.118-.486-9.045-2.407-12.007-4.484-6.913-13.7-7.3-21.218-6.855l0-.047c-8.022-.138-15.68,3.857-21.465,7.363A131.381,131.381,0,0,0,5261.777,5798.107Z"/><path d="M5205.554,5808.741c2.522-.482,4.359-2.822,5.025-5.3a20.742,20.742,0,0,0,.1-7.657,20.209,20.209,0,0,0,5.386,5.569c2.224,1.345,5.242,1.72,7.361.214a11.485,11.485,0,0,0-5.429,7.245,16.32,16.32,0,0,0,.5,9.171,24.165,24.165,0,0,0-5.546-7.084c-2.374-1.863-5.636-2.859-8.472-1.83l1.926-.785" fill="#fed15c"/><path d="M5222.013,5825.736l-4.277-7.309a23.5,23.5,0,0,0-5.329-6.835c-1.879-1.474-4.869-2.694-7.625-1.695l-.635-1.651,1.926-.785.076.189a6.637,6.637,0,0,0,3.575-4.441,19.934,19.934,0,0,0,.075-7.33l-.362-3.248,1.952,2.622a19.433,19.433,0,0,0,5.133,5.34,6.365,6.365,0,0,0,5.773.613c.231-.149.468-.289.71-.42l.934,1.5a6.083,6.083,0,0,1-.751.453,10.828,10.828,0,0,0-4.335,6.291,15.373,15.373,0,0,0,.486,8.671Zm-13.142-17.749a11.442,11.442,0,0,1,4.629,2.213,17.619,17.619,0,0,1,3.211,3.372,15.555,15.555,0,0,1,.429-4.985,13.02,13.02,0,0,1,2.658-5.18,9.2,9.2,0,0,1-4.192-1.3,15.442,15.442,0,0,1-3.769-3.389,15.784,15.784,0,0,1-.4,4.95A8.957,8.957,0,0,1,5208.871,5807.987Z"/><path d="M5352.18,5809.9c2.523-.482,4.36-2.823,5.025-5.3a20.719,20.719,0,0,0,.1-7.657,20.244,20.244,0,0,0,5.386,5.568c2.225,1.345,5.243,1.72,7.362.215a11.479,11.479,0,0,0-5.429,7.244,16.324,16.324,0,0,0,.5,9.172,24.176,24.176,0,0,0-5.546-7.085c-2.374-1.863-5.636-2.859-8.473-1.83l1.927-.785" fill="#fed15c"/><path d="M5368.637,5826.886l-4.275-7.305a23.482,23.482,0,0,0-5.329-6.835c-1.878-1.475-4.868-2.7-7.625-1.7l-.635-1.652,1.926-.784.078.189a6.641,6.641,0,0,0,3.574-4.442,19.968,19.968,0,0,0,.075-7.329l-.362-3.249,1.952,2.623a19.422,19.422,0,0,0,5.133,5.339,6.366,6.366,0,0,0,5.773.614c.231-.15.468-.29.71-.42l.933,1.5a5.969,5.969,0,0,1-.75.453,10.849,10.849,0,0,0-4.335,6.292,15.38,15.38,0,0,0,.485,8.671Zm-13.14-17.746a11.428,11.428,0,0,1,4.629,2.214,17.564,17.564,0,0,1,3.211,3.372,15.55,15.55,0,0,1,.43-4.985,13.027,13.027,0,0,1,2.657-5.181,9.189,9.189,0,0,1-4.191-1.3,15.462,15.462,0,0,1-3.77-3.389,15.808,15.808,0,0,1-.4,4.95A8.884,8.884,0,0,1,5355.5,5809.14Z"/></g></svg>