<svg xmlns="http://www.w3.org/2000/svg" viewBox="0 0 131.902 118.354">
  <path id="star" d="M3772.251,7511.325c-2.381-14.091-5.665-21.983-10.744-35.341a33.493,33.493,0,0,0-4.493-8.84c-6.125-7.872-42.35-17.092-52.321-17.324l-.24.052c9.974.064,43.953-4.1,50.308-11.782a33.48,33.48,0,0,0,4.753-8.7c5.472-13.2,8.821-22.4,11.618-36.416h.1a166.72,166.72,0,0,0,10.937,35.687,33.5,33.5,0,0,0,4.753,8.7c6.355,7.687,39.364,13.27,49.338,13.206l.093-.052c-9.971.232-44.545,9.754-50.67,17.626a33.46,33.46,0,0,0-4.492,8.84c-5.08,13.357-6.205,20.253-8.586,34.344" transform="translate(-3704.453 -7392.971)" fill="#fefff0"/>
</svg>
