<svg xmlns="http://www.w3.org/2000/svg" width="29.087" height="26.382" viewBox="0 0 29.087 26.382">
  <g id="heart_over" transform="translate(-786.456 -390.467)" opacity="0.5">
    <g id="União_2" data-name="União 2" transform="translate(2785.814 418.879)" fill="#fff">
      <path d="M -1984.811279296875 -3.454400300979614 L -1985.527221679688 -4.17326021194458 L -1994.41748046875 -13.10035991668701 L -1995.11669921875 -13.80254077911377 L -1995.112426757812 -13.8068675994873 L -1996.249877929688 -14.94895076751709 C -1999.073120117188 -17.7846508026123 -1999.060424804688 -22.41030120849609 -1996.221801757812 -25.26037979125977 C -1994.840698242188 -26.6476001739502 -1993.006591796875 -27.41164970397949 -1991.057373046875 -27.41164970397949 C -1989.122802734375 -27.41164970397949 -1987.306274414062 -26.65719032287598 -1985.9423828125 -25.28725051879883 L -1984.81494140625 -24.15518379211426 L -1983.687622070312 -25.28730964660645 C -1982.3232421875 -26.65723991394043 -1980.50634765625 -27.41164970397949 -1978.57177734375 -27.41164970397949 C -1976.62255859375 -27.41164970397949 -1974.788208007812 -26.64764976501465 -1973.406494140625 -25.26037979125977 C -1970.568237304688 -22.40974998474121 -1970.556640625 -17.78411102294922 -1973.38037109375 -14.94893074035645 L -1974.5107421875 -13.81365966796875 L -1974.5107421875 -13.81362056732178 L -1975.212646484375 -13.10216045379639 L -1984.102783203125 -4.175060272216797 L -1984.367553710938 -3.909212827682495 L -1984.811279296875 -3.454400300979614 Z" stroke="none"/>
      <path d="M -1984.818603515625 -4.878900527954102 L -1984.814208984375 -4.883410453796387 L -1984.811401367188 -4.88070011138916 L -1975.921264648438 -13.80780029296875 L -1975.924560546875 -13.81107997894287 L -1974.0888671875 -15.65460014343262 C -1971.648071289062 -18.10530090332031 -1971.66064453125 -22.089599609375 -1974.114990234375 -24.55470085144043 C -1976.5703125 -27.01978874206543 -1980.538330078125 -27.03241348266602 -1982.97900390625 -24.58170127868652 L -1984.81494140625 -22.73800086975098 L -1986.651000976562 -24.58170127868652 C -1989.091064453125 -27.03243255615234 -1993.059204101562 -27.01976776123047 -1995.513305664062 -24.55470085144043 C -1997.968505859375 -22.089599609375 -1997.981201171875 -18.10530090332031 -1995.541259765625 -15.65460014343262 L -1993.70458984375 -13.81033039093018 L -1993.708862304688 -13.80600070953369 L -1984.818603515625 -4.878900527954102 M -1984.803955078125 -2.029900312423706 L -1996.524536132812 -13.79909038543701 L -1996.520263671875 -13.8034143447876 L -1996.958374023438 -14.24330997467041 C -2000.169189453125 -17.46821975708008 -2000.156494140625 -22.7269401550293 -1996.930419921875 -25.9660701751709 C -1995.3603515625 -27.54302978515625 -1993.274536132812 -28.41164970397949 -1991.057373046875 -28.41164970397949 C -1988.854858398438 -28.41164970397949 -1986.78662109375 -27.55261993408203 -1985.233642578125 -25.99279975891113 L -1984.81494140625 -25.57236862182617 L -1984.396240234375 -25.992919921875 C -1982.8427734375 -27.55270957946777 -1980.774291992188 -28.41164970397949 -1978.57177734375 -28.41164970397949 C -1976.354736328125 -28.41164970397949 -1974.268676757812 -27.54311943054199 -1972.697875976562 -25.9660701751709 C -1969.47216796875 -22.72620010375977 -1969.460571289062 -17.46747970581055 -1972.671752929688 -14.24324989318848 L -1973.097045898438 -13.81624317169189 L -1973.096923828125 -13.81617069244385 L -1974.504150390625 -12.39652061462402 L -1983.655151367188 -3.207442998886108 L -1984.803955078125 -2.029900312423706 Z" stroke="none" fill="#000"/>
    </g>
    <path id="Caminho_1404" data-name="Caminho 1404" d="M2783.688,400.991s-2.668,3.086,5.126,9.991" transform="translate(-1991 -4)" fill="none" stroke="#fff" stroke-linecap="round" stroke-width="2" opacity="0.5"/>
    <path id="Caminho_1405" data-name="Caminho 1405" d="M2842.244,419.285l-3.264,3.4,3.672,2.448-3.672,3.06,1.567.813" transform="translate(-2040 -25.766)" fill="none" stroke="#000" stroke-width="2"/>
    <path id="Caminho_1406" data-name="Caminho 1406" d="M2.07-.225l.054,2.085.307,3.1L.026,2.24Z" transform="translate(802.776 403.352) rotate(124)"/>
  </g>
</svg>
